G04 #@! TF.GenerationSoftware,KiCad,Pcbnew,5.0.1-33cea8e~68~ubuntu16.04.1*
G04 #@! TF.CreationDate,2018-12-19T12:21:55-05:00*
G04 #@! TF.ProjectId,SmallKat Battery Charger,536D616C6C4B61742042617474657279,rev?*
G04 #@! TF.SameCoordinates,Original*
G04 #@! TF.FileFunction,Copper,L2,Inr,Signal*
G04 #@! TF.FilePolarity,Positive*
%FSLAX46Y46*%
G04 Gerber Fmt 4.6, Leading zero omitted, Abs format (unit mm)*
G04 Created by KiCad (PCBNEW 5.0.1-33cea8e~68~ubuntu16.04.1) date Wed 19 Dec 2018 12:21:55 PM EST*
%MOMM*%
%LPD*%
G01*
G04 APERTURE LIST*
G04 #@! TA.AperFunction,ViaPad*
%ADD10C,0.400000*%
G04 #@! TD*
G04 #@! TA.AperFunction,Conductor*
%ADD11C,0.150000*%
G04 #@! TD*
G04 #@! TA.AperFunction,Conductor*
%ADD12C,0.254000*%
G04 #@! TD*
G04 APERTURE END LIST*
D10*
G04 #@! TO.N,Net-(C1-Pad1)*
X9661069Y-13065373D03*
X8850000Y-14050000D03*
G04 #@! TO.N,PHASE*
X10700000Y-18200000D03*
X15775000Y-14050000D03*
G04 #@! TO.N,GND*
X21450000Y-31800000D03*
X20600000Y-32375000D03*
X22325000Y-32375000D03*
X22325000Y-31300000D03*
X20675000Y-31375000D03*
X12000000Y-16400000D03*
X12100000Y-14650000D03*
X32700000Y-36025000D03*
X32700000Y-36625000D03*
X32700000Y-37825000D03*
X32100000Y-37825000D03*
X33300000Y-37825000D03*
X33300000Y-37225000D03*
X32100000Y-37225000D03*
X32100000Y-36625000D03*
X33300000Y-36625000D03*
X33300000Y-36025000D03*
X32100000Y-36025000D03*
X6900000Y-11800000D03*
X4000000Y-3800000D03*
X4600000Y-3800000D03*
X5200000Y-3800000D03*
X5800000Y-3800000D03*
X6400000Y-3800000D03*
X7000000Y-3800000D03*
X7000000Y-4400000D03*
X6400000Y-4400000D03*
X5800000Y-4400000D03*
X5200000Y-4400000D03*
X4600000Y-4400000D03*
X4000000Y-4400000D03*
X4000000Y-5000000D03*
X4600000Y-5000000D03*
X5200000Y-5000000D03*
X5800000Y-5000000D03*
X6400000Y-5000000D03*
X7000000Y-5000000D03*
X44300000Y-18200000D03*
X44300000Y-18800000D03*
X44300000Y-19400000D03*
X44900000Y-19400000D03*
X44900000Y-20000000D03*
X45500000Y-20000000D03*
X45500000Y-19400000D03*
X45500000Y-18800000D03*
X44900000Y-18800000D03*
X44900000Y-18200000D03*
X45500000Y-18200000D03*
X44725000Y-27750000D03*
X45325000Y-27750000D03*
X45325000Y-28350000D03*
X44125000Y-27150000D03*
X44725000Y-28950000D03*
X45325000Y-27150000D03*
X44725000Y-28350000D03*
X44125000Y-28350000D03*
X44725000Y-27150000D03*
X45325000Y-28950000D03*
X44125000Y-27750000D03*
X27300000Y-45900000D03*
X27300000Y-45400000D03*
X27300000Y-44800000D03*
X27300000Y-44200000D03*
X27300000Y-43600000D03*
X13700000Y-12650000D03*
X13250000Y-12650000D03*
X13250000Y-12200000D03*
X13700000Y-12200000D03*
X13700000Y-11750000D03*
X13200000Y-11750000D03*
X13200000Y-11300000D03*
X13700000Y-11300000D03*
X13200000Y-10850000D03*
X13200000Y-10400000D03*
X13700000Y-10850000D03*
X13700000Y-10400000D03*
X14150000Y-10400000D03*
X14600000Y-10400000D03*
X14600000Y-10850000D03*
X14150000Y-10850000D03*
X17000000Y-20200000D03*
X17600000Y-20200000D03*
X18200000Y-20200000D03*
X18800000Y-20200000D03*
X19400000Y-20200000D03*
X20000000Y-20200000D03*
X20600000Y-20200000D03*
X21200000Y-20200000D03*
X21800000Y-20200000D03*
X22400000Y-20200000D03*
X23000000Y-20200000D03*
X23600000Y-20200000D03*
X24200000Y-20200000D03*
X24800000Y-20200000D03*
X25400000Y-20200000D03*
X26000000Y-20200000D03*
X26600000Y-20200000D03*
X27200000Y-20200000D03*
X27800000Y-20200000D03*
X28400000Y-20200000D03*
X29000000Y-20200000D03*
X29700000Y-20200000D03*
X30400000Y-20200000D03*
X30400000Y-20200000D03*
X30400000Y-20200000D03*
X31000000Y-20200000D03*
X31600000Y-20200000D03*
X32200000Y-20200000D03*
X32800000Y-20200000D03*
X33400000Y-20200000D03*
X34000000Y-20200000D03*
X34600000Y-20200000D03*
X35200000Y-20200000D03*
X35200000Y-20800000D03*
X35200000Y-21400000D03*
X35200000Y-22000000D03*
X35200000Y-22600000D03*
X43700000Y-38825000D03*
X43700000Y-39425000D03*
X43700000Y-40025000D03*
X43700000Y-40625000D03*
X44300000Y-40625000D03*
X44300000Y-40025000D03*
X44300000Y-39425000D03*
X44300000Y-38825000D03*
X44900000Y-38825000D03*
X44900000Y-39425000D03*
X44900000Y-40025000D03*
X45500000Y-40025000D03*
X45500000Y-39425000D03*
X45500000Y-38825000D03*
X46100000Y-38825000D03*
X46100000Y-39425000D03*
X46100000Y-40025000D03*
X2225000Y-35050000D03*
X2225000Y-33600000D03*
X15400000Y-43500000D03*
X15400000Y-44250000D03*
X15400000Y-44975000D03*
X10270979Y-14700000D03*
X11677010Y-15739384D03*
X33900000Y-15150000D03*
X38125000Y-14200000D03*
X17025000Y-5525000D03*
G04 #@! TO.N,REGN*
X13650000Y-17200000D03*
X12375000Y-10575000D03*
G04 #@! TO.N,SRP*
X35000000Y-12750000D03*
G04 #@! TO.N,SRN*
X37000000Y-12700000D03*
X28550000Y-19102010D03*
G04 #@! TO.N,+BATT*
X25300000Y-43200000D03*
X25300000Y-44000000D03*
X25300000Y-44800000D03*
X25300000Y-45600000D03*
X3550519Y-26425000D03*
X3550519Y-26025519D03*
X3575000Y-26879234D03*
X25300000Y-46100000D03*
X7675000Y-27075000D03*
X25300000Y-38550000D03*
X25300000Y-37950000D03*
X25300000Y-38550000D03*
X27200000Y-36525000D03*
X27550000Y-36525000D03*
X26650000Y-28625000D03*
X27175000Y-28100000D03*
G04 #@! TO.N,+3V3*
X1077010Y-30307364D03*
X6725000Y-29500000D03*
X6725000Y-29950000D03*
X6725000Y-30400000D03*
X6725000Y-30850000D03*
X6725000Y-31300000D03*
X8575000Y-33425000D03*
X14950000Y-31600000D03*
X8425000Y-35925000D03*
G04 #@! TO.N,TX*
X13275000Y-39825000D03*
G04 #@! TO.N,RX*
X11325000Y-39950000D03*
G04 #@! TO.N,SCK*
X11270171Y-30422138D03*
X29275000Y-40125000D03*
G04 #@! TO.N,MISO*
X11796457Y-30449786D03*
X30265736Y-39884264D03*
G04 #@! TO.N,MOSI*
X12323461Y-30452689D03*
X33050000Y-39850000D03*
G04 #@! TO.N,CS*
X12850000Y-30475000D03*
X35175000Y-39875000D03*
G04 #@! TO.N,HIDRV*
X17250000Y-6600000D03*
X11216778Y-18096645D03*
G04 #@! TO.N,LODRV*
X14250000Y-13900000D03*
X14200000Y-16600000D03*
G04 #@! TO.N,BATDRV*
X16000000Y-16275000D03*
X38525000Y-12500000D03*
G04 #@! TO.N,Net-(R2-Pad2)*
X8892977Y-13393532D03*
G04 #@! TO.N,ACOK*
X9425000Y-14025000D03*
X10880102Y-29818844D03*
G04 #@! TO.N,Net-(R6-Pad1)*
X8700000Y-15600000D03*
X7000000Y-15470000D03*
G04 #@! TO.N,Net-(R7-Pad2)*
X5900000Y-16350000D03*
X8889088Y-12403939D03*
G04 #@! TO.N,SDA*
X11226998Y-12996189D03*
X16799473Y-33621507D03*
X14700000Y-30700000D03*
X13700000Y-29700000D03*
G04 #@! TO.N,SCL*
X11753993Y-13000435D03*
X15800000Y-33000000D03*
X9600000Y-21375000D03*
G04 #@! TO.N,LED1*
X6825000Y-34375000D03*
G04 #@! TO.N,LED2*
X6775000Y-32950000D03*
G04 #@! TO.N,LED3*
X6900000Y-35850000D03*
G04 #@! TO.N,IOUT*
X10700000Y-13000000D03*
X9150000Y-26825000D03*
X8575000Y-32250000D03*
X8971627Y-25540156D03*
G04 #@! TO.N,Net-(C10-Pad1)*
X34500000Y-39225000D03*
X34900000Y-37309053D03*
G04 #@! TO.N,ALERT*
X28175000Y-35500000D03*
X9550000Y-31275000D03*
G04 #@! TO.N,SWCLK*
X21250054Y-37718582D03*
G04 #@! TO.N,SWDIO*
X21400000Y-34800000D03*
G04 #@! TO.N,ADAPTER*
X7400000Y-6000000D03*
X8000000Y-6000000D03*
X8600000Y-6000000D03*
X9200000Y-6000000D03*
X9800000Y-6000000D03*
X10400000Y-6000000D03*
X10400000Y-6600000D03*
X9800000Y-6600000D03*
X9200000Y-6600000D03*
X8600000Y-6600000D03*
X8000000Y-6600000D03*
X7400000Y-6600000D03*
X7400000Y-7200000D03*
X8000000Y-7200000D03*
X8600000Y-7200000D03*
X9200000Y-7200000D03*
X9800000Y-7200000D03*
X10400000Y-7200000D03*
X10400000Y-7800000D03*
X9800000Y-7800000D03*
X9200000Y-7800000D03*
X8600000Y-7800000D03*
X8000000Y-7800000D03*
X7400000Y-7800000D03*
X7400000Y-8400000D03*
X8000000Y-8400000D03*
X8600000Y-8400000D03*
X9200000Y-8400000D03*
X9800000Y-8400000D03*
X10400000Y-8400000D03*
X5400000Y-11850000D03*
G04 #@! TO.N,Net-(D1-Pad2)*
X2700000Y-21300000D03*
X2450000Y-20850000D03*
X2450000Y-20300000D03*
G04 #@! TD*
D11*
G04 #@! TO.N,Net-(C1-Pad1)*
X9461070Y-13265372D02*
X9461070Y-13393968D01*
X9049999Y-13805039D02*
X9049999Y-13850001D01*
X9461070Y-13393968D02*
X9049999Y-13805039D01*
X9049999Y-13850001D02*
X8850000Y-14050000D01*
X9661069Y-13065373D02*
X9461070Y-13265372D01*
G04 #@! TO.N,PHASE*
X11023817Y-18498646D02*
X11298646Y-18498646D01*
X10725171Y-18200000D02*
X11023817Y-18498646D01*
X10700000Y-18200000D02*
X10725171Y-18200000D01*
X11298646Y-18498646D02*
X11300000Y-18500000D01*
X11300000Y-18500000D02*
X12950000Y-18500000D01*
X15775000Y-15675000D02*
X15775000Y-14050000D01*
X12950000Y-18500000D02*
X15775000Y-15675000D01*
G04 #@! TO.N,REGN*
X13650000Y-17200000D02*
X12800000Y-16350000D01*
X12800000Y-16350000D02*
X12800000Y-12775000D01*
X12375000Y-12350000D02*
X12375000Y-10575000D01*
X12800000Y-12775000D02*
X12375000Y-12350000D01*
G04 #@! TO.N,SRN*
X37000000Y-12700000D02*
X30597990Y-19102010D01*
X28832842Y-19102010D02*
X28550000Y-19102010D01*
X30597990Y-19102010D02*
X28832842Y-19102010D01*
G04 #@! TO.N,LODRV*
X14250000Y-16550000D02*
X14200000Y-16600000D01*
X14250000Y-13900000D02*
X14250000Y-16550000D01*
G04 #@! TO.N,ACOK*
X8545978Y-25709471D02*
X8545978Y-18270518D01*
X8545978Y-18270518D02*
X9425000Y-17391496D01*
X10880102Y-27952032D02*
X8870228Y-25942158D01*
X9425000Y-17391496D02*
X9425000Y-14307842D01*
X8778665Y-25942158D02*
X8545978Y-25709471D01*
X8870228Y-25942158D02*
X8778665Y-25942158D01*
X9425000Y-14307842D02*
X9425000Y-14025000D01*
X10880102Y-29818844D02*
X10880102Y-27952032D01*
G04 #@! TO.N,Net-(R6-Pad1)*
X7130000Y-15600000D02*
X7000000Y-15470000D01*
X8700000Y-15600000D02*
X7130000Y-15600000D01*
G04 #@! TO.N,Net-(R7-Pad2)*
X5900000Y-15393027D02*
X8689089Y-12603938D01*
X5900000Y-16350000D02*
X5900000Y-15393027D01*
X8689089Y-12603938D02*
X8889088Y-12403939D01*
G04 #@! TO.N,SDA*
X11226998Y-13279031D02*
X10950000Y-13556029D01*
X11226998Y-12996189D02*
X11226998Y-13279031D01*
X10950000Y-13556029D02*
X10950000Y-16650000D01*
X10950000Y-16650000D02*
X9227010Y-18372990D01*
X9227010Y-18372990D02*
X9227010Y-20350000D01*
X16799473Y-33338665D02*
X15860808Y-32400000D01*
X16799473Y-33621507D02*
X16799473Y-33338665D01*
X15860808Y-31860808D02*
X14700000Y-30700000D01*
X15860808Y-32400000D02*
X15860808Y-31860808D01*
X13700000Y-29700000D02*
X9100000Y-25100000D01*
X9100000Y-20477010D02*
X9227010Y-20350000D01*
X9100000Y-25100000D02*
X9100000Y-20477010D01*
G04 #@! TO.N,SCL*
X11227010Y-13810260D02*
X11753993Y-13283277D01*
X11227010Y-16764741D02*
X11227010Y-13810260D01*
X9600000Y-21375000D02*
X9600000Y-20370980D01*
X9600000Y-20370980D02*
X9504020Y-20275000D01*
X9504020Y-20275000D02*
X9504020Y-18487730D01*
X11753993Y-13283277D02*
X11753993Y-13000435D01*
X9504020Y-18487730D02*
X11227010Y-16764741D01*
G04 #@! TO.N,IOUT*
X9150000Y-27107842D02*
X9275000Y-27232842D01*
X9150000Y-26825000D02*
X9150000Y-27107842D01*
X9275000Y-27232842D02*
X9275000Y-30400000D01*
X8575000Y-31100000D02*
X8575000Y-32250000D01*
X9275000Y-30400000D02*
X8575000Y-31100000D01*
X10700000Y-13282842D02*
X10672989Y-13309853D01*
X10672989Y-13309853D02*
X10672989Y-16535259D01*
X10700000Y-13000000D02*
X10700000Y-13282842D01*
X10672989Y-16535259D02*
X8822989Y-18385259D01*
X8822989Y-25391518D02*
X8971627Y-25540156D01*
X8822989Y-18385259D02*
X8822989Y-25391518D01*
G04 #@! TO.N,ALERT*
X28175000Y-35500000D02*
X25700000Y-35500000D01*
X25700000Y-35500000D02*
X23725000Y-33525000D01*
X23725000Y-33525000D02*
X19375000Y-33525000D01*
X19375000Y-33525000D02*
X18675000Y-34225000D01*
X18675000Y-34225000D02*
X12525000Y-34225000D01*
X12525000Y-34225000D02*
X10350000Y-32050000D01*
X10350000Y-32050000D02*
X10200000Y-32050000D01*
X9550000Y-31400000D02*
X9550000Y-31275000D01*
X10200000Y-32050000D02*
X9550000Y-31400000D01*
G04 #@! TD*
D12*
G04 #@! TO.N,GND*
G36*
X49646001Y-39171584D02*
X34954000Y-39167113D01*
X34954000Y-39134694D01*
X34884882Y-38967830D01*
X34878811Y-38961759D01*
X34885221Y-37763053D01*
X34990306Y-37763053D01*
X35157170Y-37693935D01*
X35284882Y-37566223D01*
X35354000Y-37399359D01*
X35354000Y-37218747D01*
X35284882Y-37051883D01*
X35157170Y-36924171D01*
X34990306Y-36855053D01*
X34890077Y-36855053D01*
X34976966Y-20606629D01*
X34967559Y-20557977D01*
X34940249Y-20516629D01*
X34899196Y-20488879D01*
X34849625Y-20478950D01*
X9929000Y-20546203D01*
X9929000Y-20403376D01*
X9935444Y-20370979D01*
X9929000Y-20338583D01*
X9929000Y-20338579D01*
X9909911Y-20242611D01*
X9837195Y-20133785D01*
X9833020Y-20130995D01*
X9833020Y-19011704D01*
X28096000Y-19011704D01*
X28096000Y-19192316D01*
X28165118Y-19359180D01*
X28292830Y-19486892D01*
X28459694Y-19556010D01*
X28640306Y-19556010D01*
X28807170Y-19486892D01*
X28863052Y-19431010D01*
X30565594Y-19431010D01*
X30597990Y-19437454D01*
X30630386Y-19431010D01*
X30630391Y-19431010D01*
X30726359Y-19411921D01*
X30835185Y-19339205D01*
X30853538Y-19311738D01*
X37011276Y-13154000D01*
X37090306Y-13154000D01*
X37257170Y-13084882D01*
X37384882Y-12957170D01*
X37454000Y-12790306D01*
X37454000Y-12609694D01*
X37384882Y-12442830D01*
X37351746Y-12409694D01*
X38071000Y-12409694D01*
X38071000Y-12590306D01*
X38140118Y-12757170D01*
X38267830Y-12884882D01*
X38434694Y-12954000D01*
X38615306Y-12954000D01*
X38782170Y-12884882D01*
X38909882Y-12757170D01*
X38979000Y-12590306D01*
X38979000Y-12409694D01*
X38909882Y-12242830D01*
X38782170Y-12115118D01*
X38615306Y-12046000D01*
X38434694Y-12046000D01*
X38267830Y-12115118D01*
X38140118Y-12242830D01*
X38071000Y-12409694D01*
X37351746Y-12409694D01*
X37257170Y-12315118D01*
X37090306Y-12246000D01*
X36909694Y-12246000D01*
X36742830Y-12315118D01*
X36615118Y-12442830D01*
X36546000Y-12609694D01*
X36546000Y-12688724D01*
X30461714Y-18773010D01*
X28863052Y-18773010D01*
X28807170Y-18717128D01*
X28640306Y-18648010D01*
X28459694Y-18648010D01*
X28292830Y-18717128D01*
X28165118Y-18844840D01*
X28096000Y-19011704D01*
X9833020Y-19011704D01*
X9833020Y-18624006D01*
X10246000Y-18211026D01*
X10246000Y-18290306D01*
X10315118Y-18457170D01*
X10442830Y-18584882D01*
X10609694Y-18654000D01*
X10713895Y-18654000D01*
X10768268Y-18708373D01*
X10786622Y-18735841D01*
X10895448Y-18808557D01*
X10991416Y-18827646D01*
X10991420Y-18827646D01*
X11023816Y-18834090D01*
X11056213Y-18827646D01*
X11260792Y-18827646D01*
X11267599Y-18829000D01*
X11267604Y-18829000D01*
X11300000Y-18835444D01*
X11332396Y-18829000D01*
X12917604Y-18829000D01*
X12950000Y-18835444D01*
X12982396Y-18829000D01*
X12982401Y-18829000D01*
X13078369Y-18809911D01*
X13187195Y-18737195D01*
X13205548Y-18709728D01*
X15547163Y-16368113D01*
X15615118Y-16532170D01*
X15742830Y-16659882D01*
X15909694Y-16729000D01*
X16090306Y-16729000D01*
X16257170Y-16659882D01*
X16384882Y-16532170D01*
X16454000Y-16365306D01*
X16454000Y-16184694D01*
X16384882Y-16017830D01*
X16257170Y-15890118D01*
X16090306Y-15821000D01*
X16073130Y-15821000D01*
X16084911Y-15803369D01*
X16104000Y-15707401D01*
X16104000Y-15707397D01*
X16110444Y-15675001D01*
X16104000Y-15642604D01*
X16104000Y-14363052D01*
X16159882Y-14307170D01*
X16229000Y-14140306D01*
X16229000Y-13959694D01*
X16159882Y-13792830D01*
X16032170Y-13665118D01*
X15865306Y-13596000D01*
X15684694Y-13596000D01*
X15517830Y-13665118D01*
X15390118Y-13792830D01*
X15321000Y-13959694D01*
X15321000Y-14140306D01*
X15390118Y-14307170D01*
X15446001Y-14363053D01*
X15446000Y-15538724D01*
X14601581Y-16383143D01*
X14584882Y-16342830D01*
X14579000Y-16336948D01*
X14579000Y-14213052D01*
X14634882Y-14157170D01*
X14704000Y-13990306D01*
X14704000Y-13809694D01*
X14634882Y-13642830D01*
X14507170Y-13515118D01*
X14340306Y-13446000D01*
X14159694Y-13446000D01*
X13992830Y-13515118D01*
X13865118Y-13642830D01*
X13796000Y-13809694D01*
X13796000Y-13990306D01*
X13865118Y-14157170D01*
X13921000Y-14213052D01*
X13921001Y-16236947D01*
X13815118Y-16342830D01*
X13746000Y-16509694D01*
X13746000Y-16690306D01*
X13775027Y-16760382D01*
X13740306Y-16746000D01*
X13661276Y-16746000D01*
X13129000Y-16213724D01*
X13129000Y-12807396D01*
X13135444Y-12775000D01*
X13129000Y-12742603D01*
X13129000Y-12742599D01*
X13112510Y-12659694D01*
X34546000Y-12659694D01*
X34546000Y-12840306D01*
X34615118Y-13007170D01*
X34742830Y-13134882D01*
X34909694Y-13204000D01*
X35090306Y-13204000D01*
X35257170Y-13134882D01*
X35384882Y-13007170D01*
X35454000Y-12840306D01*
X35454000Y-12659694D01*
X35384882Y-12492830D01*
X35257170Y-12365118D01*
X35090306Y-12296000D01*
X34909694Y-12296000D01*
X34742830Y-12365118D01*
X34615118Y-12492830D01*
X34546000Y-12659694D01*
X13112510Y-12659694D01*
X13109911Y-12646631D01*
X13079907Y-12601727D01*
X13055549Y-12565273D01*
X13055548Y-12565272D01*
X13037195Y-12537805D01*
X13009728Y-12519452D01*
X12704000Y-12213724D01*
X12704000Y-10888052D01*
X12759882Y-10832170D01*
X12829000Y-10665306D01*
X12829000Y-10484694D01*
X12759882Y-10317830D01*
X12632170Y-10190118D01*
X12465306Y-10121000D01*
X12284694Y-10121000D01*
X12117830Y-10190118D01*
X11990118Y-10317830D01*
X11921000Y-10484694D01*
X11921000Y-10665306D01*
X11990118Y-10832170D01*
X12046001Y-10888053D01*
X12046000Y-12317603D01*
X12039556Y-12350000D01*
X12046000Y-12382396D01*
X12046000Y-12382400D01*
X12065089Y-12478368D01*
X12065090Y-12478369D01*
X12104804Y-12537805D01*
X12137805Y-12587195D01*
X12165272Y-12605548D01*
X12471001Y-12911277D01*
X12471000Y-16317604D01*
X12464556Y-16350000D01*
X12471000Y-16382396D01*
X12471000Y-16382400D01*
X12490089Y-16478368D01*
X12562805Y-16587195D01*
X12590272Y-16605548D01*
X13196000Y-17211276D01*
X13196000Y-17290306D01*
X13265118Y-17457170D01*
X13392830Y-17584882D01*
X13397788Y-17586936D01*
X12813724Y-18171000D01*
X11670778Y-18171000D01*
X11670778Y-18006339D01*
X11601660Y-17839475D01*
X11473948Y-17711763D01*
X11307084Y-17642645D01*
X11126472Y-17642645D01*
X10959608Y-17711763D01*
X10885811Y-17785560D01*
X10790306Y-17746000D01*
X10711027Y-17746000D01*
X11436738Y-17020289D01*
X11464205Y-17001936D01*
X11536921Y-16893110D01*
X11556010Y-16797142D01*
X11556010Y-16797138D01*
X11562454Y-16764742D01*
X11556010Y-16732345D01*
X11556010Y-13946536D01*
X11963721Y-13538825D01*
X11991188Y-13520472D01*
X12009542Y-13493004D01*
X12063904Y-13411647D01*
X12069986Y-13381071D01*
X12082993Y-13315678D01*
X12082993Y-13315675D01*
X12083536Y-13312944D01*
X12138875Y-13257605D01*
X12207993Y-13090741D01*
X12207993Y-12910129D01*
X12138875Y-12743265D01*
X12011163Y-12615553D01*
X11844299Y-12546435D01*
X11663687Y-12546435D01*
X11496823Y-12615553D01*
X11492619Y-12619758D01*
X11484168Y-12611307D01*
X11317304Y-12542189D01*
X11136692Y-12542189D01*
X10969828Y-12611307D01*
X10961594Y-12619542D01*
X10957170Y-12615118D01*
X10790306Y-12546000D01*
X10609694Y-12546000D01*
X10442830Y-12615118D01*
X10315118Y-12742830D01*
X10246000Y-12909694D01*
X10246000Y-13090306D01*
X10315118Y-13257170D01*
X10342565Y-13284617D01*
X10337545Y-13309853D01*
X10343989Y-13342250D01*
X10343990Y-16398981D01*
X9754000Y-16988971D01*
X9754000Y-14338052D01*
X9809882Y-14282170D01*
X9879000Y-14115306D01*
X9879000Y-13934694D01*
X9809882Y-13767830D01*
X9683249Y-13641197D01*
X9698265Y-13631163D01*
X9738465Y-13571000D01*
X9770980Y-13522338D01*
X9770980Y-13522337D01*
X9770981Y-13522336D01*
X9773384Y-13510257D01*
X9918239Y-13450255D01*
X10045951Y-13322543D01*
X10115069Y-13155679D01*
X10115069Y-12975067D01*
X10045951Y-12808203D01*
X9918239Y-12680491D01*
X9751375Y-12611373D01*
X9570763Y-12611373D01*
X9403899Y-12680491D01*
X9276187Y-12808203D01*
X9207069Y-12975067D01*
X9207069Y-13053329D01*
X9205522Y-13055644D01*
X9205521Y-13055645D01*
X9202165Y-13060668D01*
X9150147Y-13008650D01*
X8983283Y-12939532D01*
X8818771Y-12939532D01*
X8900364Y-12857939D01*
X8979394Y-12857939D01*
X9146258Y-12788821D01*
X9273970Y-12661109D01*
X9343088Y-12494245D01*
X9343088Y-12313633D01*
X9273970Y-12146769D01*
X9146258Y-12019057D01*
X8979394Y-11949939D01*
X8798782Y-11949939D01*
X8631918Y-12019057D01*
X8504206Y-12146769D01*
X8435088Y-12313633D01*
X8435088Y-12392663D01*
X5690270Y-15137481D01*
X5662806Y-15155832D01*
X5644455Y-15183296D01*
X5644451Y-15183300D01*
X5590090Y-15264658D01*
X5564556Y-15393027D01*
X5571001Y-15425428D01*
X5571000Y-16036948D01*
X5515118Y-16092830D01*
X5446000Y-16259694D01*
X5446000Y-16440306D01*
X5515118Y-16607170D01*
X5642830Y-16734882D01*
X5809694Y-16804000D01*
X5990306Y-16804000D01*
X6157170Y-16734882D01*
X6284882Y-16607170D01*
X6354000Y-16440306D01*
X6354000Y-16259694D01*
X6284882Y-16092830D01*
X6229000Y-16036948D01*
X6229000Y-15529303D01*
X8438977Y-13319326D01*
X8438977Y-13483838D01*
X8508095Y-13650702D01*
X8557671Y-13700278D01*
X8465118Y-13792830D01*
X8396000Y-13959694D01*
X8396000Y-14140306D01*
X8465118Y-14307170D01*
X8592830Y-14434882D01*
X8759694Y-14504000D01*
X8940306Y-14504000D01*
X9096001Y-14439508D01*
X9096001Y-15369673D01*
X9084882Y-15342830D01*
X8957170Y-15215118D01*
X8790306Y-15146000D01*
X8609694Y-15146000D01*
X8442830Y-15215118D01*
X8386948Y-15271000D01*
X7408977Y-15271000D01*
X7384882Y-15212830D01*
X7257170Y-15085118D01*
X7090306Y-15016000D01*
X6909694Y-15016000D01*
X6742830Y-15085118D01*
X6615118Y-15212830D01*
X6546000Y-15379694D01*
X6546000Y-15560306D01*
X6615118Y-15727170D01*
X6742830Y-15854882D01*
X6909694Y-15924000D01*
X7072462Y-15924000D01*
X7097599Y-15929000D01*
X7097603Y-15929000D01*
X7130000Y-15935444D01*
X7162396Y-15929000D01*
X8386948Y-15929000D01*
X8442830Y-15984882D01*
X8609694Y-16054000D01*
X8790306Y-16054000D01*
X8957170Y-15984882D01*
X9084882Y-15857170D01*
X9096001Y-15830328D01*
X9096000Y-17255219D01*
X8336248Y-18014972D01*
X8308784Y-18033323D01*
X8290433Y-18060787D01*
X8290429Y-18060791D01*
X8236068Y-18142149D01*
X8210534Y-18270518D01*
X8216979Y-18302919D01*
X8216979Y-20550824D01*
X2826682Y-20565370D01*
X2834882Y-20557170D01*
X2904000Y-20390306D01*
X2904000Y-20209694D01*
X2834882Y-20042830D01*
X2707170Y-19915118D01*
X2540306Y-19846000D01*
X2359694Y-19846000D01*
X2192830Y-19915118D01*
X2065118Y-20042830D01*
X1996000Y-20209694D01*
X1996000Y-20390306D01*
X2065118Y-20557170D01*
X2075346Y-20567398D01*
X354000Y-20572043D01*
X354000Y-11759694D01*
X4946000Y-11759694D01*
X4946000Y-11940306D01*
X5015118Y-12107170D01*
X5142830Y-12234882D01*
X5309694Y-12304000D01*
X5490306Y-12304000D01*
X5657170Y-12234882D01*
X5784882Y-12107170D01*
X5854000Y-11940306D01*
X5854000Y-11759694D01*
X5784882Y-11592830D01*
X5657170Y-11465118D01*
X5490306Y-11396000D01*
X5309694Y-11396000D01*
X5142830Y-11465118D01*
X5015118Y-11592830D01*
X4946000Y-11759694D01*
X354000Y-11759694D01*
X354000Y-5909694D01*
X6946000Y-5909694D01*
X6946000Y-6090306D01*
X7015118Y-6257170D01*
X7057948Y-6300000D01*
X7015118Y-6342830D01*
X6946000Y-6509694D01*
X6946000Y-6690306D01*
X7015118Y-6857170D01*
X7057948Y-6900000D01*
X7015118Y-6942830D01*
X6946000Y-7109694D01*
X6946000Y-7290306D01*
X7015118Y-7457170D01*
X7057948Y-7500000D01*
X7015118Y-7542830D01*
X6946000Y-7709694D01*
X6946000Y-7890306D01*
X7015118Y-8057170D01*
X7057948Y-8100000D01*
X7015118Y-8142830D01*
X6946000Y-8309694D01*
X6946000Y-8490306D01*
X7015118Y-8657170D01*
X7142830Y-8784882D01*
X7309694Y-8854000D01*
X7490306Y-8854000D01*
X7657170Y-8784882D01*
X7700000Y-8742052D01*
X7742830Y-8784882D01*
X7909694Y-8854000D01*
X8090306Y-8854000D01*
X8257170Y-8784882D01*
X8300000Y-8742052D01*
X8342830Y-8784882D01*
X8509694Y-8854000D01*
X8690306Y-8854000D01*
X8857170Y-8784882D01*
X8900000Y-8742052D01*
X8942830Y-8784882D01*
X9109694Y-8854000D01*
X9290306Y-8854000D01*
X9457170Y-8784882D01*
X9500000Y-8742052D01*
X9542830Y-8784882D01*
X9709694Y-8854000D01*
X9890306Y-8854000D01*
X10057170Y-8784882D01*
X10100000Y-8742052D01*
X10142830Y-8784882D01*
X10309694Y-8854000D01*
X10490306Y-8854000D01*
X10657170Y-8784882D01*
X10784882Y-8657170D01*
X10854000Y-8490306D01*
X10854000Y-8309694D01*
X10784882Y-8142830D01*
X10742052Y-8100000D01*
X10784882Y-8057170D01*
X10854000Y-7890306D01*
X10854000Y-7709694D01*
X10784882Y-7542830D01*
X10742052Y-7500000D01*
X10784882Y-7457170D01*
X10854000Y-7290306D01*
X10854000Y-7109694D01*
X10784882Y-6942830D01*
X10742052Y-6900000D01*
X10784882Y-6857170D01*
X10854000Y-6690306D01*
X10854000Y-6509694D01*
X16796000Y-6509694D01*
X16796000Y-6690306D01*
X16865118Y-6857170D01*
X16992830Y-6984882D01*
X17159694Y-7054000D01*
X17340306Y-7054000D01*
X17507170Y-6984882D01*
X17634882Y-6857170D01*
X17704000Y-6690306D01*
X17704000Y-6509694D01*
X17634882Y-6342830D01*
X17507170Y-6215118D01*
X17340306Y-6146000D01*
X17159694Y-6146000D01*
X16992830Y-6215118D01*
X16865118Y-6342830D01*
X16796000Y-6509694D01*
X10854000Y-6509694D01*
X10784882Y-6342830D01*
X10742052Y-6300000D01*
X10784882Y-6257170D01*
X10854000Y-6090306D01*
X10854000Y-5909694D01*
X10784882Y-5742830D01*
X10657170Y-5615118D01*
X10490306Y-5546000D01*
X10309694Y-5546000D01*
X10142830Y-5615118D01*
X10100000Y-5657948D01*
X10057170Y-5615118D01*
X9890306Y-5546000D01*
X9709694Y-5546000D01*
X9542830Y-5615118D01*
X9500000Y-5657948D01*
X9457170Y-5615118D01*
X9290306Y-5546000D01*
X9109694Y-5546000D01*
X8942830Y-5615118D01*
X8900000Y-5657948D01*
X8857170Y-5615118D01*
X8690306Y-5546000D01*
X8509694Y-5546000D01*
X8342830Y-5615118D01*
X8300000Y-5657948D01*
X8257170Y-5615118D01*
X8090306Y-5546000D01*
X7909694Y-5546000D01*
X7742830Y-5615118D01*
X7700000Y-5657948D01*
X7657170Y-5615118D01*
X7490306Y-5546000D01*
X7309694Y-5546000D01*
X7142830Y-5615118D01*
X7015118Y-5742830D01*
X6946000Y-5909694D01*
X354000Y-5909694D01*
X354000Y-354000D01*
X49646000Y-354000D01*
X49646001Y-39171584D01*
X49646001Y-39171584D01*
G37*
X49646001Y-39171584D02*
X34954000Y-39167113D01*
X34954000Y-39134694D01*
X34884882Y-38967830D01*
X34878811Y-38961759D01*
X34885221Y-37763053D01*
X34990306Y-37763053D01*
X35157170Y-37693935D01*
X35284882Y-37566223D01*
X35354000Y-37399359D01*
X35354000Y-37218747D01*
X35284882Y-37051883D01*
X35157170Y-36924171D01*
X34990306Y-36855053D01*
X34890077Y-36855053D01*
X34976966Y-20606629D01*
X34967559Y-20557977D01*
X34940249Y-20516629D01*
X34899196Y-20488879D01*
X34849625Y-20478950D01*
X9929000Y-20546203D01*
X9929000Y-20403376D01*
X9935444Y-20370979D01*
X9929000Y-20338583D01*
X9929000Y-20338579D01*
X9909911Y-20242611D01*
X9837195Y-20133785D01*
X9833020Y-20130995D01*
X9833020Y-19011704D01*
X28096000Y-19011704D01*
X28096000Y-19192316D01*
X28165118Y-19359180D01*
X28292830Y-19486892D01*
X28459694Y-19556010D01*
X28640306Y-19556010D01*
X28807170Y-19486892D01*
X28863052Y-19431010D01*
X30565594Y-19431010D01*
X30597990Y-19437454D01*
X30630386Y-19431010D01*
X30630391Y-19431010D01*
X30726359Y-19411921D01*
X30835185Y-19339205D01*
X30853538Y-19311738D01*
X37011276Y-13154000D01*
X37090306Y-13154000D01*
X37257170Y-13084882D01*
X37384882Y-12957170D01*
X37454000Y-12790306D01*
X37454000Y-12609694D01*
X37384882Y-12442830D01*
X37351746Y-12409694D01*
X38071000Y-12409694D01*
X38071000Y-12590306D01*
X38140118Y-12757170D01*
X38267830Y-12884882D01*
X38434694Y-12954000D01*
X38615306Y-12954000D01*
X38782170Y-12884882D01*
X38909882Y-12757170D01*
X38979000Y-12590306D01*
X38979000Y-12409694D01*
X38909882Y-12242830D01*
X38782170Y-12115118D01*
X38615306Y-12046000D01*
X38434694Y-12046000D01*
X38267830Y-12115118D01*
X38140118Y-12242830D01*
X38071000Y-12409694D01*
X37351746Y-12409694D01*
X37257170Y-12315118D01*
X37090306Y-12246000D01*
X36909694Y-12246000D01*
X36742830Y-12315118D01*
X36615118Y-12442830D01*
X36546000Y-12609694D01*
X36546000Y-12688724D01*
X30461714Y-18773010D01*
X28863052Y-18773010D01*
X28807170Y-18717128D01*
X28640306Y-18648010D01*
X28459694Y-18648010D01*
X28292830Y-18717128D01*
X28165118Y-18844840D01*
X28096000Y-19011704D01*
X9833020Y-19011704D01*
X9833020Y-18624006D01*
X10246000Y-18211026D01*
X10246000Y-18290306D01*
X10315118Y-18457170D01*
X10442830Y-18584882D01*
X10609694Y-18654000D01*
X10713895Y-18654000D01*
X10768268Y-18708373D01*
X10786622Y-18735841D01*
X10895448Y-18808557D01*
X10991416Y-18827646D01*
X10991420Y-18827646D01*
X11023816Y-18834090D01*
X11056213Y-18827646D01*
X11260792Y-18827646D01*
X11267599Y-18829000D01*
X11267604Y-18829000D01*
X11300000Y-18835444D01*
X11332396Y-18829000D01*
X12917604Y-18829000D01*
X12950000Y-18835444D01*
X12982396Y-18829000D01*
X12982401Y-18829000D01*
X13078369Y-18809911D01*
X13187195Y-18737195D01*
X13205548Y-18709728D01*
X15547163Y-16368113D01*
X15615118Y-16532170D01*
X15742830Y-16659882D01*
X15909694Y-16729000D01*
X16090306Y-16729000D01*
X16257170Y-16659882D01*
X16384882Y-16532170D01*
X16454000Y-16365306D01*
X16454000Y-16184694D01*
X16384882Y-16017830D01*
X16257170Y-15890118D01*
X16090306Y-15821000D01*
X16073130Y-15821000D01*
X16084911Y-15803369D01*
X16104000Y-15707401D01*
X16104000Y-15707397D01*
X16110444Y-15675001D01*
X16104000Y-15642604D01*
X16104000Y-14363052D01*
X16159882Y-14307170D01*
X16229000Y-14140306D01*
X16229000Y-13959694D01*
X16159882Y-13792830D01*
X16032170Y-13665118D01*
X15865306Y-13596000D01*
X15684694Y-13596000D01*
X15517830Y-13665118D01*
X15390118Y-13792830D01*
X15321000Y-13959694D01*
X15321000Y-14140306D01*
X15390118Y-14307170D01*
X15446001Y-14363053D01*
X15446000Y-15538724D01*
X14601581Y-16383143D01*
X14584882Y-16342830D01*
X14579000Y-16336948D01*
X14579000Y-14213052D01*
X14634882Y-14157170D01*
X14704000Y-13990306D01*
X14704000Y-13809694D01*
X14634882Y-13642830D01*
X14507170Y-13515118D01*
X14340306Y-13446000D01*
X14159694Y-13446000D01*
X13992830Y-13515118D01*
X13865118Y-13642830D01*
X13796000Y-13809694D01*
X13796000Y-13990306D01*
X13865118Y-14157170D01*
X13921000Y-14213052D01*
X13921001Y-16236947D01*
X13815118Y-16342830D01*
X13746000Y-16509694D01*
X13746000Y-16690306D01*
X13775027Y-16760382D01*
X13740306Y-16746000D01*
X13661276Y-16746000D01*
X13129000Y-16213724D01*
X13129000Y-12807396D01*
X13135444Y-12775000D01*
X13129000Y-12742603D01*
X13129000Y-12742599D01*
X13112510Y-12659694D01*
X34546000Y-12659694D01*
X34546000Y-12840306D01*
X34615118Y-13007170D01*
X34742830Y-13134882D01*
X34909694Y-13204000D01*
X35090306Y-13204000D01*
X35257170Y-13134882D01*
X35384882Y-13007170D01*
X35454000Y-12840306D01*
X35454000Y-12659694D01*
X35384882Y-12492830D01*
X35257170Y-12365118D01*
X35090306Y-12296000D01*
X34909694Y-12296000D01*
X34742830Y-12365118D01*
X34615118Y-12492830D01*
X34546000Y-12659694D01*
X13112510Y-12659694D01*
X13109911Y-12646631D01*
X13079907Y-12601727D01*
X13055549Y-12565273D01*
X13055548Y-12565272D01*
X13037195Y-12537805D01*
X13009728Y-12519452D01*
X12704000Y-12213724D01*
X12704000Y-10888052D01*
X12759882Y-10832170D01*
X12829000Y-10665306D01*
X12829000Y-10484694D01*
X12759882Y-10317830D01*
X12632170Y-10190118D01*
X12465306Y-10121000D01*
X12284694Y-10121000D01*
X12117830Y-10190118D01*
X11990118Y-10317830D01*
X11921000Y-10484694D01*
X11921000Y-10665306D01*
X11990118Y-10832170D01*
X12046001Y-10888053D01*
X12046000Y-12317603D01*
X12039556Y-12350000D01*
X12046000Y-12382396D01*
X12046000Y-12382400D01*
X12065089Y-12478368D01*
X12065090Y-12478369D01*
X12104804Y-12537805D01*
X12137805Y-12587195D01*
X12165272Y-12605548D01*
X12471001Y-12911277D01*
X12471000Y-16317604D01*
X12464556Y-16350000D01*
X12471000Y-16382396D01*
X12471000Y-16382400D01*
X12490089Y-16478368D01*
X12562805Y-16587195D01*
X12590272Y-16605548D01*
X13196000Y-17211276D01*
X13196000Y-17290306D01*
X13265118Y-17457170D01*
X13392830Y-17584882D01*
X13397788Y-17586936D01*
X12813724Y-18171000D01*
X11670778Y-18171000D01*
X11670778Y-18006339D01*
X11601660Y-17839475D01*
X11473948Y-17711763D01*
X11307084Y-17642645D01*
X11126472Y-17642645D01*
X10959608Y-17711763D01*
X10885811Y-17785560D01*
X10790306Y-17746000D01*
X10711027Y-17746000D01*
X11436738Y-17020289D01*
X11464205Y-17001936D01*
X11536921Y-16893110D01*
X11556010Y-16797142D01*
X11556010Y-16797138D01*
X11562454Y-16764742D01*
X11556010Y-16732345D01*
X11556010Y-13946536D01*
X11963721Y-13538825D01*
X11991188Y-13520472D01*
X12009542Y-13493004D01*
X12063904Y-13411647D01*
X12069986Y-13381071D01*
X12082993Y-13315678D01*
X12082993Y-13315675D01*
X12083536Y-13312944D01*
X12138875Y-13257605D01*
X12207993Y-13090741D01*
X12207993Y-12910129D01*
X12138875Y-12743265D01*
X12011163Y-12615553D01*
X11844299Y-12546435D01*
X11663687Y-12546435D01*
X11496823Y-12615553D01*
X11492619Y-12619758D01*
X11484168Y-12611307D01*
X11317304Y-12542189D01*
X11136692Y-12542189D01*
X10969828Y-12611307D01*
X10961594Y-12619542D01*
X10957170Y-12615118D01*
X10790306Y-12546000D01*
X10609694Y-12546000D01*
X10442830Y-12615118D01*
X10315118Y-12742830D01*
X10246000Y-12909694D01*
X10246000Y-13090306D01*
X10315118Y-13257170D01*
X10342565Y-13284617D01*
X10337545Y-13309853D01*
X10343989Y-13342250D01*
X10343990Y-16398981D01*
X9754000Y-16988971D01*
X9754000Y-14338052D01*
X9809882Y-14282170D01*
X9879000Y-14115306D01*
X9879000Y-13934694D01*
X9809882Y-13767830D01*
X9683249Y-13641197D01*
X9698265Y-13631163D01*
X9738465Y-13571000D01*
X9770980Y-13522338D01*
X9770980Y-13522337D01*
X9770981Y-13522336D01*
X9773384Y-13510257D01*
X9918239Y-13450255D01*
X10045951Y-13322543D01*
X10115069Y-13155679D01*
X10115069Y-12975067D01*
X10045951Y-12808203D01*
X9918239Y-12680491D01*
X9751375Y-12611373D01*
X9570763Y-12611373D01*
X9403899Y-12680491D01*
X9276187Y-12808203D01*
X9207069Y-12975067D01*
X9207069Y-13053329D01*
X9205522Y-13055644D01*
X9205521Y-13055645D01*
X9202165Y-13060668D01*
X9150147Y-13008650D01*
X8983283Y-12939532D01*
X8818771Y-12939532D01*
X8900364Y-12857939D01*
X8979394Y-12857939D01*
X9146258Y-12788821D01*
X9273970Y-12661109D01*
X9343088Y-12494245D01*
X9343088Y-12313633D01*
X9273970Y-12146769D01*
X9146258Y-12019057D01*
X8979394Y-11949939D01*
X8798782Y-11949939D01*
X8631918Y-12019057D01*
X8504206Y-12146769D01*
X8435088Y-12313633D01*
X8435088Y-12392663D01*
X5690270Y-15137481D01*
X5662806Y-15155832D01*
X5644455Y-15183296D01*
X5644451Y-15183300D01*
X5590090Y-15264658D01*
X5564556Y-15393027D01*
X5571001Y-15425428D01*
X5571000Y-16036948D01*
X5515118Y-16092830D01*
X5446000Y-16259694D01*
X5446000Y-16440306D01*
X5515118Y-16607170D01*
X5642830Y-16734882D01*
X5809694Y-16804000D01*
X5990306Y-16804000D01*
X6157170Y-16734882D01*
X6284882Y-16607170D01*
X6354000Y-16440306D01*
X6354000Y-16259694D01*
X6284882Y-16092830D01*
X6229000Y-16036948D01*
X6229000Y-15529303D01*
X8438977Y-13319326D01*
X8438977Y-13483838D01*
X8508095Y-13650702D01*
X8557671Y-13700278D01*
X8465118Y-13792830D01*
X8396000Y-13959694D01*
X8396000Y-14140306D01*
X8465118Y-14307170D01*
X8592830Y-14434882D01*
X8759694Y-14504000D01*
X8940306Y-14504000D01*
X9096001Y-14439508D01*
X9096001Y-15369673D01*
X9084882Y-15342830D01*
X8957170Y-15215118D01*
X8790306Y-15146000D01*
X8609694Y-15146000D01*
X8442830Y-15215118D01*
X8386948Y-15271000D01*
X7408977Y-15271000D01*
X7384882Y-15212830D01*
X7257170Y-15085118D01*
X7090306Y-15016000D01*
X6909694Y-15016000D01*
X6742830Y-15085118D01*
X6615118Y-15212830D01*
X6546000Y-15379694D01*
X6546000Y-15560306D01*
X6615118Y-15727170D01*
X6742830Y-15854882D01*
X6909694Y-15924000D01*
X7072462Y-15924000D01*
X7097599Y-15929000D01*
X7097603Y-15929000D01*
X7130000Y-15935444D01*
X7162396Y-15929000D01*
X8386948Y-15929000D01*
X8442830Y-15984882D01*
X8609694Y-16054000D01*
X8790306Y-16054000D01*
X8957170Y-15984882D01*
X9084882Y-15857170D01*
X9096001Y-15830328D01*
X9096000Y-17255219D01*
X8336248Y-18014972D01*
X8308784Y-18033323D01*
X8290433Y-18060787D01*
X8290429Y-18060791D01*
X8236068Y-18142149D01*
X8210534Y-18270518D01*
X8216979Y-18302919D01*
X8216979Y-20550824D01*
X2826682Y-20565370D01*
X2834882Y-20557170D01*
X2904000Y-20390306D01*
X2904000Y-20209694D01*
X2834882Y-20042830D01*
X2707170Y-19915118D01*
X2540306Y-19846000D01*
X2359694Y-19846000D01*
X2192830Y-19915118D01*
X2065118Y-20042830D01*
X1996000Y-20209694D01*
X1996000Y-20390306D01*
X2065118Y-20557170D01*
X2075346Y-20567398D01*
X354000Y-20572043D01*
X354000Y-11759694D01*
X4946000Y-11759694D01*
X4946000Y-11940306D01*
X5015118Y-12107170D01*
X5142830Y-12234882D01*
X5309694Y-12304000D01*
X5490306Y-12304000D01*
X5657170Y-12234882D01*
X5784882Y-12107170D01*
X5854000Y-11940306D01*
X5854000Y-11759694D01*
X5784882Y-11592830D01*
X5657170Y-11465118D01*
X5490306Y-11396000D01*
X5309694Y-11396000D01*
X5142830Y-11465118D01*
X5015118Y-11592830D01*
X4946000Y-11759694D01*
X354000Y-11759694D01*
X354000Y-5909694D01*
X6946000Y-5909694D01*
X6946000Y-6090306D01*
X7015118Y-6257170D01*
X7057948Y-6300000D01*
X7015118Y-6342830D01*
X6946000Y-6509694D01*
X6946000Y-6690306D01*
X7015118Y-6857170D01*
X7057948Y-6900000D01*
X7015118Y-6942830D01*
X6946000Y-7109694D01*
X6946000Y-7290306D01*
X7015118Y-7457170D01*
X7057948Y-7500000D01*
X7015118Y-7542830D01*
X6946000Y-7709694D01*
X6946000Y-7890306D01*
X7015118Y-8057170D01*
X7057948Y-8100000D01*
X7015118Y-8142830D01*
X6946000Y-8309694D01*
X6946000Y-8490306D01*
X7015118Y-8657170D01*
X7142830Y-8784882D01*
X7309694Y-8854000D01*
X7490306Y-8854000D01*
X7657170Y-8784882D01*
X7700000Y-8742052D01*
X7742830Y-8784882D01*
X7909694Y-8854000D01*
X8090306Y-8854000D01*
X8257170Y-8784882D01*
X8300000Y-8742052D01*
X8342830Y-8784882D01*
X8509694Y-8854000D01*
X8690306Y-8854000D01*
X8857170Y-8784882D01*
X8900000Y-8742052D01*
X8942830Y-8784882D01*
X9109694Y-8854000D01*
X9290306Y-8854000D01*
X9457170Y-8784882D01*
X9500000Y-8742052D01*
X9542830Y-8784882D01*
X9709694Y-8854000D01*
X9890306Y-8854000D01*
X10057170Y-8784882D01*
X10100000Y-8742052D01*
X10142830Y-8784882D01*
X10309694Y-8854000D01*
X10490306Y-8854000D01*
X10657170Y-8784882D01*
X10784882Y-8657170D01*
X10854000Y-8490306D01*
X10854000Y-8309694D01*
X10784882Y-8142830D01*
X10742052Y-8100000D01*
X10784882Y-8057170D01*
X10854000Y-7890306D01*
X10854000Y-7709694D01*
X10784882Y-7542830D01*
X10742052Y-7500000D01*
X10784882Y-7457170D01*
X10854000Y-7290306D01*
X10854000Y-7109694D01*
X10784882Y-6942830D01*
X10742052Y-6900000D01*
X10784882Y-6857170D01*
X10854000Y-6690306D01*
X10854000Y-6509694D01*
X16796000Y-6509694D01*
X16796000Y-6690306D01*
X16865118Y-6857170D01*
X16992830Y-6984882D01*
X17159694Y-7054000D01*
X17340306Y-7054000D01*
X17507170Y-6984882D01*
X17634882Y-6857170D01*
X17704000Y-6690306D01*
X17704000Y-6509694D01*
X17634882Y-6342830D01*
X17507170Y-6215118D01*
X17340306Y-6146000D01*
X17159694Y-6146000D01*
X16992830Y-6215118D01*
X16865118Y-6342830D01*
X16796000Y-6509694D01*
X10854000Y-6509694D01*
X10784882Y-6342830D01*
X10742052Y-6300000D01*
X10784882Y-6257170D01*
X10854000Y-6090306D01*
X10854000Y-5909694D01*
X10784882Y-5742830D01*
X10657170Y-5615118D01*
X10490306Y-5546000D01*
X10309694Y-5546000D01*
X10142830Y-5615118D01*
X10100000Y-5657948D01*
X10057170Y-5615118D01*
X9890306Y-5546000D01*
X9709694Y-5546000D01*
X9542830Y-5615118D01*
X9500000Y-5657948D01*
X9457170Y-5615118D01*
X9290306Y-5546000D01*
X9109694Y-5546000D01*
X8942830Y-5615118D01*
X8900000Y-5657948D01*
X8857170Y-5615118D01*
X8690306Y-5546000D01*
X8509694Y-5546000D01*
X8342830Y-5615118D01*
X8300000Y-5657948D01*
X8257170Y-5615118D01*
X8090306Y-5546000D01*
X7909694Y-5546000D01*
X7742830Y-5615118D01*
X7700000Y-5657948D01*
X7657170Y-5615118D01*
X7490306Y-5546000D01*
X7309694Y-5546000D01*
X7142830Y-5615118D01*
X7015118Y-5742830D01*
X6946000Y-5909694D01*
X354000Y-5909694D01*
X354000Y-354000D01*
X49646000Y-354000D01*
X49646001Y-39171584D01*
G04 #@! TD*
M02*
