G04 #@! TF.GenerationSoftware,KiCad,Pcbnew,5.0.1-33cea8e~68~ubuntu16.04.1*
G04 #@! TF.CreationDate,2018-12-19T12:21:55-05:00*
G04 #@! TF.ProjectId,SmallKat Battery Charger,536D616C6C4B61742042617474657279,rev?*
G04 #@! TF.SameCoordinates,Original*
G04 #@! TF.FileFunction,Soldermask,Bot*
G04 #@! TF.FilePolarity,Negative*
%FSLAX46Y46*%
G04 Gerber Fmt 4.6, Leading zero omitted, Abs format (unit mm)*
G04 Created by KiCad (PCBNEW 5.0.1-33cea8e~68~ubuntu16.04.1) date Wed 19 Dec 2018 12:21:55 PM EST*
%MOMM*%
%LPD*%
G01*
G04 APERTURE LIST*
%ADD10C,0.100000*%
G04 APERTURE END LIST*
D10*
G36*
X11026938Y-37131716D02*
X11047556Y-37137970D01*
X11066556Y-37148126D01*
X11083208Y-37161792D01*
X11096874Y-37178444D01*
X11107030Y-37197444D01*
X11113284Y-37218062D01*
X11116000Y-37245640D01*
X11116000Y-37754360D01*
X11113284Y-37781938D01*
X11107030Y-37802556D01*
X11096874Y-37821556D01*
X11083208Y-37838208D01*
X11066556Y-37851874D01*
X11047556Y-37862030D01*
X11026938Y-37868284D01*
X10999360Y-37871000D01*
X10540640Y-37871000D01*
X10513062Y-37868284D01*
X10492444Y-37862030D01*
X10473444Y-37851874D01*
X10456792Y-37838208D01*
X10443126Y-37821556D01*
X10432970Y-37802556D01*
X10426716Y-37781938D01*
X10424000Y-37754360D01*
X10424000Y-37245640D01*
X10426716Y-37218062D01*
X10432970Y-37197444D01*
X10443126Y-37178444D01*
X10456792Y-37161792D01*
X10473444Y-37148126D01*
X10492444Y-37137970D01*
X10513062Y-37131716D01*
X10540640Y-37129000D01*
X10999360Y-37129000D01*
X11026938Y-37131716D01*
X11026938Y-37131716D01*
G37*
G36*
X10056938Y-37131716D02*
X10077556Y-37137970D01*
X10096556Y-37148126D01*
X10113208Y-37161792D01*
X10126874Y-37178444D01*
X10137030Y-37197444D01*
X10143284Y-37218062D01*
X10146000Y-37245640D01*
X10146000Y-37754360D01*
X10143284Y-37781938D01*
X10137030Y-37802556D01*
X10126874Y-37821556D01*
X10113208Y-37838208D01*
X10096556Y-37851874D01*
X10077556Y-37862030D01*
X10056938Y-37868284D01*
X10029360Y-37871000D01*
X9570640Y-37871000D01*
X9543062Y-37868284D01*
X9522444Y-37862030D01*
X9503444Y-37851874D01*
X9486792Y-37838208D01*
X9473126Y-37821556D01*
X9462970Y-37802556D01*
X9456716Y-37781938D01*
X9454000Y-37754360D01*
X9454000Y-37245640D01*
X9456716Y-37218062D01*
X9462970Y-37197444D01*
X9473126Y-37178444D01*
X9486792Y-37161792D01*
X9503444Y-37148126D01*
X9522444Y-37137970D01*
X9543062Y-37131716D01*
X9570640Y-37129000D01*
X10029360Y-37129000D01*
X10056938Y-37131716D01*
X10056938Y-37131716D01*
G37*
G36*
X10505357Y-30775083D02*
X10510028Y-30776500D01*
X10514330Y-30778800D01*
X10520705Y-30784031D01*
X10541080Y-30797644D01*
X10563719Y-30807020D01*
X10587753Y-30811800D01*
X10612257Y-30811799D01*
X10636291Y-30807017D01*
X10658929Y-30797639D01*
X10679295Y-30784031D01*
X10685670Y-30778800D01*
X10689972Y-30776500D01*
X10694643Y-30775083D01*
X10705641Y-30774000D01*
X10994359Y-30774000D01*
X11005357Y-30775083D01*
X11010028Y-30776500D01*
X11014330Y-30778800D01*
X11020705Y-30784031D01*
X11041080Y-30797644D01*
X11063719Y-30807020D01*
X11087753Y-30811800D01*
X11112257Y-30811799D01*
X11136291Y-30807017D01*
X11158929Y-30797639D01*
X11179295Y-30784031D01*
X11185670Y-30778800D01*
X11189972Y-30776500D01*
X11194643Y-30775083D01*
X11205641Y-30774000D01*
X11494359Y-30774000D01*
X11505357Y-30775083D01*
X11510028Y-30776500D01*
X11514330Y-30778800D01*
X11520705Y-30784031D01*
X11541080Y-30797644D01*
X11563719Y-30807020D01*
X11587753Y-30811800D01*
X11612257Y-30811799D01*
X11636291Y-30807017D01*
X11658929Y-30797639D01*
X11679295Y-30784031D01*
X11685670Y-30778800D01*
X11689972Y-30776500D01*
X11694643Y-30775083D01*
X11705641Y-30774000D01*
X11994359Y-30774000D01*
X12005357Y-30775083D01*
X12010028Y-30776500D01*
X12014330Y-30778800D01*
X12020705Y-30784031D01*
X12041080Y-30797644D01*
X12063719Y-30807020D01*
X12087753Y-30811800D01*
X12112257Y-30811799D01*
X12136291Y-30807017D01*
X12158929Y-30797639D01*
X12179295Y-30784031D01*
X12185670Y-30778800D01*
X12189972Y-30776500D01*
X12194643Y-30775083D01*
X12205641Y-30774000D01*
X12494359Y-30774000D01*
X12505357Y-30775083D01*
X12510028Y-30776500D01*
X12514330Y-30778800D01*
X12520705Y-30784031D01*
X12541080Y-30797644D01*
X12563719Y-30807020D01*
X12587753Y-30811800D01*
X12612257Y-30811799D01*
X12636291Y-30807017D01*
X12658929Y-30797639D01*
X12679295Y-30784031D01*
X12685670Y-30778800D01*
X12689972Y-30776500D01*
X12694643Y-30775083D01*
X12705641Y-30774000D01*
X12994359Y-30774000D01*
X13005357Y-30775083D01*
X13010028Y-30776500D01*
X13014330Y-30778800D01*
X13020705Y-30784031D01*
X13041080Y-30797644D01*
X13063719Y-30807020D01*
X13087753Y-30811800D01*
X13112257Y-30811799D01*
X13136291Y-30807017D01*
X13158929Y-30797639D01*
X13179295Y-30784031D01*
X13185670Y-30778800D01*
X13189972Y-30776500D01*
X13194643Y-30775083D01*
X13205641Y-30774000D01*
X13494359Y-30774000D01*
X13505357Y-30775083D01*
X13510028Y-30776500D01*
X13514330Y-30778800D01*
X13520705Y-30784031D01*
X13541080Y-30797644D01*
X13563719Y-30807020D01*
X13587753Y-30811800D01*
X13612257Y-30811799D01*
X13636291Y-30807017D01*
X13658929Y-30797639D01*
X13679295Y-30784031D01*
X13685670Y-30778800D01*
X13689972Y-30776500D01*
X13694643Y-30775083D01*
X13705641Y-30774000D01*
X13994359Y-30774000D01*
X14005357Y-30775083D01*
X14010028Y-30776500D01*
X14014330Y-30778800D01*
X14018104Y-30781896D01*
X14021200Y-30785670D01*
X14023500Y-30789972D01*
X14024917Y-30794643D01*
X14026000Y-30805641D01*
X14026000Y-31649000D01*
X14028402Y-31673386D01*
X14035515Y-31696835D01*
X14047066Y-31718446D01*
X14062612Y-31737388D01*
X14081554Y-31752934D01*
X14103165Y-31764485D01*
X14126614Y-31771598D01*
X14151000Y-31774000D01*
X14994359Y-31774000D01*
X15005357Y-31775083D01*
X15010028Y-31776500D01*
X15014330Y-31778800D01*
X15018104Y-31781896D01*
X15021200Y-31785670D01*
X15023500Y-31789972D01*
X15024917Y-31794643D01*
X15026000Y-31805641D01*
X15026000Y-32094359D01*
X15024917Y-32105357D01*
X15023500Y-32110028D01*
X15021200Y-32114330D01*
X15015969Y-32120705D01*
X15002356Y-32141080D01*
X14992980Y-32163719D01*
X14988200Y-32187753D01*
X14988201Y-32212257D01*
X14992983Y-32236291D01*
X15002361Y-32258929D01*
X15015969Y-32279295D01*
X15021200Y-32285670D01*
X15023500Y-32289972D01*
X15024917Y-32294643D01*
X15026000Y-32305641D01*
X15026000Y-32594359D01*
X15024917Y-32605357D01*
X15023500Y-32610028D01*
X15021200Y-32614330D01*
X15015969Y-32620705D01*
X15002356Y-32641080D01*
X14992980Y-32663719D01*
X14988200Y-32687753D01*
X14988201Y-32712257D01*
X14992983Y-32736291D01*
X15002361Y-32758929D01*
X15015969Y-32779295D01*
X15021200Y-32785670D01*
X15023500Y-32789972D01*
X15024917Y-32794643D01*
X15026000Y-32805641D01*
X15026000Y-33094359D01*
X15024917Y-33105357D01*
X15023500Y-33110028D01*
X15021200Y-33114330D01*
X15015969Y-33120705D01*
X15002356Y-33141080D01*
X14992980Y-33163719D01*
X14988200Y-33187753D01*
X14988201Y-33212257D01*
X14992983Y-33236291D01*
X15002361Y-33258929D01*
X15015969Y-33279295D01*
X15021200Y-33285670D01*
X15023500Y-33289972D01*
X15024917Y-33294643D01*
X15026000Y-33305641D01*
X15026000Y-33594359D01*
X15024917Y-33605357D01*
X15023500Y-33610028D01*
X15021200Y-33614330D01*
X15015969Y-33620705D01*
X15002356Y-33641080D01*
X14992980Y-33663719D01*
X14988200Y-33687753D01*
X14988201Y-33712257D01*
X14992983Y-33736291D01*
X15002361Y-33758929D01*
X15015969Y-33779295D01*
X15021200Y-33785670D01*
X15023500Y-33789972D01*
X15024917Y-33794643D01*
X15026000Y-33805641D01*
X15026000Y-34094359D01*
X15024917Y-34105357D01*
X15023500Y-34110028D01*
X15021200Y-34114330D01*
X15015969Y-34120705D01*
X15002356Y-34141080D01*
X14992980Y-34163719D01*
X14988200Y-34187753D01*
X14988201Y-34212257D01*
X14992983Y-34236291D01*
X15002361Y-34258929D01*
X15015969Y-34279295D01*
X15021200Y-34285670D01*
X15023500Y-34289972D01*
X15024917Y-34294643D01*
X15026000Y-34305641D01*
X15026000Y-34594359D01*
X15024917Y-34605357D01*
X15023500Y-34610028D01*
X15021200Y-34614330D01*
X15015969Y-34620705D01*
X15002356Y-34641080D01*
X14992980Y-34663719D01*
X14988200Y-34687753D01*
X14988201Y-34712257D01*
X14992983Y-34736291D01*
X15002361Y-34758929D01*
X15015969Y-34779295D01*
X15021200Y-34785670D01*
X15023500Y-34789972D01*
X15024917Y-34794643D01*
X15026000Y-34805641D01*
X15026000Y-35094359D01*
X15024917Y-35105357D01*
X15023500Y-35110028D01*
X15021200Y-35114330D01*
X15015969Y-35120705D01*
X15002356Y-35141080D01*
X14992980Y-35163719D01*
X14988200Y-35187753D01*
X14988201Y-35212257D01*
X14992983Y-35236291D01*
X15002361Y-35258929D01*
X15015969Y-35279295D01*
X15021200Y-35285670D01*
X15023500Y-35289972D01*
X15024917Y-35294643D01*
X15026000Y-35305641D01*
X15026000Y-35594359D01*
X15024917Y-35605357D01*
X15023500Y-35610028D01*
X15021200Y-35614330D01*
X15018104Y-35618104D01*
X15014330Y-35621200D01*
X15010028Y-35623500D01*
X15005357Y-35624917D01*
X14994359Y-35626000D01*
X14151000Y-35626000D01*
X14126614Y-35628402D01*
X14103165Y-35635515D01*
X14081554Y-35647066D01*
X14062612Y-35662612D01*
X14047066Y-35681554D01*
X14035515Y-35703165D01*
X14028402Y-35726614D01*
X14026000Y-35751000D01*
X14026000Y-36594359D01*
X14024917Y-36605357D01*
X14023500Y-36610028D01*
X14021200Y-36614330D01*
X14018104Y-36618104D01*
X14014330Y-36621200D01*
X14010028Y-36623500D01*
X14005357Y-36624917D01*
X13994359Y-36626000D01*
X13705641Y-36626000D01*
X13694643Y-36624917D01*
X13689972Y-36623500D01*
X13685670Y-36621200D01*
X13679295Y-36615969D01*
X13658920Y-36602356D01*
X13636281Y-36592980D01*
X13612247Y-36588200D01*
X13587743Y-36588201D01*
X13563709Y-36592983D01*
X13541071Y-36602361D01*
X13520705Y-36615969D01*
X13514330Y-36621200D01*
X13510028Y-36623500D01*
X13505357Y-36624917D01*
X13494359Y-36626000D01*
X13205641Y-36626000D01*
X13194643Y-36624917D01*
X13189972Y-36623500D01*
X13185670Y-36621200D01*
X13179295Y-36615969D01*
X13158920Y-36602356D01*
X13136281Y-36592980D01*
X13112247Y-36588200D01*
X13087743Y-36588201D01*
X13063709Y-36592983D01*
X13041071Y-36602361D01*
X13020705Y-36615969D01*
X13014330Y-36621200D01*
X13010028Y-36623500D01*
X13005357Y-36624917D01*
X12994359Y-36626000D01*
X12705641Y-36626000D01*
X12694643Y-36624917D01*
X12689972Y-36623500D01*
X12685670Y-36621200D01*
X12679295Y-36615969D01*
X12658920Y-36602356D01*
X12636281Y-36592980D01*
X12612247Y-36588200D01*
X12587743Y-36588201D01*
X12563709Y-36592983D01*
X12541071Y-36602361D01*
X12520705Y-36615969D01*
X12514330Y-36621200D01*
X12510028Y-36623500D01*
X12505357Y-36624917D01*
X12494359Y-36626000D01*
X12205641Y-36626000D01*
X12194643Y-36624917D01*
X12189972Y-36623500D01*
X12185670Y-36621200D01*
X12179295Y-36615969D01*
X12158920Y-36602356D01*
X12136281Y-36592980D01*
X12112247Y-36588200D01*
X12087743Y-36588201D01*
X12063709Y-36592983D01*
X12041071Y-36602361D01*
X12020705Y-36615969D01*
X12014330Y-36621200D01*
X12010028Y-36623500D01*
X12005357Y-36624917D01*
X11994359Y-36626000D01*
X11705641Y-36626000D01*
X11694643Y-36624917D01*
X11689972Y-36623500D01*
X11685670Y-36621200D01*
X11679295Y-36615969D01*
X11658920Y-36602356D01*
X11636281Y-36592980D01*
X11612247Y-36588200D01*
X11587743Y-36588201D01*
X11563709Y-36592983D01*
X11541071Y-36602361D01*
X11520705Y-36615969D01*
X11514330Y-36621200D01*
X11510028Y-36623500D01*
X11505357Y-36624917D01*
X11494359Y-36626000D01*
X11205641Y-36626000D01*
X11194643Y-36624917D01*
X11189972Y-36623500D01*
X11185670Y-36621200D01*
X11179295Y-36615969D01*
X11158920Y-36602356D01*
X11136281Y-36592980D01*
X11112247Y-36588200D01*
X11087743Y-36588201D01*
X11063709Y-36592983D01*
X11041071Y-36602361D01*
X11020705Y-36615969D01*
X11014330Y-36621200D01*
X11010028Y-36623500D01*
X11005357Y-36624917D01*
X10994359Y-36626000D01*
X10705641Y-36626000D01*
X10694643Y-36624917D01*
X10689972Y-36623500D01*
X10685670Y-36621200D01*
X10679295Y-36615969D01*
X10658920Y-36602356D01*
X10636281Y-36592980D01*
X10612247Y-36588200D01*
X10587743Y-36588201D01*
X10563709Y-36592983D01*
X10541071Y-36602361D01*
X10520705Y-36615969D01*
X10514330Y-36621200D01*
X10510028Y-36623500D01*
X10505357Y-36624917D01*
X10494359Y-36626000D01*
X10205641Y-36626000D01*
X10194643Y-36624917D01*
X10189972Y-36623500D01*
X10185670Y-36621200D01*
X10181896Y-36618104D01*
X10178800Y-36614330D01*
X10176500Y-36610028D01*
X10175083Y-36605357D01*
X10174000Y-36594359D01*
X10174000Y-35751000D01*
X10171598Y-35726614D01*
X10164485Y-35703165D01*
X10152934Y-35681554D01*
X10137388Y-35662612D01*
X10118446Y-35647066D01*
X10096835Y-35635515D01*
X10073386Y-35628402D01*
X10049000Y-35626000D01*
X9205641Y-35626000D01*
X9194643Y-35624917D01*
X9189972Y-35623500D01*
X9185670Y-35621200D01*
X9181896Y-35618104D01*
X9178800Y-35614330D01*
X9176500Y-35610028D01*
X9175083Y-35605357D01*
X9174000Y-35594359D01*
X9174000Y-35515805D01*
X10151000Y-35515805D01*
X10151000Y-35524000D01*
X10153402Y-35548386D01*
X10160515Y-35571835D01*
X10172066Y-35593446D01*
X10187612Y-35612388D01*
X10206554Y-35627934D01*
X10228165Y-35639485D01*
X10251614Y-35646598D01*
X10276000Y-35649000D01*
X10284195Y-35649000D01*
X10308581Y-35646598D01*
X10332030Y-35639485D01*
X10353641Y-35627934D01*
X10372583Y-35612388D01*
X10388129Y-35593446D01*
X10399680Y-35571835D01*
X10406793Y-35548386D01*
X10409195Y-35524000D01*
X10407989Y-35511750D01*
X13791407Y-35511750D01*
X13791407Y-35536254D01*
X13796188Y-35560288D01*
X13805566Y-35582926D01*
X13819180Y-35603301D01*
X13836507Y-35620628D01*
X13856882Y-35634241D01*
X13879521Y-35643618D01*
X13915805Y-35649000D01*
X13924000Y-35649000D01*
X13948386Y-35646598D01*
X13971835Y-35639485D01*
X13993446Y-35627934D01*
X14012388Y-35612388D01*
X14027934Y-35593446D01*
X14039485Y-35571835D01*
X14046598Y-35548386D01*
X14049000Y-35524000D01*
X14049000Y-35515805D01*
X14046598Y-35491419D01*
X14039485Y-35467970D01*
X14027934Y-35446359D01*
X14012388Y-35427417D01*
X13993446Y-35411871D01*
X13971835Y-35400320D01*
X13948386Y-35393207D01*
X13924000Y-35390805D01*
X13899614Y-35393207D01*
X13876165Y-35400320D01*
X13854554Y-35411871D01*
X13841226Y-35423950D01*
X13841005Y-35423681D01*
X13836504Y-35427375D01*
X13819177Y-35444702D01*
X13805564Y-35465077D01*
X13796187Y-35487716D01*
X13791407Y-35511750D01*
X10407989Y-35511750D01*
X10406793Y-35499614D01*
X10399680Y-35476165D01*
X10388129Y-35454554D01*
X10376050Y-35441226D01*
X10376319Y-35441005D01*
X10372625Y-35436504D01*
X10355298Y-35419177D01*
X10334923Y-35405564D01*
X10312284Y-35396187D01*
X10288250Y-35391407D01*
X10263746Y-35391407D01*
X10239712Y-35396188D01*
X10217074Y-35405566D01*
X10196699Y-35419180D01*
X10179372Y-35436507D01*
X10165759Y-35456882D01*
X10156382Y-35479521D01*
X10151000Y-35515805D01*
X9174000Y-35515805D01*
X9174000Y-35305641D01*
X9175083Y-35294643D01*
X9176500Y-35289972D01*
X9178800Y-35285670D01*
X9184031Y-35279295D01*
X9197644Y-35258920D01*
X9207020Y-35236281D01*
X9211800Y-35212247D01*
X9211799Y-35187743D01*
X9207017Y-35163709D01*
X9197639Y-35141071D01*
X9184031Y-35120705D01*
X9178800Y-35114330D01*
X9176500Y-35110028D01*
X9175083Y-35105357D01*
X9174000Y-35094359D01*
X9174000Y-34805641D01*
X9175083Y-34794643D01*
X9176500Y-34789972D01*
X9178800Y-34785670D01*
X9184031Y-34779295D01*
X9197644Y-34758920D01*
X9207020Y-34736281D01*
X9211800Y-34712247D01*
X9211799Y-34687743D01*
X9207017Y-34663709D01*
X9197639Y-34641071D01*
X9184031Y-34620705D01*
X9178800Y-34614330D01*
X9176500Y-34610028D01*
X9175083Y-34605357D01*
X9174000Y-34594359D01*
X9174000Y-34305641D01*
X9175083Y-34294643D01*
X9176500Y-34289972D01*
X9178800Y-34285670D01*
X9184031Y-34279295D01*
X9197644Y-34258920D01*
X9207020Y-34236281D01*
X9211800Y-34212247D01*
X9211799Y-34187743D01*
X9207017Y-34163709D01*
X9197639Y-34141071D01*
X9184031Y-34120705D01*
X9178800Y-34114330D01*
X9176500Y-34110028D01*
X9175083Y-34105357D01*
X9174000Y-34094359D01*
X9174000Y-33805641D01*
X9175083Y-33794643D01*
X9176500Y-33789972D01*
X9178800Y-33785670D01*
X9184031Y-33779295D01*
X9197644Y-33758920D01*
X9207020Y-33736281D01*
X9211800Y-33712247D01*
X9211799Y-33687743D01*
X9207017Y-33663709D01*
X9197639Y-33641071D01*
X9184031Y-33620705D01*
X9178800Y-33614330D01*
X9176500Y-33610028D01*
X9175083Y-33605357D01*
X9174000Y-33594359D01*
X9174000Y-33305641D01*
X9175083Y-33294643D01*
X9176500Y-33289972D01*
X9178800Y-33285670D01*
X9184031Y-33279295D01*
X9197644Y-33258920D01*
X9207020Y-33236281D01*
X9211800Y-33212247D01*
X9211799Y-33187743D01*
X9207017Y-33163709D01*
X9197639Y-33141071D01*
X9184031Y-33120705D01*
X9178800Y-33114330D01*
X9176500Y-33110028D01*
X9175083Y-33105357D01*
X9174000Y-33094359D01*
X9174000Y-32805641D01*
X9175083Y-32794643D01*
X9176500Y-32789972D01*
X9178800Y-32785670D01*
X9184031Y-32779295D01*
X9197644Y-32758920D01*
X9207020Y-32736281D01*
X9211800Y-32712247D01*
X9211799Y-32687743D01*
X9207017Y-32663709D01*
X9197639Y-32641071D01*
X9184031Y-32620705D01*
X9178800Y-32614330D01*
X9176500Y-32610028D01*
X9175083Y-32605357D01*
X9174000Y-32594359D01*
X9174000Y-32305641D01*
X9175083Y-32294643D01*
X9176500Y-32289972D01*
X9178800Y-32285670D01*
X9184031Y-32279295D01*
X9197644Y-32258920D01*
X9207020Y-32236281D01*
X9211800Y-32212247D01*
X9211799Y-32187743D01*
X9207017Y-32163709D01*
X9197639Y-32141071D01*
X9184031Y-32120705D01*
X9178800Y-32114330D01*
X9176500Y-32110028D01*
X9175083Y-32105357D01*
X9174000Y-32094359D01*
X9174000Y-31876000D01*
X10151000Y-31876000D01*
X10151000Y-31884195D01*
X10153402Y-31908581D01*
X10160515Y-31932030D01*
X10172066Y-31953641D01*
X10187612Y-31972583D01*
X10206554Y-31988129D01*
X10228165Y-31999680D01*
X10251614Y-32006793D01*
X10276000Y-32009195D01*
X10300386Y-32006793D01*
X10323835Y-31999680D01*
X10345446Y-31988129D01*
X10358774Y-31976050D01*
X10358995Y-31976319D01*
X10363496Y-31972625D01*
X10380823Y-31955298D01*
X10394436Y-31934923D01*
X10403813Y-31912284D01*
X10408593Y-31888250D01*
X10408593Y-31876000D01*
X13790805Y-31876000D01*
X13793207Y-31900386D01*
X13800320Y-31923835D01*
X13811871Y-31945446D01*
X13823950Y-31958774D01*
X13823681Y-31958995D01*
X13827375Y-31963496D01*
X13844702Y-31980823D01*
X13865077Y-31994436D01*
X13887716Y-32003813D01*
X13911750Y-32008593D01*
X13936254Y-32008593D01*
X13960288Y-32003812D01*
X13982926Y-31994434D01*
X14003301Y-31980820D01*
X14020628Y-31963493D01*
X14034241Y-31943118D01*
X14043618Y-31920479D01*
X14049000Y-31884195D01*
X14049000Y-31876000D01*
X14046598Y-31851614D01*
X14039485Y-31828165D01*
X14027934Y-31806554D01*
X14012388Y-31787612D01*
X13993446Y-31772066D01*
X13971835Y-31760515D01*
X13948386Y-31753402D01*
X13924000Y-31751000D01*
X13915805Y-31751000D01*
X13891419Y-31753402D01*
X13867970Y-31760515D01*
X13846359Y-31772066D01*
X13827417Y-31787612D01*
X13811871Y-31806554D01*
X13800320Y-31828165D01*
X13793207Y-31851614D01*
X13790805Y-31876000D01*
X10408593Y-31876000D01*
X10408593Y-31863746D01*
X10403812Y-31839712D01*
X10394434Y-31817074D01*
X10380820Y-31796699D01*
X10363493Y-31779372D01*
X10343118Y-31765759D01*
X10320479Y-31756382D01*
X10284195Y-31751000D01*
X10276000Y-31751000D01*
X10251614Y-31753402D01*
X10228165Y-31760515D01*
X10206554Y-31772066D01*
X10187612Y-31787612D01*
X10172066Y-31806554D01*
X10160515Y-31828165D01*
X10153402Y-31851614D01*
X10151000Y-31876000D01*
X9174000Y-31876000D01*
X9174000Y-31805641D01*
X9175083Y-31794643D01*
X9176500Y-31789972D01*
X9178800Y-31785670D01*
X9181896Y-31781896D01*
X9185670Y-31778800D01*
X9189972Y-31776500D01*
X9194643Y-31775083D01*
X9205641Y-31774000D01*
X10049000Y-31774000D01*
X10073386Y-31771598D01*
X10096835Y-31764485D01*
X10118446Y-31752934D01*
X10137388Y-31737388D01*
X10152934Y-31718446D01*
X10164485Y-31696835D01*
X10171598Y-31673386D01*
X10174000Y-31649000D01*
X10174000Y-30805641D01*
X10175083Y-30794643D01*
X10176500Y-30789972D01*
X10178800Y-30785670D01*
X10181896Y-30781896D01*
X10185670Y-30778800D01*
X10189972Y-30776500D01*
X10194643Y-30775083D01*
X10205641Y-30774000D01*
X10494359Y-30774000D01*
X10505357Y-30775083D01*
X10505357Y-30775083D01*
G37*
G36*
X6282457Y-31720431D02*
X6303075Y-31726685D01*
X6322075Y-31736841D01*
X6338727Y-31750507D01*
X6352393Y-31767159D01*
X6362549Y-31786159D01*
X6368803Y-31806777D01*
X6371519Y-31834355D01*
X6371519Y-32293075D01*
X6368803Y-32320653D01*
X6362549Y-32341271D01*
X6352393Y-32360271D01*
X6338727Y-32376923D01*
X6322075Y-32390589D01*
X6303075Y-32400745D01*
X6282457Y-32406999D01*
X6254879Y-32409715D01*
X5746159Y-32409715D01*
X5718581Y-32406999D01*
X5697963Y-32400745D01*
X5678963Y-32390589D01*
X5662311Y-32376923D01*
X5648645Y-32360271D01*
X5638489Y-32341271D01*
X5632235Y-32320653D01*
X5629519Y-32293075D01*
X5629519Y-31834355D01*
X5632235Y-31806777D01*
X5638489Y-31786159D01*
X5648645Y-31767159D01*
X5662311Y-31750507D01*
X5678963Y-31736841D01*
X5697963Y-31726685D01*
X5718581Y-31720431D01*
X5746159Y-31717715D01*
X6254879Y-31717715D01*
X6282457Y-31720431D01*
X6282457Y-31720431D01*
G37*
G36*
X3882457Y-31670431D02*
X3903075Y-31676685D01*
X3922075Y-31686841D01*
X3938727Y-31700507D01*
X3952393Y-31717159D01*
X3962549Y-31736159D01*
X3968803Y-31756777D01*
X3971519Y-31784355D01*
X3971519Y-32243075D01*
X3968803Y-32270653D01*
X3962549Y-32291271D01*
X3952393Y-32310271D01*
X3938727Y-32326923D01*
X3922075Y-32340589D01*
X3903075Y-32350745D01*
X3882457Y-32356999D01*
X3854879Y-32359715D01*
X3346159Y-32359715D01*
X3318581Y-32356999D01*
X3297963Y-32350745D01*
X3278963Y-32340589D01*
X3262311Y-32326923D01*
X3248645Y-32310271D01*
X3238489Y-32291271D01*
X3232235Y-32270653D01*
X3229519Y-32243075D01*
X3229519Y-31784355D01*
X3232235Y-31756777D01*
X3238489Y-31736159D01*
X3248645Y-31717159D01*
X3262311Y-31700507D01*
X3278963Y-31686841D01*
X3297963Y-31676685D01*
X3318581Y-31670431D01*
X3346159Y-31667715D01*
X3854879Y-31667715D01*
X3882457Y-31670431D01*
X3882457Y-31670431D01*
G37*
G36*
X6282457Y-30750431D02*
X6303075Y-30756685D01*
X6322075Y-30766841D01*
X6338727Y-30780507D01*
X6352393Y-30797159D01*
X6362549Y-30816159D01*
X6368803Y-30836777D01*
X6371519Y-30864355D01*
X6371519Y-31323075D01*
X6368803Y-31350653D01*
X6362549Y-31371271D01*
X6352393Y-31390271D01*
X6338727Y-31406923D01*
X6322075Y-31420589D01*
X6303075Y-31430745D01*
X6282457Y-31436999D01*
X6254879Y-31439715D01*
X5746159Y-31439715D01*
X5718581Y-31436999D01*
X5697963Y-31430745D01*
X5678963Y-31420589D01*
X5662311Y-31406923D01*
X5648645Y-31390271D01*
X5638489Y-31371271D01*
X5632235Y-31350653D01*
X5629519Y-31323075D01*
X5629519Y-30864355D01*
X5632235Y-30836777D01*
X5638489Y-30816159D01*
X5648645Y-30797159D01*
X5662311Y-30780507D01*
X5678963Y-30766841D01*
X5697963Y-30756685D01*
X5718581Y-30750431D01*
X5746159Y-30747715D01*
X6254879Y-30747715D01*
X6282457Y-30750431D01*
X6282457Y-30750431D01*
G37*
G36*
X3882457Y-30700431D02*
X3903075Y-30706685D01*
X3922075Y-30716841D01*
X3938727Y-30730507D01*
X3952393Y-30747159D01*
X3962549Y-30766159D01*
X3968803Y-30786777D01*
X3971519Y-30814355D01*
X3971519Y-31273075D01*
X3968803Y-31300653D01*
X3962549Y-31321271D01*
X3952393Y-31340271D01*
X3938727Y-31356923D01*
X3922075Y-31370589D01*
X3903075Y-31380745D01*
X3882457Y-31386999D01*
X3854879Y-31389715D01*
X3346159Y-31389715D01*
X3318581Y-31386999D01*
X3297963Y-31380745D01*
X3278963Y-31370589D01*
X3262311Y-31356923D01*
X3248645Y-31340271D01*
X3238489Y-31321271D01*
X3232235Y-31300653D01*
X3229519Y-31273075D01*
X3229519Y-30814355D01*
X3232235Y-30786777D01*
X3238489Y-30766159D01*
X3248645Y-30747159D01*
X3262311Y-30730507D01*
X3278963Y-30716841D01*
X3297963Y-30706685D01*
X3318581Y-30700431D01*
X3346159Y-30697715D01*
X3854879Y-30697715D01*
X3882457Y-30700431D01*
X3882457Y-30700431D01*
G37*
G36*
X8681938Y-29626716D02*
X8702556Y-29632970D01*
X8721556Y-29643126D01*
X8738208Y-29656792D01*
X8751874Y-29673444D01*
X8762030Y-29692444D01*
X8768284Y-29713062D01*
X8771000Y-29740640D01*
X8771000Y-30199360D01*
X8768284Y-30226938D01*
X8762030Y-30247556D01*
X8751874Y-30266556D01*
X8738208Y-30283208D01*
X8721556Y-30296874D01*
X8702556Y-30307030D01*
X8681938Y-30313284D01*
X8654360Y-30316000D01*
X8145640Y-30316000D01*
X8118062Y-30313284D01*
X8097444Y-30307030D01*
X8078444Y-30296874D01*
X8061792Y-30283208D01*
X8048126Y-30266556D01*
X8037970Y-30247556D01*
X8031716Y-30226938D01*
X8029000Y-30199360D01*
X8029000Y-29740640D01*
X8031716Y-29713062D01*
X8037970Y-29692444D01*
X8048126Y-29673444D01*
X8061792Y-29656792D01*
X8078444Y-29643126D01*
X8097444Y-29632970D01*
X8118062Y-29626716D01*
X8145640Y-29624000D01*
X8654360Y-29624000D01*
X8681938Y-29626716D01*
X8681938Y-29626716D01*
G37*
G36*
X4131519Y-30004715D02*
X2969519Y-30004715D01*
X2969519Y-27352715D01*
X4131519Y-27352715D01*
X4131519Y-30004715D01*
X4131519Y-30004715D01*
G37*
G36*
X6331519Y-30004715D02*
X5169519Y-30004715D01*
X5169519Y-29252715D01*
X6331519Y-29252715D01*
X6331519Y-30004715D01*
X6331519Y-30004715D01*
G37*
G36*
X8681938Y-27726716D02*
X8702556Y-27732970D01*
X8721556Y-27743126D01*
X8738208Y-27756792D01*
X8751874Y-27773444D01*
X8762030Y-27792444D01*
X8768284Y-27813062D01*
X8771000Y-27840640D01*
X8771000Y-28299360D01*
X8768284Y-28326938D01*
X8762030Y-28347556D01*
X8751874Y-28366556D01*
X8738208Y-28383208D01*
X8721556Y-28396874D01*
X8702556Y-28407030D01*
X8675022Y-28415382D01*
X8652383Y-28424760D01*
X8632008Y-28438374D01*
X8614681Y-28455701D01*
X8601067Y-28476075D01*
X8591690Y-28498714D01*
X8586909Y-28522748D01*
X8586909Y-28547252D01*
X8591689Y-28571285D01*
X8601067Y-28593924D01*
X8614681Y-28614299D01*
X8632008Y-28631626D01*
X8652382Y-28645240D01*
X8675022Y-28654618D01*
X8702556Y-28662970D01*
X8721556Y-28673126D01*
X8738208Y-28686792D01*
X8751874Y-28703444D01*
X8762030Y-28722444D01*
X8768284Y-28743062D01*
X8771000Y-28770640D01*
X8771000Y-29229360D01*
X8768284Y-29256938D01*
X8762030Y-29277556D01*
X8751874Y-29296556D01*
X8738208Y-29313208D01*
X8721556Y-29326874D01*
X8702556Y-29337030D01*
X8681938Y-29343284D01*
X8654360Y-29346000D01*
X8145640Y-29346000D01*
X8118062Y-29343284D01*
X8097444Y-29337030D01*
X8078444Y-29326874D01*
X8061792Y-29313208D01*
X8048126Y-29296556D01*
X8037970Y-29277556D01*
X8031716Y-29256938D01*
X8029000Y-29229360D01*
X8029000Y-28770640D01*
X8031716Y-28743062D01*
X8037970Y-28722444D01*
X8048126Y-28703444D01*
X8061792Y-28686792D01*
X8078444Y-28673126D01*
X8097444Y-28662970D01*
X8124978Y-28654618D01*
X8147617Y-28645240D01*
X8167992Y-28631626D01*
X8185319Y-28614299D01*
X8198933Y-28593925D01*
X8208310Y-28571286D01*
X8213091Y-28547252D01*
X8213091Y-28522748D01*
X8208311Y-28498715D01*
X8198933Y-28476076D01*
X8185319Y-28455701D01*
X8167992Y-28438374D01*
X8147618Y-28424760D01*
X8124978Y-28415382D01*
X8097444Y-28407030D01*
X8078444Y-28396874D01*
X8061792Y-28383208D01*
X8048126Y-28366556D01*
X8037970Y-28347556D01*
X8031716Y-28326938D01*
X8029000Y-28299360D01*
X8029000Y-27840640D01*
X8031716Y-27813062D01*
X8037970Y-27792444D01*
X8048126Y-27773444D01*
X8061792Y-27756792D01*
X8078444Y-27743126D01*
X8097444Y-27732970D01*
X8118062Y-27726716D01*
X8145640Y-27724000D01*
X8654360Y-27724000D01*
X8681938Y-27726716D01*
X8681938Y-27726716D01*
G37*
G36*
X6331519Y-28104715D02*
X5169519Y-28104715D01*
X5169519Y-27352715D01*
X6331519Y-27352715D01*
X6331519Y-28104715D01*
X6331519Y-28104715D01*
G37*
G36*
X8681938Y-26756716D02*
X8702556Y-26762970D01*
X8721556Y-26773126D01*
X8738208Y-26786792D01*
X8751874Y-26803444D01*
X8762030Y-26822444D01*
X8768284Y-26843062D01*
X8771000Y-26870640D01*
X8771000Y-27329360D01*
X8768284Y-27356938D01*
X8762030Y-27377556D01*
X8751874Y-27396556D01*
X8738208Y-27413208D01*
X8721556Y-27426874D01*
X8702556Y-27437030D01*
X8681938Y-27443284D01*
X8654360Y-27446000D01*
X8145640Y-27446000D01*
X8118062Y-27443284D01*
X8097444Y-27437030D01*
X8078444Y-27426874D01*
X8061792Y-27413208D01*
X8048126Y-27396556D01*
X8037970Y-27377556D01*
X8031716Y-27356938D01*
X8029000Y-27329360D01*
X8029000Y-26870640D01*
X8031716Y-26843062D01*
X8037970Y-26822444D01*
X8048126Y-26803444D01*
X8061792Y-26786792D01*
X8078444Y-26773126D01*
X8097444Y-26762970D01*
X8118062Y-26756716D01*
X8145640Y-26754000D01*
X8654360Y-26754000D01*
X8681938Y-26756716D01*
X8681938Y-26756716D01*
G37*
G36*
X13301000Y-23601000D02*
X12299000Y-23601000D01*
X12299000Y-22699000D01*
X13301000Y-22699000D01*
X13301000Y-23601000D01*
X13301000Y-23601000D01*
G37*
G36*
X11301000Y-22651000D02*
X10299000Y-22651000D01*
X10299000Y-21749000D01*
X11301000Y-21749000D01*
X11301000Y-22651000D01*
X11301000Y-22651000D01*
G37*
G36*
X4401000Y-21701000D02*
X3399000Y-21701000D01*
X3399000Y-20799000D01*
X4401000Y-20799000D01*
X4401000Y-21701000D01*
X4401000Y-21701000D01*
G37*
G36*
X13301000Y-21701000D02*
X12299000Y-21701000D01*
X12299000Y-20799000D01*
X13301000Y-20799000D01*
X13301000Y-21701000D01*
X13301000Y-21701000D01*
G37*
G36*
X15341938Y-20831716D02*
X15362556Y-20837970D01*
X15381556Y-20848126D01*
X15398208Y-20861792D01*
X15411874Y-20878444D01*
X15422030Y-20897444D01*
X15428284Y-20918062D01*
X15431000Y-20945640D01*
X15431000Y-21454360D01*
X15428284Y-21481938D01*
X15422030Y-21502556D01*
X15411874Y-21521556D01*
X15398208Y-21538208D01*
X15381556Y-21551874D01*
X15362556Y-21562030D01*
X15341938Y-21568284D01*
X15314360Y-21571000D01*
X14855640Y-21571000D01*
X14828062Y-21568284D01*
X14807444Y-21562030D01*
X14788444Y-21551874D01*
X14771792Y-21538208D01*
X14758126Y-21521556D01*
X14747970Y-21502556D01*
X14741716Y-21481938D01*
X14739000Y-21454360D01*
X14739000Y-20945640D01*
X14741716Y-20918062D01*
X14747970Y-20897444D01*
X14758126Y-20878444D01*
X14771792Y-20861792D01*
X14788444Y-20848126D01*
X14807444Y-20837970D01*
X14828062Y-20831716D01*
X14855640Y-20829000D01*
X15314360Y-20829000D01*
X15341938Y-20831716D01*
X15341938Y-20831716D01*
G37*
G36*
X14371938Y-20831716D02*
X14392556Y-20837970D01*
X14411556Y-20848126D01*
X14428208Y-20861792D01*
X14441874Y-20878444D01*
X14452030Y-20897444D01*
X14458284Y-20918062D01*
X14461000Y-20945640D01*
X14461000Y-21454360D01*
X14458284Y-21481938D01*
X14452030Y-21502556D01*
X14441874Y-21521556D01*
X14428208Y-21538208D01*
X14411556Y-21551874D01*
X14392556Y-21562030D01*
X14371938Y-21568284D01*
X14344360Y-21571000D01*
X13885640Y-21571000D01*
X13858062Y-21568284D01*
X13837444Y-21562030D01*
X13818444Y-21551874D01*
X13801792Y-21538208D01*
X13788126Y-21521556D01*
X13777970Y-21502556D01*
X13771716Y-21481938D01*
X13769000Y-21454360D01*
X13769000Y-20945640D01*
X13771716Y-20918062D01*
X13777970Y-20897444D01*
X13788126Y-20878444D01*
X13801792Y-20861792D01*
X13818444Y-20848126D01*
X13837444Y-20837970D01*
X13858062Y-20831716D01*
X13885640Y-20829000D01*
X14344360Y-20829000D01*
X14371938Y-20831716D01*
X14371938Y-20831716D01*
G37*
G36*
X6401000Y-20751000D02*
X5399000Y-20751000D01*
X5399000Y-19849000D01*
X6401000Y-19849000D01*
X6401000Y-20751000D01*
X6401000Y-20751000D01*
G37*
G36*
X10981938Y-19456716D02*
X11002556Y-19462970D01*
X11021556Y-19473126D01*
X11038208Y-19486792D01*
X11051874Y-19503444D01*
X11062030Y-19522444D01*
X11068284Y-19543062D01*
X11071000Y-19570640D01*
X11071000Y-20029360D01*
X11068284Y-20056938D01*
X11062030Y-20077556D01*
X11051874Y-20096556D01*
X11038208Y-20113208D01*
X11021556Y-20126874D01*
X11002556Y-20137030D01*
X10981938Y-20143284D01*
X10954360Y-20146000D01*
X10445640Y-20146000D01*
X10418062Y-20143284D01*
X10397444Y-20137030D01*
X10378444Y-20126874D01*
X10361792Y-20113208D01*
X10348126Y-20096556D01*
X10337970Y-20077556D01*
X10331716Y-20056938D01*
X10329000Y-20029360D01*
X10329000Y-19570640D01*
X10331716Y-19543062D01*
X10337970Y-19522444D01*
X10348126Y-19503444D01*
X10361792Y-19486792D01*
X10378444Y-19473126D01*
X10397444Y-19462970D01*
X10418062Y-19456716D01*
X10445640Y-19454000D01*
X10954360Y-19454000D01*
X10981938Y-19456716D01*
X10981938Y-19456716D01*
G37*
G36*
X12081938Y-19456716D02*
X12102556Y-19462970D01*
X12121556Y-19473126D01*
X12138208Y-19486792D01*
X12151874Y-19503444D01*
X12162030Y-19522444D01*
X12168284Y-19543062D01*
X12171000Y-19570640D01*
X12171000Y-20029360D01*
X12168284Y-20056938D01*
X12162030Y-20077556D01*
X12151874Y-20096556D01*
X12138208Y-20113208D01*
X12121556Y-20126874D01*
X12102556Y-20137030D01*
X12081938Y-20143284D01*
X12054360Y-20146000D01*
X11545640Y-20146000D01*
X11518062Y-20143284D01*
X11497444Y-20137030D01*
X11478444Y-20126874D01*
X11461792Y-20113208D01*
X11448126Y-20096556D01*
X11437970Y-20077556D01*
X11431716Y-20056938D01*
X11429000Y-20029360D01*
X11429000Y-19570640D01*
X11431716Y-19543062D01*
X11437970Y-19522444D01*
X11448126Y-19503444D01*
X11461792Y-19486792D01*
X11478444Y-19473126D01*
X11497444Y-19462970D01*
X11518062Y-19456716D01*
X11545640Y-19454000D01*
X12054360Y-19454000D01*
X12081938Y-19456716D01*
X12081938Y-19456716D01*
G37*
G36*
X4401000Y-19801000D02*
X3399000Y-19801000D01*
X3399000Y-18899000D01*
X4401000Y-18899000D01*
X4401000Y-19801000D01*
X4401000Y-19801000D01*
G37*
G36*
X12081938Y-18486716D02*
X12102556Y-18492970D01*
X12121556Y-18503126D01*
X12138208Y-18516792D01*
X12151874Y-18533444D01*
X12162030Y-18552444D01*
X12168284Y-18573062D01*
X12171000Y-18600640D01*
X12171000Y-19059360D01*
X12168284Y-19086938D01*
X12162030Y-19107556D01*
X12151874Y-19126556D01*
X12138208Y-19143208D01*
X12121556Y-19156874D01*
X12102556Y-19167030D01*
X12081938Y-19173284D01*
X12054360Y-19176000D01*
X11545640Y-19176000D01*
X11518062Y-19173284D01*
X11497444Y-19167030D01*
X11478444Y-19156874D01*
X11461792Y-19143208D01*
X11448126Y-19126556D01*
X11437970Y-19107556D01*
X11431716Y-19086938D01*
X11429000Y-19059360D01*
X11429000Y-18600640D01*
X11431716Y-18573062D01*
X11437970Y-18552444D01*
X11448126Y-18533444D01*
X11461792Y-18516792D01*
X11478444Y-18503126D01*
X11497444Y-18492970D01*
X11518062Y-18486716D01*
X11545640Y-18484000D01*
X12054360Y-18484000D01*
X12081938Y-18486716D01*
X12081938Y-18486716D01*
G37*
G36*
X10981938Y-18486716D02*
X11002556Y-18492970D01*
X11021556Y-18503126D01*
X11038208Y-18516792D01*
X11051874Y-18533444D01*
X11062030Y-18552444D01*
X11068284Y-18573062D01*
X11071000Y-18600640D01*
X11071000Y-19059360D01*
X11068284Y-19086938D01*
X11062030Y-19107556D01*
X11051874Y-19126556D01*
X11038208Y-19143208D01*
X11021556Y-19156874D01*
X11002556Y-19167030D01*
X10981938Y-19173284D01*
X10954360Y-19176000D01*
X10445640Y-19176000D01*
X10418062Y-19173284D01*
X10397444Y-19167030D01*
X10378444Y-19156874D01*
X10361792Y-19143208D01*
X10348126Y-19126556D01*
X10337970Y-19107556D01*
X10331716Y-19086938D01*
X10329000Y-19059360D01*
X10329000Y-18600640D01*
X10331716Y-18573062D01*
X10337970Y-18552444D01*
X10348126Y-18533444D01*
X10361792Y-18516792D01*
X10378444Y-18503126D01*
X10397444Y-18492970D01*
X10418062Y-18486716D01*
X10445640Y-18484000D01*
X10954360Y-18484000D01*
X10981938Y-18486716D01*
X10981938Y-18486716D01*
G37*
G36*
X7718604Y-16178347D02*
X7755145Y-16189432D01*
X7788820Y-16207431D01*
X7818341Y-16231659D01*
X7842569Y-16261180D01*
X7860568Y-16294855D01*
X7871653Y-16331396D01*
X7876000Y-16375538D01*
X7876000Y-17824462D01*
X7871653Y-17868604D01*
X7860568Y-17905145D01*
X7842569Y-17938820D01*
X7818341Y-17968341D01*
X7788820Y-17992569D01*
X7755145Y-18010568D01*
X7718604Y-18021653D01*
X7674462Y-18026000D01*
X6725538Y-18026000D01*
X6681396Y-18021653D01*
X6644855Y-18010568D01*
X6611180Y-17992569D01*
X6581659Y-17968341D01*
X6557431Y-17938820D01*
X6539432Y-17905145D01*
X6528347Y-17868604D01*
X6524000Y-17824462D01*
X6524000Y-16375538D01*
X6528347Y-16331396D01*
X6539432Y-16294855D01*
X6557431Y-16261180D01*
X6581659Y-16231659D01*
X6611180Y-16207431D01*
X6644855Y-16189432D01*
X6681396Y-16178347D01*
X6725538Y-16174000D01*
X7674462Y-16174000D01*
X7718604Y-16178347D01*
X7718604Y-16178347D01*
G37*
G36*
X4918604Y-16178347D02*
X4955145Y-16189432D01*
X4988820Y-16207431D01*
X5018341Y-16231659D01*
X5042569Y-16261180D01*
X5060568Y-16294855D01*
X5071653Y-16331396D01*
X5076000Y-16375538D01*
X5076000Y-17824462D01*
X5071653Y-17868604D01*
X5060568Y-17905145D01*
X5042569Y-17938820D01*
X5018341Y-17968341D01*
X4988820Y-17992569D01*
X4955145Y-18010568D01*
X4918604Y-18021653D01*
X4874462Y-18026000D01*
X3925538Y-18026000D01*
X3881396Y-18021653D01*
X3844855Y-18010568D01*
X3811180Y-17992569D01*
X3781659Y-17968341D01*
X3757431Y-17938820D01*
X3739432Y-17905145D01*
X3728347Y-17868604D01*
X3724000Y-17824462D01*
X3724000Y-16375538D01*
X3728347Y-16331396D01*
X3739432Y-16294855D01*
X3757431Y-16261180D01*
X3781659Y-16231659D01*
X3811180Y-16207431D01*
X3844855Y-16189432D01*
X3881396Y-16178347D01*
X3925538Y-16174000D01*
X4874462Y-16174000D01*
X4918604Y-16178347D01*
X4918604Y-16178347D01*
G37*
G36*
X12366000Y-17901000D02*
X10034000Y-17901000D01*
X10034000Y-16999000D01*
X12366000Y-16999000D01*
X12366000Y-17901000D01*
X12366000Y-17901000D01*
G37*
G36*
X9801000Y-16766000D02*
X8899000Y-16766000D01*
X8899000Y-14434000D01*
X9801000Y-14434000D01*
X9801000Y-16766000D01*
X9801000Y-16766000D01*
G37*
G36*
X13501000Y-16766000D02*
X12599000Y-16766000D01*
X12599000Y-14434000D01*
X13501000Y-14434000D01*
X13501000Y-16766000D01*
X13501000Y-16766000D01*
G37*
G36*
X12276000Y-16676000D02*
X10124000Y-16676000D01*
X10124000Y-14524000D01*
X12276000Y-14524000D01*
X12276000Y-16676000D01*
X12276000Y-16676000D01*
G37*
G36*
X2881938Y-15656716D02*
X2902556Y-15662970D01*
X2921556Y-15673126D01*
X2938208Y-15686792D01*
X2951874Y-15703444D01*
X2962030Y-15722444D01*
X2968284Y-15743062D01*
X2971000Y-15770640D01*
X2971000Y-16229360D01*
X2968284Y-16256938D01*
X2962030Y-16277556D01*
X2951874Y-16296556D01*
X2938208Y-16313208D01*
X2921556Y-16326874D01*
X2902556Y-16337030D01*
X2881938Y-16343284D01*
X2854360Y-16346000D01*
X2345640Y-16346000D01*
X2318062Y-16343284D01*
X2297444Y-16337030D01*
X2278444Y-16326874D01*
X2261792Y-16313208D01*
X2248126Y-16296556D01*
X2237970Y-16277556D01*
X2231716Y-16256938D01*
X2229000Y-16229360D01*
X2229000Y-15770640D01*
X2231716Y-15743062D01*
X2237970Y-15722444D01*
X2248126Y-15703444D01*
X2261792Y-15686792D01*
X2278444Y-15673126D01*
X2297444Y-15662970D01*
X2318062Y-15656716D01*
X2345640Y-15654000D01*
X2854360Y-15654000D01*
X2881938Y-15656716D01*
X2881938Y-15656716D01*
G37*
G36*
X8281938Y-15141716D02*
X8302556Y-15147970D01*
X8321556Y-15158126D01*
X8338208Y-15171792D01*
X8351874Y-15188444D01*
X8362030Y-15207444D01*
X8368284Y-15228062D01*
X8371000Y-15255640D01*
X8371000Y-15714360D01*
X8368284Y-15741938D01*
X8362030Y-15762556D01*
X8351874Y-15781556D01*
X8338208Y-15798208D01*
X8321556Y-15811874D01*
X8302556Y-15822030D01*
X8281938Y-15828284D01*
X8254360Y-15831000D01*
X7745640Y-15831000D01*
X7718062Y-15828284D01*
X7697444Y-15822030D01*
X7678444Y-15811874D01*
X7661792Y-15798208D01*
X7648126Y-15781556D01*
X7637970Y-15762556D01*
X7631716Y-15741938D01*
X7629000Y-15714360D01*
X7629000Y-15255640D01*
X7631716Y-15228062D01*
X7637970Y-15207444D01*
X7648126Y-15188444D01*
X7661792Y-15171792D01*
X7678444Y-15158126D01*
X7697444Y-15147970D01*
X7718062Y-15141716D01*
X7745640Y-15139000D01*
X8254360Y-15139000D01*
X8281938Y-15141716D01*
X8281938Y-15141716D01*
G37*
G36*
X7281938Y-15126716D02*
X7302556Y-15132970D01*
X7321556Y-15143126D01*
X7338208Y-15156792D01*
X7351874Y-15173444D01*
X7362030Y-15192444D01*
X7368284Y-15213062D01*
X7371000Y-15240640D01*
X7371000Y-15699360D01*
X7368284Y-15726938D01*
X7362030Y-15747556D01*
X7351874Y-15766556D01*
X7338208Y-15783208D01*
X7321556Y-15796874D01*
X7302556Y-15807030D01*
X7281938Y-15813284D01*
X7254360Y-15816000D01*
X6745640Y-15816000D01*
X6718062Y-15813284D01*
X6697444Y-15807030D01*
X6678444Y-15796874D01*
X6661792Y-15783208D01*
X6648126Y-15766556D01*
X6637970Y-15747556D01*
X6631716Y-15726938D01*
X6629000Y-15699360D01*
X6629000Y-15240640D01*
X6631716Y-15213062D01*
X6637970Y-15192444D01*
X6648126Y-15173444D01*
X6661792Y-15156792D01*
X6678444Y-15143126D01*
X6697444Y-15132970D01*
X6718062Y-15126716D01*
X6745640Y-15124000D01*
X7254360Y-15124000D01*
X7281938Y-15126716D01*
X7281938Y-15126716D01*
G37*
G36*
X2881938Y-14686716D02*
X2902556Y-14692970D01*
X2921556Y-14703126D01*
X2938208Y-14716792D01*
X2951874Y-14733444D01*
X2962030Y-14752444D01*
X2968284Y-14773062D01*
X2971000Y-14800640D01*
X2971000Y-15259360D01*
X2968284Y-15286938D01*
X2962030Y-15307556D01*
X2951874Y-15326556D01*
X2938208Y-15343208D01*
X2921556Y-15356874D01*
X2902556Y-15367030D01*
X2881938Y-15373284D01*
X2854360Y-15376000D01*
X2345640Y-15376000D01*
X2318062Y-15373284D01*
X2297444Y-15367030D01*
X2278444Y-15356874D01*
X2261792Y-15343208D01*
X2248126Y-15326556D01*
X2237970Y-15307556D01*
X2231716Y-15286938D01*
X2229000Y-15259360D01*
X2229000Y-14800640D01*
X2231716Y-14773062D01*
X2237970Y-14752444D01*
X2248126Y-14733444D01*
X2261792Y-14716792D01*
X2278444Y-14703126D01*
X2297444Y-14692970D01*
X2318062Y-14686716D01*
X2345640Y-14684000D01*
X2854360Y-14684000D01*
X2881938Y-14686716D01*
X2881938Y-14686716D01*
G37*
G36*
X8281938Y-14171716D02*
X8302556Y-14177970D01*
X8321556Y-14188126D01*
X8338208Y-14201792D01*
X8351874Y-14218444D01*
X8362030Y-14237444D01*
X8368284Y-14258062D01*
X8371000Y-14285640D01*
X8371000Y-14744360D01*
X8368284Y-14771938D01*
X8362030Y-14792556D01*
X8351874Y-14811556D01*
X8338208Y-14828208D01*
X8321556Y-14841874D01*
X8302556Y-14852030D01*
X8281938Y-14858284D01*
X8254360Y-14861000D01*
X7745640Y-14861000D01*
X7718062Y-14858284D01*
X7697444Y-14852030D01*
X7678444Y-14841874D01*
X7661792Y-14828208D01*
X7648126Y-14811556D01*
X7637970Y-14792556D01*
X7631716Y-14771938D01*
X7629000Y-14744360D01*
X7629000Y-14285640D01*
X7631716Y-14258062D01*
X7637970Y-14237444D01*
X7648126Y-14218444D01*
X7661792Y-14201792D01*
X7678444Y-14188126D01*
X7697444Y-14177970D01*
X7718062Y-14171716D01*
X7745640Y-14169000D01*
X8254360Y-14169000D01*
X8281938Y-14171716D01*
X8281938Y-14171716D01*
G37*
G36*
X7281938Y-14156716D02*
X7302556Y-14162970D01*
X7321556Y-14173126D01*
X7338208Y-14186792D01*
X7351874Y-14203444D01*
X7362030Y-14222444D01*
X7368284Y-14243062D01*
X7371000Y-14270640D01*
X7371000Y-14729360D01*
X7368284Y-14756938D01*
X7362030Y-14777556D01*
X7351874Y-14796556D01*
X7338208Y-14813208D01*
X7321556Y-14826874D01*
X7302556Y-14837030D01*
X7281938Y-14843284D01*
X7254360Y-14846000D01*
X6745640Y-14846000D01*
X6718062Y-14843284D01*
X6697444Y-14837030D01*
X6678444Y-14826874D01*
X6661792Y-14813208D01*
X6648126Y-14796556D01*
X6637970Y-14777556D01*
X6631716Y-14756938D01*
X6629000Y-14729360D01*
X6629000Y-14270640D01*
X6631716Y-14243062D01*
X6637970Y-14222444D01*
X6648126Y-14203444D01*
X6661792Y-14186792D01*
X6678444Y-14173126D01*
X6697444Y-14162970D01*
X6718062Y-14156716D01*
X6745640Y-14154000D01*
X7254360Y-14154000D01*
X7281938Y-14156716D01*
X7281938Y-14156716D01*
G37*
G36*
X2881938Y-13541716D02*
X2902556Y-13547970D01*
X2921556Y-13558126D01*
X2938208Y-13571792D01*
X2951874Y-13588444D01*
X2962030Y-13607444D01*
X2968284Y-13628062D01*
X2971000Y-13655640D01*
X2971000Y-14114360D01*
X2968284Y-14141938D01*
X2962030Y-14162556D01*
X2951874Y-14181556D01*
X2938208Y-14198208D01*
X2921556Y-14211874D01*
X2902556Y-14222030D01*
X2881938Y-14228284D01*
X2854360Y-14231000D01*
X2345640Y-14231000D01*
X2318062Y-14228284D01*
X2297444Y-14222030D01*
X2278444Y-14211874D01*
X2261792Y-14198208D01*
X2248126Y-14181556D01*
X2237970Y-14162556D01*
X2231716Y-14141938D01*
X2229000Y-14114360D01*
X2229000Y-13655640D01*
X2231716Y-13628062D01*
X2237970Y-13607444D01*
X2248126Y-13588444D01*
X2261792Y-13571792D01*
X2278444Y-13558126D01*
X2297444Y-13547970D01*
X2318062Y-13541716D01*
X2345640Y-13539000D01*
X2854360Y-13539000D01*
X2881938Y-13541716D01*
X2881938Y-13541716D01*
G37*
G36*
X12366000Y-14201000D02*
X10034000Y-14201000D01*
X10034000Y-13299000D01*
X12366000Y-13299000D01*
X12366000Y-14201000D01*
X12366000Y-14201000D01*
G37*
G36*
X2881938Y-12571716D02*
X2902556Y-12577970D01*
X2921556Y-12588126D01*
X2938208Y-12601792D01*
X2951874Y-12618444D01*
X2962030Y-12637444D01*
X2968284Y-12658062D01*
X2971000Y-12685640D01*
X2971000Y-13144360D01*
X2968284Y-13171938D01*
X2962030Y-13192556D01*
X2951874Y-13211556D01*
X2938208Y-13228208D01*
X2921556Y-13241874D01*
X2902556Y-13252030D01*
X2881938Y-13258284D01*
X2854360Y-13261000D01*
X2345640Y-13261000D01*
X2318062Y-13258284D01*
X2297444Y-13252030D01*
X2278444Y-13241874D01*
X2261792Y-13228208D01*
X2248126Y-13211556D01*
X2237970Y-13192556D01*
X2231716Y-13171938D01*
X2229000Y-13144360D01*
X2229000Y-12685640D01*
X2231716Y-12658062D01*
X2237970Y-12637444D01*
X2248126Y-12618444D01*
X2261792Y-12601792D01*
X2278444Y-12588126D01*
X2297444Y-12577970D01*
X2318062Y-12571716D01*
X2345640Y-12569000D01*
X2854360Y-12569000D01*
X2881938Y-12571716D01*
X2881938Y-12571716D01*
G37*
G36*
X12681938Y-12241716D02*
X12702556Y-12247970D01*
X12721556Y-12258126D01*
X12738208Y-12271792D01*
X12751874Y-12288444D01*
X12762030Y-12307444D01*
X12768284Y-12328062D01*
X12771000Y-12355640D01*
X12771000Y-12814360D01*
X12768284Y-12841938D01*
X12762030Y-12862556D01*
X12751874Y-12881556D01*
X12738208Y-12898208D01*
X12721556Y-12911874D01*
X12702556Y-12922030D01*
X12681938Y-12928284D01*
X12654360Y-12931000D01*
X12145640Y-12931000D01*
X12118062Y-12928284D01*
X12097444Y-12922030D01*
X12078444Y-12911874D01*
X12061792Y-12898208D01*
X12048126Y-12881556D01*
X12037970Y-12862556D01*
X12031716Y-12841938D01*
X12029000Y-12814360D01*
X12029000Y-12355640D01*
X12031716Y-12328062D01*
X12037970Y-12307444D01*
X12048126Y-12288444D01*
X12061792Y-12271792D01*
X12078444Y-12258126D01*
X12097444Y-12247970D01*
X12118062Y-12241716D01*
X12145640Y-12239000D01*
X12654360Y-12239000D01*
X12681938Y-12241716D01*
X12681938Y-12241716D01*
G37*
G36*
X10146000Y-9974000D02*
X10148402Y-9998386D01*
X10155515Y-10021835D01*
X10167066Y-10043446D01*
X10182612Y-10062388D01*
X10201554Y-10077934D01*
X10223165Y-10089485D01*
X10246614Y-10096598D01*
X10271000Y-10099000D01*
X10351000Y-10099000D01*
X10351000Y-12101000D01*
X10236000Y-12101000D01*
X10211614Y-12103402D01*
X10188165Y-12110515D01*
X10166554Y-12122066D01*
X10147612Y-12137612D01*
X10132066Y-12156554D01*
X10120515Y-12178165D01*
X10113402Y-12201614D01*
X10111000Y-12226000D01*
X10111000Y-12851000D01*
X7679000Y-12851000D01*
X7679000Y-12226000D01*
X7676598Y-12201614D01*
X7669485Y-12178165D01*
X7657934Y-12156554D01*
X7642388Y-12137612D01*
X7623446Y-12122066D01*
X7601835Y-12110515D01*
X7578386Y-12103402D01*
X7554000Y-12101000D01*
X7449000Y-12101000D01*
X7449000Y-10099000D01*
X7529000Y-10099000D01*
X7553386Y-10096598D01*
X7576835Y-10089485D01*
X7598446Y-10077934D01*
X7617388Y-10062388D01*
X7632934Y-10043446D01*
X7644485Y-10021835D01*
X7651598Y-9998386D01*
X7654000Y-9974000D01*
X7654000Y-9349000D01*
X10146000Y-9349000D01*
X10146000Y-9974000D01*
X10146000Y-9974000D01*
G37*
G36*
X11381938Y-11956716D02*
X11402556Y-11962970D01*
X11421556Y-11973126D01*
X11438208Y-11986792D01*
X11451874Y-12003444D01*
X11462030Y-12022444D01*
X11468284Y-12043062D01*
X11471000Y-12070640D01*
X11471000Y-12529360D01*
X11468284Y-12556938D01*
X11462030Y-12577556D01*
X11451874Y-12596556D01*
X11438208Y-12613208D01*
X11421556Y-12626874D01*
X11402556Y-12637030D01*
X11381938Y-12643284D01*
X11354360Y-12646000D01*
X10845640Y-12646000D01*
X10818062Y-12643284D01*
X10797444Y-12637030D01*
X10778444Y-12626874D01*
X10761792Y-12613208D01*
X10748126Y-12596556D01*
X10737970Y-12577556D01*
X10731716Y-12556938D01*
X10729000Y-12529360D01*
X10729000Y-12070640D01*
X10731716Y-12043062D01*
X10737970Y-12022444D01*
X10748126Y-12003444D01*
X10761792Y-11986792D01*
X10778444Y-11973126D01*
X10797444Y-11962970D01*
X10818062Y-11956716D01*
X10845640Y-11954000D01*
X11354360Y-11954000D01*
X11381938Y-11956716D01*
X11381938Y-11956716D01*
G37*
G36*
X12681938Y-11271716D02*
X12702556Y-11277970D01*
X12721556Y-11288126D01*
X12738208Y-11301792D01*
X12751874Y-11318444D01*
X12762030Y-11337444D01*
X12768284Y-11358062D01*
X12771000Y-11385640D01*
X12771000Y-11844360D01*
X12768284Y-11871938D01*
X12762030Y-11892556D01*
X12751874Y-11911556D01*
X12738208Y-11928208D01*
X12721556Y-11941874D01*
X12702556Y-11952030D01*
X12681938Y-11958284D01*
X12654360Y-11961000D01*
X12145640Y-11961000D01*
X12118062Y-11958284D01*
X12097444Y-11952030D01*
X12078444Y-11941874D01*
X12061792Y-11928208D01*
X12048126Y-11911556D01*
X12037970Y-11892556D01*
X12031716Y-11871938D01*
X12029000Y-11844360D01*
X12029000Y-11385640D01*
X12031716Y-11358062D01*
X12037970Y-11337444D01*
X12048126Y-11318444D01*
X12061792Y-11301792D01*
X12078444Y-11288126D01*
X12097444Y-11277970D01*
X12118062Y-11271716D01*
X12145640Y-11269000D01*
X12654360Y-11269000D01*
X12681938Y-11271716D01*
X12681938Y-11271716D01*
G37*
G36*
X11381938Y-10986716D02*
X11402556Y-10992970D01*
X11421556Y-11003126D01*
X11438208Y-11016792D01*
X11451874Y-11033444D01*
X11462030Y-11052444D01*
X11468284Y-11073062D01*
X11471000Y-11100640D01*
X11471000Y-11559360D01*
X11468284Y-11586938D01*
X11462030Y-11607556D01*
X11451874Y-11626556D01*
X11438208Y-11643208D01*
X11421556Y-11656874D01*
X11402556Y-11667030D01*
X11381938Y-11673284D01*
X11354360Y-11676000D01*
X10845640Y-11676000D01*
X10818062Y-11673284D01*
X10797444Y-11667030D01*
X10778444Y-11656874D01*
X10761792Y-11643208D01*
X10748126Y-11626556D01*
X10737970Y-11607556D01*
X10731716Y-11586938D01*
X10729000Y-11559360D01*
X10729000Y-11100640D01*
X10731716Y-11073062D01*
X10737970Y-11052444D01*
X10748126Y-11033444D01*
X10761792Y-11016792D01*
X10778444Y-11003126D01*
X10797444Y-10992970D01*
X10818062Y-10986716D01*
X10845640Y-10984000D01*
X11354360Y-10984000D01*
X11381938Y-10986716D01*
X11381938Y-10986716D01*
G37*
M02*
