M48
;DRILL file {KiCad 5.0.1-33cea8e~68~ubuntu16.04.1} date Wed 19 Dec 2018 12:22:00 PM EST
;FORMAT={-:-/ absolute / inch / decimal}
FMAT,2
INCH,TZ
T1C0.0138
%
G90
G05
M72
T1
X0.0424Y-1.1932
X0.0876Y-1.3228
X0.0876Y-1.3799
X0.0965Y-0.7992
X0.0965Y-0.8209
X0.1063Y-0.8386
X0.1398Y-1.0246
X0.1398Y-1.0404
X0.1407Y-1.0582
X0.1575Y-0.1496
X0.1575Y-0.1732
X0.1575Y-0.1969
X0.1811Y-0.1496
X0.1811Y-0.1732
X0.1811Y-0.1969
X0.2047Y-0.1496
X0.2047Y-0.1732
X0.2047Y-0.1969
X0.2126Y-0.4665
X0.2283Y-0.1496
X0.2283Y-0.1732
X0.2283Y-0.1969
X0.2323Y-0.6437
X0.252Y-0.1496
X0.252Y-0.1732
X0.252Y-0.1969
X0.2648Y-1.1614
X0.2648Y-1.1791
X0.2648Y-1.1969
X0.2648Y-1.2146
X0.2648Y-1.2323
X0.2667Y-1.2972
X0.2687Y-1.3533
X0.2717Y-0.4646
X0.2717Y-1.4114
X0.2756Y-0.1496
X0.2756Y-0.1732
X0.2756Y-0.1969
X0.2756Y-0.6091
X0.2913Y-0.2362
X0.2913Y-0.2598
X0.2913Y-0.2835
X0.2913Y-0.3071
X0.2913Y-0.3307
X0.3022Y-1.0659
X0.315Y-0.2362
X0.315Y-0.2598
X0.315Y-0.2835
X0.315Y-0.3071
X0.315Y-0.3307
X0.3317Y-1.4144
X0.3376Y-1.2697
X0.3376Y-1.3159
X0.3386Y-0.2362
X0.3386Y-0.2598
X0.3386Y-0.2835
X0.3386Y-0.3071
X0.3386Y-0.3307
X0.3425Y-0.6142
X0.3484Y-0.5531
X0.35Y-0.4883
X0.3501Y-0.5273
X0.3532Y-1.0055
X0.3602Y-1.0561
X0.3622Y-0.2362
X0.3622Y-0.2598
X0.3622Y-0.2835
X0.3622Y-0.3071
X0.3622Y-0.3307
X0.3711Y-0.5522
X0.376Y-1.2313
X0.378Y-0.8415
X0.3804Y-0.5144
X0.3858Y-0.2362
X0.3858Y-0.2598
X0.3858Y-0.2835
X0.3858Y-0.3071
X0.3858Y-0.3307
X0.4044Y-0.5787
X0.4094Y-0.2362
X0.4094Y-0.2598
X0.4094Y-0.2835
X0.4094Y-0.3071
X0.4094Y-0.3307
X0.4213Y-0.5118
X0.4213Y-0.7165
X0.4284Y-1.174
X0.4416Y-0.7125
X0.442Y-0.5117
X0.4437Y-1.1977
X0.4459Y-1.5728
X0.4597Y-0.6197
X0.4628Y-0.5118
X0.4644Y-1.1988
X0.4724Y-0.6457
X0.4764Y-0.5768
X0.4852Y-1.1989
X0.4872Y-0.4163
X0.5059Y-1.1998
X0.5197Y-0.4094
X0.5197Y-0.4272
X0.5197Y-0.4449
X0.5197Y-0.4626
X0.5217Y-0.4803
X0.5217Y-0.498
X0.5226Y-1.5679
X0.5374Y-0.6772
X0.5394Y-0.4094
X0.5394Y-0.4272
X0.5394Y-0.4449
X0.5394Y-0.4626
X0.5394Y-0.4803
X0.5394Y-0.498
X0.5394Y-1.1693
X0.5571Y-0.4094
X0.5571Y-0.4272
X0.5591Y-0.6535
X0.561Y-0.5472
X0.5748Y-0.4094
X0.5748Y-0.4272
X0.5787Y-1.2087
X0.5886Y-1.2441
X0.6063Y-1.7126
X0.6063Y-1.7421
X0.6063Y-1.7707
X0.6211Y-0.5531
X0.622Y-1.2992
X0.6299Y-0.6407
X0.6614Y-1.3237
X0.6693Y-0.7953
X0.6703Y-0.2175
X0.6791Y-0.2598
X0.6929Y-0.7953
X0.7165Y-0.7953
X0.7402Y-0.7953
X0.7638Y-0.7953
X0.7874Y-0.7953
X0.811Y-0.7953
X0.811Y-1.2746
X0.814Y-1.2352
X0.8346Y-0.7953
X0.8366Y-1.485
X0.8425Y-1.3701
X0.8445Y-1.252
X0.8583Y-0.7953
X0.8789Y-1.2323
X0.8789Y-1.2746
X0.8819Y-0.7953
X0.9055Y-0.7953
X0.9291Y-0.7953
X0.9528Y-0.7953
X0.9764Y-0.7953
X0.9961Y-1.4941
X0.9961Y-1.5177
X0.9961Y-1.5177
X0.9961Y-1.7008
X0.9961Y-1.7323
X0.9961Y-1.7638
X0.9961Y-1.7953
X0.9961Y-1.815
X1.Y-0.7953
X1.0236Y-0.7953
X1.0472Y-0.7953
X1.0492Y-1.127
X1.0699Y-1.1063
X1.0709Y-0.7953
X1.0709Y-1.438
X1.0748Y-1.7165
X1.0748Y-1.7402
X1.0748Y-1.7638
X1.0748Y-1.7874
X1.0748Y-1.8071
X1.0846Y-1.438
X1.0945Y-0.7953
X1.1093Y-1.3976
X1.1181Y-0.7953
X1.124Y-0.752
X1.1417Y-0.7953
X1.1526Y-1.5797
X1.1693Y-0.7953
X1.1916Y-1.5702
X1.1969Y-0.7953
X1.1969Y-0.7953
X1.1969Y-0.7953
X1.2205Y-0.7953
X1.2441Y-0.7953
X1.2638Y-1.4183
X1.2638Y-1.4419
X1.2638Y-1.4656
X1.2638Y-1.4892
X1.2677Y-0.7953
X1.2874Y-1.4183
X1.2874Y-1.4419
X1.2874Y-1.4892
X1.2913Y-0.7953
X1.3012Y-1.5689
X1.311Y-1.4183
X1.311Y-1.4419
X1.311Y-1.4656
X1.311Y-1.4892
X1.315Y-0.7953
X1.3346Y-0.5965
X1.3386Y-0.7953
X1.3583Y-1.5443
X1.3622Y-0.7953
X1.374Y-1.4689
X1.378Y-0.502
X1.3848Y-1.5699
X1.3858Y-0.7953
X1.3858Y-0.8189
X1.3858Y-0.8425
X1.3858Y-0.8661
X1.3858Y-0.8898
X1.4567Y-0.5
X1.501Y-0.5591
X1.5167Y-0.4921
X1.7205Y-1.5285
X1.7205Y-1.5522
X1.7205Y-1.5758
X1.7205Y-1.5994
X1.7372Y-1.0689
X1.7372Y-1.0925
X1.7372Y-1.1161
X1.7441Y-0.7165
X1.7441Y-0.7402
X1.7441Y-0.7638
X1.7441Y-1.5285
X1.7441Y-1.5522
X1.7441Y-1.5758
X1.7441Y-1.5994
X1.7608Y-1.0689
X1.7608Y-1.0925
X1.7608Y-1.1161
X1.7608Y-1.1398
X1.7677Y-0.7165
X1.7677Y-0.7402
X1.7677Y-0.7638
X1.7677Y-0.7874
X1.7677Y-1.5285
X1.7677Y-1.5522
X1.7677Y-1.5758
X1.7844Y-1.0689
X1.7844Y-1.0925
X1.7844Y-1.1161
X1.7844Y-1.1398
X1.7913Y-0.7165
X1.7913Y-0.7402
X1.7913Y-0.7638
X1.7913Y-0.7874
X1.7913Y-1.5285
X1.7913Y-1.5522
X1.7913Y-1.5758
X1.815Y-1.5285
X1.815Y-1.5522
X1.815Y-1.5758
T0
M30
