G04 #@! TF.GenerationSoftware,KiCad,Pcbnew,5.0.1-33cea8e~68~ubuntu16.04.1*
G04 #@! TF.CreationDate,2018-12-19T15:09:20-05:00*
G04 #@! TF.ProjectId,SmallKat Battery Charger,536D616C6C4B61742042617474657279,rev?*
G04 #@! TF.SameCoordinates,Original*
G04 #@! TF.FileFunction,Paste,Bot*
G04 #@! TF.FilePolarity,Positive*
%FSLAX46Y46*%
G04 Gerber Fmt 4.6, Leading zero omitted, Abs format (unit mm)*
G04 Created by KiCad (PCBNEW 5.0.1-33cea8e~68~ubuntu16.04.1) date Wed 19 Dec 2018 03:09:20 PM EST*
%MOMM*%
%LPD*%
G01*
G04 APERTURE LIST*
%ADD10C,0.100000*%
%ADD11C,0.590000*%
%ADD12R,0.900000X0.800000*%
%ADD13C,0.930000*%
%ADD14C,0.250000*%
%ADD15R,2.050000X2.050000*%
%ADD16R,0.800000X0.230000*%
%ADD17R,0.230000X0.800000*%
%ADD18R,1.060000X0.650000*%
G04 APERTURE END LIST*
D10*
G04 #@! TO.C,C1*
G36*
X11286958Y-11035710D02*
X11301276Y-11037834D01*
X11315317Y-11041351D01*
X11328946Y-11046228D01*
X11342031Y-11052417D01*
X11354447Y-11059858D01*
X11366073Y-11068481D01*
X11376798Y-11078202D01*
X11386519Y-11088927D01*
X11395142Y-11100553D01*
X11402583Y-11112969D01*
X11408772Y-11126054D01*
X11413649Y-11139683D01*
X11417166Y-11153724D01*
X11419290Y-11168042D01*
X11420000Y-11182500D01*
X11420000Y-11477500D01*
X11419290Y-11491958D01*
X11417166Y-11506276D01*
X11413649Y-11520317D01*
X11408772Y-11533946D01*
X11402583Y-11547031D01*
X11395142Y-11559447D01*
X11386519Y-11571073D01*
X11376798Y-11581798D01*
X11366073Y-11591519D01*
X11354447Y-11600142D01*
X11342031Y-11607583D01*
X11328946Y-11613772D01*
X11315317Y-11618649D01*
X11301276Y-11622166D01*
X11286958Y-11624290D01*
X11272500Y-11625000D01*
X10927500Y-11625000D01*
X10913042Y-11624290D01*
X10898724Y-11622166D01*
X10884683Y-11618649D01*
X10871054Y-11613772D01*
X10857969Y-11607583D01*
X10845553Y-11600142D01*
X10833927Y-11591519D01*
X10823202Y-11581798D01*
X10813481Y-11571073D01*
X10804858Y-11559447D01*
X10797417Y-11547031D01*
X10791228Y-11533946D01*
X10786351Y-11520317D01*
X10782834Y-11506276D01*
X10780710Y-11491958D01*
X10780000Y-11477500D01*
X10780000Y-11182500D01*
X10780710Y-11168042D01*
X10782834Y-11153724D01*
X10786351Y-11139683D01*
X10791228Y-11126054D01*
X10797417Y-11112969D01*
X10804858Y-11100553D01*
X10813481Y-11088927D01*
X10823202Y-11078202D01*
X10833927Y-11068481D01*
X10845553Y-11059858D01*
X10857969Y-11052417D01*
X10871054Y-11046228D01*
X10884683Y-11041351D01*
X10898724Y-11037834D01*
X10913042Y-11035710D01*
X10927500Y-11035000D01*
X11272500Y-11035000D01*
X11286958Y-11035710D01*
X11286958Y-11035710D01*
G37*
D11*
X11100000Y-11330000D03*
D10*
G36*
X11286958Y-12005710D02*
X11301276Y-12007834D01*
X11315317Y-12011351D01*
X11328946Y-12016228D01*
X11342031Y-12022417D01*
X11354447Y-12029858D01*
X11366073Y-12038481D01*
X11376798Y-12048202D01*
X11386519Y-12058927D01*
X11395142Y-12070553D01*
X11402583Y-12082969D01*
X11408772Y-12096054D01*
X11413649Y-12109683D01*
X11417166Y-12123724D01*
X11419290Y-12138042D01*
X11420000Y-12152500D01*
X11420000Y-12447500D01*
X11419290Y-12461958D01*
X11417166Y-12476276D01*
X11413649Y-12490317D01*
X11408772Y-12503946D01*
X11402583Y-12517031D01*
X11395142Y-12529447D01*
X11386519Y-12541073D01*
X11376798Y-12551798D01*
X11366073Y-12561519D01*
X11354447Y-12570142D01*
X11342031Y-12577583D01*
X11328946Y-12583772D01*
X11315317Y-12588649D01*
X11301276Y-12592166D01*
X11286958Y-12594290D01*
X11272500Y-12595000D01*
X10927500Y-12595000D01*
X10913042Y-12594290D01*
X10898724Y-12592166D01*
X10884683Y-12588649D01*
X10871054Y-12583772D01*
X10857969Y-12577583D01*
X10845553Y-12570142D01*
X10833927Y-12561519D01*
X10823202Y-12551798D01*
X10813481Y-12541073D01*
X10804858Y-12529447D01*
X10797417Y-12517031D01*
X10791228Y-12503946D01*
X10786351Y-12490317D01*
X10782834Y-12476276D01*
X10780710Y-12461958D01*
X10780000Y-12447500D01*
X10780000Y-12152500D01*
X10780710Y-12138042D01*
X10782834Y-12123724D01*
X10786351Y-12109683D01*
X10791228Y-12096054D01*
X10797417Y-12082969D01*
X10804858Y-12070553D01*
X10813481Y-12058927D01*
X10823202Y-12048202D01*
X10833927Y-12038481D01*
X10845553Y-12029858D01*
X10857969Y-12022417D01*
X10871054Y-12016228D01*
X10884683Y-12011351D01*
X10898724Y-12007834D01*
X10913042Y-12005710D01*
X10927500Y-12005000D01*
X11272500Y-12005000D01*
X11286958Y-12005710D01*
X11286958Y-12005710D01*
G37*
D11*
X11100000Y-12300000D03*
G04 #@! TD*
D10*
G04 #@! TO.C,C2*
G36*
X10886958Y-18535710D02*
X10901276Y-18537834D01*
X10915317Y-18541351D01*
X10928946Y-18546228D01*
X10942031Y-18552417D01*
X10954447Y-18559858D01*
X10966073Y-18568481D01*
X10976798Y-18578202D01*
X10986519Y-18588927D01*
X10995142Y-18600553D01*
X11002583Y-18612969D01*
X11008772Y-18626054D01*
X11013649Y-18639683D01*
X11017166Y-18653724D01*
X11019290Y-18668042D01*
X11020000Y-18682500D01*
X11020000Y-18977500D01*
X11019290Y-18991958D01*
X11017166Y-19006276D01*
X11013649Y-19020317D01*
X11008772Y-19033946D01*
X11002583Y-19047031D01*
X10995142Y-19059447D01*
X10986519Y-19071073D01*
X10976798Y-19081798D01*
X10966073Y-19091519D01*
X10954447Y-19100142D01*
X10942031Y-19107583D01*
X10928946Y-19113772D01*
X10915317Y-19118649D01*
X10901276Y-19122166D01*
X10886958Y-19124290D01*
X10872500Y-19125000D01*
X10527500Y-19125000D01*
X10513042Y-19124290D01*
X10498724Y-19122166D01*
X10484683Y-19118649D01*
X10471054Y-19113772D01*
X10457969Y-19107583D01*
X10445553Y-19100142D01*
X10433927Y-19091519D01*
X10423202Y-19081798D01*
X10413481Y-19071073D01*
X10404858Y-19059447D01*
X10397417Y-19047031D01*
X10391228Y-19033946D01*
X10386351Y-19020317D01*
X10382834Y-19006276D01*
X10380710Y-18991958D01*
X10380000Y-18977500D01*
X10380000Y-18682500D01*
X10380710Y-18668042D01*
X10382834Y-18653724D01*
X10386351Y-18639683D01*
X10391228Y-18626054D01*
X10397417Y-18612969D01*
X10404858Y-18600553D01*
X10413481Y-18588927D01*
X10423202Y-18578202D01*
X10433927Y-18568481D01*
X10445553Y-18559858D01*
X10457969Y-18552417D01*
X10471054Y-18546228D01*
X10484683Y-18541351D01*
X10498724Y-18537834D01*
X10513042Y-18535710D01*
X10527500Y-18535000D01*
X10872500Y-18535000D01*
X10886958Y-18535710D01*
X10886958Y-18535710D01*
G37*
D11*
X10700000Y-18830000D03*
D10*
G36*
X10886958Y-19505710D02*
X10901276Y-19507834D01*
X10915317Y-19511351D01*
X10928946Y-19516228D01*
X10942031Y-19522417D01*
X10954447Y-19529858D01*
X10966073Y-19538481D01*
X10976798Y-19548202D01*
X10986519Y-19558927D01*
X10995142Y-19570553D01*
X11002583Y-19582969D01*
X11008772Y-19596054D01*
X11013649Y-19609683D01*
X11017166Y-19623724D01*
X11019290Y-19638042D01*
X11020000Y-19652500D01*
X11020000Y-19947500D01*
X11019290Y-19961958D01*
X11017166Y-19976276D01*
X11013649Y-19990317D01*
X11008772Y-20003946D01*
X11002583Y-20017031D01*
X10995142Y-20029447D01*
X10986519Y-20041073D01*
X10976798Y-20051798D01*
X10966073Y-20061519D01*
X10954447Y-20070142D01*
X10942031Y-20077583D01*
X10928946Y-20083772D01*
X10915317Y-20088649D01*
X10901276Y-20092166D01*
X10886958Y-20094290D01*
X10872500Y-20095000D01*
X10527500Y-20095000D01*
X10513042Y-20094290D01*
X10498724Y-20092166D01*
X10484683Y-20088649D01*
X10471054Y-20083772D01*
X10457969Y-20077583D01*
X10445553Y-20070142D01*
X10433927Y-20061519D01*
X10423202Y-20051798D01*
X10413481Y-20041073D01*
X10404858Y-20029447D01*
X10397417Y-20017031D01*
X10391228Y-20003946D01*
X10386351Y-19990317D01*
X10382834Y-19976276D01*
X10380710Y-19961958D01*
X10380000Y-19947500D01*
X10380000Y-19652500D01*
X10380710Y-19638042D01*
X10382834Y-19623724D01*
X10386351Y-19609683D01*
X10391228Y-19596054D01*
X10397417Y-19582969D01*
X10404858Y-19570553D01*
X10413481Y-19558927D01*
X10423202Y-19548202D01*
X10433927Y-19538481D01*
X10445553Y-19529858D01*
X10457969Y-19522417D01*
X10471054Y-19516228D01*
X10484683Y-19511351D01*
X10498724Y-19507834D01*
X10513042Y-19505710D01*
X10527500Y-19505000D01*
X10872500Y-19505000D01*
X10886958Y-19505710D01*
X10886958Y-19505710D01*
G37*
D11*
X10700000Y-19800000D03*
G04 #@! TD*
D10*
G04 #@! TO.C,C3*
G36*
X15246958Y-20880710D02*
X15261276Y-20882834D01*
X15275317Y-20886351D01*
X15288946Y-20891228D01*
X15302031Y-20897417D01*
X15314447Y-20904858D01*
X15326073Y-20913481D01*
X15336798Y-20923202D01*
X15346519Y-20933927D01*
X15355142Y-20945553D01*
X15362583Y-20957969D01*
X15368772Y-20971054D01*
X15373649Y-20984683D01*
X15377166Y-20998724D01*
X15379290Y-21013042D01*
X15380000Y-21027500D01*
X15380000Y-21372500D01*
X15379290Y-21386958D01*
X15377166Y-21401276D01*
X15373649Y-21415317D01*
X15368772Y-21428946D01*
X15362583Y-21442031D01*
X15355142Y-21454447D01*
X15346519Y-21466073D01*
X15336798Y-21476798D01*
X15326073Y-21486519D01*
X15314447Y-21495142D01*
X15302031Y-21502583D01*
X15288946Y-21508772D01*
X15275317Y-21513649D01*
X15261276Y-21517166D01*
X15246958Y-21519290D01*
X15232500Y-21520000D01*
X14937500Y-21520000D01*
X14923042Y-21519290D01*
X14908724Y-21517166D01*
X14894683Y-21513649D01*
X14881054Y-21508772D01*
X14867969Y-21502583D01*
X14855553Y-21495142D01*
X14843927Y-21486519D01*
X14833202Y-21476798D01*
X14823481Y-21466073D01*
X14814858Y-21454447D01*
X14807417Y-21442031D01*
X14801228Y-21428946D01*
X14796351Y-21415317D01*
X14792834Y-21401276D01*
X14790710Y-21386958D01*
X14790000Y-21372500D01*
X14790000Y-21027500D01*
X14790710Y-21013042D01*
X14792834Y-20998724D01*
X14796351Y-20984683D01*
X14801228Y-20971054D01*
X14807417Y-20957969D01*
X14814858Y-20945553D01*
X14823481Y-20933927D01*
X14833202Y-20923202D01*
X14843927Y-20913481D01*
X14855553Y-20904858D01*
X14867969Y-20897417D01*
X14881054Y-20891228D01*
X14894683Y-20886351D01*
X14908724Y-20882834D01*
X14923042Y-20880710D01*
X14937500Y-20880000D01*
X15232500Y-20880000D01*
X15246958Y-20880710D01*
X15246958Y-20880710D01*
G37*
D11*
X15085000Y-21200000D03*
D10*
G36*
X14276958Y-20880710D02*
X14291276Y-20882834D01*
X14305317Y-20886351D01*
X14318946Y-20891228D01*
X14332031Y-20897417D01*
X14344447Y-20904858D01*
X14356073Y-20913481D01*
X14366798Y-20923202D01*
X14376519Y-20933927D01*
X14385142Y-20945553D01*
X14392583Y-20957969D01*
X14398772Y-20971054D01*
X14403649Y-20984683D01*
X14407166Y-20998724D01*
X14409290Y-21013042D01*
X14410000Y-21027500D01*
X14410000Y-21372500D01*
X14409290Y-21386958D01*
X14407166Y-21401276D01*
X14403649Y-21415317D01*
X14398772Y-21428946D01*
X14392583Y-21442031D01*
X14385142Y-21454447D01*
X14376519Y-21466073D01*
X14366798Y-21476798D01*
X14356073Y-21486519D01*
X14344447Y-21495142D01*
X14332031Y-21502583D01*
X14318946Y-21508772D01*
X14305317Y-21513649D01*
X14291276Y-21517166D01*
X14276958Y-21519290D01*
X14262500Y-21520000D01*
X13967500Y-21520000D01*
X13953042Y-21519290D01*
X13938724Y-21517166D01*
X13924683Y-21513649D01*
X13911054Y-21508772D01*
X13897969Y-21502583D01*
X13885553Y-21495142D01*
X13873927Y-21486519D01*
X13863202Y-21476798D01*
X13853481Y-21466073D01*
X13844858Y-21454447D01*
X13837417Y-21442031D01*
X13831228Y-21428946D01*
X13826351Y-21415317D01*
X13822834Y-21401276D01*
X13820710Y-21386958D01*
X13820000Y-21372500D01*
X13820000Y-21027500D01*
X13820710Y-21013042D01*
X13822834Y-20998724D01*
X13826351Y-20984683D01*
X13831228Y-20971054D01*
X13837417Y-20957969D01*
X13844858Y-20945553D01*
X13853481Y-20933927D01*
X13863202Y-20923202D01*
X13873927Y-20913481D01*
X13885553Y-20904858D01*
X13897969Y-20897417D01*
X13911054Y-20891228D01*
X13924683Y-20886351D01*
X13938724Y-20882834D01*
X13953042Y-20880710D01*
X13967500Y-20880000D01*
X14262500Y-20880000D01*
X14276958Y-20880710D01*
X14276958Y-20880710D01*
G37*
D11*
X14115000Y-21200000D03*
G04 #@! TD*
D12*
G04 #@! TO.C,D1*
X5900000Y-20300000D03*
X3900000Y-19350000D03*
X3900000Y-21250000D03*
G04 #@! TD*
G04 #@! TO.C,D2*
X12800000Y-21250000D03*
X12800000Y-23150000D03*
X10800000Y-22200000D03*
G04 #@! TD*
D10*
G04 #@! TO.C,R1*
G36*
X9961958Y-37180710D02*
X9976276Y-37182834D01*
X9990317Y-37186351D01*
X10003946Y-37191228D01*
X10017031Y-37197417D01*
X10029447Y-37204858D01*
X10041073Y-37213481D01*
X10051798Y-37223202D01*
X10061519Y-37233927D01*
X10070142Y-37245553D01*
X10077583Y-37257969D01*
X10083772Y-37271054D01*
X10088649Y-37284683D01*
X10092166Y-37298724D01*
X10094290Y-37313042D01*
X10095000Y-37327500D01*
X10095000Y-37672500D01*
X10094290Y-37686958D01*
X10092166Y-37701276D01*
X10088649Y-37715317D01*
X10083772Y-37728946D01*
X10077583Y-37742031D01*
X10070142Y-37754447D01*
X10061519Y-37766073D01*
X10051798Y-37776798D01*
X10041073Y-37786519D01*
X10029447Y-37795142D01*
X10017031Y-37802583D01*
X10003946Y-37808772D01*
X9990317Y-37813649D01*
X9976276Y-37817166D01*
X9961958Y-37819290D01*
X9947500Y-37820000D01*
X9652500Y-37820000D01*
X9638042Y-37819290D01*
X9623724Y-37817166D01*
X9609683Y-37813649D01*
X9596054Y-37808772D01*
X9582969Y-37802583D01*
X9570553Y-37795142D01*
X9558927Y-37786519D01*
X9548202Y-37776798D01*
X9538481Y-37766073D01*
X9529858Y-37754447D01*
X9522417Y-37742031D01*
X9516228Y-37728946D01*
X9511351Y-37715317D01*
X9507834Y-37701276D01*
X9505710Y-37686958D01*
X9505000Y-37672500D01*
X9505000Y-37327500D01*
X9505710Y-37313042D01*
X9507834Y-37298724D01*
X9511351Y-37284683D01*
X9516228Y-37271054D01*
X9522417Y-37257969D01*
X9529858Y-37245553D01*
X9538481Y-37233927D01*
X9548202Y-37223202D01*
X9558927Y-37213481D01*
X9570553Y-37204858D01*
X9582969Y-37197417D01*
X9596054Y-37191228D01*
X9609683Y-37186351D01*
X9623724Y-37182834D01*
X9638042Y-37180710D01*
X9652500Y-37180000D01*
X9947500Y-37180000D01*
X9961958Y-37180710D01*
X9961958Y-37180710D01*
G37*
D11*
X9800000Y-37500000D03*
D10*
G36*
X10931958Y-37180710D02*
X10946276Y-37182834D01*
X10960317Y-37186351D01*
X10973946Y-37191228D01*
X10987031Y-37197417D01*
X10999447Y-37204858D01*
X11011073Y-37213481D01*
X11021798Y-37223202D01*
X11031519Y-37233927D01*
X11040142Y-37245553D01*
X11047583Y-37257969D01*
X11053772Y-37271054D01*
X11058649Y-37284683D01*
X11062166Y-37298724D01*
X11064290Y-37313042D01*
X11065000Y-37327500D01*
X11065000Y-37672500D01*
X11064290Y-37686958D01*
X11062166Y-37701276D01*
X11058649Y-37715317D01*
X11053772Y-37728946D01*
X11047583Y-37742031D01*
X11040142Y-37754447D01*
X11031519Y-37766073D01*
X11021798Y-37776798D01*
X11011073Y-37786519D01*
X10999447Y-37795142D01*
X10987031Y-37802583D01*
X10973946Y-37808772D01*
X10960317Y-37813649D01*
X10946276Y-37817166D01*
X10931958Y-37819290D01*
X10917500Y-37820000D01*
X10622500Y-37820000D01*
X10608042Y-37819290D01*
X10593724Y-37817166D01*
X10579683Y-37813649D01*
X10566054Y-37808772D01*
X10552969Y-37802583D01*
X10540553Y-37795142D01*
X10528927Y-37786519D01*
X10518202Y-37776798D01*
X10508481Y-37766073D01*
X10499858Y-37754447D01*
X10492417Y-37742031D01*
X10486228Y-37728946D01*
X10481351Y-37715317D01*
X10477834Y-37701276D01*
X10475710Y-37686958D01*
X10475000Y-37672500D01*
X10475000Y-37327500D01*
X10475710Y-37313042D01*
X10477834Y-37298724D01*
X10481351Y-37284683D01*
X10486228Y-37271054D01*
X10492417Y-37257969D01*
X10499858Y-37245553D01*
X10508481Y-37233927D01*
X10518202Y-37223202D01*
X10528927Y-37213481D01*
X10540553Y-37204858D01*
X10552969Y-37197417D01*
X10566054Y-37191228D01*
X10579683Y-37186351D01*
X10593724Y-37182834D01*
X10608042Y-37180710D01*
X10622500Y-37180000D01*
X10917500Y-37180000D01*
X10931958Y-37180710D01*
X10931958Y-37180710D01*
G37*
D11*
X10770000Y-37500000D03*
G04 #@! TD*
D10*
G04 #@! TO.C,R6*
G36*
X7186958Y-14205710D02*
X7201276Y-14207834D01*
X7215317Y-14211351D01*
X7228946Y-14216228D01*
X7242031Y-14222417D01*
X7254447Y-14229858D01*
X7266073Y-14238481D01*
X7276798Y-14248202D01*
X7286519Y-14258927D01*
X7295142Y-14270553D01*
X7302583Y-14282969D01*
X7308772Y-14296054D01*
X7313649Y-14309683D01*
X7317166Y-14323724D01*
X7319290Y-14338042D01*
X7320000Y-14352500D01*
X7320000Y-14647500D01*
X7319290Y-14661958D01*
X7317166Y-14676276D01*
X7313649Y-14690317D01*
X7308772Y-14703946D01*
X7302583Y-14717031D01*
X7295142Y-14729447D01*
X7286519Y-14741073D01*
X7276798Y-14751798D01*
X7266073Y-14761519D01*
X7254447Y-14770142D01*
X7242031Y-14777583D01*
X7228946Y-14783772D01*
X7215317Y-14788649D01*
X7201276Y-14792166D01*
X7186958Y-14794290D01*
X7172500Y-14795000D01*
X6827500Y-14795000D01*
X6813042Y-14794290D01*
X6798724Y-14792166D01*
X6784683Y-14788649D01*
X6771054Y-14783772D01*
X6757969Y-14777583D01*
X6745553Y-14770142D01*
X6733927Y-14761519D01*
X6723202Y-14751798D01*
X6713481Y-14741073D01*
X6704858Y-14729447D01*
X6697417Y-14717031D01*
X6691228Y-14703946D01*
X6686351Y-14690317D01*
X6682834Y-14676276D01*
X6680710Y-14661958D01*
X6680000Y-14647500D01*
X6680000Y-14352500D01*
X6680710Y-14338042D01*
X6682834Y-14323724D01*
X6686351Y-14309683D01*
X6691228Y-14296054D01*
X6697417Y-14282969D01*
X6704858Y-14270553D01*
X6713481Y-14258927D01*
X6723202Y-14248202D01*
X6733927Y-14238481D01*
X6745553Y-14229858D01*
X6757969Y-14222417D01*
X6771054Y-14216228D01*
X6784683Y-14211351D01*
X6798724Y-14207834D01*
X6813042Y-14205710D01*
X6827500Y-14205000D01*
X7172500Y-14205000D01*
X7186958Y-14205710D01*
X7186958Y-14205710D01*
G37*
D11*
X7000000Y-14500000D03*
D10*
G36*
X7186958Y-15175710D02*
X7201276Y-15177834D01*
X7215317Y-15181351D01*
X7228946Y-15186228D01*
X7242031Y-15192417D01*
X7254447Y-15199858D01*
X7266073Y-15208481D01*
X7276798Y-15218202D01*
X7286519Y-15228927D01*
X7295142Y-15240553D01*
X7302583Y-15252969D01*
X7308772Y-15266054D01*
X7313649Y-15279683D01*
X7317166Y-15293724D01*
X7319290Y-15308042D01*
X7320000Y-15322500D01*
X7320000Y-15617500D01*
X7319290Y-15631958D01*
X7317166Y-15646276D01*
X7313649Y-15660317D01*
X7308772Y-15673946D01*
X7302583Y-15687031D01*
X7295142Y-15699447D01*
X7286519Y-15711073D01*
X7276798Y-15721798D01*
X7266073Y-15731519D01*
X7254447Y-15740142D01*
X7242031Y-15747583D01*
X7228946Y-15753772D01*
X7215317Y-15758649D01*
X7201276Y-15762166D01*
X7186958Y-15764290D01*
X7172500Y-15765000D01*
X6827500Y-15765000D01*
X6813042Y-15764290D01*
X6798724Y-15762166D01*
X6784683Y-15758649D01*
X6771054Y-15753772D01*
X6757969Y-15747583D01*
X6745553Y-15740142D01*
X6733927Y-15731519D01*
X6723202Y-15721798D01*
X6713481Y-15711073D01*
X6704858Y-15699447D01*
X6697417Y-15687031D01*
X6691228Y-15673946D01*
X6686351Y-15660317D01*
X6682834Y-15646276D01*
X6680710Y-15631958D01*
X6680000Y-15617500D01*
X6680000Y-15322500D01*
X6680710Y-15308042D01*
X6682834Y-15293724D01*
X6686351Y-15279683D01*
X6691228Y-15266054D01*
X6697417Y-15252969D01*
X6704858Y-15240553D01*
X6713481Y-15228927D01*
X6723202Y-15218202D01*
X6733927Y-15208481D01*
X6745553Y-15199858D01*
X6757969Y-15192417D01*
X6771054Y-15186228D01*
X6784683Y-15181351D01*
X6798724Y-15177834D01*
X6813042Y-15175710D01*
X6827500Y-15175000D01*
X7172500Y-15175000D01*
X7186958Y-15175710D01*
X7186958Y-15175710D01*
G37*
D11*
X7000000Y-15470000D03*
G04 #@! TD*
D10*
G04 #@! TO.C,R9*
G36*
X11986958Y-19505710D02*
X12001276Y-19507834D01*
X12015317Y-19511351D01*
X12028946Y-19516228D01*
X12042031Y-19522417D01*
X12054447Y-19529858D01*
X12066073Y-19538481D01*
X12076798Y-19548202D01*
X12086519Y-19558927D01*
X12095142Y-19570553D01*
X12102583Y-19582969D01*
X12108772Y-19596054D01*
X12113649Y-19609683D01*
X12117166Y-19623724D01*
X12119290Y-19638042D01*
X12120000Y-19652500D01*
X12120000Y-19947500D01*
X12119290Y-19961958D01*
X12117166Y-19976276D01*
X12113649Y-19990317D01*
X12108772Y-20003946D01*
X12102583Y-20017031D01*
X12095142Y-20029447D01*
X12086519Y-20041073D01*
X12076798Y-20051798D01*
X12066073Y-20061519D01*
X12054447Y-20070142D01*
X12042031Y-20077583D01*
X12028946Y-20083772D01*
X12015317Y-20088649D01*
X12001276Y-20092166D01*
X11986958Y-20094290D01*
X11972500Y-20095000D01*
X11627500Y-20095000D01*
X11613042Y-20094290D01*
X11598724Y-20092166D01*
X11584683Y-20088649D01*
X11571054Y-20083772D01*
X11557969Y-20077583D01*
X11545553Y-20070142D01*
X11533927Y-20061519D01*
X11523202Y-20051798D01*
X11513481Y-20041073D01*
X11504858Y-20029447D01*
X11497417Y-20017031D01*
X11491228Y-20003946D01*
X11486351Y-19990317D01*
X11482834Y-19976276D01*
X11480710Y-19961958D01*
X11480000Y-19947500D01*
X11480000Y-19652500D01*
X11480710Y-19638042D01*
X11482834Y-19623724D01*
X11486351Y-19609683D01*
X11491228Y-19596054D01*
X11497417Y-19582969D01*
X11504858Y-19570553D01*
X11513481Y-19558927D01*
X11523202Y-19548202D01*
X11533927Y-19538481D01*
X11545553Y-19529858D01*
X11557969Y-19522417D01*
X11571054Y-19516228D01*
X11584683Y-19511351D01*
X11598724Y-19507834D01*
X11613042Y-19505710D01*
X11627500Y-19505000D01*
X11972500Y-19505000D01*
X11986958Y-19505710D01*
X11986958Y-19505710D01*
G37*
D11*
X11800000Y-19800000D03*
D10*
G36*
X11986958Y-18535710D02*
X12001276Y-18537834D01*
X12015317Y-18541351D01*
X12028946Y-18546228D01*
X12042031Y-18552417D01*
X12054447Y-18559858D01*
X12066073Y-18568481D01*
X12076798Y-18578202D01*
X12086519Y-18588927D01*
X12095142Y-18600553D01*
X12102583Y-18612969D01*
X12108772Y-18626054D01*
X12113649Y-18639683D01*
X12117166Y-18653724D01*
X12119290Y-18668042D01*
X12120000Y-18682500D01*
X12120000Y-18977500D01*
X12119290Y-18991958D01*
X12117166Y-19006276D01*
X12113649Y-19020317D01*
X12108772Y-19033946D01*
X12102583Y-19047031D01*
X12095142Y-19059447D01*
X12086519Y-19071073D01*
X12076798Y-19081798D01*
X12066073Y-19091519D01*
X12054447Y-19100142D01*
X12042031Y-19107583D01*
X12028946Y-19113772D01*
X12015317Y-19118649D01*
X12001276Y-19122166D01*
X11986958Y-19124290D01*
X11972500Y-19125000D01*
X11627500Y-19125000D01*
X11613042Y-19124290D01*
X11598724Y-19122166D01*
X11584683Y-19118649D01*
X11571054Y-19113772D01*
X11557969Y-19107583D01*
X11545553Y-19100142D01*
X11533927Y-19091519D01*
X11523202Y-19081798D01*
X11513481Y-19071073D01*
X11504858Y-19059447D01*
X11497417Y-19047031D01*
X11491228Y-19033946D01*
X11486351Y-19020317D01*
X11482834Y-19006276D01*
X11480710Y-18991958D01*
X11480000Y-18977500D01*
X11480000Y-18682500D01*
X11480710Y-18668042D01*
X11482834Y-18653724D01*
X11486351Y-18639683D01*
X11491228Y-18626054D01*
X11497417Y-18612969D01*
X11504858Y-18600553D01*
X11513481Y-18588927D01*
X11523202Y-18578202D01*
X11533927Y-18568481D01*
X11545553Y-18559858D01*
X11557969Y-18552417D01*
X11571054Y-18546228D01*
X11584683Y-18541351D01*
X11598724Y-18537834D01*
X11613042Y-18535710D01*
X11627500Y-18535000D01*
X11972500Y-18535000D01*
X11986958Y-18535710D01*
X11986958Y-18535710D01*
G37*
D11*
X11800000Y-18830000D03*
G04 #@! TD*
D10*
G04 #@! TO.C,R13*
G36*
X12586958Y-11320710D02*
X12601276Y-11322834D01*
X12615317Y-11326351D01*
X12628946Y-11331228D01*
X12642031Y-11337417D01*
X12654447Y-11344858D01*
X12666073Y-11353481D01*
X12676798Y-11363202D01*
X12686519Y-11373927D01*
X12695142Y-11385553D01*
X12702583Y-11397969D01*
X12708772Y-11411054D01*
X12713649Y-11424683D01*
X12717166Y-11438724D01*
X12719290Y-11453042D01*
X12720000Y-11467500D01*
X12720000Y-11762500D01*
X12719290Y-11776958D01*
X12717166Y-11791276D01*
X12713649Y-11805317D01*
X12708772Y-11818946D01*
X12702583Y-11832031D01*
X12695142Y-11844447D01*
X12686519Y-11856073D01*
X12676798Y-11866798D01*
X12666073Y-11876519D01*
X12654447Y-11885142D01*
X12642031Y-11892583D01*
X12628946Y-11898772D01*
X12615317Y-11903649D01*
X12601276Y-11907166D01*
X12586958Y-11909290D01*
X12572500Y-11910000D01*
X12227500Y-11910000D01*
X12213042Y-11909290D01*
X12198724Y-11907166D01*
X12184683Y-11903649D01*
X12171054Y-11898772D01*
X12157969Y-11892583D01*
X12145553Y-11885142D01*
X12133927Y-11876519D01*
X12123202Y-11866798D01*
X12113481Y-11856073D01*
X12104858Y-11844447D01*
X12097417Y-11832031D01*
X12091228Y-11818946D01*
X12086351Y-11805317D01*
X12082834Y-11791276D01*
X12080710Y-11776958D01*
X12080000Y-11762500D01*
X12080000Y-11467500D01*
X12080710Y-11453042D01*
X12082834Y-11438724D01*
X12086351Y-11424683D01*
X12091228Y-11411054D01*
X12097417Y-11397969D01*
X12104858Y-11385553D01*
X12113481Y-11373927D01*
X12123202Y-11363202D01*
X12133927Y-11353481D01*
X12145553Y-11344858D01*
X12157969Y-11337417D01*
X12171054Y-11331228D01*
X12184683Y-11326351D01*
X12198724Y-11322834D01*
X12213042Y-11320710D01*
X12227500Y-11320000D01*
X12572500Y-11320000D01*
X12586958Y-11320710D01*
X12586958Y-11320710D01*
G37*
D11*
X12400000Y-11615000D03*
D10*
G36*
X12586958Y-12290710D02*
X12601276Y-12292834D01*
X12615317Y-12296351D01*
X12628946Y-12301228D01*
X12642031Y-12307417D01*
X12654447Y-12314858D01*
X12666073Y-12323481D01*
X12676798Y-12333202D01*
X12686519Y-12343927D01*
X12695142Y-12355553D01*
X12702583Y-12367969D01*
X12708772Y-12381054D01*
X12713649Y-12394683D01*
X12717166Y-12408724D01*
X12719290Y-12423042D01*
X12720000Y-12437500D01*
X12720000Y-12732500D01*
X12719290Y-12746958D01*
X12717166Y-12761276D01*
X12713649Y-12775317D01*
X12708772Y-12788946D01*
X12702583Y-12802031D01*
X12695142Y-12814447D01*
X12686519Y-12826073D01*
X12676798Y-12836798D01*
X12666073Y-12846519D01*
X12654447Y-12855142D01*
X12642031Y-12862583D01*
X12628946Y-12868772D01*
X12615317Y-12873649D01*
X12601276Y-12877166D01*
X12586958Y-12879290D01*
X12572500Y-12880000D01*
X12227500Y-12880000D01*
X12213042Y-12879290D01*
X12198724Y-12877166D01*
X12184683Y-12873649D01*
X12171054Y-12868772D01*
X12157969Y-12862583D01*
X12145553Y-12855142D01*
X12133927Y-12846519D01*
X12123202Y-12836798D01*
X12113481Y-12826073D01*
X12104858Y-12814447D01*
X12097417Y-12802031D01*
X12091228Y-12788946D01*
X12086351Y-12775317D01*
X12082834Y-12761276D01*
X12080710Y-12746958D01*
X12080000Y-12732500D01*
X12080000Y-12437500D01*
X12080710Y-12423042D01*
X12082834Y-12408724D01*
X12086351Y-12394683D01*
X12091228Y-12381054D01*
X12097417Y-12367969D01*
X12104858Y-12355553D01*
X12113481Y-12343927D01*
X12123202Y-12333202D01*
X12133927Y-12323481D01*
X12145553Y-12314858D01*
X12157969Y-12307417D01*
X12171054Y-12301228D01*
X12184683Y-12296351D01*
X12198724Y-12292834D01*
X12213042Y-12290710D01*
X12227500Y-12290000D01*
X12572500Y-12290000D01*
X12586958Y-12290710D01*
X12586958Y-12290710D01*
G37*
D11*
X12400000Y-12585000D03*
G04 #@! TD*
D10*
G04 #@! TO.C,R14*
G36*
X8586958Y-27775710D02*
X8601276Y-27777834D01*
X8615317Y-27781351D01*
X8628946Y-27786228D01*
X8642031Y-27792417D01*
X8654447Y-27799858D01*
X8666073Y-27808481D01*
X8676798Y-27818202D01*
X8686519Y-27828927D01*
X8695142Y-27840553D01*
X8702583Y-27852969D01*
X8708772Y-27866054D01*
X8713649Y-27879683D01*
X8717166Y-27893724D01*
X8719290Y-27908042D01*
X8720000Y-27922500D01*
X8720000Y-28217500D01*
X8719290Y-28231958D01*
X8717166Y-28246276D01*
X8713649Y-28260317D01*
X8708772Y-28273946D01*
X8702583Y-28287031D01*
X8695142Y-28299447D01*
X8686519Y-28311073D01*
X8676798Y-28321798D01*
X8666073Y-28331519D01*
X8654447Y-28340142D01*
X8642031Y-28347583D01*
X8628946Y-28353772D01*
X8615317Y-28358649D01*
X8601276Y-28362166D01*
X8586958Y-28364290D01*
X8572500Y-28365000D01*
X8227500Y-28365000D01*
X8213042Y-28364290D01*
X8198724Y-28362166D01*
X8184683Y-28358649D01*
X8171054Y-28353772D01*
X8157969Y-28347583D01*
X8145553Y-28340142D01*
X8133927Y-28331519D01*
X8123202Y-28321798D01*
X8113481Y-28311073D01*
X8104858Y-28299447D01*
X8097417Y-28287031D01*
X8091228Y-28273946D01*
X8086351Y-28260317D01*
X8082834Y-28246276D01*
X8080710Y-28231958D01*
X8080000Y-28217500D01*
X8080000Y-27922500D01*
X8080710Y-27908042D01*
X8082834Y-27893724D01*
X8086351Y-27879683D01*
X8091228Y-27866054D01*
X8097417Y-27852969D01*
X8104858Y-27840553D01*
X8113481Y-27828927D01*
X8123202Y-27818202D01*
X8133927Y-27808481D01*
X8145553Y-27799858D01*
X8157969Y-27792417D01*
X8171054Y-27786228D01*
X8184683Y-27781351D01*
X8198724Y-27777834D01*
X8213042Y-27775710D01*
X8227500Y-27775000D01*
X8572500Y-27775000D01*
X8586958Y-27775710D01*
X8586958Y-27775710D01*
G37*
D11*
X8400000Y-28070000D03*
D10*
G36*
X8586958Y-26805710D02*
X8601276Y-26807834D01*
X8615317Y-26811351D01*
X8628946Y-26816228D01*
X8642031Y-26822417D01*
X8654447Y-26829858D01*
X8666073Y-26838481D01*
X8676798Y-26848202D01*
X8686519Y-26858927D01*
X8695142Y-26870553D01*
X8702583Y-26882969D01*
X8708772Y-26896054D01*
X8713649Y-26909683D01*
X8717166Y-26923724D01*
X8719290Y-26938042D01*
X8720000Y-26952500D01*
X8720000Y-27247500D01*
X8719290Y-27261958D01*
X8717166Y-27276276D01*
X8713649Y-27290317D01*
X8708772Y-27303946D01*
X8702583Y-27317031D01*
X8695142Y-27329447D01*
X8686519Y-27341073D01*
X8676798Y-27351798D01*
X8666073Y-27361519D01*
X8654447Y-27370142D01*
X8642031Y-27377583D01*
X8628946Y-27383772D01*
X8615317Y-27388649D01*
X8601276Y-27392166D01*
X8586958Y-27394290D01*
X8572500Y-27395000D01*
X8227500Y-27395000D01*
X8213042Y-27394290D01*
X8198724Y-27392166D01*
X8184683Y-27388649D01*
X8171054Y-27383772D01*
X8157969Y-27377583D01*
X8145553Y-27370142D01*
X8133927Y-27361519D01*
X8123202Y-27351798D01*
X8113481Y-27341073D01*
X8104858Y-27329447D01*
X8097417Y-27317031D01*
X8091228Y-27303946D01*
X8086351Y-27290317D01*
X8082834Y-27276276D01*
X8080710Y-27261958D01*
X8080000Y-27247500D01*
X8080000Y-26952500D01*
X8080710Y-26938042D01*
X8082834Y-26923724D01*
X8086351Y-26909683D01*
X8091228Y-26896054D01*
X8097417Y-26882969D01*
X8104858Y-26870553D01*
X8113481Y-26858927D01*
X8123202Y-26848202D01*
X8133927Y-26838481D01*
X8145553Y-26829858D01*
X8157969Y-26822417D01*
X8171054Y-26816228D01*
X8184683Y-26811351D01*
X8198724Y-26807834D01*
X8213042Y-26805710D01*
X8227500Y-26805000D01*
X8572500Y-26805000D01*
X8586958Y-26805710D01*
X8586958Y-26805710D01*
G37*
D11*
X8400000Y-27100000D03*
G04 #@! TD*
D10*
G04 #@! TO.C,R15*
G36*
X8586958Y-28705710D02*
X8601276Y-28707834D01*
X8615317Y-28711351D01*
X8628946Y-28716228D01*
X8642031Y-28722417D01*
X8654447Y-28729858D01*
X8666073Y-28738481D01*
X8676798Y-28748202D01*
X8686519Y-28758927D01*
X8695142Y-28770553D01*
X8702583Y-28782969D01*
X8708772Y-28796054D01*
X8713649Y-28809683D01*
X8717166Y-28823724D01*
X8719290Y-28838042D01*
X8720000Y-28852500D01*
X8720000Y-29147500D01*
X8719290Y-29161958D01*
X8717166Y-29176276D01*
X8713649Y-29190317D01*
X8708772Y-29203946D01*
X8702583Y-29217031D01*
X8695142Y-29229447D01*
X8686519Y-29241073D01*
X8676798Y-29251798D01*
X8666073Y-29261519D01*
X8654447Y-29270142D01*
X8642031Y-29277583D01*
X8628946Y-29283772D01*
X8615317Y-29288649D01*
X8601276Y-29292166D01*
X8586958Y-29294290D01*
X8572500Y-29295000D01*
X8227500Y-29295000D01*
X8213042Y-29294290D01*
X8198724Y-29292166D01*
X8184683Y-29288649D01*
X8171054Y-29283772D01*
X8157969Y-29277583D01*
X8145553Y-29270142D01*
X8133927Y-29261519D01*
X8123202Y-29251798D01*
X8113481Y-29241073D01*
X8104858Y-29229447D01*
X8097417Y-29217031D01*
X8091228Y-29203946D01*
X8086351Y-29190317D01*
X8082834Y-29176276D01*
X8080710Y-29161958D01*
X8080000Y-29147500D01*
X8080000Y-28852500D01*
X8080710Y-28838042D01*
X8082834Y-28823724D01*
X8086351Y-28809683D01*
X8091228Y-28796054D01*
X8097417Y-28782969D01*
X8104858Y-28770553D01*
X8113481Y-28758927D01*
X8123202Y-28748202D01*
X8133927Y-28738481D01*
X8145553Y-28729858D01*
X8157969Y-28722417D01*
X8171054Y-28716228D01*
X8184683Y-28711351D01*
X8198724Y-28707834D01*
X8213042Y-28705710D01*
X8227500Y-28705000D01*
X8572500Y-28705000D01*
X8586958Y-28705710D01*
X8586958Y-28705710D01*
G37*
D11*
X8400000Y-29000000D03*
D10*
G36*
X8586958Y-29675710D02*
X8601276Y-29677834D01*
X8615317Y-29681351D01*
X8628946Y-29686228D01*
X8642031Y-29692417D01*
X8654447Y-29699858D01*
X8666073Y-29708481D01*
X8676798Y-29718202D01*
X8686519Y-29728927D01*
X8695142Y-29740553D01*
X8702583Y-29752969D01*
X8708772Y-29766054D01*
X8713649Y-29779683D01*
X8717166Y-29793724D01*
X8719290Y-29808042D01*
X8720000Y-29822500D01*
X8720000Y-30117500D01*
X8719290Y-30131958D01*
X8717166Y-30146276D01*
X8713649Y-30160317D01*
X8708772Y-30173946D01*
X8702583Y-30187031D01*
X8695142Y-30199447D01*
X8686519Y-30211073D01*
X8676798Y-30221798D01*
X8666073Y-30231519D01*
X8654447Y-30240142D01*
X8642031Y-30247583D01*
X8628946Y-30253772D01*
X8615317Y-30258649D01*
X8601276Y-30262166D01*
X8586958Y-30264290D01*
X8572500Y-30265000D01*
X8227500Y-30265000D01*
X8213042Y-30264290D01*
X8198724Y-30262166D01*
X8184683Y-30258649D01*
X8171054Y-30253772D01*
X8157969Y-30247583D01*
X8145553Y-30240142D01*
X8133927Y-30231519D01*
X8123202Y-30221798D01*
X8113481Y-30211073D01*
X8104858Y-30199447D01*
X8097417Y-30187031D01*
X8091228Y-30173946D01*
X8086351Y-30160317D01*
X8082834Y-30146276D01*
X8080710Y-30131958D01*
X8080000Y-30117500D01*
X8080000Y-29822500D01*
X8080710Y-29808042D01*
X8082834Y-29793724D01*
X8086351Y-29779683D01*
X8091228Y-29766054D01*
X8097417Y-29752969D01*
X8104858Y-29740553D01*
X8113481Y-29728927D01*
X8123202Y-29718202D01*
X8133927Y-29708481D01*
X8145553Y-29699858D01*
X8157969Y-29692417D01*
X8171054Y-29686228D01*
X8184683Y-29681351D01*
X8198724Y-29677834D01*
X8213042Y-29675710D01*
X8227500Y-29675000D01*
X8572500Y-29675000D01*
X8586958Y-29675710D01*
X8586958Y-29675710D01*
G37*
D11*
X8400000Y-29970000D03*
G04 #@! TD*
D10*
G04 #@! TO.C,U2*
G36*
X11205289Y-34386120D02*
X11227858Y-34389467D01*
X11249991Y-34395011D01*
X11271474Y-34402698D01*
X11292100Y-34412453D01*
X11311670Y-34424183D01*
X11329996Y-34437775D01*
X11346902Y-34453098D01*
X11362225Y-34470004D01*
X11375817Y-34488330D01*
X11387547Y-34507900D01*
X11397302Y-34528526D01*
X11404989Y-34550009D01*
X11410533Y-34572142D01*
X11413880Y-34594711D01*
X11415000Y-34617500D01*
X11415000Y-35082500D01*
X11413880Y-35105289D01*
X11410533Y-35127858D01*
X11404989Y-35149991D01*
X11397302Y-35171474D01*
X11387547Y-35192100D01*
X11375817Y-35211670D01*
X11362225Y-35229996D01*
X11346902Y-35246902D01*
X11329996Y-35262225D01*
X11311670Y-35275817D01*
X11292100Y-35287547D01*
X11271474Y-35297302D01*
X11249991Y-35304989D01*
X11227858Y-35310533D01*
X11205289Y-35313880D01*
X11182500Y-35315000D01*
X10717500Y-35315000D01*
X10694711Y-35313880D01*
X10672142Y-35310533D01*
X10650009Y-35304989D01*
X10628526Y-35297302D01*
X10607900Y-35287547D01*
X10588330Y-35275817D01*
X10570004Y-35262225D01*
X10553098Y-35246902D01*
X10537775Y-35229996D01*
X10524183Y-35211670D01*
X10512453Y-35192100D01*
X10502698Y-35171474D01*
X10495011Y-35149991D01*
X10489467Y-35127858D01*
X10486120Y-35105289D01*
X10485000Y-35082500D01*
X10485000Y-34617500D01*
X10486120Y-34594711D01*
X10489467Y-34572142D01*
X10495011Y-34550009D01*
X10502698Y-34528526D01*
X10512453Y-34507900D01*
X10524183Y-34488330D01*
X10537775Y-34470004D01*
X10553098Y-34453098D01*
X10570004Y-34437775D01*
X10588330Y-34424183D01*
X10607900Y-34412453D01*
X10628526Y-34402698D01*
X10650009Y-34395011D01*
X10672142Y-34389467D01*
X10694711Y-34386120D01*
X10717500Y-34385000D01*
X11182500Y-34385000D01*
X11205289Y-34386120D01*
X11205289Y-34386120D01*
G37*
D13*
X10950000Y-34850000D03*
D10*
G36*
X11205289Y-33236120D02*
X11227858Y-33239467D01*
X11249991Y-33245011D01*
X11271474Y-33252698D01*
X11292100Y-33262453D01*
X11311670Y-33274183D01*
X11329996Y-33287775D01*
X11346902Y-33303098D01*
X11362225Y-33320004D01*
X11375817Y-33338330D01*
X11387547Y-33357900D01*
X11397302Y-33378526D01*
X11404989Y-33400009D01*
X11410533Y-33422142D01*
X11413880Y-33444711D01*
X11415000Y-33467500D01*
X11415000Y-33932500D01*
X11413880Y-33955289D01*
X11410533Y-33977858D01*
X11404989Y-33999991D01*
X11397302Y-34021474D01*
X11387547Y-34042100D01*
X11375817Y-34061670D01*
X11362225Y-34079996D01*
X11346902Y-34096902D01*
X11329996Y-34112225D01*
X11311670Y-34125817D01*
X11292100Y-34137547D01*
X11271474Y-34147302D01*
X11249991Y-34154989D01*
X11227858Y-34160533D01*
X11205289Y-34163880D01*
X11182500Y-34165000D01*
X10717500Y-34165000D01*
X10694711Y-34163880D01*
X10672142Y-34160533D01*
X10650009Y-34154989D01*
X10628526Y-34147302D01*
X10607900Y-34137547D01*
X10588330Y-34125817D01*
X10570004Y-34112225D01*
X10553098Y-34096902D01*
X10537775Y-34079996D01*
X10524183Y-34061670D01*
X10512453Y-34042100D01*
X10502698Y-34021474D01*
X10495011Y-33999991D01*
X10489467Y-33977858D01*
X10486120Y-33955289D01*
X10485000Y-33932500D01*
X10485000Y-33467500D01*
X10486120Y-33444711D01*
X10489467Y-33422142D01*
X10495011Y-33400009D01*
X10502698Y-33378526D01*
X10512453Y-33357900D01*
X10524183Y-33338330D01*
X10537775Y-33320004D01*
X10553098Y-33303098D01*
X10570004Y-33287775D01*
X10588330Y-33274183D01*
X10607900Y-33262453D01*
X10628526Y-33252698D01*
X10650009Y-33245011D01*
X10672142Y-33239467D01*
X10694711Y-33236120D01*
X10717500Y-33235000D01*
X11182500Y-33235000D01*
X11205289Y-33236120D01*
X11205289Y-33236120D01*
G37*
D13*
X10950000Y-33700000D03*
D10*
G36*
X11205289Y-32086120D02*
X11227858Y-32089467D01*
X11249991Y-32095011D01*
X11271474Y-32102698D01*
X11292100Y-32112453D01*
X11311670Y-32124183D01*
X11329996Y-32137775D01*
X11346902Y-32153098D01*
X11362225Y-32170004D01*
X11375817Y-32188330D01*
X11387547Y-32207900D01*
X11397302Y-32228526D01*
X11404989Y-32250009D01*
X11410533Y-32272142D01*
X11413880Y-32294711D01*
X11415000Y-32317500D01*
X11415000Y-32782500D01*
X11413880Y-32805289D01*
X11410533Y-32827858D01*
X11404989Y-32849991D01*
X11397302Y-32871474D01*
X11387547Y-32892100D01*
X11375817Y-32911670D01*
X11362225Y-32929996D01*
X11346902Y-32946902D01*
X11329996Y-32962225D01*
X11311670Y-32975817D01*
X11292100Y-32987547D01*
X11271474Y-32997302D01*
X11249991Y-33004989D01*
X11227858Y-33010533D01*
X11205289Y-33013880D01*
X11182500Y-33015000D01*
X10717500Y-33015000D01*
X10694711Y-33013880D01*
X10672142Y-33010533D01*
X10650009Y-33004989D01*
X10628526Y-32997302D01*
X10607900Y-32987547D01*
X10588330Y-32975817D01*
X10570004Y-32962225D01*
X10553098Y-32946902D01*
X10537775Y-32929996D01*
X10524183Y-32911670D01*
X10512453Y-32892100D01*
X10502698Y-32871474D01*
X10495011Y-32849991D01*
X10489467Y-32827858D01*
X10486120Y-32805289D01*
X10485000Y-32782500D01*
X10485000Y-32317500D01*
X10486120Y-32294711D01*
X10489467Y-32272142D01*
X10495011Y-32250009D01*
X10502698Y-32228526D01*
X10512453Y-32207900D01*
X10524183Y-32188330D01*
X10537775Y-32170004D01*
X10553098Y-32153098D01*
X10570004Y-32137775D01*
X10588330Y-32124183D01*
X10607900Y-32112453D01*
X10628526Y-32102698D01*
X10650009Y-32095011D01*
X10672142Y-32089467D01*
X10694711Y-32086120D01*
X10717500Y-32085000D01*
X11182500Y-32085000D01*
X11205289Y-32086120D01*
X11205289Y-32086120D01*
G37*
D13*
X10950000Y-32550000D03*
D10*
G36*
X12355289Y-34386120D02*
X12377858Y-34389467D01*
X12399991Y-34395011D01*
X12421474Y-34402698D01*
X12442100Y-34412453D01*
X12461670Y-34424183D01*
X12479996Y-34437775D01*
X12496902Y-34453098D01*
X12512225Y-34470004D01*
X12525817Y-34488330D01*
X12537547Y-34507900D01*
X12547302Y-34528526D01*
X12554989Y-34550009D01*
X12560533Y-34572142D01*
X12563880Y-34594711D01*
X12565000Y-34617500D01*
X12565000Y-35082500D01*
X12563880Y-35105289D01*
X12560533Y-35127858D01*
X12554989Y-35149991D01*
X12547302Y-35171474D01*
X12537547Y-35192100D01*
X12525817Y-35211670D01*
X12512225Y-35229996D01*
X12496902Y-35246902D01*
X12479996Y-35262225D01*
X12461670Y-35275817D01*
X12442100Y-35287547D01*
X12421474Y-35297302D01*
X12399991Y-35304989D01*
X12377858Y-35310533D01*
X12355289Y-35313880D01*
X12332500Y-35315000D01*
X11867500Y-35315000D01*
X11844711Y-35313880D01*
X11822142Y-35310533D01*
X11800009Y-35304989D01*
X11778526Y-35297302D01*
X11757900Y-35287547D01*
X11738330Y-35275817D01*
X11720004Y-35262225D01*
X11703098Y-35246902D01*
X11687775Y-35229996D01*
X11674183Y-35211670D01*
X11662453Y-35192100D01*
X11652698Y-35171474D01*
X11645011Y-35149991D01*
X11639467Y-35127858D01*
X11636120Y-35105289D01*
X11635000Y-35082500D01*
X11635000Y-34617500D01*
X11636120Y-34594711D01*
X11639467Y-34572142D01*
X11645011Y-34550009D01*
X11652698Y-34528526D01*
X11662453Y-34507900D01*
X11674183Y-34488330D01*
X11687775Y-34470004D01*
X11703098Y-34453098D01*
X11720004Y-34437775D01*
X11738330Y-34424183D01*
X11757900Y-34412453D01*
X11778526Y-34402698D01*
X11800009Y-34395011D01*
X11822142Y-34389467D01*
X11844711Y-34386120D01*
X11867500Y-34385000D01*
X12332500Y-34385000D01*
X12355289Y-34386120D01*
X12355289Y-34386120D01*
G37*
D13*
X12100000Y-34850000D03*
D10*
G36*
X12355289Y-33236120D02*
X12377858Y-33239467D01*
X12399991Y-33245011D01*
X12421474Y-33252698D01*
X12442100Y-33262453D01*
X12461670Y-33274183D01*
X12479996Y-33287775D01*
X12496902Y-33303098D01*
X12512225Y-33320004D01*
X12525817Y-33338330D01*
X12537547Y-33357900D01*
X12547302Y-33378526D01*
X12554989Y-33400009D01*
X12560533Y-33422142D01*
X12563880Y-33444711D01*
X12565000Y-33467500D01*
X12565000Y-33932500D01*
X12563880Y-33955289D01*
X12560533Y-33977858D01*
X12554989Y-33999991D01*
X12547302Y-34021474D01*
X12537547Y-34042100D01*
X12525817Y-34061670D01*
X12512225Y-34079996D01*
X12496902Y-34096902D01*
X12479996Y-34112225D01*
X12461670Y-34125817D01*
X12442100Y-34137547D01*
X12421474Y-34147302D01*
X12399991Y-34154989D01*
X12377858Y-34160533D01*
X12355289Y-34163880D01*
X12332500Y-34165000D01*
X11867500Y-34165000D01*
X11844711Y-34163880D01*
X11822142Y-34160533D01*
X11800009Y-34154989D01*
X11778526Y-34147302D01*
X11757900Y-34137547D01*
X11738330Y-34125817D01*
X11720004Y-34112225D01*
X11703098Y-34096902D01*
X11687775Y-34079996D01*
X11674183Y-34061670D01*
X11662453Y-34042100D01*
X11652698Y-34021474D01*
X11645011Y-33999991D01*
X11639467Y-33977858D01*
X11636120Y-33955289D01*
X11635000Y-33932500D01*
X11635000Y-33467500D01*
X11636120Y-33444711D01*
X11639467Y-33422142D01*
X11645011Y-33400009D01*
X11652698Y-33378526D01*
X11662453Y-33357900D01*
X11674183Y-33338330D01*
X11687775Y-33320004D01*
X11703098Y-33303098D01*
X11720004Y-33287775D01*
X11738330Y-33274183D01*
X11757900Y-33262453D01*
X11778526Y-33252698D01*
X11800009Y-33245011D01*
X11822142Y-33239467D01*
X11844711Y-33236120D01*
X11867500Y-33235000D01*
X12332500Y-33235000D01*
X12355289Y-33236120D01*
X12355289Y-33236120D01*
G37*
D13*
X12100000Y-33700000D03*
D10*
G36*
X12355289Y-32086120D02*
X12377858Y-32089467D01*
X12399991Y-32095011D01*
X12421474Y-32102698D01*
X12442100Y-32112453D01*
X12461670Y-32124183D01*
X12479996Y-32137775D01*
X12496902Y-32153098D01*
X12512225Y-32170004D01*
X12525817Y-32188330D01*
X12537547Y-32207900D01*
X12547302Y-32228526D01*
X12554989Y-32250009D01*
X12560533Y-32272142D01*
X12563880Y-32294711D01*
X12565000Y-32317500D01*
X12565000Y-32782500D01*
X12563880Y-32805289D01*
X12560533Y-32827858D01*
X12554989Y-32849991D01*
X12547302Y-32871474D01*
X12537547Y-32892100D01*
X12525817Y-32911670D01*
X12512225Y-32929996D01*
X12496902Y-32946902D01*
X12479996Y-32962225D01*
X12461670Y-32975817D01*
X12442100Y-32987547D01*
X12421474Y-32997302D01*
X12399991Y-33004989D01*
X12377858Y-33010533D01*
X12355289Y-33013880D01*
X12332500Y-33015000D01*
X11867500Y-33015000D01*
X11844711Y-33013880D01*
X11822142Y-33010533D01*
X11800009Y-33004989D01*
X11778526Y-32997302D01*
X11757900Y-32987547D01*
X11738330Y-32975817D01*
X11720004Y-32962225D01*
X11703098Y-32946902D01*
X11687775Y-32929996D01*
X11674183Y-32911670D01*
X11662453Y-32892100D01*
X11652698Y-32871474D01*
X11645011Y-32849991D01*
X11639467Y-32827858D01*
X11636120Y-32805289D01*
X11635000Y-32782500D01*
X11635000Y-32317500D01*
X11636120Y-32294711D01*
X11639467Y-32272142D01*
X11645011Y-32250009D01*
X11652698Y-32228526D01*
X11662453Y-32207900D01*
X11674183Y-32188330D01*
X11687775Y-32170004D01*
X11703098Y-32153098D01*
X11720004Y-32137775D01*
X11738330Y-32124183D01*
X11757900Y-32112453D01*
X11778526Y-32102698D01*
X11800009Y-32095011D01*
X11822142Y-32089467D01*
X11844711Y-32086120D01*
X11867500Y-32085000D01*
X12332500Y-32085000D01*
X12355289Y-32086120D01*
X12355289Y-32086120D01*
G37*
D13*
X12100000Y-32550000D03*
D10*
G36*
X13505289Y-34386120D02*
X13527858Y-34389467D01*
X13549991Y-34395011D01*
X13571474Y-34402698D01*
X13592100Y-34412453D01*
X13611670Y-34424183D01*
X13629996Y-34437775D01*
X13646902Y-34453098D01*
X13662225Y-34470004D01*
X13675817Y-34488330D01*
X13687547Y-34507900D01*
X13697302Y-34528526D01*
X13704989Y-34550009D01*
X13710533Y-34572142D01*
X13713880Y-34594711D01*
X13715000Y-34617500D01*
X13715000Y-35082500D01*
X13713880Y-35105289D01*
X13710533Y-35127858D01*
X13704989Y-35149991D01*
X13697302Y-35171474D01*
X13687547Y-35192100D01*
X13675817Y-35211670D01*
X13662225Y-35229996D01*
X13646902Y-35246902D01*
X13629996Y-35262225D01*
X13611670Y-35275817D01*
X13592100Y-35287547D01*
X13571474Y-35297302D01*
X13549991Y-35304989D01*
X13527858Y-35310533D01*
X13505289Y-35313880D01*
X13482500Y-35315000D01*
X13017500Y-35315000D01*
X12994711Y-35313880D01*
X12972142Y-35310533D01*
X12950009Y-35304989D01*
X12928526Y-35297302D01*
X12907900Y-35287547D01*
X12888330Y-35275817D01*
X12870004Y-35262225D01*
X12853098Y-35246902D01*
X12837775Y-35229996D01*
X12824183Y-35211670D01*
X12812453Y-35192100D01*
X12802698Y-35171474D01*
X12795011Y-35149991D01*
X12789467Y-35127858D01*
X12786120Y-35105289D01*
X12785000Y-35082500D01*
X12785000Y-34617500D01*
X12786120Y-34594711D01*
X12789467Y-34572142D01*
X12795011Y-34550009D01*
X12802698Y-34528526D01*
X12812453Y-34507900D01*
X12824183Y-34488330D01*
X12837775Y-34470004D01*
X12853098Y-34453098D01*
X12870004Y-34437775D01*
X12888330Y-34424183D01*
X12907900Y-34412453D01*
X12928526Y-34402698D01*
X12950009Y-34395011D01*
X12972142Y-34389467D01*
X12994711Y-34386120D01*
X13017500Y-34385000D01*
X13482500Y-34385000D01*
X13505289Y-34386120D01*
X13505289Y-34386120D01*
G37*
D13*
X13250000Y-34850000D03*
D10*
G36*
X13505289Y-33236120D02*
X13527858Y-33239467D01*
X13549991Y-33245011D01*
X13571474Y-33252698D01*
X13592100Y-33262453D01*
X13611670Y-33274183D01*
X13629996Y-33287775D01*
X13646902Y-33303098D01*
X13662225Y-33320004D01*
X13675817Y-33338330D01*
X13687547Y-33357900D01*
X13697302Y-33378526D01*
X13704989Y-33400009D01*
X13710533Y-33422142D01*
X13713880Y-33444711D01*
X13715000Y-33467500D01*
X13715000Y-33932500D01*
X13713880Y-33955289D01*
X13710533Y-33977858D01*
X13704989Y-33999991D01*
X13697302Y-34021474D01*
X13687547Y-34042100D01*
X13675817Y-34061670D01*
X13662225Y-34079996D01*
X13646902Y-34096902D01*
X13629996Y-34112225D01*
X13611670Y-34125817D01*
X13592100Y-34137547D01*
X13571474Y-34147302D01*
X13549991Y-34154989D01*
X13527858Y-34160533D01*
X13505289Y-34163880D01*
X13482500Y-34165000D01*
X13017500Y-34165000D01*
X12994711Y-34163880D01*
X12972142Y-34160533D01*
X12950009Y-34154989D01*
X12928526Y-34147302D01*
X12907900Y-34137547D01*
X12888330Y-34125817D01*
X12870004Y-34112225D01*
X12853098Y-34096902D01*
X12837775Y-34079996D01*
X12824183Y-34061670D01*
X12812453Y-34042100D01*
X12802698Y-34021474D01*
X12795011Y-33999991D01*
X12789467Y-33977858D01*
X12786120Y-33955289D01*
X12785000Y-33932500D01*
X12785000Y-33467500D01*
X12786120Y-33444711D01*
X12789467Y-33422142D01*
X12795011Y-33400009D01*
X12802698Y-33378526D01*
X12812453Y-33357900D01*
X12824183Y-33338330D01*
X12837775Y-33320004D01*
X12853098Y-33303098D01*
X12870004Y-33287775D01*
X12888330Y-33274183D01*
X12907900Y-33262453D01*
X12928526Y-33252698D01*
X12950009Y-33245011D01*
X12972142Y-33239467D01*
X12994711Y-33236120D01*
X13017500Y-33235000D01*
X13482500Y-33235000D01*
X13505289Y-33236120D01*
X13505289Y-33236120D01*
G37*
D13*
X13250000Y-33700000D03*
D10*
G36*
X13505289Y-32086120D02*
X13527858Y-32089467D01*
X13549991Y-32095011D01*
X13571474Y-32102698D01*
X13592100Y-32112453D01*
X13611670Y-32124183D01*
X13629996Y-32137775D01*
X13646902Y-32153098D01*
X13662225Y-32170004D01*
X13675817Y-32188330D01*
X13687547Y-32207900D01*
X13697302Y-32228526D01*
X13704989Y-32250009D01*
X13710533Y-32272142D01*
X13713880Y-32294711D01*
X13715000Y-32317500D01*
X13715000Y-32782500D01*
X13713880Y-32805289D01*
X13710533Y-32827858D01*
X13704989Y-32849991D01*
X13697302Y-32871474D01*
X13687547Y-32892100D01*
X13675817Y-32911670D01*
X13662225Y-32929996D01*
X13646902Y-32946902D01*
X13629996Y-32962225D01*
X13611670Y-32975817D01*
X13592100Y-32987547D01*
X13571474Y-32997302D01*
X13549991Y-33004989D01*
X13527858Y-33010533D01*
X13505289Y-33013880D01*
X13482500Y-33015000D01*
X13017500Y-33015000D01*
X12994711Y-33013880D01*
X12972142Y-33010533D01*
X12950009Y-33004989D01*
X12928526Y-32997302D01*
X12907900Y-32987547D01*
X12888330Y-32975817D01*
X12870004Y-32962225D01*
X12853098Y-32946902D01*
X12837775Y-32929996D01*
X12824183Y-32911670D01*
X12812453Y-32892100D01*
X12802698Y-32871474D01*
X12795011Y-32849991D01*
X12789467Y-32827858D01*
X12786120Y-32805289D01*
X12785000Y-32782500D01*
X12785000Y-32317500D01*
X12786120Y-32294711D01*
X12789467Y-32272142D01*
X12795011Y-32250009D01*
X12802698Y-32228526D01*
X12812453Y-32207900D01*
X12824183Y-32188330D01*
X12837775Y-32170004D01*
X12853098Y-32153098D01*
X12870004Y-32137775D01*
X12888330Y-32124183D01*
X12907900Y-32112453D01*
X12928526Y-32102698D01*
X12950009Y-32095011D01*
X12972142Y-32089467D01*
X12994711Y-32086120D01*
X13017500Y-32085000D01*
X13482500Y-32085000D01*
X13505289Y-32086120D01*
X13505289Y-32086120D01*
G37*
D13*
X13250000Y-32550000D03*
D10*
G36*
X10043626Y-35325301D02*
X10049693Y-35326201D01*
X10055643Y-35327691D01*
X10061418Y-35329758D01*
X10066962Y-35332380D01*
X10072223Y-35335533D01*
X10077150Y-35339187D01*
X10081694Y-35343306D01*
X10085813Y-35347850D01*
X10089467Y-35352777D01*
X10092620Y-35358038D01*
X10095242Y-35363582D01*
X10097309Y-35369357D01*
X10098799Y-35375307D01*
X10099699Y-35381374D01*
X10100000Y-35387500D01*
X10100000Y-35512500D01*
X10099699Y-35518626D01*
X10098799Y-35524693D01*
X10097309Y-35530643D01*
X10095242Y-35536418D01*
X10092620Y-35541962D01*
X10089467Y-35547223D01*
X10085813Y-35552150D01*
X10081694Y-35556694D01*
X10077150Y-35560813D01*
X10072223Y-35564467D01*
X10066962Y-35567620D01*
X10061418Y-35570242D01*
X10055643Y-35572309D01*
X10049693Y-35573799D01*
X10043626Y-35574699D01*
X10037500Y-35575000D01*
X9287500Y-35575000D01*
X9281374Y-35574699D01*
X9275307Y-35573799D01*
X9269357Y-35572309D01*
X9263582Y-35570242D01*
X9258038Y-35567620D01*
X9252777Y-35564467D01*
X9247850Y-35560813D01*
X9243306Y-35556694D01*
X9239187Y-35552150D01*
X9235533Y-35547223D01*
X9232380Y-35541962D01*
X9229758Y-35536418D01*
X9227691Y-35530643D01*
X9226201Y-35524693D01*
X9225301Y-35518626D01*
X9225000Y-35512500D01*
X9225000Y-35387500D01*
X9225301Y-35381374D01*
X9226201Y-35375307D01*
X9227691Y-35369357D01*
X9229758Y-35363582D01*
X9232380Y-35358038D01*
X9235533Y-35352777D01*
X9239187Y-35347850D01*
X9243306Y-35343306D01*
X9247850Y-35339187D01*
X9252777Y-35335533D01*
X9258038Y-35332380D01*
X9263582Y-35329758D01*
X9269357Y-35327691D01*
X9275307Y-35326201D01*
X9281374Y-35325301D01*
X9287500Y-35325000D01*
X10037500Y-35325000D01*
X10043626Y-35325301D01*
X10043626Y-35325301D01*
G37*
D14*
X9662500Y-35450000D03*
D10*
G36*
X10043626Y-34825301D02*
X10049693Y-34826201D01*
X10055643Y-34827691D01*
X10061418Y-34829758D01*
X10066962Y-34832380D01*
X10072223Y-34835533D01*
X10077150Y-34839187D01*
X10081694Y-34843306D01*
X10085813Y-34847850D01*
X10089467Y-34852777D01*
X10092620Y-34858038D01*
X10095242Y-34863582D01*
X10097309Y-34869357D01*
X10098799Y-34875307D01*
X10099699Y-34881374D01*
X10100000Y-34887500D01*
X10100000Y-35012500D01*
X10099699Y-35018626D01*
X10098799Y-35024693D01*
X10097309Y-35030643D01*
X10095242Y-35036418D01*
X10092620Y-35041962D01*
X10089467Y-35047223D01*
X10085813Y-35052150D01*
X10081694Y-35056694D01*
X10077150Y-35060813D01*
X10072223Y-35064467D01*
X10066962Y-35067620D01*
X10061418Y-35070242D01*
X10055643Y-35072309D01*
X10049693Y-35073799D01*
X10043626Y-35074699D01*
X10037500Y-35075000D01*
X9287500Y-35075000D01*
X9281374Y-35074699D01*
X9275307Y-35073799D01*
X9269357Y-35072309D01*
X9263582Y-35070242D01*
X9258038Y-35067620D01*
X9252777Y-35064467D01*
X9247850Y-35060813D01*
X9243306Y-35056694D01*
X9239187Y-35052150D01*
X9235533Y-35047223D01*
X9232380Y-35041962D01*
X9229758Y-35036418D01*
X9227691Y-35030643D01*
X9226201Y-35024693D01*
X9225301Y-35018626D01*
X9225000Y-35012500D01*
X9225000Y-34887500D01*
X9225301Y-34881374D01*
X9226201Y-34875307D01*
X9227691Y-34869357D01*
X9229758Y-34863582D01*
X9232380Y-34858038D01*
X9235533Y-34852777D01*
X9239187Y-34847850D01*
X9243306Y-34843306D01*
X9247850Y-34839187D01*
X9252777Y-34835533D01*
X9258038Y-34832380D01*
X9263582Y-34829758D01*
X9269357Y-34827691D01*
X9275307Y-34826201D01*
X9281374Y-34825301D01*
X9287500Y-34825000D01*
X10037500Y-34825000D01*
X10043626Y-34825301D01*
X10043626Y-34825301D01*
G37*
D14*
X9662500Y-34950000D03*
D10*
G36*
X10043626Y-34325301D02*
X10049693Y-34326201D01*
X10055643Y-34327691D01*
X10061418Y-34329758D01*
X10066962Y-34332380D01*
X10072223Y-34335533D01*
X10077150Y-34339187D01*
X10081694Y-34343306D01*
X10085813Y-34347850D01*
X10089467Y-34352777D01*
X10092620Y-34358038D01*
X10095242Y-34363582D01*
X10097309Y-34369357D01*
X10098799Y-34375307D01*
X10099699Y-34381374D01*
X10100000Y-34387500D01*
X10100000Y-34512500D01*
X10099699Y-34518626D01*
X10098799Y-34524693D01*
X10097309Y-34530643D01*
X10095242Y-34536418D01*
X10092620Y-34541962D01*
X10089467Y-34547223D01*
X10085813Y-34552150D01*
X10081694Y-34556694D01*
X10077150Y-34560813D01*
X10072223Y-34564467D01*
X10066962Y-34567620D01*
X10061418Y-34570242D01*
X10055643Y-34572309D01*
X10049693Y-34573799D01*
X10043626Y-34574699D01*
X10037500Y-34575000D01*
X9287500Y-34575000D01*
X9281374Y-34574699D01*
X9275307Y-34573799D01*
X9269357Y-34572309D01*
X9263582Y-34570242D01*
X9258038Y-34567620D01*
X9252777Y-34564467D01*
X9247850Y-34560813D01*
X9243306Y-34556694D01*
X9239187Y-34552150D01*
X9235533Y-34547223D01*
X9232380Y-34541962D01*
X9229758Y-34536418D01*
X9227691Y-34530643D01*
X9226201Y-34524693D01*
X9225301Y-34518626D01*
X9225000Y-34512500D01*
X9225000Y-34387500D01*
X9225301Y-34381374D01*
X9226201Y-34375307D01*
X9227691Y-34369357D01*
X9229758Y-34363582D01*
X9232380Y-34358038D01*
X9235533Y-34352777D01*
X9239187Y-34347850D01*
X9243306Y-34343306D01*
X9247850Y-34339187D01*
X9252777Y-34335533D01*
X9258038Y-34332380D01*
X9263582Y-34329758D01*
X9269357Y-34327691D01*
X9275307Y-34326201D01*
X9281374Y-34325301D01*
X9287500Y-34325000D01*
X10037500Y-34325000D01*
X10043626Y-34325301D01*
X10043626Y-34325301D01*
G37*
D14*
X9662500Y-34450000D03*
D10*
G36*
X10043626Y-33825301D02*
X10049693Y-33826201D01*
X10055643Y-33827691D01*
X10061418Y-33829758D01*
X10066962Y-33832380D01*
X10072223Y-33835533D01*
X10077150Y-33839187D01*
X10081694Y-33843306D01*
X10085813Y-33847850D01*
X10089467Y-33852777D01*
X10092620Y-33858038D01*
X10095242Y-33863582D01*
X10097309Y-33869357D01*
X10098799Y-33875307D01*
X10099699Y-33881374D01*
X10100000Y-33887500D01*
X10100000Y-34012500D01*
X10099699Y-34018626D01*
X10098799Y-34024693D01*
X10097309Y-34030643D01*
X10095242Y-34036418D01*
X10092620Y-34041962D01*
X10089467Y-34047223D01*
X10085813Y-34052150D01*
X10081694Y-34056694D01*
X10077150Y-34060813D01*
X10072223Y-34064467D01*
X10066962Y-34067620D01*
X10061418Y-34070242D01*
X10055643Y-34072309D01*
X10049693Y-34073799D01*
X10043626Y-34074699D01*
X10037500Y-34075000D01*
X9287500Y-34075000D01*
X9281374Y-34074699D01*
X9275307Y-34073799D01*
X9269357Y-34072309D01*
X9263582Y-34070242D01*
X9258038Y-34067620D01*
X9252777Y-34064467D01*
X9247850Y-34060813D01*
X9243306Y-34056694D01*
X9239187Y-34052150D01*
X9235533Y-34047223D01*
X9232380Y-34041962D01*
X9229758Y-34036418D01*
X9227691Y-34030643D01*
X9226201Y-34024693D01*
X9225301Y-34018626D01*
X9225000Y-34012500D01*
X9225000Y-33887500D01*
X9225301Y-33881374D01*
X9226201Y-33875307D01*
X9227691Y-33869357D01*
X9229758Y-33863582D01*
X9232380Y-33858038D01*
X9235533Y-33852777D01*
X9239187Y-33847850D01*
X9243306Y-33843306D01*
X9247850Y-33839187D01*
X9252777Y-33835533D01*
X9258038Y-33832380D01*
X9263582Y-33829758D01*
X9269357Y-33827691D01*
X9275307Y-33826201D01*
X9281374Y-33825301D01*
X9287500Y-33825000D01*
X10037500Y-33825000D01*
X10043626Y-33825301D01*
X10043626Y-33825301D01*
G37*
D14*
X9662500Y-33950000D03*
D10*
G36*
X10043626Y-33325301D02*
X10049693Y-33326201D01*
X10055643Y-33327691D01*
X10061418Y-33329758D01*
X10066962Y-33332380D01*
X10072223Y-33335533D01*
X10077150Y-33339187D01*
X10081694Y-33343306D01*
X10085813Y-33347850D01*
X10089467Y-33352777D01*
X10092620Y-33358038D01*
X10095242Y-33363582D01*
X10097309Y-33369357D01*
X10098799Y-33375307D01*
X10099699Y-33381374D01*
X10100000Y-33387500D01*
X10100000Y-33512500D01*
X10099699Y-33518626D01*
X10098799Y-33524693D01*
X10097309Y-33530643D01*
X10095242Y-33536418D01*
X10092620Y-33541962D01*
X10089467Y-33547223D01*
X10085813Y-33552150D01*
X10081694Y-33556694D01*
X10077150Y-33560813D01*
X10072223Y-33564467D01*
X10066962Y-33567620D01*
X10061418Y-33570242D01*
X10055643Y-33572309D01*
X10049693Y-33573799D01*
X10043626Y-33574699D01*
X10037500Y-33575000D01*
X9287500Y-33575000D01*
X9281374Y-33574699D01*
X9275307Y-33573799D01*
X9269357Y-33572309D01*
X9263582Y-33570242D01*
X9258038Y-33567620D01*
X9252777Y-33564467D01*
X9247850Y-33560813D01*
X9243306Y-33556694D01*
X9239187Y-33552150D01*
X9235533Y-33547223D01*
X9232380Y-33541962D01*
X9229758Y-33536418D01*
X9227691Y-33530643D01*
X9226201Y-33524693D01*
X9225301Y-33518626D01*
X9225000Y-33512500D01*
X9225000Y-33387500D01*
X9225301Y-33381374D01*
X9226201Y-33375307D01*
X9227691Y-33369357D01*
X9229758Y-33363582D01*
X9232380Y-33358038D01*
X9235533Y-33352777D01*
X9239187Y-33347850D01*
X9243306Y-33343306D01*
X9247850Y-33339187D01*
X9252777Y-33335533D01*
X9258038Y-33332380D01*
X9263582Y-33329758D01*
X9269357Y-33327691D01*
X9275307Y-33326201D01*
X9281374Y-33325301D01*
X9287500Y-33325000D01*
X10037500Y-33325000D01*
X10043626Y-33325301D01*
X10043626Y-33325301D01*
G37*
D14*
X9662500Y-33450000D03*
D10*
G36*
X10043626Y-32825301D02*
X10049693Y-32826201D01*
X10055643Y-32827691D01*
X10061418Y-32829758D01*
X10066962Y-32832380D01*
X10072223Y-32835533D01*
X10077150Y-32839187D01*
X10081694Y-32843306D01*
X10085813Y-32847850D01*
X10089467Y-32852777D01*
X10092620Y-32858038D01*
X10095242Y-32863582D01*
X10097309Y-32869357D01*
X10098799Y-32875307D01*
X10099699Y-32881374D01*
X10100000Y-32887500D01*
X10100000Y-33012500D01*
X10099699Y-33018626D01*
X10098799Y-33024693D01*
X10097309Y-33030643D01*
X10095242Y-33036418D01*
X10092620Y-33041962D01*
X10089467Y-33047223D01*
X10085813Y-33052150D01*
X10081694Y-33056694D01*
X10077150Y-33060813D01*
X10072223Y-33064467D01*
X10066962Y-33067620D01*
X10061418Y-33070242D01*
X10055643Y-33072309D01*
X10049693Y-33073799D01*
X10043626Y-33074699D01*
X10037500Y-33075000D01*
X9287500Y-33075000D01*
X9281374Y-33074699D01*
X9275307Y-33073799D01*
X9269357Y-33072309D01*
X9263582Y-33070242D01*
X9258038Y-33067620D01*
X9252777Y-33064467D01*
X9247850Y-33060813D01*
X9243306Y-33056694D01*
X9239187Y-33052150D01*
X9235533Y-33047223D01*
X9232380Y-33041962D01*
X9229758Y-33036418D01*
X9227691Y-33030643D01*
X9226201Y-33024693D01*
X9225301Y-33018626D01*
X9225000Y-33012500D01*
X9225000Y-32887500D01*
X9225301Y-32881374D01*
X9226201Y-32875307D01*
X9227691Y-32869357D01*
X9229758Y-32863582D01*
X9232380Y-32858038D01*
X9235533Y-32852777D01*
X9239187Y-32847850D01*
X9243306Y-32843306D01*
X9247850Y-32839187D01*
X9252777Y-32835533D01*
X9258038Y-32832380D01*
X9263582Y-32829758D01*
X9269357Y-32827691D01*
X9275307Y-32826201D01*
X9281374Y-32825301D01*
X9287500Y-32825000D01*
X10037500Y-32825000D01*
X10043626Y-32825301D01*
X10043626Y-32825301D01*
G37*
D14*
X9662500Y-32950000D03*
D10*
G36*
X10043626Y-32325301D02*
X10049693Y-32326201D01*
X10055643Y-32327691D01*
X10061418Y-32329758D01*
X10066962Y-32332380D01*
X10072223Y-32335533D01*
X10077150Y-32339187D01*
X10081694Y-32343306D01*
X10085813Y-32347850D01*
X10089467Y-32352777D01*
X10092620Y-32358038D01*
X10095242Y-32363582D01*
X10097309Y-32369357D01*
X10098799Y-32375307D01*
X10099699Y-32381374D01*
X10100000Y-32387500D01*
X10100000Y-32512500D01*
X10099699Y-32518626D01*
X10098799Y-32524693D01*
X10097309Y-32530643D01*
X10095242Y-32536418D01*
X10092620Y-32541962D01*
X10089467Y-32547223D01*
X10085813Y-32552150D01*
X10081694Y-32556694D01*
X10077150Y-32560813D01*
X10072223Y-32564467D01*
X10066962Y-32567620D01*
X10061418Y-32570242D01*
X10055643Y-32572309D01*
X10049693Y-32573799D01*
X10043626Y-32574699D01*
X10037500Y-32575000D01*
X9287500Y-32575000D01*
X9281374Y-32574699D01*
X9275307Y-32573799D01*
X9269357Y-32572309D01*
X9263582Y-32570242D01*
X9258038Y-32567620D01*
X9252777Y-32564467D01*
X9247850Y-32560813D01*
X9243306Y-32556694D01*
X9239187Y-32552150D01*
X9235533Y-32547223D01*
X9232380Y-32541962D01*
X9229758Y-32536418D01*
X9227691Y-32530643D01*
X9226201Y-32524693D01*
X9225301Y-32518626D01*
X9225000Y-32512500D01*
X9225000Y-32387500D01*
X9225301Y-32381374D01*
X9226201Y-32375307D01*
X9227691Y-32369357D01*
X9229758Y-32363582D01*
X9232380Y-32358038D01*
X9235533Y-32352777D01*
X9239187Y-32347850D01*
X9243306Y-32343306D01*
X9247850Y-32339187D01*
X9252777Y-32335533D01*
X9258038Y-32332380D01*
X9263582Y-32329758D01*
X9269357Y-32327691D01*
X9275307Y-32326201D01*
X9281374Y-32325301D01*
X9287500Y-32325000D01*
X10037500Y-32325000D01*
X10043626Y-32325301D01*
X10043626Y-32325301D01*
G37*
D14*
X9662500Y-32450000D03*
D10*
G36*
X10043626Y-31825301D02*
X10049693Y-31826201D01*
X10055643Y-31827691D01*
X10061418Y-31829758D01*
X10066962Y-31832380D01*
X10072223Y-31835533D01*
X10077150Y-31839187D01*
X10081694Y-31843306D01*
X10085813Y-31847850D01*
X10089467Y-31852777D01*
X10092620Y-31858038D01*
X10095242Y-31863582D01*
X10097309Y-31869357D01*
X10098799Y-31875307D01*
X10099699Y-31881374D01*
X10100000Y-31887500D01*
X10100000Y-32012500D01*
X10099699Y-32018626D01*
X10098799Y-32024693D01*
X10097309Y-32030643D01*
X10095242Y-32036418D01*
X10092620Y-32041962D01*
X10089467Y-32047223D01*
X10085813Y-32052150D01*
X10081694Y-32056694D01*
X10077150Y-32060813D01*
X10072223Y-32064467D01*
X10066962Y-32067620D01*
X10061418Y-32070242D01*
X10055643Y-32072309D01*
X10049693Y-32073799D01*
X10043626Y-32074699D01*
X10037500Y-32075000D01*
X9287500Y-32075000D01*
X9281374Y-32074699D01*
X9275307Y-32073799D01*
X9269357Y-32072309D01*
X9263582Y-32070242D01*
X9258038Y-32067620D01*
X9252777Y-32064467D01*
X9247850Y-32060813D01*
X9243306Y-32056694D01*
X9239187Y-32052150D01*
X9235533Y-32047223D01*
X9232380Y-32041962D01*
X9229758Y-32036418D01*
X9227691Y-32030643D01*
X9226201Y-32024693D01*
X9225301Y-32018626D01*
X9225000Y-32012500D01*
X9225000Y-31887500D01*
X9225301Y-31881374D01*
X9226201Y-31875307D01*
X9227691Y-31869357D01*
X9229758Y-31863582D01*
X9232380Y-31858038D01*
X9235533Y-31852777D01*
X9239187Y-31847850D01*
X9243306Y-31843306D01*
X9247850Y-31839187D01*
X9252777Y-31835533D01*
X9258038Y-31832380D01*
X9263582Y-31829758D01*
X9269357Y-31827691D01*
X9275307Y-31826201D01*
X9281374Y-31825301D01*
X9287500Y-31825000D01*
X10037500Y-31825000D01*
X10043626Y-31825301D01*
X10043626Y-31825301D01*
G37*
D14*
X9662500Y-31950000D03*
D10*
G36*
X10418626Y-30825301D02*
X10424693Y-30826201D01*
X10430643Y-30827691D01*
X10436418Y-30829758D01*
X10441962Y-30832380D01*
X10447223Y-30835533D01*
X10452150Y-30839187D01*
X10456694Y-30843306D01*
X10460813Y-30847850D01*
X10464467Y-30852777D01*
X10467620Y-30858038D01*
X10470242Y-30863582D01*
X10472309Y-30869357D01*
X10473799Y-30875307D01*
X10474699Y-30881374D01*
X10475000Y-30887500D01*
X10475000Y-31637500D01*
X10474699Y-31643626D01*
X10473799Y-31649693D01*
X10472309Y-31655643D01*
X10470242Y-31661418D01*
X10467620Y-31666962D01*
X10464467Y-31672223D01*
X10460813Y-31677150D01*
X10456694Y-31681694D01*
X10452150Y-31685813D01*
X10447223Y-31689467D01*
X10441962Y-31692620D01*
X10436418Y-31695242D01*
X10430643Y-31697309D01*
X10424693Y-31698799D01*
X10418626Y-31699699D01*
X10412500Y-31700000D01*
X10287500Y-31700000D01*
X10281374Y-31699699D01*
X10275307Y-31698799D01*
X10269357Y-31697309D01*
X10263582Y-31695242D01*
X10258038Y-31692620D01*
X10252777Y-31689467D01*
X10247850Y-31685813D01*
X10243306Y-31681694D01*
X10239187Y-31677150D01*
X10235533Y-31672223D01*
X10232380Y-31666962D01*
X10229758Y-31661418D01*
X10227691Y-31655643D01*
X10226201Y-31649693D01*
X10225301Y-31643626D01*
X10225000Y-31637500D01*
X10225000Y-30887500D01*
X10225301Y-30881374D01*
X10226201Y-30875307D01*
X10227691Y-30869357D01*
X10229758Y-30863582D01*
X10232380Y-30858038D01*
X10235533Y-30852777D01*
X10239187Y-30847850D01*
X10243306Y-30843306D01*
X10247850Y-30839187D01*
X10252777Y-30835533D01*
X10258038Y-30832380D01*
X10263582Y-30829758D01*
X10269357Y-30827691D01*
X10275307Y-30826201D01*
X10281374Y-30825301D01*
X10287500Y-30825000D01*
X10412500Y-30825000D01*
X10418626Y-30825301D01*
X10418626Y-30825301D01*
G37*
D14*
X10350000Y-31262500D03*
D10*
G36*
X10918626Y-30825301D02*
X10924693Y-30826201D01*
X10930643Y-30827691D01*
X10936418Y-30829758D01*
X10941962Y-30832380D01*
X10947223Y-30835533D01*
X10952150Y-30839187D01*
X10956694Y-30843306D01*
X10960813Y-30847850D01*
X10964467Y-30852777D01*
X10967620Y-30858038D01*
X10970242Y-30863582D01*
X10972309Y-30869357D01*
X10973799Y-30875307D01*
X10974699Y-30881374D01*
X10975000Y-30887500D01*
X10975000Y-31637500D01*
X10974699Y-31643626D01*
X10973799Y-31649693D01*
X10972309Y-31655643D01*
X10970242Y-31661418D01*
X10967620Y-31666962D01*
X10964467Y-31672223D01*
X10960813Y-31677150D01*
X10956694Y-31681694D01*
X10952150Y-31685813D01*
X10947223Y-31689467D01*
X10941962Y-31692620D01*
X10936418Y-31695242D01*
X10930643Y-31697309D01*
X10924693Y-31698799D01*
X10918626Y-31699699D01*
X10912500Y-31700000D01*
X10787500Y-31700000D01*
X10781374Y-31699699D01*
X10775307Y-31698799D01*
X10769357Y-31697309D01*
X10763582Y-31695242D01*
X10758038Y-31692620D01*
X10752777Y-31689467D01*
X10747850Y-31685813D01*
X10743306Y-31681694D01*
X10739187Y-31677150D01*
X10735533Y-31672223D01*
X10732380Y-31666962D01*
X10729758Y-31661418D01*
X10727691Y-31655643D01*
X10726201Y-31649693D01*
X10725301Y-31643626D01*
X10725000Y-31637500D01*
X10725000Y-30887500D01*
X10725301Y-30881374D01*
X10726201Y-30875307D01*
X10727691Y-30869357D01*
X10729758Y-30863582D01*
X10732380Y-30858038D01*
X10735533Y-30852777D01*
X10739187Y-30847850D01*
X10743306Y-30843306D01*
X10747850Y-30839187D01*
X10752777Y-30835533D01*
X10758038Y-30832380D01*
X10763582Y-30829758D01*
X10769357Y-30827691D01*
X10775307Y-30826201D01*
X10781374Y-30825301D01*
X10787500Y-30825000D01*
X10912500Y-30825000D01*
X10918626Y-30825301D01*
X10918626Y-30825301D01*
G37*
D14*
X10850000Y-31262500D03*
D10*
G36*
X11418626Y-30825301D02*
X11424693Y-30826201D01*
X11430643Y-30827691D01*
X11436418Y-30829758D01*
X11441962Y-30832380D01*
X11447223Y-30835533D01*
X11452150Y-30839187D01*
X11456694Y-30843306D01*
X11460813Y-30847850D01*
X11464467Y-30852777D01*
X11467620Y-30858038D01*
X11470242Y-30863582D01*
X11472309Y-30869357D01*
X11473799Y-30875307D01*
X11474699Y-30881374D01*
X11475000Y-30887500D01*
X11475000Y-31637500D01*
X11474699Y-31643626D01*
X11473799Y-31649693D01*
X11472309Y-31655643D01*
X11470242Y-31661418D01*
X11467620Y-31666962D01*
X11464467Y-31672223D01*
X11460813Y-31677150D01*
X11456694Y-31681694D01*
X11452150Y-31685813D01*
X11447223Y-31689467D01*
X11441962Y-31692620D01*
X11436418Y-31695242D01*
X11430643Y-31697309D01*
X11424693Y-31698799D01*
X11418626Y-31699699D01*
X11412500Y-31700000D01*
X11287500Y-31700000D01*
X11281374Y-31699699D01*
X11275307Y-31698799D01*
X11269357Y-31697309D01*
X11263582Y-31695242D01*
X11258038Y-31692620D01*
X11252777Y-31689467D01*
X11247850Y-31685813D01*
X11243306Y-31681694D01*
X11239187Y-31677150D01*
X11235533Y-31672223D01*
X11232380Y-31666962D01*
X11229758Y-31661418D01*
X11227691Y-31655643D01*
X11226201Y-31649693D01*
X11225301Y-31643626D01*
X11225000Y-31637500D01*
X11225000Y-30887500D01*
X11225301Y-30881374D01*
X11226201Y-30875307D01*
X11227691Y-30869357D01*
X11229758Y-30863582D01*
X11232380Y-30858038D01*
X11235533Y-30852777D01*
X11239187Y-30847850D01*
X11243306Y-30843306D01*
X11247850Y-30839187D01*
X11252777Y-30835533D01*
X11258038Y-30832380D01*
X11263582Y-30829758D01*
X11269357Y-30827691D01*
X11275307Y-30826201D01*
X11281374Y-30825301D01*
X11287500Y-30825000D01*
X11412500Y-30825000D01*
X11418626Y-30825301D01*
X11418626Y-30825301D01*
G37*
D14*
X11350000Y-31262500D03*
D10*
G36*
X11918626Y-30825301D02*
X11924693Y-30826201D01*
X11930643Y-30827691D01*
X11936418Y-30829758D01*
X11941962Y-30832380D01*
X11947223Y-30835533D01*
X11952150Y-30839187D01*
X11956694Y-30843306D01*
X11960813Y-30847850D01*
X11964467Y-30852777D01*
X11967620Y-30858038D01*
X11970242Y-30863582D01*
X11972309Y-30869357D01*
X11973799Y-30875307D01*
X11974699Y-30881374D01*
X11975000Y-30887500D01*
X11975000Y-31637500D01*
X11974699Y-31643626D01*
X11973799Y-31649693D01*
X11972309Y-31655643D01*
X11970242Y-31661418D01*
X11967620Y-31666962D01*
X11964467Y-31672223D01*
X11960813Y-31677150D01*
X11956694Y-31681694D01*
X11952150Y-31685813D01*
X11947223Y-31689467D01*
X11941962Y-31692620D01*
X11936418Y-31695242D01*
X11930643Y-31697309D01*
X11924693Y-31698799D01*
X11918626Y-31699699D01*
X11912500Y-31700000D01*
X11787500Y-31700000D01*
X11781374Y-31699699D01*
X11775307Y-31698799D01*
X11769357Y-31697309D01*
X11763582Y-31695242D01*
X11758038Y-31692620D01*
X11752777Y-31689467D01*
X11747850Y-31685813D01*
X11743306Y-31681694D01*
X11739187Y-31677150D01*
X11735533Y-31672223D01*
X11732380Y-31666962D01*
X11729758Y-31661418D01*
X11727691Y-31655643D01*
X11726201Y-31649693D01*
X11725301Y-31643626D01*
X11725000Y-31637500D01*
X11725000Y-30887500D01*
X11725301Y-30881374D01*
X11726201Y-30875307D01*
X11727691Y-30869357D01*
X11729758Y-30863582D01*
X11732380Y-30858038D01*
X11735533Y-30852777D01*
X11739187Y-30847850D01*
X11743306Y-30843306D01*
X11747850Y-30839187D01*
X11752777Y-30835533D01*
X11758038Y-30832380D01*
X11763582Y-30829758D01*
X11769357Y-30827691D01*
X11775307Y-30826201D01*
X11781374Y-30825301D01*
X11787500Y-30825000D01*
X11912500Y-30825000D01*
X11918626Y-30825301D01*
X11918626Y-30825301D01*
G37*
D14*
X11850000Y-31262500D03*
D10*
G36*
X12418626Y-30825301D02*
X12424693Y-30826201D01*
X12430643Y-30827691D01*
X12436418Y-30829758D01*
X12441962Y-30832380D01*
X12447223Y-30835533D01*
X12452150Y-30839187D01*
X12456694Y-30843306D01*
X12460813Y-30847850D01*
X12464467Y-30852777D01*
X12467620Y-30858038D01*
X12470242Y-30863582D01*
X12472309Y-30869357D01*
X12473799Y-30875307D01*
X12474699Y-30881374D01*
X12475000Y-30887500D01*
X12475000Y-31637500D01*
X12474699Y-31643626D01*
X12473799Y-31649693D01*
X12472309Y-31655643D01*
X12470242Y-31661418D01*
X12467620Y-31666962D01*
X12464467Y-31672223D01*
X12460813Y-31677150D01*
X12456694Y-31681694D01*
X12452150Y-31685813D01*
X12447223Y-31689467D01*
X12441962Y-31692620D01*
X12436418Y-31695242D01*
X12430643Y-31697309D01*
X12424693Y-31698799D01*
X12418626Y-31699699D01*
X12412500Y-31700000D01*
X12287500Y-31700000D01*
X12281374Y-31699699D01*
X12275307Y-31698799D01*
X12269357Y-31697309D01*
X12263582Y-31695242D01*
X12258038Y-31692620D01*
X12252777Y-31689467D01*
X12247850Y-31685813D01*
X12243306Y-31681694D01*
X12239187Y-31677150D01*
X12235533Y-31672223D01*
X12232380Y-31666962D01*
X12229758Y-31661418D01*
X12227691Y-31655643D01*
X12226201Y-31649693D01*
X12225301Y-31643626D01*
X12225000Y-31637500D01*
X12225000Y-30887500D01*
X12225301Y-30881374D01*
X12226201Y-30875307D01*
X12227691Y-30869357D01*
X12229758Y-30863582D01*
X12232380Y-30858038D01*
X12235533Y-30852777D01*
X12239187Y-30847850D01*
X12243306Y-30843306D01*
X12247850Y-30839187D01*
X12252777Y-30835533D01*
X12258038Y-30832380D01*
X12263582Y-30829758D01*
X12269357Y-30827691D01*
X12275307Y-30826201D01*
X12281374Y-30825301D01*
X12287500Y-30825000D01*
X12412500Y-30825000D01*
X12418626Y-30825301D01*
X12418626Y-30825301D01*
G37*
D14*
X12350000Y-31262500D03*
D10*
G36*
X12918626Y-30825301D02*
X12924693Y-30826201D01*
X12930643Y-30827691D01*
X12936418Y-30829758D01*
X12941962Y-30832380D01*
X12947223Y-30835533D01*
X12952150Y-30839187D01*
X12956694Y-30843306D01*
X12960813Y-30847850D01*
X12964467Y-30852777D01*
X12967620Y-30858038D01*
X12970242Y-30863582D01*
X12972309Y-30869357D01*
X12973799Y-30875307D01*
X12974699Y-30881374D01*
X12975000Y-30887500D01*
X12975000Y-31637500D01*
X12974699Y-31643626D01*
X12973799Y-31649693D01*
X12972309Y-31655643D01*
X12970242Y-31661418D01*
X12967620Y-31666962D01*
X12964467Y-31672223D01*
X12960813Y-31677150D01*
X12956694Y-31681694D01*
X12952150Y-31685813D01*
X12947223Y-31689467D01*
X12941962Y-31692620D01*
X12936418Y-31695242D01*
X12930643Y-31697309D01*
X12924693Y-31698799D01*
X12918626Y-31699699D01*
X12912500Y-31700000D01*
X12787500Y-31700000D01*
X12781374Y-31699699D01*
X12775307Y-31698799D01*
X12769357Y-31697309D01*
X12763582Y-31695242D01*
X12758038Y-31692620D01*
X12752777Y-31689467D01*
X12747850Y-31685813D01*
X12743306Y-31681694D01*
X12739187Y-31677150D01*
X12735533Y-31672223D01*
X12732380Y-31666962D01*
X12729758Y-31661418D01*
X12727691Y-31655643D01*
X12726201Y-31649693D01*
X12725301Y-31643626D01*
X12725000Y-31637500D01*
X12725000Y-30887500D01*
X12725301Y-30881374D01*
X12726201Y-30875307D01*
X12727691Y-30869357D01*
X12729758Y-30863582D01*
X12732380Y-30858038D01*
X12735533Y-30852777D01*
X12739187Y-30847850D01*
X12743306Y-30843306D01*
X12747850Y-30839187D01*
X12752777Y-30835533D01*
X12758038Y-30832380D01*
X12763582Y-30829758D01*
X12769357Y-30827691D01*
X12775307Y-30826201D01*
X12781374Y-30825301D01*
X12787500Y-30825000D01*
X12912500Y-30825000D01*
X12918626Y-30825301D01*
X12918626Y-30825301D01*
G37*
D14*
X12850000Y-31262500D03*
D10*
G36*
X13418626Y-30825301D02*
X13424693Y-30826201D01*
X13430643Y-30827691D01*
X13436418Y-30829758D01*
X13441962Y-30832380D01*
X13447223Y-30835533D01*
X13452150Y-30839187D01*
X13456694Y-30843306D01*
X13460813Y-30847850D01*
X13464467Y-30852777D01*
X13467620Y-30858038D01*
X13470242Y-30863582D01*
X13472309Y-30869357D01*
X13473799Y-30875307D01*
X13474699Y-30881374D01*
X13475000Y-30887500D01*
X13475000Y-31637500D01*
X13474699Y-31643626D01*
X13473799Y-31649693D01*
X13472309Y-31655643D01*
X13470242Y-31661418D01*
X13467620Y-31666962D01*
X13464467Y-31672223D01*
X13460813Y-31677150D01*
X13456694Y-31681694D01*
X13452150Y-31685813D01*
X13447223Y-31689467D01*
X13441962Y-31692620D01*
X13436418Y-31695242D01*
X13430643Y-31697309D01*
X13424693Y-31698799D01*
X13418626Y-31699699D01*
X13412500Y-31700000D01*
X13287500Y-31700000D01*
X13281374Y-31699699D01*
X13275307Y-31698799D01*
X13269357Y-31697309D01*
X13263582Y-31695242D01*
X13258038Y-31692620D01*
X13252777Y-31689467D01*
X13247850Y-31685813D01*
X13243306Y-31681694D01*
X13239187Y-31677150D01*
X13235533Y-31672223D01*
X13232380Y-31666962D01*
X13229758Y-31661418D01*
X13227691Y-31655643D01*
X13226201Y-31649693D01*
X13225301Y-31643626D01*
X13225000Y-31637500D01*
X13225000Y-30887500D01*
X13225301Y-30881374D01*
X13226201Y-30875307D01*
X13227691Y-30869357D01*
X13229758Y-30863582D01*
X13232380Y-30858038D01*
X13235533Y-30852777D01*
X13239187Y-30847850D01*
X13243306Y-30843306D01*
X13247850Y-30839187D01*
X13252777Y-30835533D01*
X13258038Y-30832380D01*
X13263582Y-30829758D01*
X13269357Y-30827691D01*
X13275307Y-30826201D01*
X13281374Y-30825301D01*
X13287500Y-30825000D01*
X13412500Y-30825000D01*
X13418626Y-30825301D01*
X13418626Y-30825301D01*
G37*
D14*
X13350000Y-31262500D03*
D10*
G36*
X13918626Y-30825301D02*
X13924693Y-30826201D01*
X13930643Y-30827691D01*
X13936418Y-30829758D01*
X13941962Y-30832380D01*
X13947223Y-30835533D01*
X13952150Y-30839187D01*
X13956694Y-30843306D01*
X13960813Y-30847850D01*
X13964467Y-30852777D01*
X13967620Y-30858038D01*
X13970242Y-30863582D01*
X13972309Y-30869357D01*
X13973799Y-30875307D01*
X13974699Y-30881374D01*
X13975000Y-30887500D01*
X13975000Y-31637500D01*
X13974699Y-31643626D01*
X13973799Y-31649693D01*
X13972309Y-31655643D01*
X13970242Y-31661418D01*
X13967620Y-31666962D01*
X13964467Y-31672223D01*
X13960813Y-31677150D01*
X13956694Y-31681694D01*
X13952150Y-31685813D01*
X13947223Y-31689467D01*
X13941962Y-31692620D01*
X13936418Y-31695242D01*
X13930643Y-31697309D01*
X13924693Y-31698799D01*
X13918626Y-31699699D01*
X13912500Y-31700000D01*
X13787500Y-31700000D01*
X13781374Y-31699699D01*
X13775307Y-31698799D01*
X13769357Y-31697309D01*
X13763582Y-31695242D01*
X13758038Y-31692620D01*
X13752777Y-31689467D01*
X13747850Y-31685813D01*
X13743306Y-31681694D01*
X13739187Y-31677150D01*
X13735533Y-31672223D01*
X13732380Y-31666962D01*
X13729758Y-31661418D01*
X13727691Y-31655643D01*
X13726201Y-31649693D01*
X13725301Y-31643626D01*
X13725000Y-31637500D01*
X13725000Y-30887500D01*
X13725301Y-30881374D01*
X13726201Y-30875307D01*
X13727691Y-30869357D01*
X13729758Y-30863582D01*
X13732380Y-30858038D01*
X13735533Y-30852777D01*
X13739187Y-30847850D01*
X13743306Y-30843306D01*
X13747850Y-30839187D01*
X13752777Y-30835533D01*
X13758038Y-30832380D01*
X13763582Y-30829758D01*
X13769357Y-30827691D01*
X13775307Y-30826201D01*
X13781374Y-30825301D01*
X13787500Y-30825000D01*
X13912500Y-30825000D01*
X13918626Y-30825301D01*
X13918626Y-30825301D01*
G37*
D14*
X13850000Y-31262500D03*
D10*
G36*
X14918626Y-31825301D02*
X14924693Y-31826201D01*
X14930643Y-31827691D01*
X14936418Y-31829758D01*
X14941962Y-31832380D01*
X14947223Y-31835533D01*
X14952150Y-31839187D01*
X14956694Y-31843306D01*
X14960813Y-31847850D01*
X14964467Y-31852777D01*
X14967620Y-31858038D01*
X14970242Y-31863582D01*
X14972309Y-31869357D01*
X14973799Y-31875307D01*
X14974699Y-31881374D01*
X14975000Y-31887500D01*
X14975000Y-32012500D01*
X14974699Y-32018626D01*
X14973799Y-32024693D01*
X14972309Y-32030643D01*
X14970242Y-32036418D01*
X14967620Y-32041962D01*
X14964467Y-32047223D01*
X14960813Y-32052150D01*
X14956694Y-32056694D01*
X14952150Y-32060813D01*
X14947223Y-32064467D01*
X14941962Y-32067620D01*
X14936418Y-32070242D01*
X14930643Y-32072309D01*
X14924693Y-32073799D01*
X14918626Y-32074699D01*
X14912500Y-32075000D01*
X14162500Y-32075000D01*
X14156374Y-32074699D01*
X14150307Y-32073799D01*
X14144357Y-32072309D01*
X14138582Y-32070242D01*
X14133038Y-32067620D01*
X14127777Y-32064467D01*
X14122850Y-32060813D01*
X14118306Y-32056694D01*
X14114187Y-32052150D01*
X14110533Y-32047223D01*
X14107380Y-32041962D01*
X14104758Y-32036418D01*
X14102691Y-32030643D01*
X14101201Y-32024693D01*
X14100301Y-32018626D01*
X14100000Y-32012500D01*
X14100000Y-31887500D01*
X14100301Y-31881374D01*
X14101201Y-31875307D01*
X14102691Y-31869357D01*
X14104758Y-31863582D01*
X14107380Y-31858038D01*
X14110533Y-31852777D01*
X14114187Y-31847850D01*
X14118306Y-31843306D01*
X14122850Y-31839187D01*
X14127777Y-31835533D01*
X14133038Y-31832380D01*
X14138582Y-31829758D01*
X14144357Y-31827691D01*
X14150307Y-31826201D01*
X14156374Y-31825301D01*
X14162500Y-31825000D01*
X14912500Y-31825000D01*
X14918626Y-31825301D01*
X14918626Y-31825301D01*
G37*
D14*
X14537500Y-31950000D03*
D10*
G36*
X14918626Y-32325301D02*
X14924693Y-32326201D01*
X14930643Y-32327691D01*
X14936418Y-32329758D01*
X14941962Y-32332380D01*
X14947223Y-32335533D01*
X14952150Y-32339187D01*
X14956694Y-32343306D01*
X14960813Y-32347850D01*
X14964467Y-32352777D01*
X14967620Y-32358038D01*
X14970242Y-32363582D01*
X14972309Y-32369357D01*
X14973799Y-32375307D01*
X14974699Y-32381374D01*
X14975000Y-32387500D01*
X14975000Y-32512500D01*
X14974699Y-32518626D01*
X14973799Y-32524693D01*
X14972309Y-32530643D01*
X14970242Y-32536418D01*
X14967620Y-32541962D01*
X14964467Y-32547223D01*
X14960813Y-32552150D01*
X14956694Y-32556694D01*
X14952150Y-32560813D01*
X14947223Y-32564467D01*
X14941962Y-32567620D01*
X14936418Y-32570242D01*
X14930643Y-32572309D01*
X14924693Y-32573799D01*
X14918626Y-32574699D01*
X14912500Y-32575000D01*
X14162500Y-32575000D01*
X14156374Y-32574699D01*
X14150307Y-32573799D01*
X14144357Y-32572309D01*
X14138582Y-32570242D01*
X14133038Y-32567620D01*
X14127777Y-32564467D01*
X14122850Y-32560813D01*
X14118306Y-32556694D01*
X14114187Y-32552150D01*
X14110533Y-32547223D01*
X14107380Y-32541962D01*
X14104758Y-32536418D01*
X14102691Y-32530643D01*
X14101201Y-32524693D01*
X14100301Y-32518626D01*
X14100000Y-32512500D01*
X14100000Y-32387500D01*
X14100301Y-32381374D01*
X14101201Y-32375307D01*
X14102691Y-32369357D01*
X14104758Y-32363582D01*
X14107380Y-32358038D01*
X14110533Y-32352777D01*
X14114187Y-32347850D01*
X14118306Y-32343306D01*
X14122850Y-32339187D01*
X14127777Y-32335533D01*
X14133038Y-32332380D01*
X14138582Y-32329758D01*
X14144357Y-32327691D01*
X14150307Y-32326201D01*
X14156374Y-32325301D01*
X14162500Y-32325000D01*
X14912500Y-32325000D01*
X14918626Y-32325301D01*
X14918626Y-32325301D01*
G37*
D14*
X14537500Y-32450000D03*
D10*
G36*
X14918626Y-32825301D02*
X14924693Y-32826201D01*
X14930643Y-32827691D01*
X14936418Y-32829758D01*
X14941962Y-32832380D01*
X14947223Y-32835533D01*
X14952150Y-32839187D01*
X14956694Y-32843306D01*
X14960813Y-32847850D01*
X14964467Y-32852777D01*
X14967620Y-32858038D01*
X14970242Y-32863582D01*
X14972309Y-32869357D01*
X14973799Y-32875307D01*
X14974699Y-32881374D01*
X14975000Y-32887500D01*
X14975000Y-33012500D01*
X14974699Y-33018626D01*
X14973799Y-33024693D01*
X14972309Y-33030643D01*
X14970242Y-33036418D01*
X14967620Y-33041962D01*
X14964467Y-33047223D01*
X14960813Y-33052150D01*
X14956694Y-33056694D01*
X14952150Y-33060813D01*
X14947223Y-33064467D01*
X14941962Y-33067620D01*
X14936418Y-33070242D01*
X14930643Y-33072309D01*
X14924693Y-33073799D01*
X14918626Y-33074699D01*
X14912500Y-33075000D01*
X14162500Y-33075000D01*
X14156374Y-33074699D01*
X14150307Y-33073799D01*
X14144357Y-33072309D01*
X14138582Y-33070242D01*
X14133038Y-33067620D01*
X14127777Y-33064467D01*
X14122850Y-33060813D01*
X14118306Y-33056694D01*
X14114187Y-33052150D01*
X14110533Y-33047223D01*
X14107380Y-33041962D01*
X14104758Y-33036418D01*
X14102691Y-33030643D01*
X14101201Y-33024693D01*
X14100301Y-33018626D01*
X14100000Y-33012500D01*
X14100000Y-32887500D01*
X14100301Y-32881374D01*
X14101201Y-32875307D01*
X14102691Y-32869357D01*
X14104758Y-32863582D01*
X14107380Y-32858038D01*
X14110533Y-32852777D01*
X14114187Y-32847850D01*
X14118306Y-32843306D01*
X14122850Y-32839187D01*
X14127777Y-32835533D01*
X14133038Y-32832380D01*
X14138582Y-32829758D01*
X14144357Y-32827691D01*
X14150307Y-32826201D01*
X14156374Y-32825301D01*
X14162500Y-32825000D01*
X14912500Y-32825000D01*
X14918626Y-32825301D01*
X14918626Y-32825301D01*
G37*
D14*
X14537500Y-32950000D03*
D10*
G36*
X14918626Y-33325301D02*
X14924693Y-33326201D01*
X14930643Y-33327691D01*
X14936418Y-33329758D01*
X14941962Y-33332380D01*
X14947223Y-33335533D01*
X14952150Y-33339187D01*
X14956694Y-33343306D01*
X14960813Y-33347850D01*
X14964467Y-33352777D01*
X14967620Y-33358038D01*
X14970242Y-33363582D01*
X14972309Y-33369357D01*
X14973799Y-33375307D01*
X14974699Y-33381374D01*
X14975000Y-33387500D01*
X14975000Y-33512500D01*
X14974699Y-33518626D01*
X14973799Y-33524693D01*
X14972309Y-33530643D01*
X14970242Y-33536418D01*
X14967620Y-33541962D01*
X14964467Y-33547223D01*
X14960813Y-33552150D01*
X14956694Y-33556694D01*
X14952150Y-33560813D01*
X14947223Y-33564467D01*
X14941962Y-33567620D01*
X14936418Y-33570242D01*
X14930643Y-33572309D01*
X14924693Y-33573799D01*
X14918626Y-33574699D01*
X14912500Y-33575000D01*
X14162500Y-33575000D01*
X14156374Y-33574699D01*
X14150307Y-33573799D01*
X14144357Y-33572309D01*
X14138582Y-33570242D01*
X14133038Y-33567620D01*
X14127777Y-33564467D01*
X14122850Y-33560813D01*
X14118306Y-33556694D01*
X14114187Y-33552150D01*
X14110533Y-33547223D01*
X14107380Y-33541962D01*
X14104758Y-33536418D01*
X14102691Y-33530643D01*
X14101201Y-33524693D01*
X14100301Y-33518626D01*
X14100000Y-33512500D01*
X14100000Y-33387500D01*
X14100301Y-33381374D01*
X14101201Y-33375307D01*
X14102691Y-33369357D01*
X14104758Y-33363582D01*
X14107380Y-33358038D01*
X14110533Y-33352777D01*
X14114187Y-33347850D01*
X14118306Y-33343306D01*
X14122850Y-33339187D01*
X14127777Y-33335533D01*
X14133038Y-33332380D01*
X14138582Y-33329758D01*
X14144357Y-33327691D01*
X14150307Y-33326201D01*
X14156374Y-33325301D01*
X14162500Y-33325000D01*
X14912500Y-33325000D01*
X14918626Y-33325301D01*
X14918626Y-33325301D01*
G37*
D14*
X14537500Y-33450000D03*
D10*
G36*
X14918626Y-33825301D02*
X14924693Y-33826201D01*
X14930643Y-33827691D01*
X14936418Y-33829758D01*
X14941962Y-33832380D01*
X14947223Y-33835533D01*
X14952150Y-33839187D01*
X14956694Y-33843306D01*
X14960813Y-33847850D01*
X14964467Y-33852777D01*
X14967620Y-33858038D01*
X14970242Y-33863582D01*
X14972309Y-33869357D01*
X14973799Y-33875307D01*
X14974699Y-33881374D01*
X14975000Y-33887500D01*
X14975000Y-34012500D01*
X14974699Y-34018626D01*
X14973799Y-34024693D01*
X14972309Y-34030643D01*
X14970242Y-34036418D01*
X14967620Y-34041962D01*
X14964467Y-34047223D01*
X14960813Y-34052150D01*
X14956694Y-34056694D01*
X14952150Y-34060813D01*
X14947223Y-34064467D01*
X14941962Y-34067620D01*
X14936418Y-34070242D01*
X14930643Y-34072309D01*
X14924693Y-34073799D01*
X14918626Y-34074699D01*
X14912500Y-34075000D01*
X14162500Y-34075000D01*
X14156374Y-34074699D01*
X14150307Y-34073799D01*
X14144357Y-34072309D01*
X14138582Y-34070242D01*
X14133038Y-34067620D01*
X14127777Y-34064467D01*
X14122850Y-34060813D01*
X14118306Y-34056694D01*
X14114187Y-34052150D01*
X14110533Y-34047223D01*
X14107380Y-34041962D01*
X14104758Y-34036418D01*
X14102691Y-34030643D01*
X14101201Y-34024693D01*
X14100301Y-34018626D01*
X14100000Y-34012500D01*
X14100000Y-33887500D01*
X14100301Y-33881374D01*
X14101201Y-33875307D01*
X14102691Y-33869357D01*
X14104758Y-33863582D01*
X14107380Y-33858038D01*
X14110533Y-33852777D01*
X14114187Y-33847850D01*
X14118306Y-33843306D01*
X14122850Y-33839187D01*
X14127777Y-33835533D01*
X14133038Y-33832380D01*
X14138582Y-33829758D01*
X14144357Y-33827691D01*
X14150307Y-33826201D01*
X14156374Y-33825301D01*
X14162500Y-33825000D01*
X14912500Y-33825000D01*
X14918626Y-33825301D01*
X14918626Y-33825301D01*
G37*
D14*
X14537500Y-33950000D03*
D10*
G36*
X14918626Y-34325301D02*
X14924693Y-34326201D01*
X14930643Y-34327691D01*
X14936418Y-34329758D01*
X14941962Y-34332380D01*
X14947223Y-34335533D01*
X14952150Y-34339187D01*
X14956694Y-34343306D01*
X14960813Y-34347850D01*
X14964467Y-34352777D01*
X14967620Y-34358038D01*
X14970242Y-34363582D01*
X14972309Y-34369357D01*
X14973799Y-34375307D01*
X14974699Y-34381374D01*
X14975000Y-34387500D01*
X14975000Y-34512500D01*
X14974699Y-34518626D01*
X14973799Y-34524693D01*
X14972309Y-34530643D01*
X14970242Y-34536418D01*
X14967620Y-34541962D01*
X14964467Y-34547223D01*
X14960813Y-34552150D01*
X14956694Y-34556694D01*
X14952150Y-34560813D01*
X14947223Y-34564467D01*
X14941962Y-34567620D01*
X14936418Y-34570242D01*
X14930643Y-34572309D01*
X14924693Y-34573799D01*
X14918626Y-34574699D01*
X14912500Y-34575000D01*
X14162500Y-34575000D01*
X14156374Y-34574699D01*
X14150307Y-34573799D01*
X14144357Y-34572309D01*
X14138582Y-34570242D01*
X14133038Y-34567620D01*
X14127777Y-34564467D01*
X14122850Y-34560813D01*
X14118306Y-34556694D01*
X14114187Y-34552150D01*
X14110533Y-34547223D01*
X14107380Y-34541962D01*
X14104758Y-34536418D01*
X14102691Y-34530643D01*
X14101201Y-34524693D01*
X14100301Y-34518626D01*
X14100000Y-34512500D01*
X14100000Y-34387500D01*
X14100301Y-34381374D01*
X14101201Y-34375307D01*
X14102691Y-34369357D01*
X14104758Y-34363582D01*
X14107380Y-34358038D01*
X14110533Y-34352777D01*
X14114187Y-34347850D01*
X14118306Y-34343306D01*
X14122850Y-34339187D01*
X14127777Y-34335533D01*
X14133038Y-34332380D01*
X14138582Y-34329758D01*
X14144357Y-34327691D01*
X14150307Y-34326201D01*
X14156374Y-34325301D01*
X14162500Y-34325000D01*
X14912500Y-34325000D01*
X14918626Y-34325301D01*
X14918626Y-34325301D01*
G37*
D14*
X14537500Y-34450000D03*
D10*
G36*
X14918626Y-34825301D02*
X14924693Y-34826201D01*
X14930643Y-34827691D01*
X14936418Y-34829758D01*
X14941962Y-34832380D01*
X14947223Y-34835533D01*
X14952150Y-34839187D01*
X14956694Y-34843306D01*
X14960813Y-34847850D01*
X14964467Y-34852777D01*
X14967620Y-34858038D01*
X14970242Y-34863582D01*
X14972309Y-34869357D01*
X14973799Y-34875307D01*
X14974699Y-34881374D01*
X14975000Y-34887500D01*
X14975000Y-35012500D01*
X14974699Y-35018626D01*
X14973799Y-35024693D01*
X14972309Y-35030643D01*
X14970242Y-35036418D01*
X14967620Y-35041962D01*
X14964467Y-35047223D01*
X14960813Y-35052150D01*
X14956694Y-35056694D01*
X14952150Y-35060813D01*
X14947223Y-35064467D01*
X14941962Y-35067620D01*
X14936418Y-35070242D01*
X14930643Y-35072309D01*
X14924693Y-35073799D01*
X14918626Y-35074699D01*
X14912500Y-35075000D01*
X14162500Y-35075000D01*
X14156374Y-35074699D01*
X14150307Y-35073799D01*
X14144357Y-35072309D01*
X14138582Y-35070242D01*
X14133038Y-35067620D01*
X14127777Y-35064467D01*
X14122850Y-35060813D01*
X14118306Y-35056694D01*
X14114187Y-35052150D01*
X14110533Y-35047223D01*
X14107380Y-35041962D01*
X14104758Y-35036418D01*
X14102691Y-35030643D01*
X14101201Y-35024693D01*
X14100301Y-35018626D01*
X14100000Y-35012500D01*
X14100000Y-34887500D01*
X14100301Y-34881374D01*
X14101201Y-34875307D01*
X14102691Y-34869357D01*
X14104758Y-34863582D01*
X14107380Y-34858038D01*
X14110533Y-34852777D01*
X14114187Y-34847850D01*
X14118306Y-34843306D01*
X14122850Y-34839187D01*
X14127777Y-34835533D01*
X14133038Y-34832380D01*
X14138582Y-34829758D01*
X14144357Y-34827691D01*
X14150307Y-34826201D01*
X14156374Y-34825301D01*
X14162500Y-34825000D01*
X14912500Y-34825000D01*
X14918626Y-34825301D01*
X14918626Y-34825301D01*
G37*
D14*
X14537500Y-34950000D03*
D10*
G36*
X14918626Y-35325301D02*
X14924693Y-35326201D01*
X14930643Y-35327691D01*
X14936418Y-35329758D01*
X14941962Y-35332380D01*
X14947223Y-35335533D01*
X14952150Y-35339187D01*
X14956694Y-35343306D01*
X14960813Y-35347850D01*
X14964467Y-35352777D01*
X14967620Y-35358038D01*
X14970242Y-35363582D01*
X14972309Y-35369357D01*
X14973799Y-35375307D01*
X14974699Y-35381374D01*
X14975000Y-35387500D01*
X14975000Y-35512500D01*
X14974699Y-35518626D01*
X14973799Y-35524693D01*
X14972309Y-35530643D01*
X14970242Y-35536418D01*
X14967620Y-35541962D01*
X14964467Y-35547223D01*
X14960813Y-35552150D01*
X14956694Y-35556694D01*
X14952150Y-35560813D01*
X14947223Y-35564467D01*
X14941962Y-35567620D01*
X14936418Y-35570242D01*
X14930643Y-35572309D01*
X14924693Y-35573799D01*
X14918626Y-35574699D01*
X14912500Y-35575000D01*
X14162500Y-35575000D01*
X14156374Y-35574699D01*
X14150307Y-35573799D01*
X14144357Y-35572309D01*
X14138582Y-35570242D01*
X14133038Y-35567620D01*
X14127777Y-35564467D01*
X14122850Y-35560813D01*
X14118306Y-35556694D01*
X14114187Y-35552150D01*
X14110533Y-35547223D01*
X14107380Y-35541962D01*
X14104758Y-35536418D01*
X14102691Y-35530643D01*
X14101201Y-35524693D01*
X14100301Y-35518626D01*
X14100000Y-35512500D01*
X14100000Y-35387500D01*
X14100301Y-35381374D01*
X14101201Y-35375307D01*
X14102691Y-35369357D01*
X14104758Y-35363582D01*
X14107380Y-35358038D01*
X14110533Y-35352777D01*
X14114187Y-35347850D01*
X14118306Y-35343306D01*
X14122850Y-35339187D01*
X14127777Y-35335533D01*
X14133038Y-35332380D01*
X14138582Y-35329758D01*
X14144357Y-35327691D01*
X14150307Y-35326201D01*
X14156374Y-35325301D01*
X14162500Y-35325000D01*
X14912500Y-35325000D01*
X14918626Y-35325301D01*
X14918626Y-35325301D01*
G37*
D14*
X14537500Y-35450000D03*
D10*
G36*
X13918626Y-35700301D02*
X13924693Y-35701201D01*
X13930643Y-35702691D01*
X13936418Y-35704758D01*
X13941962Y-35707380D01*
X13947223Y-35710533D01*
X13952150Y-35714187D01*
X13956694Y-35718306D01*
X13960813Y-35722850D01*
X13964467Y-35727777D01*
X13967620Y-35733038D01*
X13970242Y-35738582D01*
X13972309Y-35744357D01*
X13973799Y-35750307D01*
X13974699Y-35756374D01*
X13975000Y-35762500D01*
X13975000Y-36512500D01*
X13974699Y-36518626D01*
X13973799Y-36524693D01*
X13972309Y-36530643D01*
X13970242Y-36536418D01*
X13967620Y-36541962D01*
X13964467Y-36547223D01*
X13960813Y-36552150D01*
X13956694Y-36556694D01*
X13952150Y-36560813D01*
X13947223Y-36564467D01*
X13941962Y-36567620D01*
X13936418Y-36570242D01*
X13930643Y-36572309D01*
X13924693Y-36573799D01*
X13918626Y-36574699D01*
X13912500Y-36575000D01*
X13787500Y-36575000D01*
X13781374Y-36574699D01*
X13775307Y-36573799D01*
X13769357Y-36572309D01*
X13763582Y-36570242D01*
X13758038Y-36567620D01*
X13752777Y-36564467D01*
X13747850Y-36560813D01*
X13743306Y-36556694D01*
X13739187Y-36552150D01*
X13735533Y-36547223D01*
X13732380Y-36541962D01*
X13729758Y-36536418D01*
X13727691Y-36530643D01*
X13726201Y-36524693D01*
X13725301Y-36518626D01*
X13725000Y-36512500D01*
X13725000Y-35762500D01*
X13725301Y-35756374D01*
X13726201Y-35750307D01*
X13727691Y-35744357D01*
X13729758Y-35738582D01*
X13732380Y-35733038D01*
X13735533Y-35727777D01*
X13739187Y-35722850D01*
X13743306Y-35718306D01*
X13747850Y-35714187D01*
X13752777Y-35710533D01*
X13758038Y-35707380D01*
X13763582Y-35704758D01*
X13769357Y-35702691D01*
X13775307Y-35701201D01*
X13781374Y-35700301D01*
X13787500Y-35700000D01*
X13912500Y-35700000D01*
X13918626Y-35700301D01*
X13918626Y-35700301D01*
G37*
D14*
X13850000Y-36137500D03*
D10*
G36*
X13418626Y-35700301D02*
X13424693Y-35701201D01*
X13430643Y-35702691D01*
X13436418Y-35704758D01*
X13441962Y-35707380D01*
X13447223Y-35710533D01*
X13452150Y-35714187D01*
X13456694Y-35718306D01*
X13460813Y-35722850D01*
X13464467Y-35727777D01*
X13467620Y-35733038D01*
X13470242Y-35738582D01*
X13472309Y-35744357D01*
X13473799Y-35750307D01*
X13474699Y-35756374D01*
X13475000Y-35762500D01*
X13475000Y-36512500D01*
X13474699Y-36518626D01*
X13473799Y-36524693D01*
X13472309Y-36530643D01*
X13470242Y-36536418D01*
X13467620Y-36541962D01*
X13464467Y-36547223D01*
X13460813Y-36552150D01*
X13456694Y-36556694D01*
X13452150Y-36560813D01*
X13447223Y-36564467D01*
X13441962Y-36567620D01*
X13436418Y-36570242D01*
X13430643Y-36572309D01*
X13424693Y-36573799D01*
X13418626Y-36574699D01*
X13412500Y-36575000D01*
X13287500Y-36575000D01*
X13281374Y-36574699D01*
X13275307Y-36573799D01*
X13269357Y-36572309D01*
X13263582Y-36570242D01*
X13258038Y-36567620D01*
X13252777Y-36564467D01*
X13247850Y-36560813D01*
X13243306Y-36556694D01*
X13239187Y-36552150D01*
X13235533Y-36547223D01*
X13232380Y-36541962D01*
X13229758Y-36536418D01*
X13227691Y-36530643D01*
X13226201Y-36524693D01*
X13225301Y-36518626D01*
X13225000Y-36512500D01*
X13225000Y-35762500D01*
X13225301Y-35756374D01*
X13226201Y-35750307D01*
X13227691Y-35744357D01*
X13229758Y-35738582D01*
X13232380Y-35733038D01*
X13235533Y-35727777D01*
X13239187Y-35722850D01*
X13243306Y-35718306D01*
X13247850Y-35714187D01*
X13252777Y-35710533D01*
X13258038Y-35707380D01*
X13263582Y-35704758D01*
X13269357Y-35702691D01*
X13275307Y-35701201D01*
X13281374Y-35700301D01*
X13287500Y-35700000D01*
X13412500Y-35700000D01*
X13418626Y-35700301D01*
X13418626Y-35700301D01*
G37*
D14*
X13350000Y-36137500D03*
D10*
G36*
X12918626Y-35700301D02*
X12924693Y-35701201D01*
X12930643Y-35702691D01*
X12936418Y-35704758D01*
X12941962Y-35707380D01*
X12947223Y-35710533D01*
X12952150Y-35714187D01*
X12956694Y-35718306D01*
X12960813Y-35722850D01*
X12964467Y-35727777D01*
X12967620Y-35733038D01*
X12970242Y-35738582D01*
X12972309Y-35744357D01*
X12973799Y-35750307D01*
X12974699Y-35756374D01*
X12975000Y-35762500D01*
X12975000Y-36512500D01*
X12974699Y-36518626D01*
X12973799Y-36524693D01*
X12972309Y-36530643D01*
X12970242Y-36536418D01*
X12967620Y-36541962D01*
X12964467Y-36547223D01*
X12960813Y-36552150D01*
X12956694Y-36556694D01*
X12952150Y-36560813D01*
X12947223Y-36564467D01*
X12941962Y-36567620D01*
X12936418Y-36570242D01*
X12930643Y-36572309D01*
X12924693Y-36573799D01*
X12918626Y-36574699D01*
X12912500Y-36575000D01*
X12787500Y-36575000D01*
X12781374Y-36574699D01*
X12775307Y-36573799D01*
X12769357Y-36572309D01*
X12763582Y-36570242D01*
X12758038Y-36567620D01*
X12752777Y-36564467D01*
X12747850Y-36560813D01*
X12743306Y-36556694D01*
X12739187Y-36552150D01*
X12735533Y-36547223D01*
X12732380Y-36541962D01*
X12729758Y-36536418D01*
X12727691Y-36530643D01*
X12726201Y-36524693D01*
X12725301Y-36518626D01*
X12725000Y-36512500D01*
X12725000Y-35762500D01*
X12725301Y-35756374D01*
X12726201Y-35750307D01*
X12727691Y-35744357D01*
X12729758Y-35738582D01*
X12732380Y-35733038D01*
X12735533Y-35727777D01*
X12739187Y-35722850D01*
X12743306Y-35718306D01*
X12747850Y-35714187D01*
X12752777Y-35710533D01*
X12758038Y-35707380D01*
X12763582Y-35704758D01*
X12769357Y-35702691D01*
X12775307Y-35701201D01*
X12781374Y-35700301D01*
X12787500Y-35700000D01*
X12912500Y-35700000D01*
X12918626Y-35700301D01*
X12918626Y-35700301D01*
G37*
D14*
X12850000Y-36137500D03*
D10*
G36*
X12418626Y-35700301D02*
X12424693Y-35701201D01*
X12430643Y-35702691D01*
X12436418Y-35704758D01*
X12441962Y-35707380D01*
X12447223Y-35710533D01*
X12452150Y-35714187D01*
X12456694Y-35718306D01*
X12460813Y-35722850D01*
X12464467Y-35727777D01*
X12467620Y-35733038D01*
X12470242Y-35738582D01*
X12472309Y-35744357D01*
X12473799Y-35750307D01*
X12474699Y-35756374D01*
X12475000Y-35762500D01*
X12475000Y-36512500D01*
X12474699Y-36518626D01*
X12473799Y-36524693D01*
X12472309Y-36530643D01*
X12470242Y-36536418D01*
X12467620Y-36541962D01*
X12464467Y-36547223D01*
X12460813Y-36552150D01*
X12456694Y-36556694D01*
X12452150Y-36560813D01*
X12447223Y-36564467D01*
X12441962Y-36567620D01*
X12436418Y-36570242D01*
X12430643Y-36572309D01*
X12424693Y-36573799D01*
X12418626Y-36574699D01*
X12412500Y-36575000D01*
X12287500Y-36575000D01*
X12281374Y-36574699D01*
X12275307Y-36573799D01*
X12269357Y-36572309D01*
X12263582Y-36570242D01*
X12258038Y-36567620D01*
X12252777Y-36564467D01*
X12247850Y-36560813D01*
X12243306Y-36556694D01*
X12239187Y-36552150D01*
X12235533Y-36547223D01*
X12232380Y-36541962D01*
X12229758Y-36536418D01*
X12227691Y-36530643D01*
X12226201Y-36524693D01*
X12225301Y-36518626D01*
X12225000Y-36512500D01*
X12225000Y-35762500D01*
X12225301Y-35756374D01*
X12226201Y-35750307D01*
X12227691Y-35744357D01*
X12229758Y-35738582D01*
X12232380Y-35733038D01*
X12235533Y-35727777D01*
X12239187Y-35722850D01*
X12243306Y-35718306D01*
X12247850Y-35714187D01*
X12252777Y-35710533D01*
X12258038Y-35707380D01*
X12263582Y-35704758D01*
X12269357Y-35702691D01*
X12275307Y-35701201D01*
X12281374Y-35700301D01*
X12287500Y-35700000D01*
X12412500Y-35700000D01*
X12418626Y-35700301D01*
X12418626Y-35700301D01*
G37*
D14*
X12350000Y-36137500D03*
D10*
G36*
X11918626Y-35700301D02*
X11924693Y-35701201D01*
X11930643Y-35702691D01*
X11936418Y-35704758D01*
X11941962Y-35707380D01*
X11947223Y-35710533D01*
X11952150Y-35714187D01*
X11956694Y-35718306D01*
X11960813Y-35722850D01*
X11964467Y-35727777D01*
X11967620Y-35733038D01*
X11970242Y-35738582D01*
X11972309Y-35744357D01*
X11973799Y-35750307D01*
X11974699Y-35756374D01*
X11975000Y-35762500D01*
X11975000Y-36512500D01*
X11974699Y-36518626D01*
X11973799Y-36524693D01*
X11972309Y-36530643D01*
X11970242Y-36536418D01*
X11967620Y-36541962D01*
X11964467Y-36547223D01*
X11960813Y-36552150D01*
X11956694Y-36556694D01*
X11952150Y-36560813D01*
X11947223Y-36564467D01*
X11941962Y-36567620D01*
X11936418Y-36570242D01*
X11930643Y-36572309D01*
X11924693Y-36573799D01*
X11918626Y-36574699D01*
X11912500Y-36575000D01*
X11787500Y-36575000D01*
X11781374Y-36574699D01*
X11775307Y-36573799D01*
X11769357Y-36572309D01*
X11763582Y-36570242D01*
X11758038Y-36567620D01*
X11752777Y-36564467D01*
X11747850Y-36560813D01*
X11743306Y-36556694D01*
X11739187Y-36552150D01*
X11735533Y-36547223D01*
X11732380Y-36541962D01*
X11729758Y-36536418D01*
X11727691Y-36530643D01*
X11726201Y-36524693D01*
X11725301Y-36518626D01*
X11725000Y-36512500D01*
X11725000Y-35762500D01*
X11725301Y-35756374D01*
X11726201Y-35750307D01*
X11727691Y-35744357D01*
X11729758Y-35738582D01*
X11732380Y-35733038D01*
X11735533Y-35727777D01*
X11739187Y-35722850D01*
X11743306Y-35718306D01*
X11747850Y-35714187D01*
X11752777Y-35710533D01*
X11758038Y-35707380D01*
X11763582Y-35704758D01*
X11769357Y-35702691D01*
X11775307Y-35701201D01*
X11781374Y-35700301D01*
X11787500Y-35700000D01*
X11912500Y-35700000D01*
X11918626Y-35700301D01*
X11918626Y-35700301D01*
G37*
D14*
X11850000Y-36137500D03*
D10*
G36*
X11418626Y-35700301D02*
X11424693Y-35701201D01*
X11430643Y-35702691D01*
X11436418Y-35704758D01*
X11441962Y-35707380D01*
X11447223Y-35710533D01*
X11452150Y-35714187D01*
X11456694Y-35718306D01*
X11460813Y-35722850D01*
X11464467Y-35727777D01*
X11467620Y-35733038D01*
X11470242Y-35738582D01*
X11472309Y-35744357D01*
X11473799Y-35750307D01*
X11474699Y-35756374D01*
X11475000Y-35762500D01*
X11475000Y-36512500D01*
X11474699Y-36518626D01*
X11473799Y-36524693D01*
X11472309Y-36530643D01*
X11470242Y-36536418D01*
X11467620Y-36541962D01*
X11464467Y-36547223D01*
X11460813Y-36552150D01*
X11456694Y-36556694D01*
X11452150Y-36560813D01*
X11447223Y-36564467D01*
X11441962Y-36567620D01*
X11436418Y-36570242D01*
X11430643Y-36572309D01*
X11424693Y-36573799D01*
X11418626Y-36574699D01*
X11412500Y-36575000D01*
X11287500Y-36575000D01*
X11281374Y-36574699D01*
X11275307Y-36573799D01*
X11269357Y-36572309D01*
X11263582Y-36570242D01*
X11258038Y-36567620D01*
X11252777Y-36564467D01*
X11247850Y-36560813D01*
X11243306Y-36556694D01*
X11239187Y-36552150D01*
X11235533Y-36547223D01*
X11232380Y-36541962D01*
X11229758Y-36536418D01*
X11227691Y-36530643D01*
X11226201Y-36524693D01*
X11225301Y-36518626D01*
X11225000Y-36512500D01*
X11225000Y-35762500D01*
X11225301Y-35756374D01*
X11226201Y-35750307D01*
X11227691Y-35744357D01*
X11229758Y-35738582D01*
X11232380Y-35733038D01*
X11235533Y-35727777D01*
X11239187Y-35722850D01*
X11243306Y-35718306D01*
X11247850Y-35714187D01*
X11252777Y-35710533D01*
X11258038Y-35707380D01*
X11263582Y-35704758D01*
X11269357Y-35702691D01*
X11275307Y-35701201D01*
X11281374Y-35700301D01*
X11287500Y-35700000D01*
X11412500Y-35700000D01*
X11418626Y-35700301D01*
X11418626Y-35700301D01*
G37*
D14*
X11350000Y-36137500D03*
D10*
G36*
X10918626Y-35700301D02*
X10924693Y-35701201D01*
X10930643Y-35702691D01*
X10936418Y-35704758D01*
X10941962Y-35707380D01*
X10947223Y-35710533D01*
X10952150Y-35714187D01*
X10956694Y-35718306D01*
X10960813Y-35722850D01*
X10964467Y-35727777D01*
X10967620Y-35733038D01*
X10970242Y-35738582D01*
X10972309Y-35744357D01*
X10973799Y-35750307D01*
X10974699Y-35756374D01*
X10975000Y-35762500D01*
X10975000Y-36512500D01*
X10974699Y-36518626D01*
X10973799Y-36524693D01*
X10972309Y-36530643D01*
X10970242Y-36536418D01*
X10967620Y-36541962D01*
X10964467Y-36547223D01*
X10960813Y-36552150D01*
X10956694Y-36556694D01*
X10952150Y-36560813D01*
X10947223Y-36564467D01*
X10941962Y-36567620D01*
X10936418Y-36570242D01*
X10930643Y-36572309D01*
X10924693Y-36573799D01*
X10918626Y-36574699D01*
X10912500Y-36575000D01*
X10787500Y-36575000D01*
X10781374Y-36574699D01*
X10775307Y-36573799D01*
X10769357Y-36572309D01*
X10763582Y-36570242D01*
X10758038Y-36567620D01*
X10752777Y-36564467D01*
X10747850Y-36560813D01*
X10743306Y-36556694D01*
X10739187Y-36552150D01*
X10735533Y-36547223D01*
X10732380Y-36541962D01*
X10729758Y-36536418D01*
X10727691Y-36530643D01*
X10726201Y-36524693D01*
X10725301Y-36518626D01*
X10725000Y-36512500D01*
X10725000Y-35762500D01*
X10725301Y-35756374D01*
X10726201Y-35750307D01*
X10727691Y-35744357D01*
X10729758Y-35738582D01*
X10732380Y-35733038D01*
X10735533Y-35727777D01*
X10739187Y-35722850D01*
X10743306Y-35718306D01*
X10747850Y-35714187D01*
X10752777Y-35710533D01*
X10758038Y-35707380D01*
X10763582Y-35704758D01*
X10769357Y-35702691D01*
X10775307Y-35701201D01*
X10781374Y-35700301D01*
X10787500Y-35700000D01*
X10912500Y-35700000D01*
X10918626Y-35700301D01*
X10918626Y-35700301D01*
G37*
D14*
X10850000Y-36137500D03*
D10*
G36*
X10418626Y-35700301D02*
X10424693Y-35701201D01*
X10430643Y-35702691D01*
X10436418Y-35704758D01*
X10441962Y-35707380D01*
X10447223Y-35710533D01*
X10452150Y-35714187D01*
X10456694Y-35718306D01*
X10460813Y-35722850D01*
X10464467Y-35727777D01*
X10467620Y-35733038D01*
X10470242Y-35738582D01*
X10472309Y-35744357D01*
X10473799Y-35750307D01*
X10474699Y-35756374D01*
X10475000Y-35762500D01*
X10475000Y-36512500D01*
X10474699Y-36518626D01*
X10473799Y-36524693D01*
X10472309Y-36530643D01*
X10470242Y-36536418D01*
X10467620Y-36541962D01*
X10464467Y-36547223D01*
X10460813Y-36552150D01*
X10456694Y-36556694D01*
X10452150Y-36560813D01*
X10447223Y-36564467D01*
X10441962Y-36567620D01*
X10436418Y-36570242D01*
X10430643Y-36572309D01*
X10424693Y-36573799D01*
X10418626Y-36574699D01*
X10412500Y-36575000D01*
X10287500Y-36575000D01*
X10281374Y-36574699D01*
X10275307Y-36573799D01*
X10269357Y-36572309D01*
X10263582Y-36570242D01*
X10258038Y-36567620D01*
X10252777Y-36564467D01*
X10247850Y-36560813D01*
X10243306Y-36556694D01*
X10239187Y-36552150D01*
X10235533Y-36547223D01*
X10232380Y-36541962D01*
X10229758Y-36536418D01*
X10227691Y-36530643D01*
X10226201Y-36524693D01*
X10225301Y-36518626D01*
X10225000Y-36512500D01*
X10225000Y-35762500D01*
X10225301Y-35756374D01*
X10226201Y-35750307D01*
X10227691Y-35744357D01*
X10229758Y-35738582D01*
X10232380Y-35733038D01*
X10235533Y-35727777D01*
X10239187Y-35722850D01*
X10243306Y-35718306D01*
X10247850Y-35714187D01*
X10252777Y-35710533D01*
X10258038Y-35707380D01*
X10263582Y-35704758D01*
X10269357Y-35702691D01*
X10275307Y-35701201D01*
X10281374Y-35700301D01*
X10287500Y-35700000D01*
X10412500Y-35700000D01*
X10418626Y-35700301D01*
X10418626Y-35700301D01*
G37*
D14*
X10350000Y-36137500D03*
G04 #@! TD*
D15*
G04 #@! TO.C,U3*
X11200000Y-15600000D03*
D16*
X9350000Y-16600000D03*
X9350000Y-16100000D03*
X9350000Y-15600000D03*
X9350000Y-15100000D03*
X9350000Y-14600000D03*
D17*
X10200000Y-13750000D03*
X10700000Y-13750000D03*
X11200000Y-13750000D03*
X11700000Y-13750000D03*
X12200000Y-13750000D03*
D16*
X13050000Y-14600000D03*
X13050000Y-15100000D03*
X13050000Y-15600000D03*
X13050000Y-16100000D03*
X13050000Y-16600000D03*
D17*
X12200000Y-17450000D03*
X11700000Y-17450000D03*
X11200000Y-17450000D03*
X10700000Y-17450000D03*
X10200000Y-17450000D03*
G04 #@! TD*
D10*
G04 #@! TO.C,C15*
G36*
X3787477Y-30749425D02*
X3801795Y-30751549D01*
X3815836Y-30755066D01*
X3829465Y-30759943D01*
X3842550Y-30766132D01*
X3854966Y-30773573D01*
X3866592Y-30782196D01*
X3877317Y-30791917D01*
X3887038Y-30802642D01*
X3895661Y-30814268D01*
X3903102Y-30826684D01*
X3909291Y-30839769D01*
X3914168Y-30853398D01*
X3917685Y-30867439D01*
X3919809Y-30881757D01*
X3920519Y-30896215D01*
X3920519Y-31191215D01*
X3919809Y-31205673D01*
X3917685Y-31219991D01*
X3914168Y-31234032D01*
X3909291Y-31247661D01*
X3903102Y-31260746D01*
X3895661Y-31273162D01*
X3887038Y-31284788D01*
X3877317Y-31295513D01*
X3866592Y-31305234D01*
X3854966Y-31313857D01*
X3842550Y-31321298D01*
X3829465Y-31327487D01*
X3815836Y-31332364D01*
X3801795Y-31335881D01*
X3787477Y-31338005D01*
X3773019Y-31338715D01*
X3428019Y-31338715D01*
X3413561Y-31338005D01*
X3399243Y-31335881D01*
X3385202Y-31332364D01*
X3371573Y-31327487D01*
X3358488Y-31321298D01*
X3346072Y-31313857D01*
X3334446Y-31305234D01*
X3323721Y-31295513D01*
X3314000Y-31284788D01*
X3305377Y-31273162D01*
X3297936Y-31260746D01*
X3291747Y-31247661D01*
X3286870Y-31234032D01*
X3283353Y-31219991D01*
X3281229Y-31205673D01*
X3280519Y-31191215D01*
X3280519Y-30896215D01*
X3281229Y-30881757D01*
X3283353Y-30867439D01*
X3286870Y-30853398D01*
X3291747Y-30839769D01*
X3297936Y-30826684D01*
X3305377Y-30814268D01*
X3314000Y-30802642D01*
X3323721Y-30791917D01*
X3334446Y-30782196D01*
X3346072Y-30773573D01*
X3358488Y-30766132D01*
X3371573Y-30759943D01*
X3385202Y-30755066D01*
X3399243Y-30751549D01*
X3413561Y-30749425D01*
X3428019Y-30748715D01*
X3773019Y-30748715D01*
X3787477Y-30749425D01*
X3787477Y-30749425D01*
G37*
D11*
X3600519Y-31043715D03*
D10*
G36*
X3787477Y-31719425D02*
X3801795Y-31721549D01*
X3815836Y-31725066D01*
X3829465Y-31729943D01*
X3842550Y-31736132D01*
X3854966Y-31743573D01*
X3866592Y-31752196D01*
X3877317Y-31761917D01*
X3887038Y-31772642D01*
X3895661Y-31784268D01*
X3903102Y-31796684D01*
X3909291Y-31809769D01*
X3914168Y-31823398D01*
X3917685Y-31837439D01*
X3919809Y-31851757D01*
X3920519Y-31866215D01*
X3920519Y-32161215D01*
X3919809Y-32175673D01*
X3917685Y-32189991D01*
X3914168Y-32204032D01*
X3909291Y-32217661D01*
X3903102Y-32230746D01*
X3895661Y-32243162D01*
X3887038Y-32254788D01*
X3877317Y-32265513D01*
X3866592Y-32275234D01*
X3854966Y-32283857D01*
X3842550Y-32291298D01*
X3829465Y-32297487D01*
X3815836Y-32302364D01*
X3801795Y-32305881D01*
X3787477Y-32308005D01*
X3773019Y-32308715D01*
X3428019Y-32308715D01*
X3413561Y-32308005D01*
X3399243Y-32305881D01*
X3385202Y-32302364D01*
X3371573Y-32297487D01*
X3358488Y-32291298D01*
X3346072Y-32283857D01*
X3334446Y-32275234D01*
X3323721Y-32265513D01*
X3314000Y-32254788D01*
X3305377Y-32243162D01*
X3297936Y-32230746D01*
X3291747Y-32217661D01*
X3286870Y-32204032D01*
X3283353Y-32189991D01*
X3281229Y-32175673D01*
X3280519Y-32161215D01*
X3280519Y-31866215D01*
X3281229Y-31851757D01*
X3283353Y-31837439D01*
X3286870Y-31823398D01*
X3291747Y-31809769D01*
X3297936Y-31796684D01*
X3305377Y-31784268D01*
X3314000Y-31772642D01*
X3323721Y-31761917D01*
X3334446Y-31752196D01*
X3346072Y-31743573D01*
X3358488Y-31736132D01*
X3371573Y-31729943D01*
X3385202Y-31725066D01*
X3399243Y-31721549D01*
X3413561Y-31719425D01*
X3428019Y-31718715D01*
X3773019Y-31718715D01*
X3787477Y-31719425D01*
X3787477Y-31719425D01*
G37*
D11*
X3600519Y-32013715D03*
G04 #@! TD*
D10*
G04 #@! TO.C,C16*
G36*
X2786958Y-14735710D02*
X2801276Y-14737834D01*
X2815317Y-14741351D01*
X2828946Y-14746228D01*
X2842031Y-14752417D01*
X2854447Y-14759858D01*
X2866073Y-14768481D01*
X2876798Y-14778202D01*
X2886519Y-14788927D01*
X2895142Y-14800553D01*
X2902583Y-14812969D01*
X2908772Y-14826054D01*
X2913649Y-14839683D01*
X2917166Y-14853724D01*
X2919290Y-14868042D01*
X2920000Y-14882500D01*
X2920000Y-15177500D01*
X2919290Y-15191958D01*
X2917166Y-15206276D01*
X2913649Y-15220317D01*
X2908772Y-15233946D01*
X2902583Y-15247031D01*
X2895142Y-15259447D01*
X2886519Y-15271073D01*
X2876798Y-15281798D01*
X2866073Y-15291519D01*
X2854447Y-15300142D01*
X2842031Y-15307583D01*
X2828946Y-15313772D01*
X2815317Y-15318649D01*
X2801276Y-15322166D01*
X2786958Y-15324290D01*
X2772500Y-15325000D01*
X2427500Y-15325000D01*
X2413042Y-15324290D01*
X2398724Y-15322166D01*
X2384683Y-15318649D01*
X2371054Y-15313772D01*
X2357969Y-15307583D01*
X2345553Y-15300142D01*
X2333927Y-15291519D01*
X2323202Y-15281798D01*
X2313481Y-15271073D01*
X2304858Y-15259447D01*
X2297417Y-15247031D01*
X2291228Y-15233946D01*
X2286351Y-15220317D01*
X2282834Y-15206276D01*
X2280710Y-15191958D01*
X2280000Y-15177500D01*
X2280000Y-14882500D01*
X2280710Y-14868042D01*
X2282834Y-14853724D01*
X2286351Y-14839683D01*
X2291228Y-14826054D01*
X2297417Y-14812969D01*
X2304858Y-14800553D01*
X2313481Y-14788927D01*
X2323202Y-14778202D01*
X2333927Y-14768481D01*
X2345553Y-14759858D01*
X2357969Y-14752417D01*
X2371054Y-14746228D01*
X2384683Y-14741351D01*
X2398724Y-14737834D01*
X2413042Y-14735710D01*
X2427500Y-14735000D01*
X2772500Y-14735000D01*
X2786958Y-14735710D01*
X2786958Y-14735710D01*
G37*
D11*
X2600000Y-15030000D03*
D10*
G36*
X2786958Y-15705710D02*
X2801276Y-15707834D01*
X2815317Y-15711351D01*
X2828946Y-15716228D01*
X2842031Y-15722417D01*
X2854447Y-15729858D01*
X2866073Y-15738481D01*
X2876798Y-15748202D01*
X2886519Y-15758927D01*
X2895142Y-15770553D01*
X2902583Y-15782969D01*
X2908772Y-15796054D01*
X2913649Y-15809683D01*
X2917166Y-15823724D01*
X2919290Y-15838042D01*
X2920000Y-15852500D01*
X2920000Y-16147500D01*
X2919290Y-16161958D01*
X2917166Y-16176276D01*
X2913649Y-16190317D01*
X2908772Y-16203946D01*
X2902583Y-16217031D01*
X2895142Y-16229447D01*
X2886519Y-16241073D01*
X2876798Y-16251798D01*
X2866073Y-16261519D01*
X2854447Y-16270142D01*
X2842031Y-16277583D01*
X2828946Y-16283772D01*
X2815317Y-16288649D01*
X2801276Y-16292166D01*
X2786958Y-16294290D01*
X2772500Y-16295000D01*
X2427500Y-16295000D01*
X2413042Y-16294290D01*
X2398724Y-16292166D01*
X2384683Y-16288649D01*
X2371054Y-16283772D01*
X2357969Y-16277583D01*
X2345553Y-16270142D01*
X2333927Y-16261519D01*
X2323202Y-16251798D01*
X2313481Y-16241073D01*
X2304858Y-16229447D01*
X2297417Y-16217031D01*
X2291228Y-16203946D01*
X2286351Y-16190317D01*
X2282834Y-16176276D01*
X2280710Y-16161958D01*
X2280000Y-16147500D01*
X2280000Y-15852500D01*
X2280710Y-15838042D01*
X2282834Y-15823724D01*
X2286351Y-15809683D01*
X2291228Y-15796054D01*
X2297417Y-15782969D01*
X2304858Y-15770553D01*
X2313481Y-15758927D01*
X2323202Y-15748202D01*
X2333927Y-15738481D01*
X2345553Y-15729858D01*
X2357969Y-15722417D01*
X2371054Y-15716228D01*
X2384683Y-15711351D01*
X2398724Y-15707834D01*
X2413042Y-15705710D01*
X2427500Y-15705000D01*
X2772500Y-15705000D01*
X2786958Y-15705710D01*
X2786958Y-15705710D01*
G37*
D11*
X2600000Y-16000000D03*
G04 #@! TD*
D18*
G04 #@! TO.C,U6*
X3550519Y-29628715D03*
X3550519Y-28678715D03*
X3550519Y-27728715D03*
X5750519Y-27728715D03*
X5750519Y-29628715D03*
G04 #@! TD*
M02*
