G04 #@! TF.GenerationSoftware,KiCad,Pcbnew,5.0.1-33cea8e~68~ubuntu16.04.1*
G04 #@! TF.CreationDate,2018-12-19T12:21:55-05:00*
G04 #@! TF.ProjectId,SmallKat Battery Charger,536D616C6C4B61742042617474657279,rev?*
G04 #@! TF.SameCoordinates,Original*
G04 #@! TF.FileFunction,Paste,Top*
G04 #@! TF.FilePolarity,Positive*
%FSLAX46Y46*%
G04 Gerber Fmt 4.6, Leading zero omitted, Abs format (unit mm)*
G04 Created by KiCad (PCBNEW 5.0.1-33cea8e~68~ubuntu16.04.1) date Wed 19 Dec 2018 12:21:55 PM EST*
%MOMM*%
%LPD*%
G01*
G04 APERTURE LIST*
%ADD10R,1.650000X2.400000*%
%ADD11R,0.600000X0.300000*%
%ADD12C,0.100000*%
%ADD13C,1.000000*%
%ADD14C,1.800000*%
%ADD15O,3.500000X2.000000*%
%ADD16C,0.590000*%
%ADD17C,0.875000*%
%ADD18R,2.900000X5.400000*%
%ADD19R,0.570000X0.738000*%
%ADD20R,0.630000X0.500000*%
%ADD21C,0.975000*%
%ADD22C,1.250000*%
G04 APERTURE END LIST*
D10*
G04 #@! TO.C,U4*
X32744397Y-36984053D03*
D11*
X34144397Y-37959053D03*
X34144397Y-37309053D03*
X34144397Y-36659053D03*
X34144397Y-36009053D03*
X31344397Y-37959053D03*
X31344397Y-37309053D03*
X31344397Y-36659053D03*
X31344397Y-36009053D03*
G04 #@! TD*
D12*
G04 #@! TO.C,J1*
G36*
X4824504Y-5801204D02*
X4848773Y-5804804D01*
X4872571Y-5810765D01*
X4895671Y-5819030D01*
X4917849Y-5829520D01*
X4938893Y-5842133D01*
X4958598Y-5856747D01*
X4976777Y-5873223D01*
X4993253Y-5891402D01*
X5007867Y-5911107D01*
X5020480Y-5932151D01*
X5030970Y-5954329D01*
X5039235Y-5977429D01*
X5045196Y-6001227D01*
X5048796Y-6025496D01*
X5050000Y-6050000D01*
X5050000Y-8450000D01*
X5048796Y-8474504D01*
X5045196Y-8498773D01*
X5039235Y-8522571D01*
X5030970Y-8545671D01*
X5020480Y-8567849D01*
X5007867Y-8588893D01*
X4993253Y-8608598D01*
X4976777Y-8626777D01*
X4958598Y-8643253D01*
X4938893Y-8657867D01*
X4917849Y-8670480D01*
X4895671Y-8680970D01*
X4872571Y-8689235D01*
X4848773Y-8695196D01*
X4824504Y-8698796D01*
X4800000Y-8700000D01*
X4300000Y-8700000D01*
X4275496Y-8698796D01*
X4251227Y-8695196D01*
X4227429Y-8689235D01*
X4204329Y-8680970D01*
X4182151Y-8670480D01*
X4161107Y-8657867D01*
X4141402Y-8643253D01*
X4123223Y-8626777D01*
X4106747Y-8608598D01*
X4092133Y-8588893D01*
X4079520Y-8567849D01*
X4069030Y-8545671D01*
X4060765Y-8522571D01*
X4054804Y-8498773D01*
X4051204Y-8474504D01*
X4050000Y-8450000D01*
X4050000Y-6050000D01*
X4051204Y-6025496D01*
X4054804Y-6001227D01*
X4060765Y-5977429D01*
X4069030Y-5954329D01*
X4079520Y-5932151D01*
X4092133Y-5911107D01*
X4106747Y-5891402D01*
X4123223Y-5873223D01*
X4141402Y-5856747D01*
X4161107Y-5842133D01*
X4182151Y-5829520D01*
X4204329Y-5819030D01*
X4227429Y-5810765D01*
X4251227Y-5804804D01*
X4275496Y-5801204D01*
X4300000Y-5800000D01*
X4800000Y-5800000D01*
X4824504Y-5801204D01*
X4824504Y-5801204D01*
G37*
D13*
X4550000Y-7250000D03*
D12*
G36*
X6824504Y-5801204D02*
X6848773Y-5804804D01*
X6872571Y-5810765D01*
X6895671Y-5819030D01*
X6917849Y-5829520D01*
X6938893Y-5842133D01*
X6958598Y-5856747D01*
X6976777Y-5873223D01*
X6993253Y-5891402D01*
X7007867Y-5911107D01*
X7020480Y-5932151D01*
X7030970Y-5954329D01*
X7039235Y-5977429D01*
X7045196Y-6001227D01*
X7048796Y-6025496D01*
X7050000Y-6050000D01*
X7050000Y-8450000D01*
X7048796Y-8474504D01*
X7045196Y-8498773D01*
X7039235Y-8522571D01*
X7030970Y-8545671D01*
X7020480Y-8567849D01*
X7007867Y-8588893D01*
X6993253Y-8608598D01*
X6976777Y-8626777D01*
X6958598Y-8643253D01*
X6938893Y-8657867D01*
X6917849Y-8670480D01*
X6895671Y-8680970D01*
X6872571Y-8689235D01*
X6848773Y-8695196D01*
X6824504Y-8698796D01*
X6800000Y-8700000D01*
X6300000Y-8700000D01*
X6275496Y-8698796D01*
X6251227Y-8695196D01*
X6227429Y-8689235D01*
X6204329Y-8680970D01*
X6182151Y-8670480D01*
X6161107Y-8657867D01*
X6141402Y-8643253D01*
X6123223Y-8626777D01*
X6106747Y-8608598D01*
X6092133Y-8588893D01*
X6079520Y-8567849D01*
X6069030Y-8545671D01*
X6060765Y-8522571D01*
X6054804Y-8498773D01*
X6051204Y-8474504D01*
X6050000Y-8450000D01*
X6050000Y-6050000D01*
X6051204Y-6025496D01*
X6054804Y-6001227D01*
X6060765Y-5977429D01*
X6069030Y-5954329D01*
X6079520Y-5932151D01*
X6092133Y-5911107D01*
X6106747Y-5891402D01*
X6123223Y-5873223D01*
X6141402Y-5856747D01*
X6161107Y-5842133D01*
X6182151Y-5829520D01*
X6204329Y-5819030D01*
X6227429Y-5810765D01*
X6251227Y-5804804D01*
X6275496Y-5801204D01*
X6300000Y-5800000D01*
X6800000Y-5800000D01*
X6824504Y-5801204D01*
X6824504Y-5801204D01*
G37*
D13*
X6550000Y-7250000D03*
D12*
G36*
X2874504Y-801204D02*
X2898773Y-804804D01*
X2922571Y-810765D01*
X2945671Y-819030D01*
X2967849Y-829520D01*
X2988893Y-842133D01*
X3008598Y-856747D01*
X3026777Y-873223D01*
X3043253Y-891402D01*
X3057867Y-911107D01*
X3070480Y-932151D01*
X3080970Y-954329D01*
X3089235Y-977429D01*
X3095196Y-1001227D01*
X3098796Y-1025496D01*
X3100000Y-1050000D01*
X3100000Y-4150000D01*
X3098796Y-4174504D01*
X3095196Y-4198773D01*
X3089235Y-4222571D01*
X3080970Y-4245671D01*
X3070480Y-4267849D01*
X3057867Y-4288893D01*
X3043253Y-4308598D01*
X3026777Y-4326777D01*
X3008598Y-4343253D01*
X2988893Y-4357867D01*
X2967849Y-4370480D01*
X2945671Y-4380970D01*
X2922571Y-4389235D01*
X2898773Y-4395196D01*
X2874504Y-4398796D01*
X2850000Y-4400000D01*
X1550000Y-4400000D01*
X1525496Y-4398796D01*
X1501227Y-4395196D01*
X1477429Y-4389235D01*
X1454329Y-4380970D01*
X1432151Y-4370480D01*
X1411107Y-4357867D01*
X1391402Y-4343253D01*
X1373223Y-4326777D01*
X1356747Y-4308598D01*
X1342133Y-4288893D01*
X1329520Y-4267849D01*
X1319030Y-4245671D01*
X1310765Y-4222571D01*
X1304804Y-4198773D01*
X1301204Y-4174504D01*
X1300000Y-4150000D01*
X1300000Y-1050000D01*
X1301204Y-1025496D01*
X1304804Y-1001227D01*
X1310765Y-977429D01*
X1319030Y-954329D01*
X1329520Y-932151D01*
X1342133Y-911107D01*
X1356747Y-891402D01*
X1373223Y-873223D01*
X1391402Y-856747D01*
X1411107Y-842133D01*
X1432151Y-829520D01*
X1454329Y-819030D01*
X1477429Y-810765D01*
X1501227Y-804804D01*
X1525496Y-801204D01*
X1550000Y-800000D01*
X2850000Y-800000D01*
X2874504Y-801204D01*
X2874504Y-801204D01*
G37*
D14*
X2200000Y-2600000D03*
D12*
G36*
X9574504Y-801204D02*
X9598773Y-804804D01*
X9622571Y-810765D01*
X9645671Y-819030D01*
X9667849Y-829520D01*
X9688893Y-842133D01*
X9708598Y-856747D01*
X9726777Y-873223D01*
X9743253Y-891402D01*
X9757867Y-911107D01*
X9770480Y-932151D01*
X9780970Y-954329D01*
X9789235Y-977429D01*
X9795196Y-1001227D01*
X9798796Y-1025496D01*
X9800000Y-1050000D01*
X9800000Y-4150000D01*
X9798796Y-4174504D01*
X9795196Y-4198773D01*
X9789235Y-4222571D01*
X9780970Y-4245671D01*
X9770480Y-4267849D01*
X9757867Y-4288893D01*
X9743253Y-4308598D01*
X9726777Y-4326777D01*
X9708598Y-4343253D01*
X9688893Y-4357867D01*
X9667849Y-4370480D01*
X9645671Y-4380970D01*
X9622571Y-4389235D01*
X9598773Y-4395196D01*
X9574504Y-4398796D01*
X9550000Y-4400000D01*
X8250000Y-4400000D01*
X8225496Y-4398796D01*
X8201227Y-4395196D01*
X8177429Y-4389235D01*
X8154329Y-4380970D01*
X8132151Y-4370480D01*
X8111107Y-4357867D01*
X8091402Y-4343253D01*
X8073223Y-4326777D01*
X8056747Y-4308598D01*
X8042133Y-4288893D01*
X8029520Y-4267849D01*
X8019030Y-4245671D01*
X8010765Y-4222571D01*
X8004804Y-4198773D01*
X8001204Y-4174504D01*
X8000000Y-4150000D01*
X8000000Y-1050000D01*
X8001204Y-1025496D01*
X8004804Y-1001227D01*
X8010765Y-977429D01*
X8019030Y-954329D01*
X8029520Y-932151D01*
X8042133Y-911107D01*
X8056747Y-891402D01*
X8073223Y-873223D01*
X8091402Y-856747D01*
X8111107Y-842133D01*
X8132151Y-829520D01*
X8154329Y-819030D01*
X8177429Y-810765D01*
X8201227Y-804804D01*
X8225496Y-801204D01*
X8250000Y-800000D01*
X9550000Y-800000D01*
X9574504Y-801204D01*
X9574504Y-801204D01*
G37*
D14*
X8900000Y-2600000D03*
G04 #@! TD*
D15*
G04 #@! TO.C,J2*
X21400000Y-29300000D03*
X21400000Y-31800000D03*
X21400000Y-34800000D03*
X21400000Y-37300000D03*
G04 #@! TD*
D12*
G04 #@! TO.C,C5*
G36*
X34386958Y-12605710D02*
X34401276Y-12607834D01*
X34415317Y-12611351D01*
X34428946Y-12616228D01*
X34442031Y-12622417D01*
X34454447Y-12629858D01*
X34466073Y-12638481D01*
X34476798Y-12648202D01*
X34486519Y-12658927D01*
X34495142Y-12670553D01*
X34502583Y-12682969D01*
X34508772Y-12696054D01*
X34513649Y-12709683D01*
X34517166Y-12723724D01*
X34519290Y-12738042D01*
X34520000Y-12752500D01*
X34520000Y-13047500D01*
X34519290Y-13061958D01*
X34517166Y-13076276D01*
X34513649Y-13090317D01*
X34508772Y-13103946D01*
X34502583Y-13117031D01*
X34495142Y-13129447D01*
X34486519Y-13141073D01*
X34476798Y-13151798D01*
X34466073Y-13161519D01*
X34454447Y-13170142D01*
X34442031Y-13177583D01*
X34428946Y-13183772D01*
X34415317Y-13188649D01*
X34401276Y-13192166D01*
X34386958Y-13194290D01*
X34372500Y-13195000D01*
X34027500Y-13195000D01*
X34013042Y-13194290D01*
X33998724Y-13192166D01*
X33984683Y-13188649D01*
X33971054Y-13183772D01*
X33957969Y-13177583D01*
X33945553Y-13170142D01*
X33933927Y-13161519D01*
X33923202Y-13151798D01*
X33913481Y-13141073D01*
X33904858Y-13129447D01*
X33897417Y-13117031D01*
X33891228Y-13103946D01*
X33886351Y-13090317D01*
X33882834Y-13076276D01*
X33880710Y-13061958D01*
X33880000Y-13047500D01*
X33880000Y-12752500D01*
X33880710Y-12738042D01*
X33882834Y-12723724D01*
X33886351Y-12709683D01*
X33891228Y-12696054D01*
X33897417Y-12682969D01*
X33904858Y-12670553D01*
X33913481Y-12658927D01*
X33923202Y-12648202D01*
X33933927Y-12638481D01*
X33945553Y-12629858D01*
X33957969Y-12622417D01*
X33971054Y-12616228D01*
X33984683Y-12611351D01*
X33998724Y-12607834D01*
X34013042Y-12605710D01*
X34027500Y-12605000D01*
X34372500Y-12605000D01*
X34386958Y-12605710D01*
X34386958Y-12605710D01*
G37*
D16*
X34200000Y-12900000D03*
D12*
G36*
X34386958Y-13575710D02*
X34401276Y-13577834D01*
X34415317Y-13581351D01*
X34428946Y-13586228D01*
X34442031Y-13592417D01*
X34454447Y-13599858D01*
X34466073Y-13608481D01*
X34476798Y-13618202D01*
X34486519Y-13628927D01*
X34495142Y-13640553D01*
X34502583Y-13652969D01*
X34508772Y-13666054D01*
X34513649Y-13679683D01*
X34517166Y-13693724D01*
X34519290Y-13708042D01*
X34520000Y-13722500D01*
X34520000Y-14017500D01*
X34519290Y-14031958D01*
X34517166Y-14046276D01*
X34513649Y-14060317D01*
X34508772Y-14073946D01*
X34502583Y-14087031D01*
X34495142Y-14099447D01*
X34486519Y-14111073D01*
X34476798Y-14121798D01*
X34466073Y-14131519D01*
X34454447Y-14140142D01*
X34442031Y-14147583D01*
X34428946Y-14153772D01*
X34415317Y-14158649D01*
X34401276Y-14162166D01*
X34386958Y-14164290D01*
X34372500Y-14165000D01*
X34027500Y-14165000D01*
X34013042Y-14164290D01*
X33998724Y-14162166D01*
X33984683Y-14158649D01*
X33971054Y-14153772D01*
X33957969Y-14147583D01*
X33945553Y-14140142D01*
X33933927Y-14131519D01*
X33923202Y-14121798D01*
X33913481Y-14111073D01*
X33904858Y-14099447D01*
X33897417Y-14087031D01*
X33891228Y-14073946D01*
X33886351Y-14060317D01*
X33882834Y-14046276D01*
X33880710Y-14031958D01*
X33880000Y-14017500D01*
X33880000Y-13722500D01*
X33880710Y-13708042D01*
X33882834Y-13693724D01*
X33886351Y-13679683D01*
X33891228Y-13666054D01*
X33897417Y-13652969D01*
X33904858Y-13640553D01*
X33913481Y-13628927D01*
X33923202Y-13618202D01*
X33933927Y-13608481D01*
X33945553Y-13599858D01*
X33957969Y-13592417D01*
X33971054Y-13586228D01*
X33984683Y-13581351D01*
X33998724Y-13577834D01*
X34013042Y-13575710D01*
X34027500Y-13575000D01*
X34372500Y-13575000D01*
X34386958Y-13575710D01*
X34386958Y-13575710D01*
G37*
D16*
X34200000Y-13870000D03*
G04 #@! TD*
D12*
G04 #@! TO.C,C7*
G36*
X35361958Y-8980710D02*
X35376276Y-8982834D01*
X35390317Y-8986351D01*
X35403946Y-8991228D01*
X35417031Y-8997417D01*
X35429447Y-9004858D01*
X35441073Y-9013481D01*
X35451798Y-9023202D01*
X35461519Y-9033927D01*
X35470142Y-9045553D01*
X35477583Y-9057969D01*
X35483772Y-9071054D01*
X35488649Y-9084683D01*
X35492166Y-9098724D01*
X35494290Y-9113042D01*
X35495000Y-9127500D01*
X35495000Y-9472500D01*
X35494290Y-9486958D01*
X35492166Y-9501276D01*
X35488649Y-9515317D01*
X35483772Y-9528946D01*
X35477583Y-9542031D01*
X35470142Y-9554447D01*
X35461519Y-9566073D01*
X35451798Y-9576798D01*
X35441073Y-9586519D01*
X35429447Y-9595142D01*
X35417031Y-9602583D01*
X35403946Y-9608772D01*
X35390317Y-9613649D01*
X35376276Y-9617166D01*
X35361958Y-9619290D01*
X35347500Y-9620000D01*
X35052500Y-9620000D01*
X35038042Y-9619290D01*
X35023724Y-9617166D01*
X35009683Y-9613649D01*
X34996054Y-9608772D01*
X34982969Y-9602583D01*
X34970553Y-9595142D01*
X34958927Y-9586519D01*
X34948202Y-9576798D01*
X34938481Y-9566073D01*
X34929858Y-9554447D01*
X34922417Y-9542031D01*
X34916228Y-9528946D01*
X34911351Y-9515317D01*
X34907834Y-9501276D01*
X34905710Y-9486958D01*
X34905000Y-9472500D01*
X34905000Y-9127500D01*
X34905710Y-9113042D01*
X34907834Y-9098724D01*
X34911351Y-9084683D01*
X34916228Y-9071054D01*
X34922417Y-9057969D01*
X34929858Y-9045553D01*
X34938481Y-9033927D01*
X34948202Y-9023202D01*
X34958927Y-9013481D01*
X34970553Y-9004858D01*
X34982969Y-8997417D01*
X34996054Y-8991228D01*
X35009683Y-8986351D01*
X35023724Y-8982834D01*
X35038042Y-8980710D01*
X35052500Y-8980000D01*
X35347500Y-8980000D01*
X35361958Y-8980710D01*
X35361958Y-8980710D01*
G37*
D16*
X35200000Y-9300000D03*
D12*
G36*
X36331958Y-8980710D02*
X36346276Y-8982834D01*
X36360317Y-8986351D01*
X36373946Y-8991228D01*
X36387031Y-8997417D01*
X36399447Y-9004858D01*
X36411073Y-9013481D01*
X36421798Y-9023202D01*
X36431519Y-9033927D01*
X36440142Y-9045553D01*
X36447583Y-9057969D01*
X36453772Y-9071054D01*
X36458649Y-9084683D01*
X36462166Y-9098724D01*
X36464290Y-9113042D01*
X36465000Y-9127500D01*
X36465000Y-9472500D01*
X36464290Y-9486958D01*
X36462166Y-9501276D01*
X36458649Y-9515317D01*
X36453772Y-9528946D01*
X36447583Y-9542031D01*
X36440142Y-9554447D01*
X36431519Y-9566073D01*
X36421798Y-9576798D01*
X36411073Y-9586519D01*
X36399447Y-9595142D01*
X36387031Y-9602583D01*
X36373946Y-9608772D01*
X36360317Y-9613649D01*
X36346276Y-9617166D01*
X36331958Y-9619290D01*
X36317500Y-9620000D01*
X36022500Y-9620000D01*
X36008042Y-9619290D01*
X35993724Y-9617166D01*
X35979683Y-9613649D01*
X35966054Y-9608772D01*
X35952969Y-9602583D01*
X35940553Y-9595142D01*
X35928927Y-9586519D01*
X35918202Y-9576798D01*
X35908481Y-9566073D01*
X35899858Y-9554447D01*
X35892417Y-9542031D01*
X35886228Y-9528946D01*
X35881351Y-9515317D01*
X35877834Y-9501276D01*
X35875710Y-9486958D01*
X35875000Y-9472500D01*
X35875000Y-9127500D01*
X35875710Y-9113042D01*
X35877834Y-9098724D01*
X35881351Y-9084683D01*
X35886228Y-9071054D01*
X35892417Y-9057969D01*
X35899858Y-9045553D01*
X35908481Y-9033927D01*
X35918202Y-9023202D01*
X35928927Y-9013481D01*
X35940553Y-9004858D01*
X35952969Y-8997417D01*
X35966054Y-8991228D01*
X35979683Y-8986351D01*
X35993724Y-8982834D01*
X36008042Y-8980710D01*
X36022500Y-8980000D01*
X36317500Y-8980000D01*
X36331958Y-8980710D01*
X36331958Y-8980710D01*
G37*
D16*
X36170000Y-9300000D03*
G04 #@! TD*
D12*
G04 #@! TO.C,D3*
G36*
X2465191Y-33876053D02*
X2486426Y-33879203D01*
X2507250Y-33884419D01*
X2527462Y-33891651D01*
X2546868Y-33900830D01*
X2565281Y-33911866D01*
X2582524Y-33924654D01*
X2598430Y-33939070D01*
X2612846Y-33954976D01*
X2625634Y-33972219D01*
X2636670Y-33990632D01*
X2645849Y-34010038D01*
X2653081Y-34030250D01*
X2658297Y-34051074D01*
X2661447Y-34072309D01*
X2662500Y-34093750D01*
X2662500Y-34606250D01*
X2661447Y-34627691D01*
X2658297Y-34648926D01*
X2653081Y-34669750D01*
X2645849Y-34689962D01*
X2636670Y-34709368D01*
X2625634Y-34727781D01*
X2612846Y-34745024D01*
X2598430Y-34760930D01*
X2582524Y-34775346D01*
X2565281Y-34788134D01*
X2546868Y-34799170D01*
X2527462Y-34808349D01*
X2507250Y-34815581D01*
X2486426Y-34820797D01*
X2465191Y-34823947D01*
X2443750Y-34825000D01*
X2006250Y-34825000D01*
X1984809Y-34823947D01*
X1963574Y-34820797D01*
X1942750Y-34815581D01*
X1922538Y-34808349D01*
X1903132Y-34799170D01*
X1884719Y-34788134D01*
X1867476Y-34775346D01*
X1851570Y-34760930D01*
X1837154Y-34745024D01*
X1824366Y-34727781D01*
X1813330Y-34709368D01*
X1804151Y-34689962D01*
X1796919Y-34669750D01*
X1791703Y-34648926D01*
X1788553Y-34627691D01*
X1787500Y-34606250D01*
X1787500Y-34093750D01*
X1788553Y-34072309D01*
X1791703Y-34051074D01*
X1796919Y-34030250D01*
X1804151Y-34010038D01*
X1813330Y-33990632D01*
X1824366Y-33972219D01*
X1837154Y-33954976D01*
X1851570Y-33939070D01*
X1867476Y-33924654D01*
X1884719Y-33911866D01*
X1903132Y-33900830D01*
X1922538Y-33891651D01*
X1942750Y-33884419D01*
X1963574Y-33879203D01*
X1984809Y-33876053D01*
X2006250Y-33875000D01*
X2443750Y-33875000D01*
X2465191Y-33876053D01*
X2465191Y-33876053D01*
G37*
D17*
X2225000Y-34350000D03*
D12*
G36*
X4040191Y-33876053D02*
X4061426Y-33879203D01*
X4082250Y-33884419D01*
X4102462Y-33891651D01*
X4121868Y-33900830D01*
X4140281Y-33911866D01*
X4157524Y-33924654D01*
X4173430Y-33939070D01*
X4187846Y-33954976D01*
X4200634Y-33972219D01*
X4211670Y-33990632D01*
X4220849Y-34010038D01*
X4228081Y-34030250D01*
X4233297Y-34051074D01*
X4236447Y-34072309D01*
X4237500Y-34093750D01*
X4237500Y-34606250D01*
X4236447Y-34627691D01*
X4233297Y-34648926D01*
X4228081Y-34669750D01*
X4220849Y-34689962D01*
X4211670Y-34709368D01*
X4200634Y-34727781D01*
X4187846Y-34745024D01*
X4173430Y-34760930D01*
X4157524Y-34775346D01*
X4140281Y-34788134D01*
X4121868Y-34799170D01*
X4102462Y-34808349D01*
X4082250Y-34815581D01*
X4061426Y-34820797D01*
X4040191Y-34823947D01*
X4018750Y-34825000D01*
X3581250Y-34825000D01*
X3559809Y-34823947D01*
X3538574Y-34820797D01*
X3517750Y-34815581D01*
X3497538Y-34808349D01*
X3478132Y-34799170D01*
X3459719Y-34788134D01*
X3442476Y-34775346D01*
X3426570Y-34760930D01*
X3412154Y-34745024D01*
X3399366Y-34727781D01*
X3388330Y-34709368D01*
X3379151Y-34689962D01*
X3371919Y-34669750D01*
X3366703Y-34648926D01*
X3363553Y-34627691D01*
X3362500Y-34606250D01*
X3362500Y-34093750D01*
X3363553Y-34072309D01*
X3366703Y-34051074D01*
X3371919Y-34030250D01*
X3379151Y-34010038D01*
X3388330Y-33990632D01*
X3399366Y-33972219D01*
X3412154Y-33954976D01*
X3426570Y-33939070D01*
X3442476Y-33924654D01*
X3459719Y-33911866D01*
X3478132Y-33900830D01*
X3497538Y-33891651D01*
X3517750Y-33884419D01*
X3538574Y-33879203D01*
X3559809Y-33876053D01*
X3581250Y-33875000D01*
X4018750Y-33875000D01*
X4040191Y-33876053D01*
X4040191Y-33876053D01*
G37*
D17*
X3800000Y-34350000D03*
G04 #@! TD*
D12*
G04 #@! TO.C,D4*
G36*
X4040191Y-32376053D02*
X4061426Y-32379203D01*
X4082250Y-32384419D01*
X4102462Y-32391651D01*
X4121868Y-32400830D01*
X4140281Y-32411866D01*
X4157524Y-32424654D01*
X4173430Y-32439070D01*
X4187846Y-32454976D01*
X4200634Y-32472219D01*
X4211670Y-32490632D01*
X4220849Y-32510038D01*
X4228081Y-32530250D01*
X4233297Y-32551074D01*
X4236447Y-32572309D01*
X4237500Y-32593750D01*
X4237500Y-33106250D01*
X4236447Y-33127691D01*
X4233297Y-33148926D01*
X4228081Y-33169750D01*
X4220849Y-33189962D01*
X4211670Y-33209368D01*
X4200634Y-33227781D01*
X4187846Y-33245024D01*
X4173430Y-33260930D01*
X4157524Y-33275346D01*
X4140281Y-33288134D01*
X4121868Y-33299170D01*
X4102462Y-33308349D01*
X4082250Y-33315581D01*
X4061426Y-33320797D01*
X4040191Y-33323947D01*
X4018750Y-33325000D01*
X3581250Y-33325000D01*
X3559809Y-33323947D01*
X3538574Y-33320797D01*
X3517750Y-33315581D01*
X3497538Y-33308349D01*
X3478132Y-33299170D01*
X3459719Y-33288134D01*
X3442476Y-33275346D01*
X3426570Y-33260930D01*
X3412154Y-33245024D01*
X3399366Y-33227781D01*
X3388330Y-33209368D01*
X3379151Y-33189962D01*
X3371919Y-33169750D01*
X3366703Y-33148926D01*
X3363553Y-33127691D01*
X3362500Y-33106250D01*
X3362500Y-32593750D01*
X3363553Y-32572309D01*
X3366703Y-32551074D01*
X3371919Y-32530250D01*
X3379151Y-32510038D01*
X3388330Y-32490632D01*
X3399366Y-32472219D01*
X3412154Y-32454976D01*
X3426570Y-32439070D01*
X3442476Y-32424654D01*
X3459719Y-32411866D01*
X3478132Y-32400830D01*
X3497538Y-32391651D01*
X3517750Y-32384419D01*
X3538574Y-32379203D01*
X3559809Y-32376053D01*
X3581250Y-32375000D01*
X4018750Y-32375000D01*
X4040191Y-32376053D01*
X4040191Y-32376053D01*
G37*
D17*
X3800000Y-32850000D03*
D12*
G36*
X2465191Y-32376053D02*
X2486426Y-32379203D01*
X2507250Y-32384419D01*
X2527462Y-32391651D01*
X2546868Y-32400830D01*
X2565281Y-32411866D01*
X2582524Y-32424654D01*
X2598430Y-32439070D01*
X2612846Y-32454976D01*
X2625634Y-32472219D01*
X2636670Y-32490632D01*
X2645849Y-32510038D01*
X2653081Y-32530250D01*
X2658297Y-32551074D01*
X2661447Y-32572309D01*
X2662500Y-32593750D01*
X2662500Y-33106250D01*
X2661447Y-33127691D01*
X2658297Y-33148926D01*
X2653081Y-33169750D01*
X2645849Y-33189962D01*
X2636670Y-33209368D01*
X2625634Y-33227781D01*
X2612846Y-33245024D01*
X2598430Y-33260930D01*
X2582524Y-33275346D01*
X2565281Y-33288134D01*
X2546868Y-33299170D01*
X2527462Y-33308349D01*
X2507250Y-33315581D01*
X2486426Y-33320797D01*
X2465191Y-33323947D01*
X2443750Y-33325000D01*
X2006250Y-33325000D01*
X1984809Y-33323947D01*
X1963574Y-33320797D01*
X1942750Y-33315581D01*
X1922538Y-33308349D01*
X1903132Y-33299170D01*
X1884719Y-33288134D01*
X1867476Y-33275346D01*
X1851570Y-33260930D01*
X1837154Y-33245024D01*
X1824366Y-33227781D01*
X1813330Y-33209368D01*
X1804151Y-33189962D01*
X1796919Y-33169750D01*
X1791703Y-33148926D01*
X1788553Y-33127691D01*
X1787500Y-33106250D01*
X1787500Y-32593750D01*
X1788553Y-32572309D01*
X1791703Y-32551074D01*
X1796919Y-32530250D01*
X1804151Y-32510038D01*
X1813330Y-32490632D01*
X1824366Y-32472219D01*
X1837154Y-32454976D01*
X1851570Y-32439070D01*
X1867476Y-32424654D01*
X1884719Y-32411866D01*
X1903132Y-32400830D01*
X1922538Y-32391651D01*
X1942750Y-32384419D01*
X1963574Y-32379203D01*
X1984809Y-32376053D01*
X2006250Y-32375000D01*
X2443750Y-32375000D01*
X2465191Y-32376053D01*
X2465191Y-32376053D01*
G37*
D17*
X2225000Y-32850000D03*
G04 #@! TD*
D12*
G04 #@! TO.C,D5*
G36*
X2452691Y-35376053D02*
X2473926Y-35379203D01*
X2494750Y-35384419D01*
X2514962Y-35391651D01*
X2534368Y-35400830D01*
X2552781Y-35411866D01*
X2570024Y-35424654D01*
X2585930Y-35439070D01*
X2600346Y-35454976D01*
X2613134Y-35472219D01*
X2624170Y-35490632D01*
X2633349Y-35510038D01*
X2640581Y-35530250D01*
X2645797Y-35551074D01*
X2648947Y-35572309D01*
X2650000Y-35593750D01*
X2650000Y-36106250D01*
X2648947Y-36127691D01*
X2645797Y-36148926D01*
X2640581Y-36169750D01*
X2633349Y-36189962D01*
X2624170Y-36209368D01*
X2613134Y-36227781D01*
X2600346Y-36245024D01*
X2585930Y-36260930D01*
X2570024Y-36275346D01*
X2552781Y-36288134D01*
X2534368Y-36299170D01*
X2514962Y-36308349D01*
X2494750Y-36315581D01*
X2473926Y-36320797D01*
X2452691Y-36323947D01*
X2431250Y-36325000D01*
X1993750Y-36325000D01*
X1972309Y-36323947D01*
X1951074Y-36320797D01*
X1930250Y-36315581D01*
X1910038Y-36308349D01*
X1890632Y-36299170D01*
X1872219Y-36288134D01*
X1854976Y-36275346D01*
X1839070Y-36260930D01*
X1824654Y-36245024D01*
X1811866Y-36227781D01*
X1800830Y-36209368D01*
X1791651Y-36189962D01*
X1784419Y-36169750D01*
X1779203Y-36148926D01*
X1776053Y-36127691D01*
X1775000Y-36106250D01*
X1775000Y-35593750D01*
X1776053Y-35572309D01*
X1779203Y-35551074D01*
X1784419Y-35530250D01*
X1791651Y-35510038D01*
X1800830Y-35490632D01*
X1811866Y-35472219D01*
X1824654Y-35454976D01*
X1839070Y-35439070D01*
X1854976Y-35424654D01*
X1872219Y-35411866D01*
X1890632Y-35400830D01*
X1910038Y-35391651D01*
X1930250Y-35384419D01*
X1951074Y-35379203D01*
X1972309Y-35376053D01*
X1993750Y-35375000D01*
X2431250Y-35375000D01*
X2452691Y-35376053D01*
X2452691Y-35376053D01*
G37*
D17*
X2212500Y-35850000D03*
D12*
G36*
X4027691Y-35376053D02*
X4048926Y-35379203D01*
X4069750Y-35384419D01*
X4089962Y-35391651D01*
X4109368Y-35400830D01*
X4127781Y-35411866D01*
X4145024Y-35424654D01*
X4160930Y-35439070D01*
X4175346Y-35454976D01*
X4188134Y-35472219D01*
X4199170Y-35490632D01*
X4208349Y-35510038D01*
X4215581Y-35530250D01*
X4220797Y-35551074D01*
X4223947Y-35572309D01*
X4225000Y-35593750D01*
X4225000Y-36106250D01*
X4223947Y-36127691D01*
X4220797Y-36148926D01*
X4215581Y-36169750D01*
X4208349Y-36189962D01*
X4199170Y-36209368D01*
X4188134Y-36227781D01*
X4175346Y-36245024D01*
X4160930Y-36260930D01*
X4145024Y-36275346D01*
X4127781Y-36288134D01*
X4109368Y-36299170D01*
X4089962Y-36308349D01*
X4069750Y-36315581D01*
X4048926Y-36320797D01*
X4027691Y-36323947D01*
X4006250Y-36325000D01*
X3568750Y-36325000D01*
X3547309Y-36323947D01*
X3526074Y-36320797D01*
X3505250Y-36315581D01*
X3485038Y-36308349D01*
X3465632Y-36299170D01*
X3447219Y-36288134D01*
X3429976Y-36275346D01*
X3414070Y-36260930D01*
X3399654Y-36245024D01*
X3386866Y-36227781D01*
X3375830Y-36209368D01*
X3366651Y-36189962D01*
X3359419Y-36169750D01*
X3354203Y-36148926D01*
X3351053Y-36127691D01*
X3350000Y-36106250D01*
X3350000Y-35593750D01*
X3351053Y-35572309D01*
X3354203Y-35551074D01*
X3359419Y-35530250D01*
X3366651Y-35510038D01*
X3375830Y-35490632D01*
X3386866Y-35472219D01*
X3399654Y-35454976D01*
X3414070Y-35439070D01*
X3429976Y-35424654D01*
X3447219Y-35411866D01*
X3465632Y-35400830D01*
X3485038Y-35391651D01*
X3505250Y-35384419D01*
X3526074Y-35379203D01*
X3547309Y-35376053D01*
X3568750Y-35375000D01*
X4006250Y-35375000D01*
X4027691Y-35376053D01*
X4027691Y-35376053D01*
G37*
D17*
X3787500Y-35850000D03*
G04 #@! TD*
D12*
G04 #@! TO.C,J3*
G36*
X17674504Y-40451204D02*
X17698773Y-40454804D01*
X17722571Y-40460765D01*
X17745671Y-40469030D01*
X17767849Y-40479520D01*
X17788893Y-40492133D01*
X17808598Y-40506747D01*
X17826777Y-40523223D01*
X17843253Y-40541402D01*
X17857867Y-40561107D01*
X17870480Y-40582151D01*
X17880970Y-40604329D01*
X17889235Y-40627429D01*
X17895196Y-40651227D01*
X17898796Y-40675496D01*
X17900000Y-40700000D01*
X17900000Y-43100000D01*
X17898796Y-43124504D01*
X17895196Y-43148773D01*
X17889235Y-43172571D01*
X17880970Y-43195671D01*
X17870480Y-43217849D01*
X17857867Y-43238893D01*
X17843253Y-43258598D01*
X17826777Y-43276777D01*
X17808598Y-43293253D01*
X17788893Y-43307867D01*
X17767849Y-43320480D01*
X17745671Y-43330970D01*
X17722571Y-43339235D01*
X17698773Y-43345196D01*
X17674504Y-43348796D01*
X17650000Y-43350000D01*
X17150000Y-43350000D01*
X17125496Y-43348796D01*
X17101227Y-43345196D01*
X17077429Y-43339235D01*
X17054329Y-43330970D01*
X17032151Y-43320480D01*
X17011107Y-43307867D01*
X16991402Y-43293253D01*
X16973223Y-43276777D01*
X16956747Y-43258598D01*
X16942133Y-43238893D01*
X16929520Y-43217849D01*
X16919030Y-43195671D01*
X16910765Y-43172571D01*
X16904804Y-43148773D01*
X16901204Y-43124504D01*
X16900000Y-43100000D01*
X16900000Y-40700000D01*
X16901204Y-40675496D01*
X16904804Y-40651227D01*
X16910765Y-40627429D01*
X16919030Y-40604329D01*
X16929520Y-40582151D01*
X16942133Y-40561107D01*
X16956747Y-40541402D01*
X16973223Y-40523223D01*
X16991402Y-40506747D01*
X17011107Y-40492133D01*
X17032151Y-40479520D01*
X17054329Y-40469030D01*
X17077429Y-40460765D01*
X17101227Y-40454804D01*
X17125496Y-40451204D01*
X17150000Y-40450000D01*
X17650000Y-40450000D01*
X17674504Y-40451204D01*
X17674504Y-40451204D01*
G37*
D13*
X17400000Y-41900000D03*
D12*
G36*
X15674504Y-40451204D02*
X15698773Y-40454804D01*
X15722571Y-40460765D01*
X15745671Y-40469030D01*
X15767849Y-40479520D01*
X15788893Y-40492133D01*
X15808598Y-40506747D01*
X15826777Y-40523223D01*
X15843253Y-40541402D01*
X15857867Y-40561107D01*
X15870480Y-40582151D01*
X15880970Y-40604329D01*
X15889235Y-40627429D01*
X15895196Y-40651227D01*
X15898796Y-40675496D01*
X15900000Y-40700000D01*
X15900000Y-43100000D01*
X15898796Y-43124504D01*
X15895196Y-43148773D01*
X15889235Y-43172571D01*
X15880970Y-43195671D01*
X15870480Y-43217849D01*
X15857867Y-43238893D01*
X15843253Y-43258598D01*
X15826777Y-43276777D01*
X15808598Y-43293253D01*
X15788893Y-43307867D01*
X15767849Y-43320480D01*
X15745671Y-43330970D01*
X15722571Y-43339235D01*
X15698773Y-43345196D01*
X15674504Y-43348796D01*
X15650000Y-43350000D01*
X15150000Y-43350000D01*
X15125496Y-43348796D01*
X15101227Y-43345196D01*
X15077429Y-43339235D01*
X15054329Y-43330970D01*
X15032151Y-43320480D01*
X15011107Y-43307867D01*
X14991402Y-43293253D01*
X14973223Y-43276777D01*
X14956747Y-43258598D01*
X14942133Y-43238893D01*
X14929520Y-43217849D01*
X14919030Y-43195671D01*
X14910765Y-43172571D01*
X14904804Y-43148773D01*
X14901204Y-43124504D01*
X14900000Y-43100000D01*
X14900000Y-40700000D01*
X14901204Y-40675496D01*
X14904804Y-40651227D01*
X14910765Y-40627429D01*
X14919030Y-40604329D01*
X14929520Y-40582151D01*
X14942133Y-40561107D01*
X14956747Y-40541402D01*
X14973223Y-40523223D01*
X14991402Y-40506747D01*
X15011107Y-40492133D01*
X15032151Y-40479520D01*
X15054329Y-40469030D01*
X15077429Y-40460765D01*
X15101227Y-40454804D01*
X15125496Y-40451204D01*
X15150000Y-40450000D01*
X15650000Y-40450000D01*
X15674504Y-40451204D01*
X15674504Y-40451204D01*
G37*
D13*
X15400000Y-41900000D03*
D12*
G36*
X13674504Y-40451204D02*
X13698773Y-40454804D01*
X13722571Y-40460765D01*
X13745671Y-40469030D01*
X13767849Y-40479520D01*
X13788893Y-40492133D01*
X13808598Y-40506747D01*
X13826777Y-40523223D01*
X13843253Y-40541402D01*
X13857867Y-40561107D01*
X13870480Y-40582151D01*
X13880970Y-40604329D01*
X13889235Y-40627429D01*
X13895196Y-40651227D01*
X13898796Y-40675496D01*
X13900000Y-40700000D01*
X13900000Y-43100000D01*
X13898796Y-43124504D01*
X13895196Y-43148773D01*
X13889235Y-43172571D01*
X13880970Y-43195671D01*
X13870480Y-43217849D01*
X13857867Y-43238893D01*
X13843253Y-43258598D01*
X13826777Y-43276777D01*
X13808598Y-43293253D01*
X13788893Y-43307867D01*
X13767849Y-43320480D01*
X13745671Y-43330970D01*
X13722571Y-43339235D01*
X13698773Y-43345196D01*
X13674504Y-43348796D01*
X13650000Y-43350000D01*
X13150000Y-43350000D01*
X13125496Y-43348796D01*
X13101227Y-43345196D01*
X13077429Y-43339235D01*
X13054329Y-43330970D01*
X13032151Y-43320480D01*
X13011107Y-43307867D01*
X12991402Y-43293253D01*
X12973223Y-43276777D01*
X12956747Y-43258598D01*
X12942133Y-43238893D01*
X12929520Y-43217849D01*
X12919030Y-43195671D01*
X12910765Y-43172571D01*
X12904804Y-43148773D01*
X12901204Y-43124504D01*
X12900000Y-43100000D01*
X12900000Y-40700000D01*
X12901204Y-40675496D01*
X12904804Y-40651227D01*
X12910765Y-40627429D01*
X12919030Y-40604329D01*
X12929520Y-40582151D01*
X12942133Y-40561107D01*
X12956747Y-40541402D01*
X12973223Y-40523223D01*
X12991402Y-40506747D01*
X13011107Y-40492133D01*
X13032151Y-40479520D01*
X13054329Y-40469030D01*
X13077429Y-40460765D01*
X13101227Y-40454804D01*
X13125496Y-40451204D01*
X13150000Y-40450000D01*
X13650000Y-40450000D01*
X13674504Y-40451204D01*
X13674504Y-40451204D01*
G37*
D13*
X13400000Y-41900000D03*
D12*
G36*
X11674504Y-40451204D02*
X11698773Y-40454804D01*
X11722571Y-40460765D01*
X11745671Y-40469030D01*
X11767849Y-40479520D01*
X11788893Y-40492133D01*
X11808598Y-40506747D01*
X11826777Y-40523223D01*
X11843253Y-40541402D01*
X11857867Y-40561107D01*
X11870480Y-40582151D01*
X11880970Y-40604329D01*
X11889235Y-40627429D01*
X11895196Y-40651227D01*
X11898796Y-40675496D01*
X11900000Y-40700000D01*
X11900000Y-43100000D01*
X11898796Y-43124504D01*
X11895196Y-43148773D01*
X11889235Y-43172571D01*
X11880970Y-43195671D01*
X11870480Y-43217849D01*
X11857867Y-43238893D01*
X11843253Y-43258598D01*
X11826777Y-43276777D01*
X11808598Y-43293253D01*
X11788893Y-43307867D01*
X11767849Y-43320480D01*
X11745671Y-43330970D01*
X11722571Y-43339235D01*
X11698773Y-43345196D01*
X11674504Y-43348796D01*
X11650000Y-43350000D01*
X11150000Y-43350000D01*
X11125496Y-43348796D01*
X11101227Y-43345196D01*
X11077429Y-43339235D01*
X11054329Y-43330970D01*
X11032151Y-43320480D01*
X11011107Y-43307867D01*
X10991402Y-43293253D01*
X10973223Y-43276777D01*
X10956747Y-43258598D01*
X10942133Y-43238893D01*
X10929520Y-43217849D01*
X10919030Y-43195671D01*
X10910765Y-43172571D01*
X10904804Y-43148773D01*
X10901204Y-43124504D01*
X10900000Y-43100000D01*
X10900000Y-40700000D01*
X10901204Y-40675496D01*
X10904804Y-40651227D01*
X10910765Y-40627429D01*
X10919030Y-40604329D01*
X10929520Y-40582151D01*
X10942133Y-40561107D01*
X10956747Y-40541402D01*
X10973223Y-40523223D01*
X10991402Y-40506747D01*
X11011107Y-40492133D01*
X11032151Y-40479520D01*
X11054329Y-40469030D01*
X11077429Y-40460765D01*
X11101227Y-40454804D01*
X11125496Y-40451204D01*
X11150000Y-40450000D01*
X11650000Y-40450000D01*
X11674504Y-40451204D01*
X11674504Y-40451204D01*
G37*
D13*
X11400000Y-41900000D03*
D12*
G36*
X20424504Y-44751204D02*
X20448773Y-44754804D01*
X20472571Y-44760765D01*
X20495671Y-44769030D01*
X20517849Y-44779520D01*
X20538893Y-44792133D01*
X20558598Y-44806747D01*
X20576777Y-44823223D01*
X20593253Y-44841402D01*
X20607867Y-44861107D01*
X20620480Y-44882151D01*
X20630970Y-44904329D01*
X20639235Y-44927429D01*
X20645196Y-44951227D01*
X20648796Y-44975496D01*
X20650000Y-45000000D01*
X20650000Y-48100000D01*
X20648796Y-48124504D01*
X20645196Y-48148773D01*
X20639235Y-48172571D01*
X20630970Y-48195671D01*
X20620480Y-48217849D01*
X20607867Y-48238893D01*
X20593253Y-48258598D01*
X20576777Y-48276777D01*
X20558598Y-48293253D01*
X20538893Y-48307867D01*
X20517849Y-48320480D01*
X20495671Y-48330970D01*
X20472571Y-48339235D01*
X20448773Y-48345196D01*
X20424504Y-48348796D01*
X20400000Y-48350000D01*
X19100000Y-48350000D01*
X19075496Y-48348796D01*
X19051227Y-48345196D01*
X19027429Y-48339235D01*
X19004329Y-48330970D01*
X18982151Y-48320480D01*
X18961107Y-48307867D01*
X18941402Y-48293253D01*
X18923223Y-48276777D01*
X18906747Y-48258598D01*
X18892133Y-48238893D01*
X18879520Y-48217849D01*
X18869030Y-48195671D01*
X18860765Y-48172571D01*
X18854804Y-48148773D01*
X18851204Y-48124504D01*
X18850000Y-48100000D01*
X18850000Y-45000000D01*
X18851204Y-44975496D01*
X18854804Y-44951227D01*
X18860765Y-44927429D01*
X18869030Y-44904329D01*
X18879520Y-44882151D01*
X18892133Y-44861107D01*
X18906747Y-44841402D01*
X18923223Y-44823223D01*
X18941402Y-44806747D01*
X18961107Y-44792133D01*
X18982151Y-44779520D01*
X19004329Y-44769030D01*
X19027429Y-44760765D01*
X19051227Y-44754804D01*
X19075496Y-44751204D01*
X19100000Y-44750000D01*
X20400000Y-44750000D01*
X20424504Y-44751204D01*
X20424504Y-44751204D01*
G37*
D14*
X19750000Y-46550000D03*
D12*
G36*
X9724504Y-44751204D02*
X9748773Y-44754804D01*
X9772571Y-44760765D01*
X9795671Y-44769030D01*
X9817849Y-44779520D01*
X9838893Y-44792133D01*
X9858598Y-44806747D01*
X9876777Y-44823223D01*
X9893253Y-44841402D01*
X9907867Y-44861107D01*
X9920480Y-44882151D01*
X9930970Y-44904329D01*
X9939235Y-44927429D01*
X9945196Y-44951227D01*
X9948796Y-44975496D01*
X9950000Y-45000000D01*
X9950000Y-48100000D01*
X9948796Y-48124504D01*
X9945196Y-48148773D01*
X9939235Y-48172571D01*
X9930970Y-48195671D01*
X9920480Y-48217849D01*
X9907867Y-48238893D01*
X9893253Y-48258598D01*
X9876777Y-48276777D01*
X9858598Y-48293253D01*
X9838893Y-48307867D01*
X9817849Y-48320480D01*
X9795671Y-48330970D01*
X9772571Y-48339235D01*
X9748773Y-48345196D01*
X9724504Y-48348796D01*
X9700000Y-48350000D01*
X8400000Y-48350000D01*
X8375496Y-48348796D01*
X8351227Y-48345196D01*
X8327429Y-48339235D01*
X8304329Y-48330970D01*
X8282151Y-48320480D01*
X8261107Y-48307867D01*
X8241402Y-48293253D01*
X8223223Y-48276777D01*
X8206747Y-48258598D01*
X8192133Y-48238893D01*
X8179520Y-48217849D01*
X8169030Y-48195671D01*
X8160765Y-48172571D01*
X8154804Y-48148773D01*
X8151204Y-48124504D01*
X8150000Y-48100000D01*
X8150000Y-45000000D01*
X8151204Y-44975496D01*
X8154804Y-44951227D01*
X8160765Y-44927429D01*
X8169030Y-44904329D01*
X8179520Y-44882151D01*
X8192133Y-44861107D01*
X8206747Y-44841402D01*
X8223223Y-44823223D01*
X8241402Y-44806747D01*
X8261107Y-44792133D01*
X8282151Y-44779520D01*
X8304329Y-44769030D01*
X8327429Y-44760765D01*
X8351227Y-44754804D01*
X8375496Y-44751204D01*
X8400000Y-44750000D01*
X9700000Y-44750000D01*
X9724504Y-44751204D01*
X9724504Y-44751204D01*
G37*
D14*
X9050000Y-46550000D03*
G04 #@! TD*
D12*
G04 #@! TO.C,J5*
G36*
X25574504Y-40451204D02*
X25598773Y-40454804D01*
X25622571Y-40460765D01*
X25645671Y-40469030D01*
X25667849Y-40479520D01*
X25688893Y-40492133D01*
X25708598Y-40506747D01*
X25726777Y-40523223D01*
X25743253Y-40541402D01*
X25757867Y-40561107D01*
X25770480Y-40582151D01*
X25780970Y-40604329D01*
X25789235Y-40627429D01*
X25795196Y-40651227D01*
X25798796Y-40675496D01*
X25800000Y-40700000D01*
X25800000Y-42900000D01*
X25798796Y-42924504D01*
X25795196Y-42948773D01*
X25789235Y-42972571D01*
X25780970Y-42995671D01*
X25770480Y-43017849D01*
X25757867Y-43038893D01*
X25743253Y-43058598D01*
X25726777Y-43076777D01*
X25708598Y-43093253D01*
X25688893Y-43107867D01*
X25667849Y-43120480D01*
X25645671Y-43130970D01*
X25622571Y-43139235D01*
X25598773Y-43145196D01*
X25574504Y-43148796D01*
X25550000Y-43150000D01*
X25050000Y-43150000D01*
X25025496Y-43148796D01*
X25001227Y-43145196D01*
X24977429Y-43139235D01*
X24954329Y-43130970D01*
X24932151Y-43120480D01*
X24911107Y-43107867D01*
X24891402Y-43093253D01*
X24873223Y-43076777D01*
X24856747Y-43058598D01*
X24842133Y-43038893D01*
X24829520Y-43017849D01*
X24819030Y-42995671D01*
X24810765Y-42972571D01*
X24804804Y-42948773D01*
X24801204Y-42924504D01*
X24800000Y-42900000D01*
X24800000Y-40700000D01*
X24801204Y-40675496D01*
X24804804Y-40651227D01*
X24810765Y-40627429D01*
X24819030Y-40604329D01*
X24829520Y-40582151D01*
X24842133Y-40561107D01*
X24856747Y-40541402D01*
X24873223Y-40523223D01*
X24891402Y-40506747D01*
X24911107Y-40492133D01*
X24932151Y-40479520D01*
X24954329Y-40469030D01*
X24977429Y-40460765D01*
X25001227Y-40454804D01*
X25025496Y-40451204D01*
X25050000Y-40450000D01*
X25550000Y-40450000D01*
X25574504Y-40451204D01*
X25574504Y-40451204D01*
G37*
D13*
X25300000Y-41800000D03*
D12*
G36*
X27574504Y-40451204D02*
X27598773Y-40454804D01*
X27622571Y-40460765D01*
X27645671Y-40469030D01*
X27667849Y-40479520D01*
X27688893Y-40492133D01*
X27708598Y-40506747D01*
X27726777Y-40523223D01*
X27743253Y-40541402D01*
X27757867Y-40561107D01*
X27770480Y-40582151D01*
X27780970Y-40604329D01*
X27789235Y-40627429D01*
X27795196Y-40651227D01*
X27798796Y-40675496D01*
X27800000Y-40700000D01*
X27800000Y-42900000D01*
X27798796Y-42924504D01*
X27795196Y-42948773D01*
X27789235Y-42972571D01*
X27780970Y-42995671D01*
X27770480Y-43017849D01*
X27757867Y-43038893D01*
X27743253Y-43058598D01*
X27726777Y-43076777D01*
X27708598Y-43093253D01*
X27688893Y-43107867D01*
X27667849Y-43120480D01*
X27645671Y-43130970D01*
X27622571Y-43139235D01*
X27598773Y-43145196D01*
X27574504Y-43148796D01*
X27550000Y-43150000D01*
X27050000Y-43150000D01*
X27025496Y-43148796D01*
X27001227Y-43145196D01*
X26977429Y-43139235D01*
X26954329Y-43130970D01*
X26932151Y-43120480D01*
X26911107Y-43107867D01*
X26891402Y-43093253D01*
X26873223Y-43076777D01*
X26856747Y-43058598D01*
X26842133Y-43038893D01*
X26829520Y-43017849D01*
X26819030Y-42995671D01*
X26810765Y-42972571D01*
X26804804Y-42948773D01*
X26801204Y-42924504D01*
X26800000Y-42900000D01*
X26800000Y-40700000D01*
X26801204Y-40675496D01*
X26804804Y-40651227D01*
X26810765Y-40627429D01*
X26819030Y-40604329D01*
X26829520Y-40582151D01*
X26842133Y-40561107D01*
X26856747Y-40541402D01*
X26873223Y-40523223D01*
X26891402Y-40506747D01*
X26911107Y-40492133D01*
X26932151Y-40479520D01*
X26954329Y-40469030D01*
X26977429Y-40460765D01*
X27001227Y-40454804D01*
X27025496Y-40451204D01*
X27050000Y-40450000D01*
X27550000Y-40450000D01*
X27574504Y-40451204D01*
X27574504Y-40451204D01*
G37*
D13*
X27300000Y-41800000D03*
D12*
G36*
X29574504Y-40451204D02*
X29598773Y-40454804D01*
X29622571Y-40460765D01*
X29645671Y-40469030D01*
X29667849Y-40479520D01*
X29688893Y-40492133D01*
X29708598Y-40506747D01*
X29726777Y-40523223D01*
X29743253Y-40541402D01*
X29757867Y-40561107D01*
X29770480Y-40582151D01*
X29780970Y-40604329D01*
X29789235Y-40627429D01*
X29795196Y-40651227D01*
X29798796Y-40675496D01*
X29800000Y-40700000D01*
X29800000Y-42900000D01*
X29798796Y-42924504D01*
X29795196Y-42948773D01*
X29789235Y-42972571D01*
X29780970Y-42995671D01*
X29770480Y-43017849D01*
X29757867Y-43038893D01*
X29743253Y-43058598D01*
X29726777Y-43076777D01*
X29708598Y-43093253D01*
X29688893Y-43107867D01*
X29667849Y-43120480D01*
X29645671Y-43130970D01*
X29622571Y-43139235D01*
X29598773Y-43145196D01*
X29574504Y-43148796D01*
X29550000Y-43150000D01*
X29050000Y-43150000D01*
X29025496Y-43148796D01*
X29001227Y-43145196D01*
X28977429Y-43139235D01*
X28954329Y-43130970D01*
X28932151Y-43120480D01*
X28911107Y-43107867D01*
X28891402Y-43093253D01*
X28873223Y-43076777D01*
X28856747Y-43058598D01*
X28842133Y-43038893D01*
X28829520Y-43017849D01*
X28819030Y-42995671D01*
X28810765Y-42972571D01*
X28804804Y-42948773D01*
X28801204Y-42924504D01*
X28800000Y-42900000D01*
X28800000Y-40700000D01*
X28801204Y-40675496D01*
X28804804Y-40651227D01*
X28810765Y-40627429D01*
X28819030Y-40604329D01*
X28829520Y-40582151D01*
X28842133Y-40561107D01*
X28856747Y-40541402D01*
X28873223Y-40523223D01*
X28891402Y-40506747D01*
X28911107Y-40492133D01*
X28932151Y-40479520D01*
X28954329Y-40469030D01*
X28977429Y-40460765D01*
X29001227Y-40454804D01*
X29025496Y-40451204D01*
X29050000Y-40450000D01*
X29550000Y-40450000D01*
X29574504Y-40451204D01*
X29574504Y-40451204D01*
G37*
D13*
X29300000Y-41800000D03*
D12*
G36*
X31574504Y-40451204D02*
X31598773Y-40454804D01*
X31622571Y-40460765D01*
X31645671Y-40469030D01*
X31667849Y-40479520D01*
X31688893Y-40492133D01*
X31708598Y-40506747D01*
X31726777Y-40523223D01*
X31743253Y-40541402D01*
X31757867Y-40561107D01*
X31770480Y-40582151D01*
X31780970Y-40604329D01*
X31789235Y-40627429D01*
X31795196Y-40651227D01*
X31798796Y-40675496D01*
X31800000Y-40700000D01*
X31800000Y-42900000D01*
X31798796Y-42924504D01*
X31795196Y-42948773D01*
X31789235Y-42972571D01*
X31780970Y-42995671D01*
X31770480Y-43017849D01*
X31757867Y-43038893D01*
X31743253Y-43058598D01*
X31726777Y-43076777D01*
X31708598Y-43093253D01*
X31688893Y-43107867D01*
X31667849Y-43120480D01*
X31645671Y-43130970D01*
X31622571Y-43139235D01*
X31598773Y-43145196D01*
X31574504Y-43148796D01*
X31550000Y-43150000D01*
X31050000Y-43150000D01*
X31025496Y-43148796D01*
X31001227Y-43145196D01*
X30977429Y-43139235D01*
X30954329Y-43130970D01*
X30932151Y-43120480D01*
X30911107Y-43107867D01*
X30891402Y-43093253D01*
X30873223Y-43076777D01*
X30856747Y-43058598D01*
X30842133Y-43038893D01*
X30829520Y-43017849D01*
X30819030Y-42995671D01*
X30810765Y-42972571D01*
X30804804Y-42948773D01*
X30801204Y-42924504D01*
X30800000Y-42900000D01*
X30800000Y-40700000D01*
X30801204Y-40675496D01*
X30804804Y-40651227D01*
X30810765Y-40627429D01*
X30819030Y-40604329D01*
X30829520Y-40582151D01*
X30842133Y-40561107D01*
X30856747Y-40541402D01*
X30873223Y-40523223D01*
X30891402Y-40506747D01*
X30911107Y-40492133D01*
X30932151Y-40479520D01*
X30954329Y-40469030D01*
X30977429Y-40460765D01*
X31001227Y-40454804D01*
X31025496Y-40451204D01*
X31050000Y-40450000D01*
X31550000Y-40450000D01*
X31574504Y-40451204D01*
X31574504Y-40451204D01*
G37*
D13*
X31300000Y-41800000D03*
D12*
G36*
X33574504Y-40451204D02*
X33598773Y-40454804D01*
X33622571Y-40460765D01*
X33645671Y-40469030D01*
X33667849Y-40479520D01*
X33688893Y-40492133D01*
X33708598Y-40506747D01*
X33726777Y-40523223D01*
X33743253Y-40541402D01*
X33757867Y-40561107D01*
X33770480Y-40582151D01*
X33780970Y-40604329D01*
X33789235Y-40627429D01*
X33795196Y-40651227D01*
X33798796Y-40675496D01*
X33800000Y-40700000D01*
X33800000Y-42900000D01*
X33798796Y-42924504D01*
X33795196Y-42948773D01*
X33789235Y-42972571D01*
X33780970Y-42995671D01*
X33770480Y-43017849D01*
X33757867Y-43038893D01*
X33743253Y-43058598D01*
X33726777Y-43076777D01*
X33708598Y-43093253D01*
X33688893Y-43107867D01*
X33667849Y-43120480D01*
X33645671Y-43130970D01*
X33622571Y-43139235D01*
X33598773Y-43145196D01*
X33574504Y-43148796D01*
X33550000Y-43150000D01*
X33050000Y-43150000D01*
X33025496Y-43148796D01*
X33001227Y-43145196D01*
X32977429Y-43139235D01*
X32954329Y-43130970D01*
X32932151Y-43120480D01*
X32911107Y-43107867D01*
X32891402Y-43093253D01*
X32873223Y-43076777D01*
X32856747Y-43058598D01*
X32842133Y-43038893D01*
X32829520Y-43017849D01*
X32819030Y-42995671D01*
X32810765Y-42972571D01*
X32804804Y-42948773D01*
X32801204Y-42924504D01*
X32800000Y-42900000D01*
X32800000Y-40700000D01*
X32801204Y-40675496D01*
X32804804Y-40651227D01*
X32810765Y-40627429D01*
X32819030Y-40604329D01*
X32829520Y-40582151D01*
X32842133Y-40561107D01*
X32856747Y-40541402D01*
X32873223Y-40523223D01*
X32891402Y-40506747D01*
X32911107Y-40492133D01*
X32932151Y-40479520D01*
X32954329Y-40469030D01*
X32977429Y-40460765D01*
X33001227Y-40454804D01*
X33025496Y-40451204D01*
X33050000Y-40450000D01*
X33550000Y-40450000D01*
X33574504Y-40451204D01*
X33574504Y-40451204D01*
G37*
D13*
X33300000Y-41800000D03*
D12*
G36*
X35574504Y-40451204D02*
X35598773Y-40454804D01*
X35622571Y-40460765D01*
X35645671Y-40469030D01*
X35667849Y-40479520D01*
X35688893Y-40492133D01*
X35708598Y-40506747D01*
X35726777Y-40523223D01*
X35743253Y-40541402D01*
X35757867Y-40561107D01*
X35770480Y-40582151D01*
X35780970Y-40604329D01*
X35789235Y-40627429D01*
X35795196Y-40651227D01*
X35798796Y-40675496D01*
X35800000Y-40700000D01*
X35800000Y-42900000D01*
X35798796Y-42924504D01*
X35795196Y-42948773D01*
X35789235Y-42972571D01*
X35780970Y-42995671D01*
X35770480Y-43017849D01*
X35757867Y-43038893D01*
X35743253Y-43058598D01*
X35726777Y-43076777D01*
X35708598Y-43093253D01*
X35688893Y-43107867D01*
X35667849Y-43120480D01*
X35645671Y-43130970D01*
X35622571Y-43139235D01*
X35598773Y-43145196D01*
X35574504Y-43148796D01*
X35550000Y-43150000D01*
X35050000Y-43150000D01*
X35025496Y-43148796D01*
X35001227Y-43145196D01*
X34977429Y-43139235D01*
X34954329Y-43130970D01*
X34932151Y-43120480D01*
X34911107Y-43107867D01*
X34891402Y-43093253D01*
X34873223Y-43076777D01*
X34856747Y-43058598D01*
X34842133Y-43038893D01*
X34829520Y-43017849D01*
X34819030Y-42995671D01*
X34810765Y-42972571D01*
X34804804Y-42948773D01*
X34801204Y-42924504D01*
X34800000Y-42900000D01*
X34800000Y-40700000D01*
X34801204Y-40675496D01*
X34804804Y-40651227D01*
X34810765Y-40627429D01*
X34819030Y-40604329D01*
X34829520Y-40582151D01*
X34842133Y-40561107D01*
X34856747Y-40541402D01*
X34873223Y-40523223D01*
X34891402Y-40506747D01*
X34911107Y-40492133D01*
X34932151Y-40479520D01*
X34954329Y-40469030D01*
X34977429Y-40460765D01*
X35001227Y-40454804D01*
X35025496Y-40451204D01*
X35050000Y-40450000D01*
X35550000Y-40450000D01*
X35574504Y-40451204D01*
X35574504Y-40451204D01*
G37*
D13*
X35300000Y-41800000D03*
D12*
G36*
X23624504Y-44351204D02*
X23648773Y-44354804D01*
X23672571Y-44360765D01*
X23695671Y-44369030D01*
X23717849Y-44379520D01*
X23738893Y-44392133D01*
X23758598Y-44406747D01*
X23776777Y-44423223D01*
X23793253Y-44441402D01*
X23807867Y-44461107D01*
X23820480Y-44482151D01*
X23830970Y-44504329D01*
X23839235Y-44527429D01*
X23845196Y-44551227D01*
X23848796Y-44575496D01*
X23850000Y-44600000D01*
X23850000Y-47900000D01*
X23848796Y-47924504D01*
X23845196Y-47948773D01*
X23839235Y-47972571D01*
X23830970Y-47995671D01*
X23820480Y-48017849D01*
X23807867Y-48038893D01*
X23793253Y-48058598D01*
X23776777Y-48076777D01*
X23758598Y-48093253D01*
X23738893Y-48107867D01*
X23717849Y-48120480D01*
X23695671Y-48130970D01*
X23672571Y-48139235D01*
X23648773Y-48145196D01*
X23624504Y-48148796D01*
X23600000Y-48150000D01*
X22300000Y-48150000D01*
X22275496Y-48148796D01*
X22251227Y-48145196D01*
X22227429Y-48139235D01*
X22204329Y-48130970D01*
X22182151Y-48120480D01*
X22161107Y-48107867D01*
X22141402Y-48093253D01*
X22123223Y-48076777D01*
X22106747Y-48058598D01*
X22092133Y-48038893D01*
X22079520Y-48017849D01*
X22069030Y-47995671D01*
X22060765Y-47972571D01*
X22054804Y-47948773D01*
X22051204Y-47924504D01*
X22050000Y-47900000D01*
X22050000Y-44600000D01*
X22051204Y-44575496D01*
X22054804Y-44551227D01*
X22060765Y-44527429D01*
X22069030Y-44504329D01*
X22079520Y-44482151D01*
X22092133Y-44461107D01*
X22106747Y-44441402D01*
X22123223Y-44423223D01*
X22141402Y-44406747D01*
X22161107Y-44392133D01*
X22182151Y-44379520D01*
X22204329Y-44369030D01*
X22227429Y-44360765D01*
X22251227Y-44354804D01*
X22275496Y-44351204D01*
X22300000Y-44350000D01*
X23600000Y-44350000D01*
X23624504Y-44351204D01*
X23624504Y-44351204D01*
G37*
D14*
X22950000Y-46250000D03*
D12*
G36*
X38324504Y-44351204D02*
X38348773Y-44354804D01*
X38372571Y-44360765D01*
X38395671Y-44369030D01*
X38417849Y-44379520D01*
X38438893Y-44392133D01*
X38458598Y-44406747D01*
X38476777Y-44423223D01*
X38493253Y-44441402D01*
X38507867Y-44461107D01*
X38520480Y-44482151D01*
X38530970Y-44504329D01*
X38539235Y-44527429D01*
X38545196Y-44551227D01*
X38548796Y-44575496D01*
X38550000Y-44600000D01*
X38550000Y-47900000D01*
X38548796Y-47924504D01*
X38545196Y-47948773D01*
X38539235Y-47972571D01*
X38530970Y-47995671D01*
X38520480Y-48017849D01*
X38507867Y-48038893D01*
X38493253Y-48058598D01*
X38476777Y-48076777D01*
X38458598Y-48093253D01*
X38438893Y-48107867D01*
X38417849Y-48120480D01*
X38395671Y-48130970D01*
X38372571Y-48139235D01*
X38348773Y-48145196D01*
X38324504Y-48148796D01*
X38300000Y-48150000D01*
X37000000Y-48150000D01*
X36975496Y-48148796D01*
X36951227Y-48145196D01*
X36927429Y-48139235D01*
X36904329Y-48130970D01*
X36882151Y-48120480D01*
X36861107Y-48107867D01*
X36841402Y-48093253D01*
X36823223Y-48076777D01*
X36806747Y-48058598D01*
X36792133Y-48038893D01*
X36779520Y-48017849D01*
X36769030Y-47995671D01*
X36760765Y-47972571D01*
X36754804Y-47948773D01*
X36751204Y-47924504D01*
X36750000Y-47900000D01*
X36750000Y-44600000D01*
X36751204Y-44575496D01*
X36754804Y-44551227D01*
X36760765Y-44527429D01*
X36769030Y-44504329D01*
X36779520Y-44482151D01*
X36792133Y-44461107D01*
X36806747Y-44441402D01*
X36823223Y-44423223D01*
X36841402Y-44406747D01*
X36861107Y-44392133D01*
X36882151Y-44379520D01*
X36904329Y-44369030D01*
X36927429Y-44360765D01*
X36951227Y-44354804D01*
X36975496Y-44351204D01*
X37000000Y-44350000D01*
X38300000Y-44350000D01*
X38324504Y-44351204D01*
X38324504Y-44351204D01*
G37*
D14*
X37650000Y-46250000D03*
G04 #@! TD*
D12*
G04 #@! TO.C,J6*
G36*
X43699504Y-25201204D02*
X43723773Y-25204804D01*
X43747571Y-25210765D01*
X43770671Y-25219030D01*
X43792849Y-25229520D01*
X43813893Y-25242133D01*
X43833598Y-25256747D01*
X43851777Y-25273223D01*
X43868253Y-25291402D01*
X43882867Y-25311107D01*
X43895480Y-25332151D01*
X43905970Y-25354329D01*
X43914235Y-25377429D01*
X43920196Y-25401227D01*
X43923796Y-25425496D01*
X43925000Y-25450000D01*
X43925000Y-25950000D01*
X43923796Y-25974504D01*
X43920196Y-25998773D01*
X43914235Y-26022571D01*
X43905970Y-26045671D01*
X43895480Y-26067849D01*
X43882867Y-26088893D01*
X43868253Y-26108598D01*
X43851777Y-26126777D01*
X43833598Y-26143253D01*
X43813893Y-26157867D01*
X43792849Y-26170480D01*
X43770671Y-26180970D01*
X43747571Y-26189235D01*
X43723773Y-26195196D01*
X43699504Y-26198796D01*
X43675000Y-26200000D01*
X41275000Y-26200000D01*
X41250496Y-26198796D01*
X41226227Y-26195196D01*
X41202429Y-26189235D01*
X41179329Y-26180970D01*
X41157151Y-26170480D01*
X41136107Y-26157867D01*
X41116402Y-26143253D01*
X41098223Y-26126777D01*
X41081747Y-26108598D01*
X41067133Y-26088893D01*
X41054520Y-26067849D01*
X41044030Y-26045671D01*
X41035765Y-26022571D01*
X41029804Y-25998773D01*
X41026204Y-25974504D01*
X41025000Y-25950000D01*
X41025000Y-25450000D01*
X41026204Y-25425496D01*
X41029804Y-25401227D01*
X41035765Y-25377429D01*
X41044030Y-25354329D01*
X41054520Y-25332151D01*
X41067133Y-25311107D01*
X41081747Y-25291402D01*
X41098223Y-25273223D01*
X41116402Y-25256747D01*
X41136107Y-25242133D01*
X41157151Y-25229520D01*
X41179329Y-25219030D01*
X41202429Y-25210765D01*
X41226227Y-25204804D01*
X41250496Y-25201204D01*
X41275000Y-25200000D01*
X43675000Y-25200000D01*
X43699504Y-25201204D01*
X43699504Y-25201204D01*
G37*
D13*
X42475000Y-25700000D03*
D12*
G36*
X43699504Y-27201204D02*
X43723773Y-27204804D01*
X43747571Y-27210765D01*
X43770671Y-27219030D01*
X43792849Y-27229520D01*
X43813893Y-27242133D01*
X43833598Y-27256747D01*
X43851777Y-27273223D01*
X43868253Y-27291402D01*
X43882867Y-27311107D01*
X43895480Y-27332151D01*
X43905970Y-27354329D01*
X43914235Y-27377429D01*
X43920196Y-27401227D01*
X43923796Y-27425496D01*
X43925000Y-27450000D01*
X43925000Y-27950000D01*
X43923796Y-27974504D01*
X43920196Y-27998773D01*
X43914235Y-28022571D01*
X43905970Y-28045671D01*
X43895480Y-28067849D01*
X43882867Y-28088893D01*
X43868253Y-28108598D01*
X43851777Y-28126777D01*
X43833598Y-28143253D01*
X43813893Y-28157867D01*
X43792849Y-28170480D01*
X43770671Y-28180970D01*
X43747571Y-28189235D01*
X43723773Y-28195196D01*
X43699504Y-28198796D01*
X43675000Y-28200000D01*
X41275000Y-28200000D01*
X41250496Y-28198796D01*
X41226227Y-28195196D01*
X41202429Y-28189235D01*
X41179329Y-28180970D01*
X41157151Y-28170480D01*
X41136107Y-28157867D01*
X41116402Y-28143253D01*
X41098223Y-28126777D01*
X41081747Y-28108598D01*
X41067133Y-28088893D01*
X41054520Y-28067849D01*
X41044030Y-28045671D01*
X41035765Y-28022571D01*
X41029804Y-27998773D01*
X41026204Y-27974504D01*
X41025000Y-27950000D01*
X41025000Y-27450000D01*
X41026204Y-27425496D01*
X41029804Y-27401227D01*
X41035765Y-27377429D01*
X41044030Y-27354329D01*
X41054520Y-27332151D01*
X41067133Y-27311107D01*
X41081747Y-27291402D01*
X41098223Y-27273223D01*
X41116402Y-27256747D01*
X41136107Y-27242133D01*
X41157151Y-27229520D01*
X41179329Y-27219030D01*
X41202429Y-27210765D01*
X41226227Y-27204804D01*
X41250496Y-27201204D01*
X41275000Y-27200000D01*
X43675000Y-27200000D01*
X43699504Y-27201204D01*
X43699504Y-27201204D01*
G37*
D13*
X42475000Y-27700000D03*
D12*
G36*
X48699504Y-22451204D02*
X48723773Y-22454804D01*
X48747571Y-22460765D01*
X48770671Y-22469030D01*
X48792849Y-22479520D01*
X48813893Y-22492133D01*
X48833598Y-22506747D01*
X48851777Y-22523223D01*
X48868253Y-22541402D01*
X48882867Y-22561107D01*
X48895480Y-22582151D01*
X48905970Y-22604329D01*
X48914235Y-22627429D01*
X48920196Y-22651227D01*
X48923796Y-22675496D01*
X48925000Y-22700000D01*
X48925000Y-24000000D01*
X48923796Y-24024504D01*
X48920196Y-24048773D01*
X48914235Y-24072571D01*
X48905970Y-24095671D01*
X48895480Y-24117849D01*
X48882867Y-24138893D01*
X48868253Y-24158598D01*
X48851777Y-24176777D01*
X48833598Y-24193253D01*
X48813893Y-24207867D01*
X48792849Y-24220480D01*
X48770671Y-24230970D01*
X48747571Y-24239235D01*
X48723773Y-24245196D01*
X48699504Y-24248796D01*
X48675000Y-24250000D01*
X45575000Y-24250000D01*
X45550496Y-24248796D01*
X45526227Y-24245196D01*
X45502429Y-24239235D01*
X45479329Y-24230970D01*
X45457151Y-24220480D01*
X45436107Y-24207867D01*
X45416402Y-24193253D01*
X45398223Y-24176777D01*
X45381747Y-24158598D01*
X45367133Y-24138893D01*
X45354520Y-24117849D01*
X45344030Y-24095671D01*
X45335765Y-24072571D01*
X45329804Y-24048773D01*
X45326204Y-24024504D01*
X45325000Y-24000000D01*
X45325000Y-22700000D01*
X45326204Y-22675496D01*
X45329804Y-22651227D01*
X45335765Y-22627429D01*
X45344030Y-22604329D01*
X45354520Y-22582151D01*
X45367133Y-22561107D01*
X45381747Y-22541402D01*
X45398223Y-22523223D01*
X45416402Y-22506747D01*
X45436107Y-22492133D01*
X45457151Y-22479520D01*
X45479329Y-22469030D01*
X45502429Y-22460765D01*
X45526227Y-22454804D01*
X45550496Y-22451204D01*
X45575000Y-22450000D01*
X48675000Y-22450000D01*
X48699504Y-22451204D01*
X48699504Y-22451204D01*
G37*
D14*
X47125000Y-23350000D03*
D12*
G36*
X48699504Y-29151204D02*
X48723773Y-29154804D01*
X48747571Y-29160765D01*
X48770671Y-29169030D01*
X48792849Y-29179520D01*
X48813893Y-29192133D01*
X48833598Y-29206747D01*
X48851777Y-29223223D01*
X48868253Y-29241402D01*
X48882867Y-29261107D01*
X48895480Y-29282151D01*
X48905970Y-29304329D01*
X48914235Y-29327429D01*
X48920196Y-29351227D01*
X48923796Y-29375496D01*
X48925000Y-29400000D01*
X48925000Y-30700000D01*
X48923796Y-30724504D01*
X48920196Y-30748773D01*
X48914235Y-30772571D01*
X48905970Y-30795671D01*
X48895480Y-30817849D01*
X48882867Y-30838893D01*
X48868253Y-30858598D01*
X48851777Y-30876777D01*
X48833598Y-30893253D01*
X48813893Y-30907867D01*
X48792849Y-30920480D01*
X48770671Y-30930970D01*
X48747571Y-30939235D01*
X48723773Y-30945196D01*
X48699504Y-30948796D01*
X48675000Y-30950000D01*
X45575000Y-30950000D01*
X45550496Y-30948796D01*
X45526227Y-30945196D01*
X45502429Y-30939235D01*
X45479329Y-30930970D01*
X45457151Y-30920480D01*
X45436107Y-30907867D01*
X45416402Y-30893253D01*
X45398223Y-30876777D01*
X45381747Y-30858598D01*
X45367133Y-30838893D01*
X45354520Y-30817849D01*
X45344030Y-30795671D01*
X45335765Y-30772571D01*
X45329804Y-30748773D01*
X45326204Y-30724504D01*
X45325000Y-30700000D01*
X45325000Y-29400000D01*
X45326204Y-29375496D01*
X45329804Y-29351227D01*
X45335765Y-29327429D01*
X45344030Y-29304329D01*
X45354520Y-29282151D01*
X45367133Y-29261107D01*
X45381747Y-29241402D01*
X45398223Y-29223223D01*
X45416402Y-29206747D01*
X45436107Y-29192133D01*
X45457151Y-29179520D01*
X45479329Y-29169030D01*
X45502429Y-29160765D01*
X45526227Y-29154804D01*
X45550496Y-29151204D01*
X45575000Y-29150000D01*
X48675000Y-29150000D01*
X48699504Y-29151204D01*
X48699504Y-29151204D01*
G37*
D14*
X47125000Y-30050000D03*
G04 #@! TD*
D12*
G04 #@! TO.C,J7*
G36*
X48674504Y-20301204D02*
X48698773Y-20304804D01*
X48722571Y-20310765D01*
X48745671Y-20319030D01*
X48767849Y-20329520D01*
X48788893Y-20342133D01*
X48808598Y-20356747D01*
X48826777Y-20373223D01*
X48843253Y-20391402D01*
X48857867Y-20411107D01*
X48870480Y-20432151D01*
X48880970Y-20454329D01*
X48889235Y-20477429D01*
X48895196Y-20501227D01*
X48898796Y-20525496D01*
X48900000Y-20550000D01*
X48900000Y-21850000D01*
X48898796Y-21874504D01*
X48895196Y-21898773D01*
X48889235Y-21922571D01*
X48880970Y-21945671D01*
X48870480Y-21967849D01*
X48857867Y-21988893D01*
X48843253Y-22008598D01*
X48826777Y-22026777D01*
X48808598Y-22043253D01*
X48788893Y-22057867D01*
X48767849Y-22070480D01*
X48745671Y-22080970D01*
X48722571Y-22089235D01*
X48698773Y-22095196D01*
X48674504Y-22098796D01*
X48650000Y-22100000D01*
X45550000Y-22100000D01*
X45525496Y-22098796D01*
X45501227Y-22095196D01*
X45477429Y-22089235D01*
X45454329Y-22080970D01*
X45432151Y-22070480D01*
X45411107Y-22057867D01*
X45391402Y-22043253D01*
X45373223Y-22026777D01*
X45356747Y-22008598D01*
X45342133Y-21988893D01*
X45329520Y-21967849D01*
X45319030Y-21945671D01*
X45310765Y-21922571D01*
X45304804Y-21898773D01*
X45301204Y-21874504D01*
X45300000Y-21850000D01*
X45300000Y-20550000D01*
X45301204Y-20525496D01*
X45304804Y-20501227D01*
X45310765Y-20477429D01*
X45319030Y-20454329D01*
X45329520Y-20432151D01*
X45342133Y-20411107D01*
X45356747Y-20391402D01*
X45373223Y-20373223D01*
X45391402Y-20356747D01*
X45411107Y-20342133D01*
X45432151Y-20329520D01*
X45454329Y-20319030D01*
X45477429Y-20310765D01*
X45501227Y-20304804D01*
X45525496Y-20301204D01*
X45550000Y-20300000D01*
X48650000Y-20300000D01*
X48674504Y-20301204D01*
X48674504Y-20301204D01*
G37*
D14*
X47100000Y-21200000D03*
D12*
G36*
X48674504Y-13601204D02*
X48698773Y-13604804D01*
X48722571Y-13610765D01*
X48745671Y-13619030D01*
X48767849Y-13629520D01*
X48788893Y-13642133D01*
X48808598Y-13656747D01*
X48826777Y-13673223D01*
X48843253Y-13691402D01*
X48857867Y-13711107D01*
X48870480Y-13732151D01*
X48880970Y-13754329D01*
X48889235Y-13777429D01*
X48895196Y-13801227D01*
X48898796Y-13825496D01*
X48900000Y-13850000D01*
X48900000Y-15150000D01*
X48898796Y-15174504D01*
X48895196Y-15198773D01*
X48889235Y-15222571D01*
X48880970Y-15245671D01*
X48870480Y-15267849D01*
X48857867Y-15288893D01*
X48843253Y-15308598D01*
X48826777Y-15326777D01*
X48808598Y-15343253D01*
X48788893Y-15357867D01*
X48767849Y-15370480D01*
X48745671Y-15380970D01*
X48722571Y-15389235D01*
X48698773Y-15395196D01*
X48674504Y-15398796D01*
X48650000Y-15400000D01*
X45550000Y-15400000D01*
X45525496Y-15398796D01*
X45501227Y-15395196D01*
X45477429Y-15389235D01*
X45454329Y-15380970D01*
X45432151Y-15370480D01*
X45411107Y-15357867D01*
X45391402Y-15343253D01*
X45373223Y-15326777D01*
X45356747Y-15308598D01*
X45342133Y-15288893D01*
X45329520Y-15267849D01*
X45319030Y-15245671D01*
X45310765Y-15222571D01*
X45304804Y-15198773D01*
X45301204Y-15174504D01*
X45300000Y-15150000D01*
X45300000Y-13850000D01*
X45301204Y-13825496D01*
X45304804Y-13801227D01*
X45310765Y-13777429D01*
X45319030Y-13754329D01*
X45329520Y-13732151D01*
X45342133Y-13711107D01*
X45356747Y-13691402D01*
X45373223Y-13673223D01*
X45391402Y-13656747D01*
X45411107Y-13642133D01*
X45432151Y-13629520D01*
X45454329Y-13619030D01*
X45477429Y-13610765D01*
X45501227Y-13604804D01*
X45525496Y-13601204D01*
X45550000Y-13600000D01*
X48650000Y-13600000D01*
X48674504Y-13601204D01*
X48674504Y-13601204D01*
G37*
D14*
X47100000Y-14500000D03*
D12*
G36*
X43674504Y-18351204D02*
X43698773Y-18354804D01*
X43722571Y-18360765D01*
X43745671Y-18369030D01*
X43767849Y-18379520D01*
X43788893Y-18392133D01*
X43808598Y-18406747D01*
X43826777Y-18423223D01*
X43843253Y-18441402D01*
X43857867Y-18461107D01*
X43870480Y-18482151D01*
X43880970Y-18504329D01*
X43889235Y-18527429D01*
X43895196Y-18551227D01*
X43898796Y-18575496D01*
X43900000Y-18600000D01*
X43900000Y-19100000D01*
X43898796Y-19124504D01*
X43895196Y-19148773D01*
X43889235Y-19172571D01*
X43880970Y-19195671D01*
X43870480Y-19217849D01*
X43857867Y-19238893D01*
X43843253Y-19258598D01*
X43826777Y-19276777D01*
X43808598Y-19293253D01*
X43788893Y-19307867D01*
X43767849Y-19320480D01*
X43745671Y-19330970D01*
X43722571Y-19339235D01*
X43698773Y-19345196D01*
X43674504Y-19348796D01*
X43650000Y-19350000D01*
X41250000Y-19350000D01*
X41225496Y-19348796D01*
X41201227Y-19345196D01*
X41177429Y-19339235D01*
X41154329Y-19330970D01*
X41132151Y-19320480D01*
X41111107Y-19307867D01*
X41091402Y-19293253D01*
X41073223Y-19276777D01*
X41056747Y-19258598D01*
X41042133Y-19238893D01*
X41029520Y-19217849D01*
X41019030Y-19195671D01*
X41010765Y-19172571D01*
X41004804Y-19148773D01*
X41001204Y-19124504D01*
X41000000Y-19100000D01*
X41000000Y-18600000D01*
X41001204Y-18575496D01*
X41004804Y-18551227D01*
X41010765Y-18527429D01*
X41019030Y-18504329D01*
X41029520Y-18482151D01*
X41042133Y-18461107D01*
X41056747Y-18441402D01*
X41073223Y-18423223D01*
X41091402Y-18406747D01*
X41111107Y-18392133D01*
X41132151Y-18379520D01*
X41154329Y-18369030D01*
X41177429Y-18360765D01*
X41201227Y-18354804D01*
X41225496Y-18351204D01*
X41250000Y-18350000D01*
X43650000Y-18350000D01*
X43674504Y-18351204D01*
X43674504Y-18351204D01*
G37*
D13*
X42450000Y-18850000D03*
D12*
G36*
X43674504Y-16351204D02*
X43698773Y-16354804D01*
X43722571Y-16360765D01*
X43745671Y-16369030D01*
X43767849Y-16379520D01*
X43788893Y-16392133D01*
X43808598Y-16406747D01*
X43826777Y-16423223D01*
X43843253Y-16441402D01*
X43857867Y-16461107D01*
X43870480Y-16482151D01*
X43880970Y-16504329D01*
X43889235Y-16527429D01*
X43895196Y-16551227D01*
X43898796Y-16575496D01*
X43900000Y-16600000D01*
X43900000Y-17100000D01*
X43898796Y-17124504D01*
X43895196Y-17148773D01*
X43889235Y-17172571D01*
X43880970Y-17195671D01*
X43870480Y-17217849D01*
X43857867Y-17238893D01*
X43843253Y-17258598D01*
X43826777Y-17276777D01*
X43808598Y-17293253D01*
X43788893Y-17307867D01*
X43767849Y-17320480D01*
X43745671Y-17330970D01*
X43722571Y-17339235D01*
X43698773Y-17345196D01*
X43674504Y-17348796D01*
X43650000Y-17350000D01*
X41250000Y-17350000D01*
X41225496Y-17348796D01*
X41201227Y-17345196D01*
X41177429Y-17339235D01*
X41154329Y-17330970D01*
X41132151Y-17320480D01*
X41111107Y-17307867D01*
X41091402Y-17293253D01*
X41073223Y-17276777D01*
X41056747Y-17258598D01*
X41042133Y-17238893D01*
X41029520Y-17217849D01*
X41019030Y-17195671D01*
X41010765Y-17172571D01*
X41004804Y-17148773D01*
X41001204Y-17124504D01*
X41000000Y-17100000D01*
X41000000Y-16600000D01*
X41001204Y-16575496D01*
X41004804Y-16551227D01*
X41010765Y-16527429D01*
X41019030Y-16504329D01*
X41029520Y-16482151D01*
X41042133Y-16461107D01*
X41056747Y-16441402D01*
X41073223Y-16423223D01*
X41091402Y-16406747D01*
X41111107Y-16392133D01*
X41132151Y-16379520D01*
X41154329Y-16369030D01*
X41177429Y-16360765D01*
X41201227Y-16354804D01*
X41225496Y-16351204D01*
X41250000Y-16350000D01*
X43650000Y-16350000D01*
X43674504Y-16351204D01*
X43674504Y-16351204D01*
G37*
D13*
X42450000Y-16850000D03*
G04 #@! TD*
D18*
G04 #@! TO.C,L1*
X20800000Y-11500000D03*
X30700000Y-11500000D03*
G04 #@! TD*
D19*
G04 #@! TO.C,Q1*
X15890000Y-8810000D03*
X15890000Y-7590000D03*
X14940000Y-8810000D03*
X14940000Y-7590000D03*
D20*
X14360000Y-9170000D03*
X14360000Y-8530000D03*
X14360000Y-7870000D03*
X14360000Y-7230000D03*
X17240000Y-7230000D03*
X17240000Y-7870000D03*
X17240000Y-8530000D03*
X17240000Y-9170000D03*
G04 #@! TD*
G04 #@! TO.C,Q2*
X14260000Y-11330000D03*
X14260000Y-11970000D03*
X14260000Y-12630000D03*
X14260000Y-13270000D03*
X17140000Y-13270000D03*
X17140000Y-12630000D03*
X17140000Y-11970000D03*
X17140000Y-11330000D03*
D19*
X16560000Y-12910000D03*
X16560000Y-11690000D03*
X15610000Y-12910000D03*
X15610000Y-11690000D03*
G04 #@! TD*
G04 #@! TO.C,Q4*
X40650000Y-10880000D03*
X40650000Y-12100000D03*
X41600000Y-10880000D03*
X41600000Y-12100000D03*
D20*
X42180000Y-10520000D03*
X42180000Y-11160000D03*
X42180000Y-11820000D03*
X42180000Y-12460000D03*
X39300000Y-12460000D03*
X39300000Y-11820000D03*
X39300000Y-11160000D03*
X39300000Y-10520000D03*
G04 #@! TD*
D12*
G04 #@! TO.C,R2*
G36*
X8386958Y-12135710D02*
X8401276Y-12137834D01*
X8415317Y-12141351D01*
X8428946Y-12146228D01*
X8442031Y-12152417D01*
X8454447Y-12159858D01*
X8466073Y-12168481D01*
X8476798Y-12178202D01*
X8486519Y-12188927D01*
X8495142Y-12200553D01*
X8502583Y-12212969D01*
X8508772Y-12226054D01*
X8513649Y-12239683D01*
X8517166Y-12253724D01*
X8519290Y-12268042D01*
X8520000Y-12282500D01*
X8520000Y-12577500D01*
X8519290Y-12591958D01*
X8517166Y-12606276D01*
X8513649Y-12620317D01*
X8508772Y-12633946D01*
X8502583Y-12647031D01*
X8495142Y-12659447D01*
X8486519Y-12671073D01*
X8476798Y-12681798D01*
X8466073Y-12691519D01*
X8454447Y-12700142D01*
X8442031Y-12707583D01*
X8428946Y-12713772D01*
X8415317Y-12718649D01*
X8401276Y-12722166D01*
X8386958Y-12724290D01*
X8372500Y-12725000D01*
X8027500Y-12725000D01*
X8013042Y-12724290D01*
X7998724Y-12722166D01*
X7984683Y-12718649D01*
X7971054Y-12713772D01*
X7957969Y-12707583D01*
X7945553Y-12700142D01*
X7933927Y-12691519D01*
X7923202Y-12681798D01*
X7913481Y-12671073D01*
X7904858Y-12659447D01*
X7897417Y-12647031D01*
X7891228Y-12633946D01*
X7886351Y-12620317D01*
X7882834Y-12606276D01*
X7880710Y-12591958D01*
X7880000Y-12577500D01*
X7880000Y-12282500D01*
X7880710Y-12268042D01*
X7882834Y-12253724D01*
X7886351Y-12239683D01*
X7891228Y-12226054D01*
X7897417Y-12212969D01*
X7904858Y-12200553D01*
X7913481Y-12188927D01*
X7923202Y-12178202D01*
X7933927Y-12168481D01*
X7945553Y-12159858D01*
X7957969Y-12152417D01*
X7971054Y-12146228D01*
X7984683Y-12141351D01*
X7998724Y-12137834D01*
X8013042Y-12135710D01*
X8027500Y-12135000D01*
X8372500Y-12135000D01*
X8386958Y-12135710D01*
X8386958Y-12135710D01*
G37*
D16*
X8200000Y-12430000D03*
D12*
G36*
X8386958Y-13105710D02*
X8401276Y-13107834D01*
X8415317Y-13111351D01*
X8428946Y-13116228D01*
X8442031Y-13122417D01*
X8454447Y-13129858D01*
X8466073Y-13138481D01*
X8476798Y-13148202D01*
X8486519Y-13158927D01*
X8495142Y-13170553D01*
X8502583Y-13182969D01*
X8508772Y-13196054D01*
X8513649Y-13209683D01*
X8517166Y-13223724D01*
X8519290Y-13238042D01*
X8520000Y-13252500D01*
X8520000Y-13547500D01*
X8519290Y-13561958D01*
X8517166Y-13576276D01*
X8513649Y-13590317D01*
X8508772Y-13603946D01*
X8502583Y-13617031D01*
X8495142Y-13629447D01*
X8486519Y-13641073D01*
X8476798Y-13651798D01*
X8466073Y-13661519D01*
X8454447Y-13670142D01*
X8442031Y-13677583D01*
X8428946Y-13683772D01*
X8415317Y-13688649D01*
X8401276Y-13692166D01*
X8386958Y-13694290D01*
X8372500Y-13695000D01*
X8027500Y-13695000D01*
X8013042Y-13694290D01*
X7998724Y-13692166D01*
X7984683Y-13688649D01*
X7971054Y-13683772D01*
X7957969Y-13677583D01*
X7945553Y-13670142D01*
X7933927Y-13661519D01*
X7923202Y-13651798D01*
X7913481Y-13641073D01*
X7904858Y-13629447D01*
X7897417Y-13617031D01*
X7891228Y-13603946D01*
X7886351Y-13590317D01*
X7882834Y-13576276D01*
X7880710Y-13561958D01*
X7880000Y-13547500D01*
X7880000Y-13252500D01*
X7880710Y-13238042D01*
X7882834Y-13223724D01*
X7886351Y-13209683D01*
X7891228Y-13196054D01*
X7897417Y-13182969D01*
X7904858Y-13170553D01*
X7913481Y-13158927D01*
X7923202Y-13148202D01*
X7933927Y-13138481D01*
X7945553Y-13129858D01*
X7957969Y-13122417D01*
X7971054Y-13116228D01*
X7984683Y-13111351D01*
X7998724Y-13107834D01*
X8013042Y-13105710D01*
X8027500Y-13105000D01*
X8372500Y-13105000D01*
X8386958Y-13105710D01*
X8386958Y-13105710D01*
G37*
D16*
X8200000Y-13400000D03*
G04 #@! TD*
D12*
G04 #@! TO.C,R3*
G36*
X7286958Y-13105710D02*
X7301276Y-13107834D01*
X7315317Y-13111351D01*
X7328946Y-13116228D01*
X7342031Y-13122417D01*
X7354447Y-13129858D01*
X7366073Y-13138481D01*
X7376798Y-13148202D01*
X7386519Y-13158927D01*
X7395142Y-13170553D01*
X7402583Y-13182969D01*
X7408772Y-13196054D01*
X7413649Y-13209683D01*
X7417166Y-13223724D01*
X7419290Y-13238042D01*
X7420000Y-13252500D01*
X7420000Y-13547500D01*
X7419290Y-13561958D01*
X7417166Y-13576276D01*
X7413649Y-13590317D01*
X7408772Y-13603946D01*
X7402583Y-13617031D01*
X7395142Y-13629447D01*
X7386519Y-13641073D01*
X7376798Y-13651798D01*
X7366073Y-13661519D01*
X7354447Y-13670142D01*
X7342031Y-13677583D01*
X7328946Y-13683772D01*
X7315317Y-13688649D01*
X7301276Y-13692166D01*
X7286958Y-13694290D01*
X7272500Y-13695000D01*
X6927500Y-13695000D01*
X6913042Y-13694290D01*
X6898724Y-13692166D01*
X6884683Y-13688649D01*
X6871054Y-13683772D01*
X6857969Y-13677583D01*
X6845553Y-13670142D01*
X6833927Y-13661519D01*
X6823202Y-13651798D01*
X6813481Y-13641073D01*
X6804858Y-13629447D01*
X6797417Y-13617031D01*
X6791228Y-13603946D01*
X6786351Y-13590317D01*
X6782834Y-13576276D01*
X6780710Y-13561958D01*
X6780000Y-13547500D01*
X6780000Y-13252500D01*
X6780710Y-13238042D01*
X6782834Y-13223724D01*
X6786351Y-13209683D01*
X6791228Y-13196054D01*
X6797417Y-13182969D01*
X6804858Y-13170553D01*
X6813481Y-13158927D01*
X6823202Y-13148202D01*
X6833927Y-13138481D01*
X6845553Y-13129858D01*
X6857969Y-13122417D01*
X6871054Y-13116228D01*
X6884683Y-13111351D01*
X6898724Y-13107834D01*
X6913042Y-13105710D01*
X6927500Y-13105000D01*
X7272500Y-13105000D01*
X7286958Y-13105710D01*
X7286958Y-13105710D01*
G37*
D16*
X7100000Y-13400000D03*
D12*
G36*
X7286958Y-12135710D02*
X7301276Y-12137834D01*
X7315317Y-12141351D01*
X7328946Y-12146228D01*
X7342031Y-12152417D01*
X7354447Y-12159858D01*
X7366073Y-12168481D01*
X7376798Y-12178202D01*
X7386519Y-12188927D01*
X7395142Y-12200553D01*
X7402583Y-12212969D01*
X7408772Y-12226054D01*
X7413649Y-12239683D01*
X7417166Y-12253724D01*
X7419290Y-12268042D01*
X7420000Y-12282500D01*
X7420000Y-12577500D01*
X7419290Y-12591958D01*
X7417166Y-12606276D01*
X7413649Y-12620317D01*
X7408772Y-12633946D01*
X7402583Y-12647031D01*
X7395142Y-12659447D01*
X7386519Y-12671073D01*
X7376798Y-12681798D01*
X7366073Y-12691519D01*
X7354447Y-12700142D01*
X7342031Y-12707583D01*
X7328946Y-12713772D01*
X7315317Y-12718649D01*
X7301276Y-12722166D01*
X7286958Y-12724290D01*
X7272500Y-12725000D01*
X6927500Y-12725000D01*
X6913042Y-12724290D01*
X6898724Y-12722166D01*
X6884683Y-12718649D01*
X6871054Y-12713772D01*
X6857969Y-12707583D01*
X6845553Y-12700142D01*
X6833927Y-12691519D01*
X6823202Y-12681798D01*
X6813481Y-12671073D01*
X6804858Y-12659447D01*
X6797417Y-12647031D01*
X6791228Y-12633946D01*
X6786351Y-12620317D01*
X6782834Y-12606276D01*
X6780710Y-12591958D01*
X6780000Y-12577500D01*
X6780000Y-12282500D01*
X6780710Y-12268042D01*
X6782834Y-12253724D01*
X6786351Y-12239683D01*
X6791228Y-12226054D01*
X6797417Y-12212969D01*
X6804858Y-12200553D01*
X6813481Y-12188927D01*
X6823202Y-12178202D01*
X6833927Y-12168481D01*
X6845553Y-12159858D01*
X6857969Y-12152417D01*
X6871054Y-12146228D01*
X6884683Y-12141351D01*
X6898724Y-12137834D01*
X6913042Y-12135710D01*
X6927500Y-12135000D01*
X7272500Y-12135000D01*
X7286958Y-12135710D01*
X7286958Y-12135710D01*
G37*
D16*
X7100000Y-12430000D03*
G04 #@! TD*
D12*
G04 #@! TO.C,R5*
G36*
X10191958Y-28980710D02*
X10206276Y-28982834D01*
X10220317Y-28986351D01*
X10233946Y-28991228D01*
X10247031Y-28997417D01*
X10259447Y-29004858D01*
X10271073Y-29013481D01*
X10281798Y-29023202D01*
X10291519Y-29033927D01*
X10300142Y-29045553D01*
X10307583Y-29057969D01*
X10313772Y-29071054D01*
X10318649Y-29084683D01*
X10322166Y-29098724D01*
X10324290Y-29113042D01*
X10325000Y-29127500D01*
X10325000Y-29472500D01*
X10324290Y-29486958D01*
X10322166Y-29501276D01*
X10318649Y-29515317D01*
X10313772Y-29528946D01*
X10307583Y-29542031D01*
X10300142Y-29554447D01*
X10291519Y-29566073D01*
X10281798Y-29576798D01*
X10271073Y-29586519D01*
X10259447Y-29595142D01*
X10247031Y-29602583D01*
X10233946Y-29608772D01*
X10220317Y-29613649D01*
X10206276Y-29617166D01*
X10191958Y-29619290D01*
X10177500Y-29620000D01*
X9882500Y-29620000D01*
X9868042Y-29619290D01*
X9853724Y-29617166D01*
X9839683Y-29613649D01*
X9826054Y-29608772D01*
X9812969Y-29602583D01*
X9800553Y-29595142D01*
X9788927Y-29586519D01*
X9778202Y-29576798D01*
X9768481Y-29566073D01*
X9759858Y-29554447D01*
X9752417Y-29542031D01*
X9746228Y-29528946D01*
X9741351Y-29515317D01*
X9737834Y-29501276D01*
X9735710Y-29486958D01*
X9735000Y-29472500D01*
X9735000Y-29127500D01*
X9735710Y-29113042D01*
X9737834Y-29098724D01*
X9741351Y-29084683D01*
X9746228Y-29071054D01*
X9752417Y-29057969D01*
X9759858Y-29045553D01*
X9768481Y-29033927D01*
X9778202Y-29023202D01*
X9788927Y-29013481D01*
X9800553Y-29004858D01*
X9812969Y-28997417D01*
X9826054Y-28991228D01*
X9839683Y-28986351D01*
X9853724Y-28982834D01*
X9868042Y-28980710D01*
X9882500Y-28980000D01*
X10177500Y-28980000D01*
X10191958Y-28980710D01*
X10191958Y-28980710D01*
G37*
D16*
X10030000Y-29300000D03*
D12*
G36*
X11161958Y-28980710D02*
X11176276Y-28982834D01*
X11190317Y-28986351D01*
X11203946Y-28991228D01*
X11217031Y-28997417D01*
X11229447Y-29004858D01*
X11241073Y-29013481D01*
X11251798Y-29023202D01*
X11261519Y-29033927D01*
X11270142Y-29045553D01*
X11277583Y-29057969D01*
X11283772Y-29071054D01*
X11288649Y-29084683D01*
X11292166Y-29098724D01*
X11294290Y-29113042D01*
X11295000Y-29127500D01*
X11295000Y-29472500D01*
X11294290Y-29486958D01*
X11292166Y-29501276D01*
X11288649Y-29515317D01*
X11283772Y-29528946D01*
X11277583Y-29542031D01*
X11270142Y-29554447D01*
X11261519Y-29566073D01*
X11251798Y-29576798D01*
X11241073Y-29586519D01*
X11229447Y-29595142D01*
X11217031Y-29602583D01*
X11203946Y-29608772D01*
X11190317Y-29613649D01*
X11176276Y-29617166D01*
X11161958Y-29619290D01*
X11147500Y-29620000D01*
X10852500Y-29620000D01*
X10838042Y-29619290D01*
X10823724Y-29617166D01*
X10809683Y-29613649D01*
X10796054Y-29608772D01*
X10782969Y-29602583D01*
X10770553Y-29595142D01*
X10758927Y-29586519D01*
X10748202Y-29576798D01*
X10738481Y-29566073D01*
X10729858Y-29554447D01*
X10722417Y-29542031D01*
X10716228Y-29528946D01*
X10711351Y-29515317D01*
X10707834Y-29501276D01*
X10705710Y-29486958D01*
X10705000Y-29472500D01*
X10705000Y-29127500D01*
X10705710Y-29113042D01*
X10707834Y-29098724D01*
X10711351Y-29084683D01*
X10716228Y-29071054D01*
X10722417Y-29057969D01*
X10729858Y-29045553D01*
X10738481Y-29033927D01*
X10748202Y-29023202D01*
X10758927Y-29013481D01*
X10770553Y-29004858D01*
X10782969Y-28997417D01*
X10796054Y-28991228D01*
X10809683Y-28986351D01*
X10823724Y-28982834D01*
X10838042Y-28980710D01*
X10852500Y-28980000D01*
X11147500Y-28980000D01*
X11161958Y-28980710D01*
X11161958Y-28980710D01*
G37*
D16*
X11000000Y-29300000D03*
G04 #@! TD*
D12*
G04 #@! TO.C,R8*
G36*
X17786958Y-32135710D02*
X17801276Y-32137834D01*
X17815317Y-32141351D01*
X17828946Y-32146228D01*
X17842031Y-32152417D01*
X17854447Y-32159858D01*
X17866073Y-32168481D01*
X17876798Y-32178202D01*
X17886519Y-32188927D01*
X17895142Y-32200553D01*
X17902583Y-32212969D01*
X17908772Y-32226054D01*
X17913649Y-32239683D01*
X17917166Y-32253724D01*
X17919290Y-32268042D01*
X17920000Y-32282500D01*
X17920000Y-32577500D01*
X17919290Y-32591958D01*
X17917166Y-32606276D01*
X17913649Y-32620317D01*
X17908772Y-32633946D01*
X17902583Y-32647031D01*
X17895142Y-32659447D01*
X17886519Y-32671073D01*
X17876798Y-32681798D01*
X17866073Y-32691519D01*
X17854447Y-32700142D01*
X17842031Y-32707583D01*
X17828946Y-32713772D01*
X17815317Y-32718649D01*
X17801276Y-32722166D01*
X17786958Y-32724290D01*
X17772500Y-32725000D01*
X17427500Y-32725000D01*
X17413042Y-32724290D01*
X17398724Y-32722166D01*
X17384683Y-32718649D01*
X17371054Y-32713772D01*
X17357969Y-32707583D01*
X17345553Y-32700142D01*
X17333927Y-32691519D01*
X17323202Y-32681798D01*
X17313481Y-32671073D01*
X17304858Y-32659447D01*
X17297417Y-32647031D01*
X17291228Y-32633946D01*
X17286351Y-32620317D01*
X17282834Y-32606276D01*
X17280710Y-32591958D01*
X17280000Y-32577500D01*
X17280000Y-32282500D01*
X17280710Y-32268042D01*
X17282834Y-32253724D01*
X17286351Y-32239683D01*
X17291228Y-32226054D01*
X17297417Y-32212969D01*
X17304858Y-32200553D01*
X17313481Y-32188927D01*
X17323202Y-32178202D01*
X17333927Y-32168481D01*
X17345553Y-32159858D01*
X17357969Y-32152417D01*
X17371054Y-32146228D01*
X17384683Y-32141351D01*
X17398724Y-32137834D01*
X17413042Y-32135710D01*
X17427500Y-32135000D01*
X17772500Y-32135000D01*
X17786958Y-32135710D01*
X17786958Y-32135710D01*
G37*
D16*
X17600000Y-32430000D03*
D12*
G36*
X17786958Y-33105710D02*
X17801276Y-33107834D01*
X17815317Y-33111351D01*
X17828946Y-33116228D01*
X17842031Y-33122417D01*
X17854447Y-33129858D01*
X17866073Y-33138481D01*
X17876798Y-33148202D01*
X17886519Y-33158927D01*
X17895142Y-33170553D01*
X17902583Y-33182969D01*
X17908772Y-33196054D01*
X17913649Y-33209683D01*
X17917166Y-33223724D01*
X17919290Y-33238042D01*
X17920000Y-33252500D01*
X17920000Y-33547500D01*
X17919290Y-33561958D01*
X17917166Y-33576276D01*
X17913649Y-33590317D01*
X17908772Y-33603946D01*
X17902583Y-33617031D01*
X17895142Y-33629447D01*
X17886519Y-33641073D01*
X17876798Y-33651798D01*
X17866073Y-33661519D01*
X17854447Y-33670142D01*
X17842031Y-33677583D01*
X17828946Y-33683772D01*
X17815317Y-33688649D01*
X17801276Y-33692166D01*
X17786958Y-33694290D01*
X17772500Y-33695000D01*
X17427500Y-33695000D01*
X17413042Y-33694290D01*
X17398724Y-33692166D01*
X17384683Y-33688649D01*
X17371054Y-33683772D01*
X17357969Y-33677583D01*
X17345553Y-33670142D01*
X17333927Y-33661519D01*
X17323202Y-33651798D01*
X17313481Y-33641073D01*
X17304858Y-33629447D01*
X17297417Y-33617031D01*
X17291228Y-33603946D01*
X17286351Y-33590317D01*
X17282834Y-33576276D01*
X17280710Y-33561958D01*
X17280000Y-33547500D01*
X17280000Y-33252500D01*
X17280710Y-33238042D01*
X17282834Y-33223724D01*
X17286351Y-33209683D01*
X17291228Y-33196054D01*
X17297417Y-33182969D01*
X17304858Y-33170553D01*
X17313481Y-33158927D01*
X17323202Y-33148202D01*
X17333927Y-33138481D01*
X17345553Y-33129858D01*
X17357969Y-33122417D01*
X17371054Y-33116228D01*
X17384683Y-33111351D01*
X17398724Y-33107834D01*
X17413042Y-33105710D01*
X17427500Y-33105000D01*
X17772500Y-33105000D01*
X17786958Y-33105710D01*
X17786958Y-33105710D01*
G37*
D16*
X17600000Y-33400000D03*
G04 #@! TD*
D12*
G04 #@! TO.C,R10*
G36*
X16786958Y-32690710D02*
X16801276Y-32692834D01*
X16815317Y-32696351D01*
X16828946Y-32701228D01*
X16842031Y-32707417D01*
X16854447Y-32714858D01*
X16866073Y-32723481D01*
X16876798Y-32733202D01*
X16886519Y-32743927D01*
X16895142Y-32755553D01*
X16902583Y-32767969D01*
X16908772Y-32781054D01*
X16913649Y-32794683D01*
X16917166Y-32808724D01*
X16919290Y-32823042D01*
X16920000Y-32837500D01*
X16920000Y-33132500D01*
X16919290Y-33146958D01*
X16917166Y-33161276D01*
X16913649Y-33175317D01*
X16908772Y-33188946D01*
X16902583Y-33202031D01*
X16895142Y-33214447D01*
X16886519Y-33226073D01*
X16876798Y-33236798D01*
X16866073Y-33246519D01*
X16854447Y-33255142D01*
X16842031Y-33262583D01*
X16828946Y-33268772D01*
X16815317Y-33273649D01*
X16801276Y-33277166D01*
X16786958Y-33279290D01*
X16772500Y-33280000D01*
X16427500Y-33280000D01*
X16413042Y-33279290D01*
X16398724Y-33277166D01*
X16384683Y-33273649D01*
X16371054Y-33268772D01*
X16357969Y-33262583D01*
X16345553Y-33255142D01*
X16333927Y-33246519D01*
X16323202Y-33236798D01*
X16313481Y-33226073D01*
X16304858Y-33214447D01*
X16297417Y-33202031D01*
X16291228Y-33188946D01*
X16286351Y-33175317D01*
X16282834Y-33161276D01*
X16280710Y-33146958D01*
X16280000Y-33132500D01*
X16280000Y-32837500D01*
X16280710Y-32823042D01*
X16282834Y-32808724D01*
X16286351Y-32794683D01*
X16291228Y-32781054D01*
X16297417Y-32767969D01*
X16304858Y-32755553D01*
X16313481Y-32743927D01*
X16323202Y-32733202D01*
X16333927Y-32723481D01*
X16345553Y-32714858D01*
X16357969Y-32707417D01*
X16371054Y-32701228D01*
X16384683Y-32696351D01*
X16398724Y-32692834D01*
X16413042Y-32690710D01*
X16427500Y-32690000D01*
X16772500Y-32690000D01*
X16786958Y-32690710D01*
X16786958Y-32690710D01*
G37*
D16*
X16600000Y-32985000D03*
D12*
G36*
X16786958Y-31720710D02*
X16801276Y-31722834D01*
X16815317Y-31726351D01*
X16828946Y-31731228D01*
X16842031Y-31737417D01*
X16854447Y-31744858D01*
X16866073Y-31753481D01*
X16876798Y-31763202D01*
X16886519Y-31773927D01*
X16895142Y-31785553D01*
X16902583Y-31797969D01*
X16908772Y-31811054D01*
X16913649Y-31824683D01*
X16917166Y-31838724D01*
X16919290Y-31853042D01*
X16920000Y-31867500D01*
X16920000Y-32162500D01*
X16919290Y-32176958D01*
X16917166Y-32191276D01*
X16913649Y-32205317D01*
X16908772Y-32218946D01*
X16902583Y-32232031D01*
X16895142Y-32244447D01*
X16886519Y-32256073D01*
X16876798Y-32266798D01*
X16866073Y-32276519D01*
X16854447Y-32285142D01*
X16842031Y-32292583D01*
X16828946Y-32298772D01*
X16815317Y-32303649D01*
X16801276Y-32307166D01*
X16786958Y-32309290D01*
X16772500Y-32310000D01*
X16427500Y-32310000D01*
X16413042Y-32309290D01*
X16398724Y-32307166D01*
X16384683Y-32303649D01*
X16371054Y-32298772D01*
X16357969Y-32292583D01*
X16345553Y-32285142D01*
X16333927Y-32276519D01*
X16323202Y-32266798D01*
X16313481Y-32256073D01*
X16304858Y-32244447D01*
X16297417Y-32232031D01*
X16291228Y-32218946D01*
X16286351Y-32205317D01*
X16282834Y-32191276D01*
X16280710Y-32176958D01*
X16280000Y-32162500D01*
X16280000Y-31867500D01*
X16280710Y-31853042D01*
X16282834Y-31838724D01*
X16286351Y-31824683D01*
X16291228Y-31811054D01*
X16297417Y-31797969D01*
X16304858Y-31785553D01*
X16313481Y-31773927D01*
X16323202Y-31763202D01*
X16333927Y-31753481D01*
X16345553Y-31744858D01*
X16357969Y-31737417D01*
X16371054Y-31731228D01*
X16384683Y-31726351D01*
X16398724Y-31722834D01*
X16413042Y-31720710D01*
X16427500Y-31720000D01*
X16772500Y-31720000D01*
X16786958Y-31720710D01*
X16786958Y-31720710D01*
G37*
D16*
X16600000Y-32015000D03*
G04 #@! TD*
D12*
G04 #@! TO.C,R25*
G36*
X6096958Y-34030710D02*
X6111276Y-34032834D01*
X6125317Y-34036351D01*
X6138946Y-34041228D01*
X6152031Y-34047417D01*
X6164447Y-34054858D01*
X6176073Y-34063481D01*
X6186798Y-34073202D01*
X6196519Y-34083927D01*
X6205142Y-34095553D01*
X6212583Y-34107969D01*
X6218772Y-34121054D01*
X6223649Y-34134683D01*
X6227166Y-34148724D01*
X6229290Y-34163042D01*
X6230000Y-34177500D01*
X6230000Y-34522500D01*
X6229290Y-34536958D01*
X6227166Y-34551276D01*
X6223649Y-34565317D01*
X6218772Y-34578946D01*
X6212583Y-34592031D01*
X6205142Y-34604447D01*
X6196519Y-34616073D01*
X6186798Y-34626798D01*
X6176073Y-34636519D01*
X6164447Y-34645142D01*
X6152031Y-34652583D01*
X6138946Y-34658772D01*
X6125317Y-34663649D01*
X6111276Y-34667166D01*
X6096958Y-34669290D01*
X6082500Y-34670000D01*
X5787500Y-34670000D01*
X5773042Y-34669290D01*
X5758724Y-34667166D01*
X5744683Y-34663649D01*
X5731054Y-34658772D01*
X5717969Y-34652583D01*
X5705553Y-34645142D01*
X5693927Y-34636519D01*
X5683202Y-34626798D01*
X5673481Y-34616073D01*
X5664858Y-34604447D01*
X5657417Y-34592031D01*
X5651228Y-34578946D01*
X5646351Y-34565317D01*
X5642834Y-34551276D01*
X5640710Y-34536958D01*
X5640000Y-34522500D01*
X5640000Y-34177500D01*
X5640710Y-34163042D01*
X5642834Y-34148724D01*
X5646351Y-34134683D01*
X5651228Y-34121054D01*
X5657417Y-34107969D01*
X5664858Y-34095553D01*
X5673481Y-34083927D01*
X5683202Y-34073202D01*
X5693927Y-34063481D01*
X5705553Y-34054858D01*
X5717969Y-34047417D01*
X5731054Y-34041228D01*
X5744683Y-34036351D01*
X5758724Y-34032834D01*
X5773042Y-34030710D01*
X5787500Y-34030000D01*
X6082500Y-34030000D01*
X6096958Y-34030710D01*
X6096958Y-34030710D01*
G37*
D16*
X5935000Y-34350000D03*
D12*
G36*
X5126958Y-34030710D02*
X5141276Y-34032834D01*
X5155317Y-34036351D01*
X5168946Y-34041228D01*
X5182031Y-34047417D01*
X5194447Y-34054858D01*
X5206073Y-34063481D01*
X5216798Y-34073202D01*
X5226519Y-34083927D01*
X5235142Y-34095553D01*
X5242583Y-34107969D01*
X5248772Y-34121054D01*
X5253649Y-34134683D01*
X5257166Y-34148724D01*
X5259290Y-34163042D01*
X5260000Y-34177500D01*
X5260000Y-34522500D01*
X5259290Y-34536958D01*
X5257166Y-34551276D01*
X5253649Y-34565317D01*
X5248772Y-34578946D01*
X5242583Y-34592031D01*
X5235142Y-34604447D01*
X5226519Y-34616073D01*
X5216798Y-34626798D01*
X5206073Y-34636519D01*
X5194447Y-34645142D01*
X5182031Y-34652583D01*
X5168946Y-34658772D01*
X5155317Y-34663649D01*
X5141276Y-34667166D01*
X5126958Y-34669290D01*
X5112500Y-34670000D01*
X4817500Y-34670000D01*
X4803042Y-34669290D01*
X4788724Y-34667166D01*
X4774683Y-34663649D01*
X4761054Y-34658772D01*
X4747969Y-34652583D01*
X4735553Y-34645142D01*
X4723927Y-34636519D01*
X4713202Y-34626798D01*
X4703481Y-34616073D01*
X4694858Y-34604447D01*
X4687417Y-34592031D01*
X4681228Y-34578946D01*
X4676351Y-34565317D01*
X4672834Y-34551276D01*
X4670710Y-34536958D01*
X4670000Y-34522500D01*
X4670000Y-34177500D01*
X4670710Y-34163042D01*
X4672834Y-34148724D01*
X4676351Y-34134683D01*
X4681228Y-34121054D01*
X4687417Y-34107969D01*
X4694858Y-34095553D01*
X4703481Y-34083927D01*
X4713202Y-34073202D01*
X4723927Y-34063481D01*
X4735553Y-34054858D01*
X4747969Y-34047417D01*
X4761054Y-34041228D01*
X4774683Y-34036351D01*
X4788724Y-34032834D01*
X4803042Y-34030710D01*
X4817500Y-34030000D01*
X5112500Y-34030000D01*
X5126958Y-34030710D01*
X5126958Y-34030710D01*
G37*
D16*
X4965000Y-34350000D03*
G04 #@! TD*
D12*
G04 #@! TO.C,R26*
G36*
X6096958Y-32530710D02*
X6111276Y-32532834D01*
X6125317Y-32536351D01*
X6138946Y-32541228D01*
X6152031Y-32547417D01*
X6164447Y-32554858D01*
X6176073Y-32563481D01*
X6186798Y-32573202D01*
X6196519Y-32583927D01*
X6205142Y-32595553D01*
X6212583Y-32607969D01*
X6218772Y-32621054D01*
X6223649Y-32634683D01*
X6227166Y-32648724D01*
X6229290Y-32663042D01*
X6230000Y-32677500D01*
X6230000Y-33022500D01*
X6229290Y-33036958D01*
X6227166Y-33051276D01*
X6223649Y-33065317D01*
X6218772Y-33078946D01*
X6212583Y-33092031D01*
X6205142Y-33104447D01*
X6196519Y-33116073D01*
X6186798Y-33126798D01*
X6176073Y-33136519D01*
X6164447Y-33145142D01*
X6152031Y-33152583D01*
X6138946Y-33158772D01*
X6125317Y-33163649D01*
X6111276Y-33167166D01*
X6096958Y-33169290D01*
X6082500Y-33170000D01*
X5787500Y-33170000D01*
X5773042Y-33169290D01*
X5758724Y-33167166D01*
X5744683Y-33163649D01*
X5731054Y-33158772D01*
X5717969Y-33152583D01*
X5705553Y-33145142D01*
X5693927Y-33136519D01*
X5683202Y-33126798D01*
X5673481Y-33116073D01*
X5664858Y-33104447D01*
X5657417Y-33092031D01*
X5651228Y-33078946D01*
X5646351Y-33065317D01*
X5642834Y-33051276D01*
X5640710Y-33036958D01*
X5640000Y-33022500D01*
X5640000Y-32677500D01*
X5640710Y-32663042D01*
X5642834Y-32648724D01*
X5646351Y-32634683D01*
X5651228Y-32621054D01*
X5657417Y-32607969D01*
X5664858Y-32595553D01*
X5673481Y-32583927D01*
X5683202Y-32573202D01*
X5693927Y-32563481D01*
X5705553Y-32554858D01*
X5717969Y-32547417D01*
X5731054Y-32541228D01*
X5744683Y-32536351D01*
X5758724Y-32532834D01*
X5773042Y-32530710D01*
X5787500Y-32530000D01*
X6082500Y-32530000D01*
X6096958Y-32530710D01*
X6096958Y-32530710D01*
G37*
D16*
X5935000Y-32850000D03*
D12*
G36*
X5126958Y-32530710D02*
X5141276Y-32532834D01*
X5155317Y-32536351D01*
X5168946Y-32541228D01*
X5182031Y-32547417D01*
X5194447Y-32554858D01*
X5206073Y-32563481D01*
X5216798Y-32573202D01*
X5226519Y-32583927D01*
X5235142Y-32595553D01*
X5242583Y-32607969D01*
X5248772Y-32621054D01*
X5253649Y-32634683D01*
X5257166Y-32648724D01*
X5259290Y-32663042D01*
X5260000Y-32677500D01*
X5260000Y-33022500D01*
X5259290Y-33036958D01*
X5257166Y-33051276D01*
X5253649Y-33065317D01*
X5248772Y-33078946D01*
X5242583Y-33092031D01*
X5235142Y-33104447D01*
X5226519Y-33116073D01*
X5216798Y-33126798D01*
X5206073Y-33136519D01*
X5194447Y-33145142D01*
X5182031Y-33152583D01*
X5168946Y-33158772D01*
X5155317Y-33163649D01*
X5141276Y-33167166D01*
X5126958Y-33169290D01*
X5112500Y-33170000D01*
X4817500Y-33170000D01*
X4803042Y-33169290D01*
X4788724Y-33167166D01*
X4774683Y-33163649D01*
X4761054Y-33158772D01*
X4747969Y-33152583D01*
X4735553Y-33145142D01*
X4723927Y-33136519D01*
X4713202Y-33126798D01*
X4703481Y-33116073D01*
X4694858Y-33104447D01*
X4687417Y-33092031D01*
X4681228Y-33078946D01*
X4676351Y-33065317D01*
X4672834Y-33051276D01*
X4670710Y-33036958D01*
X4670000Y-33022500D01*
X4670000Y-32677500D01*
X4670710Y-32663042D01*
X4672834Y-32648724D01*
X4676351Y-32634683D01*
X4681228Y-32621054D01*
X4687417Y-32607969D01*
X4694858Y-32595553D01*
X4703481Y-32583927D01*
X4713202Y-32573202D01*
X4723927Y-32563481D01*
X4735553Y-32554858D01*
X4747969Y-32547417D01*
X4761054Y-32541228D01*
X4774683Y-32536351D01*
X4788724Y-32532834D01*
X4803042Y-32530710D01*
X4817500Y-32530000D01*
X5112500Y-32530000D01*
X5126958Y-32530710D01*
X5126958Y-32530710D01*
G37*
D16*
X4965000Y-32850000D03*
G04 #@! TD*
D12*
G04 #@! TO.C,R27*
G36*
X5091958Y-35530710D02*
X5106276Y-35532834D01*
X5120317Y-35536351D01*
X5133946Y-35541228D01*
X5147031Y-35547417D01*
X5159447Y-35554858D01*
X5171073Y-35563481D01*
X5181798Y-35573202D01*
X5191519Y-35583927D01*
X5200142Y-35595553D01*
X5207583Y-35607969D01*
X5213772Y-35621054D01*
X5218649Y-35634683D01*
X5222166Y-35648724D01*
X5224290Y-35663042D01*
X5225000Y-35677500D01*
X5225000Y-36022500D01*
X5224290Y-36036958D01*
X5222166Y-36051276D01*
X5218649Y-36065317D01*
X5213772Y-36078946D01*
X5207583Y-36092031D01*
X5200142Y-36104447D01*
X5191519Y-36116073D01*
X5181798Y-36126798D01*
X5171073Y-36136519D01*
X5159447Y-36145142D01*
X5147031Y-36152583D01*
X5133946Y-36158772D01*
X5120317Y-36163649D01*
X5106276Y-36167166D01*
X5091958Y-36169290D01*
X5077500Y-36170000D01*
X4782500Y-36170000D01*
X4768042Y-36169290D01*
X4753724Y-36167166D01*
X4739683Y-36163649D01*
X4726054Y-36158772D01*
X4712969Y-36152583D01*
X4700553Y-36145142D01*
X4688927Y-36136519D01*
X4678202Y-36126798D01*
X4668481Y-36116073D01*
X4659858Y-36104447D01*
X4652417Y-36092031D01*
X4646228Y-36078946D01*
X4641351Y-36065317D01*
X4637834Y-36051276D01*
X4635710Y-36036958D01*
X4635000Y-36022500D01*
X4635000Y-35677500D01*
X4635710Y-35663042D01*
X4637834Y-35648724D01*
X4641351Y-35634683D01*
X4646228Y-35621054D01*
X4652417Y-35607969D01*
X4659858Y-35595553D01*
X4668481Y-35583927D01*
X4678202Y-35573202D01*
X4688927Y-35563481D01*
X4700553Y-35554858D01*
X4712969Y-35547417D01*
X4726054Y-35541228D01*
X4739683Y-35536351D01*
X4753724Y-35532834D01*
X4768042Y-35530710D01*
X4782500Y-35530000D01*
X5077500Y-35530000D01*
X5091958Y-35530710D01*
X5091958Y-35530710D01*
G37*
D16*
X4930000Y-35850000D03*
D12*
G36*
X6061958Y-35530710D02*
X6076276Y-35532834D01*
X6090317Y-35536351D01*
X6103946Y-35541228D01*
X6117031Y-35547417D01*
X6129447Y-35554858D01*
X6141073Y-35563481D01*
X6151798Y-35573202D01*
X6161519Y-35583927D01*
X6170142Y-35595553D01*
X6177583Y-35607969D01*
X6183772Y-35621054D01*
X6188649Y-35634683D01*
X6192166Y-35648724D01*
X6194290Y-35663042D01*
X6195000Y-35677500D01*
X6195000Y-36022500D01*
X6194290Y-36036958D01*
X6192166Y-36051276D01*
X6188649Y-36065317D01*
X6183772Y-36078946D01*
X6177583Y-36092031D01*
X6170142Y-36104447D01*
X6161519Y-36116073D01*
X6151798Y-36126798D01*
X6141073Y-36136519D01*
X6129447Y-36145142D01*
X6117031Y-36152583D01*
X6103946Y-36158772D01*
X6090317Y-36163649D01*
X6076276Y-36167166D01*
X6061958Y-36169290D01*
X6047500Y-36170000D01*
X5752500Y-36170000D01*
X5738042Y-36169290D01*
X5723724Y-36167166D01*
X5709683Y-36163649D01*
X5696054Y-36158772D01*
X5682969Y-36152583D01*
X5670553Y-36145142D01*
X5658927Y-36136519D01*
X5648202Y-36126798D01*
X5638481Y-36116073D01*
X5629858Y-36104447D01*
X5622417Y-36092031D01*
X5616228Y-36078946D01*
X5611351Y-36065317D01*
X5607834Y-36051276D01*
X5605710Y-36036958D01*
X5605000Y-36022500D01*
X5605000Y-35677500D01*
X5605710Y-35663042D01*
X5607834Y-35648724D01*
X5611351Y-35634683D01*
X5616228Y-35621054D01*
X5622417Y-35607969D01*
X5629858Y-35595553D01*
X5638481Y-35583927D01*
X5648202Y-35573202D01*
X5658927Y-35563481D01*
X5670553Y-35554858D01*
X5682969Y-35547417D01*
X5696054Y-35541228D01*
X5709683Y-35536351D01*
X5723724Y-35532834D01*
X5738042Y-35530710D01*
X5752500Y-35530000D01*
X6047500Y-35530000D01*
X6061958Y-35530710D01*
X6061958Y-35530710D01*
G37*
D16*
X5900000Y-35850000D03*
G04 #@! TD*
D12*
G04 #@! TO.C,C9*
G36*
X35981355Y-37404763D02*
X35995673Y-37406887D01*
X36009714Y-37410404D01*
X36023343Y-37415281D01*
X36036428Y-37421470D01*
X36048844Y-37428911D01*
X36060470Y-37437534D01*
X36071195Y-37447255D01*
X36080916Y-37457980D01*
X36089539Y-37469606D01*
X36096980Y-37482022D01*
X36103169Y-37495107D01*
X36108046Y-37508736D01*
X36111563Y-37522777D01*
X36113687Y-37537095D01*
X36114397Y-37551553D01*
X36114397Y-37846553D01*
X36113687Y-37861011D01*
X36111563Y-37875329D01*
X36108046Y-37889370D01*
X36103169Y-37902999D01*
X36096980Y-37916084D01*
X36089539Y-37928500D01*
X36080916Y-37940126D01*
X36071195Y-37950851D01*
X36060470Y-37960572D01*
X36048844Y-37969195D01*
X36036428Y-37976636D01*
X36023343Y-37982825D01*
X36009714Y-37987702D01*
X35995673Y-37991219D01*
X35981355Y-37993343D01*
X35966897Y-37994053D01*
X35621897Y-37994053D01*
X35607439Y-37993343D01*
X35593121Y-37991219D01*
X35579080Y-37987702D01*
X35565451Y-37982825D01*
X35552366Y-37976636D01*
X35539950Y-37969195D01*
X35528324Y-37960572D01*
X35517599Y-37950851D01*
X35507878Y-37940126D01*
X35499255Y-37928500D01*
X35491814Y-37916084D01*
X35485625Y-37902999D01*
X35480748Y-37889370D01*
X35477231Y-37875329D01*
X35475107Y-37861011D01*
X35474397Y-37846553D01*
X35474397Y-37551553D01*
X35475107Y-37537095D01*
X35477231Y-37522777D01*
X35480748Y-37508736D01*
X35485625Y-37495107D01*
X35491814Y-37482022D01*
X35499255Y-37469606D01*
X35507878Y-37457980D01*
X35517599Y-37447255D01*
X35528324Y-37437534D01*
X35539950Y-37428911D01*
X35552366Y-37421470D01*
X35565451Y-37415281D01*
X35579080Y-37410404D01*
X35593121Y-37406887D01*
X35607439Y-37404763D01*
X35621897Y-37404053D01*
X35966897Y-37404053D01*
X35981355Y-37404763D01*
X35981355Y-37404763D01*
G37*
D16*
X35794397Y-37699053D03*
D12*
G36*
X35981355Y-38374763D02*
X35995673Y-38376887D01*
X36009714Y-38380404D01*
X36023343Y-38385281D01*
X36036428Y-38391470D01*
X36048844Y-38398911D01*
X36060470Y-38407534D01*
X36071195Y-38417255D01*
X36080916Y-38427980D01*
X36089539Y-38439606D01*
X36096980Y-38452022D01*
X36103169Y-38465107D01*
X36108046Y-38478736D01*
X36111563Y-38492777D01*
X36113687Y-38507095D01*
X36114397Y-38521553D01*
X36114397Y-38816553D01*
X36113687Y-38831011D01*
X36111563Y-38845329D01*
X36108046Y-38859370D01*
X36103169Y-38872999D01*
X36096980Y-38886084D01*
X36089539Y-38898500D01*
X36080916Y-38910126D01*
X36071195Y-38920851D01*
X36060470Y-38930572D01*
X36048844Y-38939195D01*
X36036428Y-38946636D01*
X36023343Y-38952825D01*
X36009714Y-38957702D01*
X35995673Y-38961219D01*
X35981355Y-38963343D01*
X35966897Y-38964053D01*
X35621897Y-38964053D01*
X35607439Y-38963343D01*
X35593121Y-38961219D01*
X35579080Y-38957702D01*
X35565451Y-38952825D01*
X35552366Y-38946636D01*
X35539950Y-38939195D01*
X35528324Y-38930572D01*
X35517599Y-38920851D01*
X35507878Y-38910126D01*
X35499255Y-38898500D01*
X35491814Y-38886084D01*
X35485625Y-38872999D01*
X35480748Y-38859370D01*
X35477231Y-38845329D01*
X35475107Y-38831011D01*
X35474397Y-38816553D01*
X35474397Y-38521553D01*
X35475107Y-38507095D01*
X35477231Y-38492777D01*
X35480748Y-38478736D01*
X35485625Y-38465107D01*
X35491814Y-38452022D01*
X35499255Y-38439606D01*
X35507878Y-38427980D01*
X35517599Y-38417255D01*
X35528324Y-38407534D01*
X35539950Y-38398911D01*
X35552366Y-38391470D01*
X35565451Y-38385281D01*
X35579080Y-38380404D01*
X35593121Y-38376887D01*
X35607439Y-38374763D01*
X35621897Y-38374053D01*
X35966897Y-38374053D01*
X35981355Y-38374763D01*
X35981355Y-38374763D01*
G37*
D16*
X35794397Y-38669053D03*
G04 #@! TD*
D12*
G04 #@! TO.C,C10*
G36*
X33961958Y-38605710D02*
X33976276Y-38607834D01*
X33990317Y-38611351D01*
X34003946Y-38616228D01*
X34017031Y-38622417D01*
X34029447Y-38629858D01*
X34041073Y-38638481D01*
X34051798Y-38648202D01*
X34061519Y-38658927D01*
X34070142Y-38670553D01*
X34077583Y-38682969D01*
X34083772Y-38696054D01*
X34088649Y-38709683D01*
X34092166Y-38723724D01*
X34094290Y-38738042D01*
X34095000Y-38752500D01*
X34095000Y-39097500D01*
X34094290Y-39111958D01*
X34092166Y-39126276D01*
X34088649Y-39140317D01*
X34083772Y-39153946D01*
X34077583Y-39167031D01*
X34070142Y-39179447D01*
X34061519Y-39191073D01*
X34051798Y-39201798D01*
X34041073Y-39211519D01*
X34029447Y-39220142D01*
X34017031Y-39227583D01*
X34003946Y-39233772D01*
X33990317Y-39238649D01*
X33976276Y-39242166D01*
X33961958Y-39244290D01*
X33947500Y-39245000D01*
X33652500Y-39245000D01*
X33638042Y-39244290D01*
X33623724Y-39242166D01*
X33609683Y-39238649D01*
X33596054Y-39233772D01*
X33582969Y-39227583D01*
X33570553Y-39220142D01*
X33558927Y-39211519D01*
X33548202Y-39201798D01*
X33538481Y-39191073D01*
X33529858Y-39179447D01*
X33522417Y-39167031D01*
X33516228Y-39153946D01*
X33511351Y-39140317D01*
X33507834Y-39126276D01*
X33505710Y-39111958D01*
X33505000Y-39097500D01*
X33505000Y-38752500D01*
X33505710Y-38738042D01*
X33507834Y-38723724D01*
X33511351Y-38709683D01*
X33516228Y-38696054D01*
X33522417Y-38682969D01*
X33529858Y-38670553D01*
X33538481Y-38658927D01*
X33548202Y-38648202D01*
X33558927Y-38638481D01*
X33570553Y-38629858D01*
X33582969Y-38622417D01*
X33596054Y-38616228D01*
X33609683Y-38611351D01*
X33623724Y-38607834D01*
X33638042Y-38605710D01*
X33652500Y-38605000D01*
X33947500Y-38605000D01*
X33961958Y-38605710D01*
X33961958Y-38605710D01*
G37*
D16*
X33800000Y-38925000D03*
D12*
G36*
X32991958Y-38605710D02*
X33006276Y-38607834D01*
X33020317Y-38611351D01*
X33033946Y-38616228D01*
X33047031Y-38622417D01*
X33059447Y-38629858D01*
X33071073Y-38638481D01*
X33081798Y-38648202D01*
X33091519Y-38658927D01*
X33100142Y-38670553D01*
X33107583Y-38682969D01*
X33113772Y-38696054D01*
X33118649Y-38709683D01*
X33122166Y-38723724D01*
X33124290Y-38738042D01*
X33125000Y-38752500D01*
X33125000Y-39097500D01*
X33124290Y-39111958D01*
X33122166Y-39126276D01*
X33118649Y-39140317D01*
X33113772Y-39153946D01*
X33107583Y-39167031D01*
X33100142Y-39179447D01*
X33091519Y-39191073D01*
X33081798Y-39201798D01*
X33071073Y-39211519D01*
X33059447Y-39220142D01*
X33047031Y-39227583D01*
X33033946Y-39233772D01*
X33020317Y-39238649D01*
X33006276Y-39242166D01*
X32991958Y-39244290D01*
X32977500Y-39245000D01*
X32682500Y-39245000D01*
X32668042Y-39244290D01*
X32653724Y-39242166D01*
X32639683Y-39238649D01*
X32626054Y-39233772D01*
X32612969Y-39227583D01*
X32600553Y-39220142D01*
X32588927Y-39211519D01*
X32578202Y-39201798D01*
X32568481Y-39191073D01*
X32559858Y-39179447D01*
X32552417Y-39167031D01*
X32546228Y-39153946D01*
X32541351Y-39140317D01*
X32537834Y-39126276D01*
X32535710Y-39111958D01*
X32535000Y-39097500D01*
X32535000Y-38752500D01*
X32535710Y-38738042D01*
X32537834Y-38723724D01*
X32541351Y-38709683D01*
X32546228Y-38696054D01*
X32552417Y-38682969D01*
X32559858Y-38670553D01*
X32568481Y-38658927D01*
X32578202Y-38648202D01*
X32588927Y-38638481D01*
X32600553Y-38629858D01*
X32612969Y-38622417D01*
X32626054Y-38616228D01*
X32639683Y-38611351D01*
X32653724Y-38607834D01*
X32668042Y-38605710D01*
X32682500Y-38605000D01*
X32977500Y-38605000D01*
X32991958Y-38605710D01*
X32991958Y-38605710D01*
G37*
D16*
X32830000Y-38925000D03*
G04 #@! TD*
D12*
G04 #@! TO.C,C11*
G36*
X33961958Y-34705710D02*
X33976276Y-34707834D01*
X33990317Y-34711351D01*
X34003946Y-34716228D01*
X34017031Y-34722417D01*
X34029447Y-34729858D01*
X34041073Y-34738481D01*
X34051798Y-34748202D01*
X34061519Y-34758927D01*
X34070142Y-34770553D01*
X34077583Y-34782969D01*
X34083772Y-34796054D01*
X34088649Y-34809683D01*
X34092166Y-34823724D01*
X34094290Y-34838042D01*
X34095000Y-34852500D01*
X34095000Y-35197500D01*
X34094290Y-35211958D01*
X34092166Y-35226276D01*
X34088649Y-35240317D01*
X34083772Y-35253946D01*
X34077583Y-35267031D01*
X34070142Y-35279447D01*
X34061519Y-35291073D01*
X34051798Y-35301798D01*
X34041073Y-35311519D01*
X34029447Y-35320142D01*
X34017031Y-35327583D01*
X34003946Y-35333772D01*
X33990317Y-35338649D01*
X33976276Y-35342166D01*
X33961958Y-35344290D01*
X33947500Y-35345000D01*
X33652500Y-35345000D01*
X33638042Y-35344290D01*
X33623724Y-35342166D01*
X33609683Y-35338649D01*
X33596054Y-35333772D01*
X33582969Y-35327583D01*
X33570553Y-35320142D01*
X33558927Y-35311519D01*
X33548202Y-35301798D01*
X33538481Y-35291073D01*
X33529858Y-35279447D01*
X33522417Y-35267031D01*
X33516228Y-35253946D01*
X33511351Y-35240317D01*
X33507834Y-35226276D01*
X33505710Y-35211958D01*
X33505000Y-35197500D01*
X33505000Y-34852500D01*
X33505710Y-34838042D01*
X33507834Y-34823724D01*
X33511351Y-34809683D01*
X33516228Y-34796054D01*
X33522417Y-34782969D01*
X33529858Y-34770553D01*
X33538481Y-34758927D01*
X33548202Y-34748202D01*
X33558927Y-34738481D01*
X33570553Y-34729858D01*
X33582969Y-34722417D01*
X33596054Y-34716228D01*
X33609683Y-34711351D01*
X33623724Y-34707834D01*
X33638042Y-34705710D01*
X33652500Y-34705000D01*
X33947500Y-34705000D01*
X33961958Y-34705710D01*
X33961958Y-34705710D01*
G37*
D16*
X33800000Y-35025000D03*
D12*
G36*
X32991958Y-34705710D02*
X33006276Y-34707834D01*
X33020317Y-34711351D01*
X33033946Y-34716228D01*
X33047031Y-34722417D01*
X33059447Y-34729858D01*
X33071073Y-34738481D01*
X33081798Y-34748202D01*
X33091519Y-34758927D01*
X33100142Y-34770553D01*
X33107583Y-34782969D01*
X33113772Y-34796054D01*
X33118649Y-34809683D01*
X33122166Y-34823724D01*
X33124290Y-34838042D01*
X33125000Y-34852500D01*
X33125000Y-35197500D01*
X33124290Y-35211958D01*
X33122166Y-35226276D01*
X33118649Y-35240317D01*
X33113772Y-35253946D01*
X33107583Y-35267031D01*
X33100142Y-35279447D01*
X33091519Y-35291073D01*
X33081798Y-35301798D01*
X33071073Y-35311519D01*
X33059447Y-35320142D01*
X33047031Y-35327583D01*
X33033946Y-35333772D01*
X33020317Y-35338649D01*
X33006276Y-35342166D01*
X32991958Y-35344290D01*
X32977500Y-35345000D01*
X32682500Y-35345000D01*
X32668042Y-35344290D01*
X32653724Y-35342166D01*
X32639683Y-35338649D01*
X32626054Y-35333772D01*
X32612969Y-35327583D01*
X32600553Y-35320142D01*
X32588927Y-35311519D01*
X32578202Y-35301798D01*
X32568481Y-35291073D01*
X32559858Y-35279447D01*
X32552417Y-35267031D01*
X32546228Y-35253946D01*
X32541351Y-35240317D01*
X32537834Y-35226276D01*
X32535710Y-35211958D01*
X32535000Y-35197500D01*
X32535000Y-34852500D01*
X32535710Y-34838042D01*
X32537834Y-34823724D01*
X32541351Y-34809683D01*
X32546228Y-34796054D01*
X32552417Y-34782969D01*
X32559858Y-34770553D01*
X32568481Y-34758927D01*
X32578202Y-34748202D01*
X32588927Y-34738481D01*
X32600553Y-34729858D01*
X32612969Y-34722417D01*
X32626054Y-34716228D01*
X32639683Y-34711351D01*
X32653724Y-34707834D01*
X32668042Y-34705710D01*
X32682500Y-34705000D01*
X32977500Y-34705000D01*
X32991958Y-34705710D01*
X32991958Y-34705710D01*
G37*
D16*
X32830000Y-35025000D03*
G04 #@! TD*
D12*
G04 #@! TO.C,C12*
G36*
X30181355Y-37089763D02*
X30195673Y-37091887D01*
X30209714Y-37095404D01*
X30223343Y-37100281D01*
X30236428Y-37106470D01*
X30248844Y-37113911D01*
X30260470Y-37122534D01*
X30271195Y-37132255D01*
X30280916Y-37142980D01*
X30289539Y-37154606D01*
X30296980Y-37167022D01*
X30303169Y-37180107D01*
X30308046Y-37193736D01*
X30311563Y-37207777D01*
X30313687Y-37222095D01*
X30314397Y-37236553D01*
X30314397Y-37531553D01*
X30313687Y-37546011D01*
X30311563Y-37560329D01*
X30308046Y-37574370D01*
X30303169Y-37587999D01*
X30296980Y-37601084D01*
X30289539Y-37613500D01*
X30280916Y-37625126D01*
X30271195Y-37635851D01*
X30260470Y-37645572D01*
X30248844Y-37654195D01*
X30236428Y-37661636D01*
X30223343Y-37667825D01*
X30209714Y-37672702D01*
X30195673Y-37676219D01*
X30181355Y-37678343D01*
X30166897Y-37679053D01*
X29821897Y-37679053D01*
X29807439Y-37678343D01*
X29793121Y-37676219D01*
X29779080Y-37672702D01*
X29765451Y-37667825D01*
X29752366Y-37661636D01*
X29739950Y-37654195D01*
X29728324Y-37645572D01*
X29717599Y-37635851D01*
X29707878Y-37625126D01*
X29699255Y-37613500D01*
X29691814Y-37601084D01*
X29685625Y-37587999D01*
X29680748Y-37574370D01*
X29677231Y-37560329D01*
X29675107Y-37546011D01*
X29674397Y-37531553D01*
X29674397Y-37236553D01*
X29675107Y-37222095D01*
X29677231Y-37207777D01*
X29680748Y-37193736D01*
X29685625Y-37180107D01*
X29691814Y-37167022D01*
X29699255Y-37154606D01*
X29707878Y-37142980D01*
X29717599Y-37132255D01*
X29728324Y-37122534D01*
X29739950Y-37113911D01*
X29752366Y-37106470D01*
X29765451Y-37100281D01*
X29779080Y-37095404D01*
X29793121Y-37091887D01*
X29807439Y-37089763D01*
X29821897Y-37089053D01*
X30166897Y-37089053D01*
X30181355Y-37089763D01*
X30181355Y-37089763D01*
G37*
D16*
X29994397Y-37384053D03*
D12*
G36*
X30181355Y-36119763D02*
X30195673Y-36121887D01*
X30209714Y-36125404D01*
X30223343Y-36130281D01*
X30236428Y-36136470D01*
X30248844Y-36143911D01*
X30260470Y-36152534D01*
X30271195Y-36162255D01*
X30280916Y-36172980D01*
X30289539Y-36184606D01*
X30296980Y-36197022D01*
X30303169Y-36210107D01*
X30308046Y-36223736D01*
X30311563Y-36237777D01*
X30313687Y-36252095D01*
X30314397Y-36266553D01*
X30314397Y-36561553D01*
X30313687Y-36576011D01*
X30311563Y-36590329D01*
X30308046Y-36604370D01*
X30303169Y-36617999D01*
X30296980Y-36631084D01*
X30289539Y-36643500D01*
X30280916Y-36655126D01*
X30271195Y-36665851D01*
X30260470Y-36675572D01*
X30248844Y-36684195D01*
X30236428Y-36691636D01*
X30223343Y-36697825D01*
X30209714Y-36702702D01*
X30195673Y-36706219D01*
X30181355Y-36708343D01*
X30166897Y-36709053D01*
X29821897Y-36709053D01*
X29807439Y-36708343D01*
X29793121Y-36706219D01*
X29779080Y-36702702D01*
X29765451Y-36697825D01*
X29752366Y-36691636D01*
X29739950Y-36684195D01*
X29728324Y-36675572D01*
X29717599Y-36665851D01*
X29707878Y-36655126D01*
X29699255Y-36643500D01*
X29691814Y-36631084D01*
X29685625Y-36617999D01*
X29680748Y-36604370D01*
X29677231Y-36590329D01*
X29675107Y-36576011D01*
X29674397Y-36561553D01*
X29674397Y-36266553D01*
X29675107Y-36252095D01*
X29677231Y-36237777D01*
X29680748Y-36223736D01*
X29685625Y-36210107D01*
X29691814Y-36197022D01*
X29699255Y-36184606D01*
X29707878Y-36172980D01*
X29717599Y-36162255D01*
X29728324Y-36152534D01*
X29739950Y-36143911D01*
X29752366Y-36136470D01*
X29765451Y-36130281D01*
X29779080Y-36125404D01*
X29793121Y-36121887D01*
X29807439Y-36119763D01*
X29821897Y-36119053D01*
X30166897Y-36119053D01*
X30181355Y-36119763D01*
X30181355Y-36119763D01*
G37*
D16*
X29994397Y-36414053D03*
G04 #@! TD*
D12*
G04 #@! TO.C,R11*
G36*
X39437039Y-38685227D02*
X39460700Y-38688737D01*
X39483904Y-38694549D01*
X39506426Y-38702607D01*
X39528050Y-38712835D01*
X39548567Y-38725132D01*
X39567780Y-38739382D01*
X39585504Y-38755446D01*
X39601568Y-38773170D01*
X39615818Y-38792383D01*
X39628115Y-38812900D01*
X39638343Y-38834524D01*
X39646401Y-38857046D01*
X39652213Y-38880250D01*
X39655723Y-38903911D01*
X39656897Y-38927803D01*
X39656897Y-39840303D01*
X39655723Y-39864195D01*
X39652213Y-39887856D01*
X39646401Y-39911060D01*
X39638343Y-39933582D01*
X39628115Y-39955206D01*
X39615818Y-39975723D01*
X39601568Y-39994936D01*
X39585504Y-40012660D01*
X39567780Y-40028724D01*
X39548567Y-40042974D01*
X39528050Y-40055271D01*
X39506426Y-40065499D01*
X39483904Y-40073557D01*
X39460700Y-40079369D01*
X39437039Y-40082879D01*
X39413147Y-40084053D01*
X38925647Y-40084053D01*
X38901755Y-40082879D01*
X38878094Y-40079369D01*
X38854890Y-40073557D01*
X38832368Y-40065499D01*
X38810744Y-40055271D01*
X38790227Y-40042974D01*
X38771014Y-40028724D01*
X38753290Y-40012660D01*
X38737226Y-39994936D01*
X38722976Y-39975723D01*
X38710679Y-39955206D01*
X38700451Y-39933582D01*
X38692393Y-39911060D01*
X38686581Y-39887856D01*
X38683071Y-39864195D01*
X38681897Y-39840303D01*
X38681897Y-38927803D01*
X38683071Y-38903911D01*
X38686581Y-38880250D01*
X38692393Y-38857046D01*
X38700451Y-38834524D01*
X38710679Y-38812900D01*
X38722976Y-38792383D01*
X38737226Y-38773170D01*
X38753290Y-38755446D01*
X38771014Y-38739382D01*
X38790227Y-38725132D01*
X38810744Y-38712835D01*
X38832368Y-38702607D01*
X38854890Y-38694549D01*
X38878094Y-38688737D01*
X38901755Y-38685227D01*
X38925647Y-38684053D01*
X39413147Y-38684053D01*
X39437039Y-38685227D01*
X39437039Y-38685227D01*
G37*
D21*
X39169397Y-39384053D03*
D12*
G36*
X37562039Y-38685227D02*
X37585700Y-38688737D01*
X37608904Y-38694549D01*
X37631426Y-38702607D01*
X37653050Y-38712835D01*
X37673567Y-38725132D01*
X37692780Y-38739382D01*
X37710504Y-38755446D01*
X37726568Y-38773170D01*
X37740818Y-38792383D01*
X37753115Y-38812900D01*
X37763343Y-38834524D01*
X37771401Y-38857046D01*
X37777213Y-38880250D01*
X37780723Y-38903911D01*
X37781897Y-38927803D01*
X37781897Y-39840303D01*
X37780723Y-39864195D01*
X37777213Y-39887856D01*
X37771401Y-39911060D01*
X37763343Y-39933582D01*
X37753115Y-39955206D01*
X37740818Y-39975723D01*
X37726568Y-39994936D01*
X37710504Y-40012660D01*
X37692780Y-40028724D01*
X37673567Y-40042974D01*
X37653050Y-40055271D01*
X37631426Y-40065499D01*
X37608904Y-40073557D01*
X37585700Y-40079369D01*
X37562039Y-40082879D01*
X37538147Y-40084053D01*
X37050647Y-40084053D01*
X37026755Y-40082879D01*
X37003094Y-40079369D01*
X36979890Y-40073557D01*
X36957368Y-40065499D01*
X36935744Y-40055271D01*
X36915227Y-40042974D01*
X36896014Y-40028724D01*
X36878290Y-40012660D01*
X36862226Y-39994936D01*
X36847976Y-39975723D01*
X36835679Y-39955206D01*
X36825451Y-39933582D01*
X36817393Y-39911060D01*
X36811581Y-39887856D01*
X36808071Y-39864195D01*
X36806897Y-39840303D01*
X36806897Y-38927803D01*
X36808071Y-38903911D01*
X36811581Y-38880250D01*
X36817393Y-38857046D01*
X36825451Y-38834524D01*
X36835679Y-38812900D01*
X36847976Y-38792383D01*
X36862226Y-38773170D01*
X36878290Y-38755446D01*
X36896014Y-38739382D01*
X36915227Y-38725132D01*
X36935744Y-38712835D01*
X36957368Y-38702607D01*
X36979890Y-38694549D01*
X37003094Y-38688737D01*
X37026755Y-38685227D01*
X37050647Y-38684053D01*
X37538147Y-38684053D01*
X37562039Y-38685227D01*
X37562039Y-38685227D01*
G37*
D21*
X37294397Y-39384053D03*
G04 #@! TD*
D12*
G04 #@! TO.C,R12*
G36*
X37574539Y-36785227D02*
X37598200Y-36788737D01*
X37621404Y-36794549D01*
X37643926Y-36802607D01*
X37665550Y-36812835D01*
X37686067Y-36825132D01*
X37705280Y-36839382D01*
X37723004Y-36855446D01*
X37739068Y-36873170D01*
X37753318Y-36892383D01*
X37765615Y-36912900D01*
X37775843Y-36934524D01*
X37783901Y-36957046D01*
X37789713Y-36980250D01*
X37793223Y-37003911D01*
X37794397Y-37027803D01*
X37794397Y-37940303D01*
X37793223Y-37964195D01*
X37789713Y-37987856D01*
X37783901Y-38011060D01*
X37775843Y-38033582D01*
X37765615Y-38055206D01*
X37753318Y-38075723D01*
X37739068Y-38094936D01*
X37723004Y-38112660D01*
X37705280Y-38128724D01*
X37686067Y-38142974D01*
X37665550Y-38155271D01*
X37643926Y-38165499D01*
X37621404Y-38173557D01*
X37598200Y-38179369D01*
X37574539Y-38182879D01*
X37550647Y-38184053D01*
X37063147Y-38184053D01*
X37039255Y-38182879D01*
X37015594Y-38179369D01*
X36992390Y-38173557D01*
X36969868Y-38165499D01*
X36948244Y-38155271D01*
X36927727Y-38142974D01*
X36908514Y-38128724D01*
X36890790Y-38112660D01*
X36874726Y-38094936D01*
X36860476Y-38075723D01*
X36848179Y-38055206D01*
X36837951Y-38033582D01*
X36829893Y-38011060D01*
X36824081Y-37987856D01*
X36820571Y-37964195D01*
X36819397Y-37940303D01*
X36819397Y-37027803D01*
X36820571Y-37003911D01*
X36824081Y-36980250D01*
X36829893Y-36957046D01*
X36837951Y-36934524D01*
X36848179Y-36912900D01*
X36860476Y-36892383D01*
X36874726Y-36873170D01*
X36890790Y-36855446D01*
X36908514Y-36839382D01*
X36927727Y-36825132D01*
X36948244Y-36812835D01*
X36969868Y-36802607D01*
X36992390Y-36794549D01*
X37015594Y-36788737D01*
X37039255Y-36785227D01*
X37063147Y-36784053D01*
X37550647Y-36784053D01*
X37574539Y-36785227D01*
X37574539Y-36785227D01*
G37*
D21*
X37306897Y-37484053D03*
D12*
G36*
X39449539Y-36785227D02*
X39473200Y-36788737D01*
X39496404Y-36794549D01*
X39518926Y-36802607D01*
X39540550Y-36812835D01*
X39561067Y-36825132D01*
X39580280Y-36839382D01*
X39598004Y-36855446D01*
X39614068Y-36873170D01*
X39628318Y-36892383D01*
X39640615Y-36912900D01*
X39650843Y-36934524D01*
X39658901Y-36957046D01*
X39664713Y-36980250D01*
X39668223Y-37003911D01*
X39669397Y-37027803D01*
X39669397Y-37940303D01*
X39668223Y-37964195D01*
X39664713Y-37987856D01*
X39658901Y-38011060D01*
X39650843Y-38033582D01*
X39640615Y-38055206D01*
X39628318Y-38075723D01*
X39614068Y-38094936D01*
X39598004Y-38112660D01*
X39580280Y-38128724D01*
X39561067Y-38142974D01*
X39540550Y-38155271D01*
X39518926Y-38165499D01*
X39496404Y-38173557D01*
X39473200Y-38179369D01*
X39449539Y-38182879D01*
X39425647Y-38184053D01*
X38938147Y-38184053D01*
X38914255Y-38182879D01*
X38890594Y-38179369D01*
X38867390Y-38173557D01*
X38844868Y-38165499D01*
X38823244Y-38155271D01*
X38802727Y-38142974D01*
X38783514Y-38128724D01*
X38765790Y-38112660D01*
X38749726Y-38094936D01*
X38735476Y-38075723D01*
X38723179Y-38055206D01*
X38712951Y-38033582D01*
X38704893Y-38011060D01*
X38699081Y-37987856D01*
X38695571Y-37964195D01*
X38694397Y-37940303D01*
X38694397Y-37027803D01*
X38695571Y-37003911D01*
X38699081Y-36980250D01*
X38704893Y-36957046D01*
X38712951Y-36934524D01*
X38723179Y-36912900D01*
X38735476Y-36892383D01*
X38749726Y-36873170D01*
X38765790Y-36855446D01*
X38783514Y-36839382D01*
X38802727Y-36825132D01*
X38823244Y-36812835D01*
X38844868Y-36802607D01*
X38867390Y-36794549D01*
X38890594Y-36788737D01*
X38914255Y-36785227D01*
X38938147Y-36784053D01*
X39425647Y-36784053D01*
X39449539Y-36785227D01*
X39449539Y-36785227D01*
G37*
D21*
X39181897Y-37484053D03*
G04 #@! TD*
D12*
G04 #@! TO.C,R17*
G36*
X37587039Y-34885227D02*
X37610700Y-34888737D01*
X37633904Y-34894549D01*
X37656426Y-34902607D01*
X37678050Y-34912835D01*
X37698567Y-34925132D01*
X37717780Y-34939382D01*
X37735504Y-34955446D01*
X37751568Y-34973170D01*
X37765818Y-34992383D01*
X37778115Y-35012900D01*
X37788343Y-35034524D01*
X37796401Y-35057046D01*
X37802213Y-35080250D01*
X37805723Y-35103911D01*
X37806897Y-35127803D01*
X37806897Y-36040303D01*
X37805723Y-36064195D01*
X37802213Y-36087856D01*
X37796401Y-36111060D01*
X37788343Y-36133582D01*
X37778115Y-36155206D01*
X37765818Y-36175723D01*
X37751568Y-36194936D01*
X37735504Y-36212660D01*
X37717780Y-36228724D01*
X37698567Y-36242974D01*
X37678050Y-36255271D01*
X37656426Y-36265499D01*
X37633904Y-36273557D01*
X37610700Y-36279369D01*
X37587039Y-36282879D01*
X37563147Y-36284053D01*
X37075647Y-36284053D01*
X37051755Y-36282879D01*
X37028094Y-36279369D01*
X37004890Y-36273557D01*
X36982368Y-36265499D01*
X36960744Y-36255271D01*
X36940227Y-36242974D01*
X36921014Y-36228724D01*
X36903290Y-36212660D01*
X36887226Y-36194936D01*
X36872976Y-36175723D01*
X36860679Y-36155206D01*
X36850451Y-36133582D01*
X36842393Y-36111060D01*
X36836581Y-36087856D01*
X36833071Y-36064195D01*
X36831897Y-36040303D01*
X36831897Y-35127803D01*
X36833071Y-35103911D01*
X36836581Y-35080250D01*
X36842393Y-35057046D01*
X36850451Y-35034524D01*
X36860679Y-35012900D01*
X36872976Y-34992383D01*
X36887226Y-34973170D01*
X36903290Y-34955446D01*
X36921014Y-34939382D01*
X36940227Y-34925132D01*
X36960744Y-34912835D01*
X36982368Y-34902607D01*
X37004890Y-34894549D01*
X37028094Y-34888737D01*
X37051755Y-34885227D01*
X37075647Y-34884053D01*
X37563147Y-34884053D01*
X37587039Y-34885227D01*
X37587039Y-34885227D01*
G37*
D21*
X37319397Y-35584053D03*
D12*
G36*
X39462039Y-34885227D02*
X39485700Y-34888737D01*
X39508904Y-34894549D01*
X39531426Y-34902607D01*
X39553050Y-34912835D01*
X39573567Y-34925132D01*
X39592780Y-34939382D01*
X39610504Y-34955446D01*
X39626568Y-34973170D01*
X39640818Y-34992383D01*
X39653115Y-35012900D01*
X39663343Y-35034524D01*
X39671401Y-35057046D01*
X39677213Y-35080250D01*
X39680723Y-35103911D01*
X39681897Y-35127803D01*
X39681897Y-36040303D01*
X39680723Y-36064195D01*
X39677213Y-36087856D01*
X39671401Y-36111060D01*
X39663343Y-36133582D01*
X39653115Y-36155206D01*
X39640818Y-36175723D01*
X39626568Y-36194936D01*
X39610504Y-36212660D01*
X39592780Y-36228724D01*
X39573567Y-36242974D01*
X39553050Y-36255271D01*
X39531426Y-36265499D01*
X39508904Y-36273557D01*
X39485700Y-36279369D01*
X39462039Y-36282879D01*
X39438147Y-36284053D01*
X38950647Y-36284053D01*
X38926755Y-36282879D01*
X38903094Y-36279369D01*
X38879890Y-36273557D01*
X38857368Y-36265499D01*
X38835744Y-36255271D01*
X38815227Y-36242974D01*
X38796014Y-36228724D01*
X38778290Y-36212660D01*
X38762226Y-36194936D01*
X38747976Y-36175723D01*
X38735679Y-36155206D01*
X38725451Y-36133582D01*
X38717393Y-36111060D01*
X38711581Y-36087856D01*
X38708071Y-36064195D01*
X38706897Y-36040303D01*
X38706897Y-35127803D01*
X38708071Y-35103911D01*
X38711581Y-35080250D01*
X38717393Y-35057046D01*
X38725451Y-35034524D01*
X38735679Y-35012900D01*
X38747976Y-34992383D01*
X38762226Y-34973170D01*
X38778290Y-34955446D01*
X38796014Y-34939382D01*
X38815227Y-34925132D01*
X38835744Y-34912835D01*
X38857368Y-34902607D01*
X38879890Y-34894549D01*
X38903094Y-34888737D01*
X38926755Y-34885227D01*
X38950647Y-34884053D01*
X39438147Y-34884053D01*
X39462039Y-34885227D01*
X39462039Y-34885227D01*
G37*
D21*
X39194397Y-35584053D03*
G04 #@! TD*
D12*
G04 #@! TO.C,R18*
G36*
X28161958Y-36205710D02*
X28176276Y-36207834D01*
X28190317Y-36211351D01*
X28203946Y-36216228D01*
X28217031Y-36222417D01*
X28229447Y-36229858D01*
X28241073Y-36238481D01*
X28251798Y-36248202D01*
X28261519Y-36258927D01*
X28270142Y-36270553D01*
X28277583Y-36282969D01*
X28283772Y-36296054D01*
X28288649Y-36309683D01*
X28292166Y-36323724D01*
X28294290Y-36338042D01*
X28295000Y-36352500D01*
X28295000Y-36697500D01*
X28294290Y-36711958D01*
X28292166Y-36726276D01*
X28288649Y-36740317D01*
X28283772Y-36753946D01*
X28277583Y-36767031D01*
X28270142Y-36779447D01*
X28261519Y-36791073D01*
X28251798Y-36801798D01*
X28241073Y-36811519D01*
X28229447Y-36820142D01*
X28217031Y-36827583D01*
X28203946Y-36833772D01*
X28190317Y-36838649D01*
X28176276Y-36842166D01*
X28161958Y-36844290D01*
X28147500Y-36845000D01*
X27852500Y-36845000D01*
X27838042Y-36844290D01*
X27823724Y-36842166D01*
X27809683Y-36838649D01*
X27796054Y-36833772D01*
X27782969Y-36827583D01*
X27770553Y-36820142D01*
X27758927Y-36811519D01*
X27748202Y-36801798D01*
X27738481Y-36791073D01*
X27729858Y-36779447D01*
X27722417Y-36767031D01*
X27716228Y-36753946D01*
X27711351Y-36740317D01*
X27707834Y-36726276D01*
X27705710Y-36711958D01*
X27705000Y-36697500D01*
X27705000Y-36352500D01*
X27705710Y-36338042D01*
X27707834Y-36323724D01*
X27711351Y-36309683D01*
X27716228Y-36296054D01*
X27722417Y-36282969D01*
X27729858Y-36270553D01*
X27738481Y-36258927D01*
X27748202Y-36248202D01*
X27758927Y-36238481D01*
X27770553Y-36229858D01*
X27782969Y-36222417D01*
X27796054Y-36216228D01*
X27809683Y-36211351D01*
X27823724Y-36207834D01*
X27838042Y-36205710D01*
X27852500Y-36205000D01*
X28147500Y-36205000D01*
X28161958Y-36205710D01*
X28161958Y-36205710D01*
G37*
D16*
X28000000Y-36525000D03*
D12*
G36*
X29131958Y-36205710D02*
X29146276Y-36207834D01*
X29160317Y-36211351D01*
X29173946Y-36216228D01*
X29187031Y-36222417D01*
X29199447Y-36229858D01*
X29211073Y-36238481D01*
X29221798Y-36248202D01*
X29231519Y-36258927D01*
X29240142Y-36270553D01*
X29247583Y-36282969D01*
X29253772Y-36296054D01*
X29258649Y-36309683D01*
X29262166Y-36323724D01*
X29264290Y-36338042D01*
X29265000Y-36352500D01*
X29265000Y-36697500D01*
X29264290Y-36711958D01*
X29262166Y-36726276D01*
X29258649Y-36740317D01*
X29253772Y-36753946D01*
X29247583Y-36767031D01*
X29240142Y-36779447D01*
X29231519Y-36791073D01*
X29221798Y-36801798D01*
X29211073Y-36811519D01*
X29199447Y-36820142D01*
X29187031Y-36827583D01*
X29173946Y-36833772D01*
X29160317Y-36838649D01*
X29146276Y-36842166D01*
X29131958Y-36844290D01*
X29117500Y-36845000D01*
X28822500Y-36845000D01*
X28808042Y-36844290D01*
X28793724Y-36842166D01*
X28779683Y-36838649D01*
X28766054Y-36833772D01*
X28752969Y-36827583D01*
X28740553Y-36820142D01*
X28728927Y-36811519D01*
X28718202Y-36801798D01*
X28708481Y-36791073D01*
X28699858Y-36779447D01*
X28692417Y-36767031D01*
X28686228Y-36753946D01*
X28681351Y-36740317D01*
X28677834Y-36726276D01*
X28675710Y-36711958D01*
X28675000Y-36697500D01*
X28675000Y-36352500D01*
X28675710Y-36338042D01*
X28677834Y-36323724D01*
X28681351Y-36309683D01*
X28686228Y-36296054D01*
X28692417Y-36282969D01*
X28699858Y-36270553D01*
X28708481Y-36258927D01*
X28718202Y-36248202D01*
X28728927Y-36238481D01*
X28740553Y-36229858D01*
X28752969Y-36222417D01*
X28766054Y-36216228D01*
X28779683Y-36211351D01*
X28793724Y-36207834D01*
X28808042Y-36205710D01*
X28822500Y-36205000D01*
X29117500Y-36205000D01*
X29131958Y-36205710D01*
X29131958Y-36205710D01*
G37*
D16*
X28970000Y-36525000D03*
G04 #@! TD*
D12*
G04 #@! TO.C,R19*
G36*
X30141355Y-35164763D02*
X30155673Y-35166887D01*
X30169714Y-35170404D01*
X30183343Y-35175281D01*
X30196428Y-35181470D01*
X30208844Y-35188911D01*
X30220470Y-35197534D01*
X30231195Y-35207255D01*
X30240916Y-35217980D01*
X30249539Y-35229606D01*
X30256980Y-35242022D01*
X30263169Y-35255107D01*
X30268046Y-35268736D01*
X30271563Y-35282777D01*
X30273687Y-35297095D01*
X30274397Y-35311553D01*
X30274397Y-35656553D01*
X30273687Y-35671011D01*
X30271563Y-35685329D01*
X30268046Y-35699370D01*
X30263169Y-35712999D01*
X30256980Y-35726084D01*
X30249539Y-35738500D01*
X30240916Y-35750126D01*
X30231195Y-35760851D01*
X30220470Y-35770572D01*
X30208844Y-35779195D01*
X30196428Y-35786636D01*
X30183343Y-35792825D01*
X30169714Y-35797702D01*
X30155673Y-35801219D01*
X30141355Y-35803343D01*
X30126897Y-35804053D01*
X29831897Y-35804053D01*
X29817439Y-35803343D01*
X29803121Y-35801219D01*
X29789080Y-35797702D01*
X29775451Y-35792825D01*
X29762366Y-35786636D01*
X29749950Y-35779195D01*
X29738324Y-35770572D01*
X29727599Y-35760851D01*
X29717878Y-35750126D01*
X29709255Y-35738500D01*
X29701814Y-35726084D01*
X29695625Y-35712999D01*
X29690748Y-35699370D01*
X29687231Y-35685329D01*
X29685107Y-35671011D01*
X29684397Y-35656553D01*
X29684397Y-35311553D01*
X29685107Y-35297095D01*
X29687231Y-35282777D01*
X29690748Y-35268736D01*
X29695625Y-35255107D01*
X29701814Y-35242022D01*
X29709255Y-35229606D01*
X29717878Y-35217980D01*
X29727599Y-35207255D01*
X29738324Y-35197534D01*
X29749950Y-35188911D01*
X29762366Y-35181470D01*
X29775451Y-35175281D01*
X29789080Y-35170404D01*
X29803121Y-35166887D01*
X29817439Y-35164763D01*
X29831897Y-35164053D01*
X30126897Y-35164053D01*
X30141355Y-35164763D01*
X30141355Y-35164763D01*
G37*
D16*
X29979397Y-35484053D03*
D12*
G36*
X29171355Y-35164763D02*
X29185673Y-35166887D01*
X29199714Y-35170404D01*
X29213343Y-35175281D01*
X29226428Y-35181470D01*
X29238844Y-35188911D01*
X29250470Y-35197534D01*
X29261195Y-35207255D01*
X29270916Y-35217980D01*
X29279539Y-35229606D01*
X29286980Y-35242022D01*
X29293169Y-35255107D01*
X29298046Y-35268736D01*
X29301563Y-35282777D01*
X29303687Y-35297095D01*
X29304397Y-35311553D01*
X29304397Y-35656553D01*
X29303687Y-35671011D01*
X29301563Y-35685329D01*
X29298046Y-35699370D01*
X29293169Y-35712999D01*
X29286980Y-35726084D01*
X29279539Y-35738500D01*
X29270916Y-35750126D01*
X29261195Y-35760851D01*
X29250470Y-35770572D01*
X29238844Y-35779195D01*
X29226428Y-35786636D01*
X29213343Y-35792825D01*
X29199714Y-35797702D01*
X29185673Y-35801219D01*
X29171355Y-35803343D01*
X29156897Y-35804053D01*
X28861897Y-35804053D01*
X28847439Y-35803343D01*
X28833121Y-35801219D01*
X28819080Y-35797702D01*
X28805451Y-35792825D01*
X28792366Y-35786636D01*
X28779950Y-35779195D01*
X28768324Y-35770572D01*
X28757599Y-35760851D01*
X28747878Y-35750126D01*
X28739255Y-35738500D01*
X28731814Y-35726084D01*
X28725625Y-35712999D01*
X28720748Y-35699370D01*
X28717231Y-35685329D01*
X28715107Y-35671011D01*
X28714397Y-35656553D01*
X28714397Y-35311553D01*
X28715107Y-35297095D01*
X28717231Y-35282777D01*
X28720748Y-35268736D01*
X28725625Y-35255107D01*
X28731814Y-35242022D01*
X28739255Y-35229606D01*
X28747878Y-35217980D01*
X28757599Y-35207255D01*
X28768324Y-35197534D01*
X28779950Y-35188911D01*
X28792366Y-35181470D01*
X28805451Y-35175281D01*
X28819080Y-35170404D01*
X28833121Y-35166887D01*
X28847439Y-35164763D01*
X28861897Y-35164053D01*
X29156897Y-35164053D01*
X29171355Y-35164763D01*
X29171355Y-35164763D01*
G37*
D16*
X29009397Y-35484053D03*
G04 #@! TD*
D12*
G04 #@! TO.C,J4*
G36*
X43024504Y-38726204D02*
X43048773Y-38729804D01*
X43072571Y-38735765D01*
X43095671Y-38744030D01*
X43117849Y-38754520D01*
X43138893Y-38767133D01*
X43158598Y-38781747D01*
X43176777Y-38798223D01*
X43193253Y-38816402D01*
X43207867Y-38836107D01*
X43220480Y-38857151D01*
X43230970Y-38879329D01*
X43239235Y-38902429D01*
X43245196Y-38926227D01*
X43248796Y-38950496D01*
X43250000Y-38975000D01*
X43250000Y-39475000D01*
X43248796Y-39499504D01*
X43245196Y-39523773D01*
X43239235Y-39547571D01*
X43230970Y-39570671D01*
X43220480Y-39592849D01*
X43207867Y-39613893D01*
X43193253Y-39633598D01*
X43176777Y-39651777D01*
X43158598Y-39668253D01*
X43138893Y-39682867D01*
X43117849Y-39695480D01*
X43095671Y-39705970D01*
X43072571Y-39714235D01*
X43048773Y-39720196D01*
X43024504Y-39723796D01*
X43000000Y-39725000D01*
X40800000Y-39725000D01*
X40775496Y-39723796D01*
X40751227Y-39720196D01*
X40727429Y-39714235D01*
X40704329Y-39705970D01*
X40682151Y-39695480D01*
X40661107Y-39682867D01*
X40641402Y-39668253D01*
X40623223Y-39651777D01*
X40606747Y-39633598D01*
X40592133Y-39613893D01*
X40579520Y-39592849D01*
X40569030Y-39570671D01*
X40560765Y-39547571D01*
X40554804Y-39523773D01*
X40551204Y-39499504D01*
X40550000Y-39475000D01*
X40550000Y-38975000D01*
X40551204Y-38950496D01*
X40554804Y-38926227D01*
X40560765Y-38902429D01*
X40569030Y-38879329D01*
X40579520Y-38857151D01*
X40592133Y-38836107D01*
X40606747Y-38816402D01*
X40623223Y-38798223D01*
X40641402Y-38781747D01*
X40661107Y-38767133D01*
X40682151Y-38754520D01*
X40704329Y-38744030D01*
X40727429Y-38735765D01*
X40751227Y-38729804D01*
X40775496Y-38726204D01*
X40800000Y-38725000D01*
X43000000Y-38725000D01*
X43024504Y-38726204D01*
X43024504Y-38726204D01*
G37*
D13*
X41900000Y-39225000D03*
D12*
G36*
X43024504Y-36726204D02*
X43048773Y-36729804D01*
X43072571Y-36735765D01*
X43095671Y-36744030D01*
X43117849Y-36754520D01*
X43138893Y-36767133D01*
X43158598Y-36781747D01*
X43176777Y-36798223D01*
X43193253Y-36816402D01*
X43207867Y-36836107D01*
X43220480Y-36857151D01*
X43230970Y-36879329D01*
X43239235Y-36902429D01*
X43245196Y-36926227D01*
X43248796Y-36950496D01*
X43250000Y-36975000D01*
X43250000Y-37475000D01*
X43248796Y-37499504D01*
X43245196Y-37523773D01*
X43239235Y-37547571D01*
X43230970Y-37570671D01*
X43220480Y-37592849D01*
X43207867Y-37613893D01*
X43193253Y-37633598D01*
X43176777Y-37651777D01*
X43158598Y-37668253D01*
X43138893Y-37682867D01*
X43117849Y-37695480D01*
X43095671Y-37705970D01*
X43072571Y-37714235D01*
X43048773Y-37720196D01*
X43024504Y-37723796D01*
X43000000Y-37725000D01*
X40800000Y-37725000D01*
X40775496Y-37723796D01*
X40751227Y-37720196D01*
X40727429Y-37714235D01*
X40704329Y-37705970D01*
X40682151Y-37695480D01*
X40661107Y-37682867D01*
X40641402Y-37668253D01*
X40623223Y-37651777D01*
X40606747Y-37633598D01*
X40592133Y-37613893D01*
X40579520Y-37592849D01*
X40569030Y-37570671D01*
X40560765Y-37547571D01*
X40554804Y-37523773D01*
X40551204Y-37499504D01*
X40550000Y-37475000D01*
X40550000Y-36975000D01*
X40551204Y-36950496D01*
X40554804Y-36926227D01*
X40560765Y-36902429D01*
X40569030Y-36879329D01*
X40579520Y-36857151D01*
X40592133Y-36836107D01*
X40606747Y-36816402D01*
X40623223Y-36798223D01*
X40641402Y-36781747D01*
X40661107Y-36767133D01*
X40682151Y-36754520D01*
X40704329Y-36744030D01*
X40727429Y-36735765D01*
X40751227Y-36729804D01*
X40775496Y-36726204D01*
X40800000Y-36725000D01*
X43000000Y-36725000D01*
X43024504Y-36726204D01*
X43024504Y-36726204D01*
G37*
D13*
X41900000Y-37225000D03*
D12*
G36*
X43024504Y-34726204D02*
X43048773Y-34729804D01*
X43072571Y-34735765D01*
X43095671Y-34744030D01*
X43117849Y-34754520D01*
X43138893Y-34767133D01*
X43158598Y-34781747D01*
X43176777Y-34798223D01*
X43193253Y-34816402D01*
X43207867Y-34836107D01*
X43220480Y-34857151D01*
X43230970Y-34879329D01*
X43239235Y-34902429D01*
X43245196Y-34926227D01*
X43248796Y-34950496D01*
X43250000Y-34975000D01*
X43250000Y-35475000D01*
X43248796Y-35499504D01*
X43245196Y-35523773D01*
X43239235Y-35547571D01*
X43230970Y-35570671D01*
X43220480Y-35592849D01*
X43207867Y-35613893D01*
X43193253Y-35633598D01*
X43176777Y-35651777D01*
X43158598Y-35668253D01*
X43138893Y-35682867D01*
X43117849Y-35695480D01*
X43095671Y-35705970D01*
X43072571Y-35714235D01*
X43048773Y-35720196D01*
X43024504Y-35723796D01*
X43000000Y-35725000D01*
X40800000Y-35725000D01*
X40775496Y-35723796D01*
X40751227Y-35720196D01*
X40727429Y-35714235D01*
X40704329Y-35705970D01*
X40682151Y-35695480D01*
X40661107Y-35682867D01*
X40641402Y-35668253D01*
X40623223Y-35651777D01*
X40606747Y-35633598D01*
X40592133Y-35613893D01*
X40579520Y-35592849D01*
X40569030Y-35570671D01*
X40560765Y-35547571D01*
X40554804Y-35523773D01*
X40551204Y-35499504D01*
X40550000Y-35475000D01*
X40550000Y-34975000D01*
X40551204Y-34950496D01*
X40554804Y-34926227D01*
X40560765Y-34902429D01*
X40569030Y-34879329D01*
X40579520Y-34857151D01*
X40592133Y-34836107D01*
X40606747Y-34816402D01*
X40623223Y-34798223D01*
X40641402Y-34781747D01*
X40661107Y-34767133D01*
X40682151Y-34754520D01*
X40704329Y-34744030D01*
X40727429Y-34735765D01*
X40751227Y-34729804D01*
X40775496Y-34726204D01*
X40800000Y-34725000D01*
X43000000Y-34725000D01*
X43024504Y-34726204D01*
X43024504Y-34726204D01*
G37*
D13*
X41900000Y-35225000D03*
D12*
G36*
X48024504Y-40676204D02*
X48048773Y-40679804D01*
X48072571Y-40685765D01*
X48095671Y-40694030D01*
X48117849Y-40704520D01*
X48138893Y-40717133D01*
X48158598Y-40731747D01*
X48176777Y-40748223D01*
X48193253Y-40766402D01*
X48207867Y-40786107D01*
X48220480Y-40807151D01*
X48230970Y-40829329D01*
X48239235Y-40852429D01*
X48245196Y-40876227D01*
X48248796Y-40900496D01*
X48250000Y-40925000D01*
X48250000Y-42225000D01*
X48248796Y-42249504D01*
X48245196Y-42273773D01*
X48239235Y-42297571D01*
X48230970Y-42320671D01*
X48220480Y-42342849D01*
X48207867Y-42363893D01*
X48193253Y-42383598D01*
X48176777Y-42401777D01*
X48158598Y-42418253D01*
X48138893Y-42432867D01*
X48117849Y-42445480D01*
X48095671Y-42455970D01*
X48072571Y-42464235D01*
X48048773Y-42470196D01*
X48024504Y-42473796D01*
X48000000Y-42475000D01*
X44700000Y-42475000D01*
X44675496Y-42473796D01*
X44651227Y-42470196D01*
X44627429Y-42464235D01*
X44604329Y-42455970D01*
X44582151Y-42445480D01*
X44561107Y-42432867D01*
X44541402Y-42418253D01*
X44523223Y-42401777D01*
X44506747Y-42383598D01*
X44492133Y-42363893D01*
X44479520Y-42342849D01*
X44469030Y-42320671D01*
X44460765Y-42297571D01*
X44454804Y-42273773D01*
X44451204Y-42249504D01*
X44450000Y-42225000D01*
X44450000Y-40925000D01*
X44451204Y-40900496D01*
X44454804Y-40876227D01*
X44460765Y-40852429D01*
X44469030Y-40829329D01*
X44479520Y-40807151D01*
X44492133Y-40786107D01*
X44506747Y-40766402D01*
X44523223Y-40748223D01*
X44541402Y-40731747D01*
X44561107Y-40717133D01*
X44582151Y-40704520D01*
X44604329Y-40694030D01*
X44627429Y-40685765D01*
X44651227Y-40679804D01*
X44675496Y-40676204D01*
X44700000Y-40675000D01*
X48000000Y-40675000D01*
X48024504Y-40676204D01*
X48024504Y-40676204D01*
G37*
D14*
X46350000Y-41575000D03*
D12*
G36*
X48024504Y-31976204D02*
X48048773Y-31979804D01*
X48072571Y-31985765D01*
X48095671Y-31994030D01*
X48117849Y-32004520D01*
X48138893Y-32017133D01*
X48158598Y-32031747D01*
X48176777Y-32048223D01*
X48193253Y-32066402D01*
X48207867Y-32086107D01*
X48220480Y-32107151D01*
X48230970Y-32129329D01*
X48239235Y-32152429D01*
X48245196Y-32176227D01*
X48248796Y-32200496D01*
X48250000Y-32225000D01*
X48250000Y-33525000D01*
X48248796Y-33549504D01*
X48245196Y-33573773D01*
X48239235Y-33597571D01*
X48230970Y-33620671D01*
X48220480Y-33642849D01*
X48207867Y-33663893D01*
X48193253Y-33683598D01*
X48176777Y-33701777D01*
X48158598Y-33718253D01*
X48138893Y-33732867D01*
X48117849Y-33745480D01*
X48095671Y-33755970D01*
X48072571Y-33764235D01*
X48048773Y-33770196D01*
X48024504Y-33773796D01*
X48000000Y-33775000D01*
X44700000Y-33775000D01*
X44675496Y-33773796D01*
X44651227Y-33770196D01*
X44627429Y-33764235D01*
X44604329Y-33755970D01*
X44582151Y-33745480D01*
X44561107Y-33732867D01*
X44541402Y-33718253D01*
X44523223Y-33701777D01*
X44506747Y-33683598D01*
X44492133Y-33663893D01*
X44479520Y-33642849D01*
X44469030Y-33620671D01*
X44460765Y-33597571D01*
X44454804Y-33573773D01*
X44451204Y-33549504D01*
X44450000Y-33525000D01*
X44450000Y-32225000D01*
X44451204Y-32200496D01*
X44454804Y-32176227D01*
X44460765Y-32152429D01*
X44469030Y-32129329D01*
X44479520Y-32107151D01*
X44492133Y-32086107D01*
X44506747Y-32066402D01*
X44523223Y-32048223D01*
X44541402Y-32031747D01*
X44561107Y-32017133D01*
X44582151Y-32004520D01*
X44604329Y-31994030D01*
X44627429Y-31985765D01*
X44651227Y-31979804D01*
X44675496Y-31976204D01*
X44700000Y-31975000D01*
X48000000Y-31975000D01*
X48024504Y-31976204D01*
X48024504Y-31976204D01*
G37*
D14*
X46350000Y-32875000D03*
G04 #@! TD*
D12*
G04 #@! TO.C,R16*
G36*
X34599504Y-10226204D02*
X34623773Y-10229804D01*
X34647571Y-10235765D01*
X34670671Y-10244030D01*
X34692849Y-10254520D01*
X34713893Y-10267133D01*
X34733598Y-10281747D01*
X34751777Y-10298223D01*
X34768253Y-10316402D01*
X34782867Y-10336107D01*
X34795480Y-10357151D01*
X34805970Y-10379329D01*
X34814235Y-10402429D01*
X34820196Y-10426227D01*
X34823796Y-10450496D01*
X34825000Y-10475000D01*
X34825000Y-11725000D01*
X34823796Y-11749504D01*
X34820196Y-11773773D01*
X34814235Y-11797571D01*
X34805970Y-11820671D01*
X34795480Y-11842849D01*
X34782867Y-11863893D01*
X34768253Y-11883598D01*
X34751777Y-11901777D01*
X34733598Y-11918253D01*
X34713893Y-11932867D01*
X34692849Y-11945480D01*
X34670671Y-11955970D01*
X34647571Y-11964235D01*
X34623773Y-11970196D01*
X34599504Y-11973796D01*
X34575000Y-11975000D01*
X33825000Y-11975000D01*
X33800496Y-11973796D01*
X33776227Y-11970196D01*
X33752429Y-11964235D01*
X33729329Y-11955970D01*
X33707151Y-11945480D01*
X33686107Y-11932867D01*
X33666402Y-11918253D01*
X33648223Y-11901777D01*
X33631747Y-11883598D01*
X33617133Y-11863893D01*
X33604520Y-11842849D01*
X33594030Y-11820671D01*
X33585765Y-11797571D01*
X33579804Y-11773773D01*
X33576204Y-11749504D01*
X33575000Y-11725000D01*
X33575000Y-10475000D01*
X33576204Y-10450496D01*
X33579804Y-10426227D01*
X33585765Y-10402429D01*
X33594030Y-10379329D01*
X33604520Y-10357151D01*
X33617133Y-10336107D01*
X33631747Y-10316402D01*
X33648223Y-10298223D01*
X33666402Y-10281747D01*
X33686107Y-10267133D01*
X33707151Y-10254520D01*
X33729329Y-10244030D01*
X33752429Y-10235765D01*
X33776227Y-10229804D01*
X33800496Y-10226204D01*
X33825000Y-10225000D01*
X34575000Y-10225000D01*
X34599504Y-10226204D01*
X34599504Y-10226204D01*
G37*
D22*
X34200000Y-11100000D03*
D12*
G36*
X37399504Y-10226204D02*
X37423773Y-10229804D01*
X37447571Y-10235765D01*
X37470671Y-10244030D01*
X37492849Y-10254520D01*
X37513893Y-10267133D01*
X37533598Y-10281747D01*
X37551777Y-10298223D01*
X37568253Y-10316402D01*
X37582867Y-10336107D01*
X37595480Y-10357151D01*
X37605970Y-10379329D01*
X37614235Y-10402429D01*
X37620196Y-10426227D01*
X37623796Y-10450496D01*
X37625000Y-10475000D01*
X37625000Y-11725000D01*
X37623796Y-11749504D01*
X37620196Y-11773773D01*
X37614235Y-11797571D01*
X37605970Y-11820671D01*
X37595480Y-11842849D01*
X37582867Y-11863893D01*
X37568253Y-11883598D01*
X37551777Y-11901777D01*
X37533598Y-11918253D01*
X37513893Y-11932867D01*
X37492849Y-11945480D01*
X37470671Y-11955970D01*
X37447571Y-11964235D01*
X37423773Y-11970196D01*
X37399504Y-11973796D01*
X37375000Y-11975000D01*
X36625000Y-11975000D01*
X36600496Y-11973796D01*
X36576227Y-11970196D01*
X36552429Y-11964235D01*
X36529329Y-11955970D01*
X36507151Y-11945480D01*
X36486107Y-11932867D01*
X36466402Y-11918253D01*
X36448223Y-11901777D01*
X36431747Y-11883598D01*
X36417133Y-11863893D01*
X36404520Y-11842849D01*
X36394030Y-11820671D01*
X36385765Y-11797571D01*
X36379804Y-11773773D01*
X36376204Y-11749504D01*
X36375000Y-11725000D01*
X36375000Y-10475000D01*
X36376204Y-10450496D01*
X36379804Y-10426227D01*
X36385765Y-10402429D01*
X36394030Y-10379329D01*
X36404520Y-10357151D01*
X36417133Y-10336107D01*
X36431747Y-10316402D01*
X36448223Y-10298223D01*
X36466402Y-10281747D01*
X36486107Y-10267133D01*
X36507151Y-10254520D01*
X36529329Y-10244030D01*
X36552429Y-10235765D01*
X36576227Y-10229804D01*
X36600496Y-10226204D01*
X36625000Y-10225000D01*
X37375000Y-10225000D01*
X37399504Y-10226204D01*
X37399504Y-10226204D01*
G37*
D22*
X37000000Y-11100000D03*
G04 #@! TD*
D12*
G04 #@! TO.C,R20*
G36*
X6249504Y-10276204D02*
X6273773Y-10279804D01*
X6297571Y-10285765D01*
X6320671Y-10294030D01*
X6342849Y-10304520D01*
X6363893Y-10317133D01*
X6383598Y-10331747D01*
X6401777Y-10348223D01*
X6418253Y-10366402D01*
X6432867Y-10386107D01*
X6445480Y-10407151D01*
X6455970Y-10429329D01*
X6464235Y-10452429D01*
X6470196Y-10476227D01*
X6473796Y-10500496D01*
X6475000Y-10525000D01*
X6475000Y-11275000D01*
X6473796Y-11299504D01*
X6470196Y-11323773D01*
X6464235Y-11347571D01*
X6455970Y-11370671D01*
X6445480Y-11392849D01*
X6432867Y-11413893D01*
X6418253Y-11433598D01*
X6401777Y-11451777D01*
X6383598Y-11468253D01*
X6363893Y-11482867D01*
X6342849Y-11495480D01*
X6320671Y-11505970D01*
X6297571Y-11514235D01*
X6273773Y-11520196D01*
X6249504Y-11523796D01*
X6225000Y-11525000D01*
X4975000Y-11525000D01*
X4950496Y-11523796D01*
X4926227Y-11520196D01*
X4902429Y-11514235D01*
X4879329Y-11505970D01*
X4857151Y-11495480D01*
X4836107Y-11482867D01*
X4816402Y-11468253D01*
X4798223Y-11451777D01*
X4781747Y-11433598D01*
X4767133Y-11413893D01*
X4754520Y-11392849D01*
X4744030Y-11370671D01*
X4735765Y-11347571D01*
X4729804Y-11323773D01*
X4726204Y-11299504D01*
X4725000Y-11275000D01*
X4725000Y-10525000D01*
X4726204Y-10500496D01*
X4729804Y-10476227D01*
X4735765Y-10452429D01*
X4744030Y-10429329D01*
X4754520Y-10407151D01*
X4767133Y-10386107D01*
X4781747Y-10366402D01*
X4798223Y-10348223D01*
X4816402Y-10331747D01*
X4836107Y-10317133D01*
X4857151Y-10304520D01*
X4879329Y-10294030D01*
X4902429Y-10285765D01*
X4926227Y-10279804D01*
X4950496Y-10276204D01*
X4975000Y-10275000D01*
X6225000Y-10275000D01*
X6249504Y-10276204D01*
X6249504Y-10276204D01*
G37*
D22*
X5600000Y-10900000D03*
D12*
G36*
X6249504Y-13076204D02*
X6273773Y-13079804D01*
X6297571Y-13085765D01*
X6320671Y-13094030D01*
X6342849Y-13104520D01*
X6363893Y-13117133D01*
X6383598Y-13131747D01*
X6401777Y-13148223D01*
X6418253Y-13166402D01*
X6432867Y-13186107D01*
X6445480Y-13207151D01*
X6455970Y-13229329D01*
X6464235Y-13252429D01*
X6470196Y-13276227D01*
X6473796Y-13300496D01*
X6475000Y-13325000D01*
X6475000Y-14075000D01*
X6473796Y-14099504D01*
X6470196Y-14123773D01*
X6464235Y-14147571D01*
X6455970Y-14170671D01*
X6445480Y-14192849D01*
X6432867Y-14213893D01*
X6418253Y-14233598D01*
X6401777Y-14251777D01*
X6383598Y-14268253D01*
X6363893Y-14282867D01*
X6342849Y-14295480D01*
X6320671Y-14305970D01*
X6297571Y-14314235D01*
X6273773Y-14320196D01*
X6249504Y-14323796D01*
X6225000Y-14325000D01*
X4975000Y-14325000D01*
X4950496Y-14323796D01*
X4926227Y-14320196D01*
X4902429Y-14314235D01*
X4879329Y-14305970D01*
X4857151Y-14295480D01*
X4836107Y-14282867D01*
X4816402Y-14268253D01*
X4798223Y-14251777D01*
X4781747Y-14233598D01*
X4767133Y-14213893D01*
X4754520Y-14192849D01*
X4744030Y-14170671D01*
X4735765Y-14147571D01*
X4729804Y-14123773D01*
X4726204Y-14099504D01*
X4725000Y-14075000D01*
X4725000Y-13325000D01*
X4726204Y-13300496D01*
X4729804Y-13276227D01*
X4735765Y-13252429D01*
X4744030Y-13229329D01*
X4754520Y-13207151D01*
X4767133Y-13186107D01*
X4781747Y-13166402D01*
X4798223Y-13148223D01*
X4816402Y-13131747D01*
X4836107Y-13117133D01*
X4857151Y-13104520D01*
X4879329Y-13094030D01*
X4902429Y-13085765D01*
X4926227Y-13079804D01*
X4950496Y-13076204D01*
X4975000Y-13075000D01*
X6225000Y-13075000D01*
X6249504Y-13076204D01*
X6249504Y-13076204D01*
G37*
D22*
X5600000Y-13700000D03*
G04 #@! TD*
D12*
G04 #@! TO.C,C4*
G36*
X16536958Y-5305710D02*
X16551276Y-5307834D01*
X16565317Y-5311351D01*
X16578946Y-5316228D01*
X16592031Y-5322417D01*
X16604447Y-5329858D01*
X16616073Y-5338481D01*
X16626798Y-5348202D01*
X16636519Y-5358927D01*
X16645142Y-5370553D01*
X16652583Y-5382969D01*
X16658772Y-5396054D01*
X16663649Y-5409683D01*
X16667166Y-5423724D01*
X16669290Y-5438042D01*
X16670000Y-5452500D01*
X16670000Y-5797500D01*
X16669290Y-5811958D01*
X16667166Y-5826276D01*
X16663649Y-5840317D01*
X16658772Y-5853946D01*
X16652583Y-5867031D01*
X16645142Y-5879447D01*
X16636519Y-5891073D01*
X16626798Y-5901798D01*
X16616073Y-5911519D01*
X16604447Y-5920142D01*
X16592031Y-5927583D01*
X16578946Y-5933772D01*
X16565317Y-5938649D01*
X16551276Y-5942166D01*
X16536958Y-5944290D01*
X16522500Y-5945000D01*
X16227500Y-5945000D01*
X16213042Y-5944290D01*
X16198724Y-5942166D01*
X16184683Y-5938649D01*
X16171054Y-5933772D01*
X16157969Y-5927583D01*
X16145553Y-5920142D01*
X16133927Y-5911519D01*
X16123202Y-5901798D01*
X16113481Y-5891073D01*
X16104858Y-5879447D01*
X16097417Y-5867031D01*
X16091228Y-5853946D01*
X16086351Y-5840317D01*
X16082834Y-5826276D01*
X16080710Y-5811958D01*
X16080000Y-5797500D01*
X16080000Y-5452500D01*
X16080710Y-5438042D01*
X16082834Y-5423724D01*
X16086351Y-5409683D01*
X16091228Y-5396054D01*
X16097417Y-5382969D01*
X16104858Y-5370553D01*
X16113481Y-5358927D01*
X16123202Y-5348202D01*
X16133927Y-5338481D01*
X16145553Y-5329858D01*
X16157969Y-5322417D01*
X16171054Y-5316228D01*
X16184683Y-5311351D01*
X16198724Y-5307834D01*
X16213042Y-5305710D01*
X16227500Y-5305000D01*
X16522500Y-5305000D01*
X16536958Y-5305710D01*
X16536958Y-5305710D01*
G37*
D16*
X16375000Y-5625000D03*
D12*
G36*
X15566958Y-5305710D02*
X15581276Y-5307834D01*
X15595317Y-5311351D01*
X15608946Y-5316228D01*
X15622031Y-5322417D01*
X15634447Y-5329858D01*
X15646073Y-5338481D01*
X15656798Y-5348202D01*
X15666519Y-5358927D01*
X15675142Y-5370553D01*
X15682583Y-5382969D01*
X15688772Y-5396054D01*
X15693649Y-5409683D01*
X15697166Y-5423724D01*
X15699290Y-5438042D01*
X15700000Y-5452500D01*
X15700000Y-5797500D01*
X15699290Y-5811958D01*
X15697166Y-5826276D01*
X15693649Y-5840317D01*
X15688772Y-5853946D01*
X15682583Y-5867031D01*
X15675142Y-5879447D01*
X15666519Y-5891073D01*
X15656798Y-5901798D01*
X15646073Y-5911519D01*
X15634447Y-5920142D01*
X15622031Y-5927583D01*
X15608946Y-5933772D01*
X15595317Y-5938649D01*
X15581276Y-5942166D01*
X15566958Y-5944290D01*
X15552500Y-5945000D01*
X15257500Y-5945000D01*
X15243042Y-5944290D01*
X15228724Y-5942166D01*
X15214683Y-5938649D01*
X15201054Y-5933772D01*
X15187969Y-5927583D01*
X15175553Y-5920142D01*
X15163927Y-5911519D01*
X15153202Y-5901798D01*
X15143481Y-5891073D01*
X15134858Y-5879447D01*
X15127417Y-5867031D01*
X15121228Y-5853946D01*
X15116351Y-5840317D01*
X15112834Y-5826276D01*
X15110710Y-5811958D01*
X15110000Y-5797500D01*
X15110000Y-5452500D01*
X15110710Y-5438042D01*
X15112834Y-5423724D01*
X15116351Y-5409683D01*
X15121228Y-5396054D01*
X15127417Y-5382969D01*
X15134858Y-5370553D01*
X15143481Y-5358927D01*
X15153202Y-5348202D01*
X15163927Y-5338481D01*
X15175553Y-5329858D01*
X15187969Y-5322417D01*
X15201054Y-5316228D01*
X15214683Y-5311351D01*
X15228724Y-5307834D01*
X15243042Y-5305710D01*
X15257500Y-5305000D01*
X15552500Y-5305000D01*
X15566958Y-5305710D01*
X15566958Y-5305710D01*
G37*
D16*
X15405000Y-5625000D03*
G04 #@! TD*
D12*
G04 #@! TO.C,C6*
G36*
X33411958Y-12610710D02*
X33426276Y-12612834D01*
X33440317Y-12616351D01*
X33453946Y-12621228D01*
X33467031Y-12627417D01*
X33479447Y-12634858D01*
X33491073Y-12643481D01*
X33501798Y-12653202D01*
X33511519Y-12663927D01*
X33520142Y-12675553D01*
X33527583Y-12687969D01*
X33533772Y-12701054D01*
X33538649Y-12714683D01*
X33542166Y-12728724D01*
X33544290Y-12743042D01*
X33545000Y-12757500D01*
X33545000Y-13052500D01*
X33544290Y-13066958D01*
X33542166Y-13081276D01*
X33538649Y-13095317D01*
X33533772Y-13108946D01*
X33527583Y-13122031D01*
X33520142Y-13134447D01*
X33511519Y-13146073D01*
X33501798Y-13156798D01*
X33491073Y-13166519D01*
X33479447Y-13175142D01*
X33467031Y-13182583D01*
X33453946Y-13188772D01*
X33440317Y-13193649D01*
X33426276Y-13197166D01*
X33411958Y-13199290D01*
X33397500Y-13200000D01*
X33052500Y-13200000D01*
X33038042Y-13199290D01*
X33023724Y-13197166D01*
X33009683Y-13193649D01*
X32996054Y-13188772D01*
X32982969Y-13182583D01*
X32970553Y-13175142D01*
X32958927Y-13166519D01*
X32948202Y-13156798D01*
X32938481Y-13146073D01*
X32929858Y-13134447D01*
X32922417Y-13122031D01*
X32916228Y-13108946D01*
X32911351Y-13095317D01*
X32907834Y-13081276D01*
X32905710Y-13066958D01*
X32905000Y-13052500D01*
X32905000Y-12757500D01*
X32905710Y-12743042D01*
X32907834Y-12728724D01*
X32911351Y-12714683D01*
X32916228Y-12701054D01*
X32922417Y-12687969D01*
X32929858Y-12675553D01*
X32938481Y-12663927D01*
X32948202Y-12653202D01*
X32958927Y-12643481D01*
X32970553Y-12634858D01*
X32982969Y-12627417D01*
X32996054Y-12621228D01*
X33009683Y-12616351D01*
X33023724Y-12612834D01*
X33038042Y-12610710D01*
X33052500Y-12610000D01*
X33397500Y-12610000D01*
X33411958Y-12610710D01*
X33411958Y-12610710D01*
G37*
D16*
X33225000Y-12905000D03*
D12*
G36*
X33411958Y-13580710D02*
X33426276Y-13582834D01*
X33440317Y-13586351D01*
X33453946Y-13591228D01*
X33467031Y-13597417D01*
X33479447Y-13604858D01*
X33491073Y-13613481D01*
X33501798Y-13623202D01*
X33511519Y-13633927D01*
X33520142Y-13645553D01*
X33527583Y-13657969D01*
X33533772Y-13671054D01*
X33538649Y-13684683D01*
X33542166Y-13698724D01*
X33544290Y-13713042D01*
X33545000Y-13727500D01*
X33545000Y-14022500D01*
X33544290Y-14036958D01*
X33542166Y-14051276D01*
X33538649Y-14065317D01*
X33533772Y-14078946D01*
X33527583Y-14092031D01*
X33520142Y-14104447D01*
X33511519Y-14116073D01*
X33501798Y-14126798D01*
X33491073Y-14136519D01*
X33479447Y-14145142D01*
X33467031Y-14152583D01*
X33453946Y-14158772D01*
X33440317Y-14163649D01*
X33426276Y-14167166D01*
X33411958Y-14169290D01*
X33397500Y-14170000D01*
X33052500Y-14170000D01*
X33038042Y-14169290D01*
X33023724Y-14167166D01*
X33009683Y-14163649D01*
X32996054Y-14158772D01*
X32982969Y-14152583D01*
X32970553Y-14145142D01*
X32958927Y-14136519D01*
X32948202Y-14126798D01*
X32938481Y-14116073D01*
X32929858Y-14104447D01*
X32922417Y-14092031D01*
X32916228Y-14078946D01*
X32911351Y-14065317D01*
X32907834Y-14051276D01*
X32905710Y-14036958D01*
X32905000Y-14022500D01*
X32905000Y-13727500D01*
X32905710Y-13713042D01*
X32907834Y-13698724D01*
X32911351Y-13684683D01*
X32916228Y-13671054D01*
X32922417Y-13657969D01*
X32929858Y-13645553D01*
X32938481Y-13633927D01*
X32948202Y-13623202D01*
X32958927Y-13613481D01*
X32970553Y-13604858D01*
X32982969Y-13597417D01*
X32996054Y-13591228D01*
X33009683Y-13586351D01*
X33023724Y-13582834D01*
X33038042Y-13580710D01*
X33052500Y-13580000D01*
X33397500Y-13580000D01*
X33411958Y-13580710D01*
X33411958Y-13580710D01*
G37*
D16*
X33225000Y-13875000D03*
G04 #@! TD*
D12*
G04 #@! TO.C,C8*
G36*
X38966958Y-13805710D02*
X38981276Y-13807834D01*
X38995317Y-13811351D01*
X39008946Y-13816228D01*
X39022031Y-13822417D01*
X39034447Y-13829858D01*
X39046073Y-13838481D01*
X39056798Y-13848202D01*
X39066519Y-13858927D01*
X39075142Y-13870553D01*
X39082583Y-13882969D01*
X39088772Y-13896054D01*
X39093649Y-13909683D01*
X39097166Y-13923724D01*
X39099290Y-13938042D01*
X39100000Y-13952500D01*
X39100000Y-14297500D01*
X39099290Y-14311958D01*
X39097166Y-14326276D01*
X39093649Y-14340317D01*
X39088772Y-14353946D01*
X39082583Y-14367031D01*
X39075142Y-14379447D01*
X39066519Y-14391073D01*
X39056798Y-14401798D01*
X39046073Y-14411519D01*
X39034447Y-14420142D01*
X39022031Y-14427583D01*
X39008946Y-14433772D01*
X38995317Y-14438649D01*
X38981276Y-14442166D01*
X38966958Y-14444290D01*
X38952500Y-14445000D01*
X38657500Y-14445000D01*
X38643042Y-14444290D01*
X38628724Y-14442166D01*
X38614683Y-14438649D01*
X38601054Y-14433772D01*
X38587969Y-14427583D01*
X38575553Y-14420142D01*
X38563927Y-14411519D01*
X38553202Y-14401798D01*
X38543481Y-14391073D01*
X38534858Y-14379447D01*
X38527417Y-14367031D01*
X38521228Y-14353946D01*
X38516351Y-14340317D01*
X38512834Y-14326276D01*
X38510710Y-14311958D01*
X38510000Y-14297500D01*
X38510000Y-13952500D01*
X38510710Y-13938042D01*
X38512834Y-13923724D01*
X38516351Y-13909683D01*
X38521228Y-13896054D01*
X38527417Y-13882969D01*
X38534858Y-13870553D01*
X38543481Y-13858927D01*
X38553202Y-13848202D01*
X38563927Y-13838481D01*
X38575553Y-13829858D01*
X38587969Y-13822417D01*
X38601054Y-13816228D01*
X38614683Y-13811351D01*
X38628724Y-13807834D01*
X38643042Y-13805710D01*
X38657500Y-13805000D01*
X38952500Y-13805000D01*
X38966958Y-13805710D01*
X38966958Y-13805710D01*
G37*
D16*
X38805000Y-14125000D03*
D12*
G36*
X39936958Y-13805710D02*
X39951276Y-13807834D01*
X39965317Y-13811351D01*
X39978946Y-13816228D01*
X39992031Y-13822417D01*
X40004447Y-13829858D01*
X40016073Y-13838481D01*
X40026798Y-13848202D01*
X40036519Y-13858927D01*
X40045142Y-13870553D01*
X40052583Y-13882969D01*
X40058772Y-13896054D01*
X40063649Y-13909683D01*
X40067166Y-13923724D01*
X40069290Y-13938042D01*
X40070000Y-13952500D01*
X40070000Y-14297500D01*
X40069290Y-14311958D01*
X40067166Y-14326276D01*
X40063649Y-14340317D01*
X40058772Y-14353946D01*
X40052583Y-14367031D01*
X40045142Y-14379447D01*
X40036519Y-14391073D01*
X40026798Y-14401798D01*
X40016073Y-14411519D01*
X40004447Y-14420142D01*
X39992031Y-14427583D01*
X39978946Y-14433772D01*
X39965317Y-14438649D01*
X39951276Y-14442166D01*
X39936958Y-14444290D01*
X39922500Y-14445000D01*
X39627500Y-14445000D01*
X39613042Y-14444290D01*
X39598724Y-14442166D01*
X39584683Y-14438649D01*
X39571054Y-14433772D01*
X39557969Y-14427583D01*
X39545553Y-14420142D01*
X39533927Y-14411519D01*
X39523202Y-14401798D01*
X39513481Y-14391073D01*
X39504858Y-14379447D01*
X39497417Y-14367031D01*
X39491228Y-14353946D01*
X39486351Y-14340317D01*
X39482834Y-14326276D01*
X39480710Y-14311958D01*
X39480000Y-14297500D01*
X39480000Y-13952500D01*
X39480710Y-13938042D01*
X39482834Y-13923724D01*
X39486351Y-13909683D01*
X39491228Y-13896054D01*
X39497417Y-13882969D01*
X39504858Y-13870553D01*
X39513481Y-13858927D01*
X39523202Y-13848202D01*
X39533927Y-13838481D01*
X39545553Y-13829858D01*
X39557969Y-13822417D01*
X39571054Y-13816228D01*
X39584683Y-13811351D01*
X39598724Y-13807834D01*
X39613042Y-13805710D01*
X39627500Y-13805000D01*
X39922500Y-13805000D01*
X39936958Y-13805710D01*
X39936958Y-13805710D01*
G37*
D16*
X39775000Y-14125000D03*
G04 #@! TD*
M02*
