G04 #@! TF.GenerationSoftware,KiCad,Pcbnew,5.0.1-33cea8e~68~ubuntu16.04.1*
G04 #@! TF.CreationDate,2018-12-19T13:47:28-05:00*
G04 #@! TF.ProjectId,SmallKat Battery Charger,536D616C6C4B61742042617474657279,rev?*
G04 #@! TF.SameCoordinates,Original*
G04 #@! TF.FileFunction,Copper,L3,Inr,Signal*
G04 #@! TF.FilePolarity,Positive*
%FSLAX46Y46*%
G04 Gerber Fmt 4.6, Leading zero omitted, Abs format (unit mm)*
G04 Created by KiCad (PCBNEW 5.0.1-33cea8e~68~ubuntu16.04.1) date Wed 19 Dec 2018 01:47:28 PM EST*
%MOMM*%
%LPD*%
G01*
G04 APERTURE LIST*
G04 #@! TA.AperFunction,ViaPad*
%ADD10C,0.400000*%
G04 #@! TD*
G04 #@! TA.AperFunction,Conductor*
%ADD11C,0.150000*%
G04 #@! TD*
G04 #@! TA.AperFunction,Conductor*
%ADD12C,0.254000*%
G04 #@! TD*
G04 APERTURE END LIST*
D10*
G04 #@! TO.N,PHASE*
X10700000Y-18200000D03*
X15775000Y-14050000D03*
G04 #@! TO.N,GND*
X21450000Y-31800000D03*
X20600000Y-32375000D03*
X22325000Y-32375000D03*
X22325000Y-31300000D03*
X20675000Y-31375000D03*
X12000000Y-16400000D03*
X12100000Y-14650000D03*
X32700000Y-36025000D03*
X32700000Y-36625000D03*
X32700000Y-37825000D03*
X32100000Y-37825000D03*
X33300000Y-37825000D03*
X33300000Y-37225000D03*
X32100000Y-37225000D03*
X32100000Y-36625000D03*
X33300000Y-36625000D03*
X33300000Y-36025000D03*
X32100000Y-36025000D03*
X6900000Y-11800000D03*
X4000000Y-3800000D03*
X4600000Y-3800000D03*
X5200000Y-3800000D03*
X5800000Y-3800000D03*
X6400000Y-3800000D03*
X7000000Y-3800000D03*
X7000000Y-4400000D03*
X6400000Y-4400000D03*
X5800000Y-4400000D03*
X5200000Y-4400000D03*
X4600000Y-4400000D03*
X4000000Y-4400000D03*
X4000000Y-5000000D03*
X4600000Y-5000000D03*
X5200000Y-5000000D03*
X5800000Y-5000000D03*
X6400000Y-5000000D03*
X7000000Y-5000000D03*
X44300000Y-18200000D03*
X44300000Y-18800000D03*
X44300000Y-19400000D03*
X44900000Y-19400000D03*
X44900000Y-20000000D03*
X45500000Y-20000000D03*
X45500000Y-19400000D03*
X45500000Y-18800000D03*
X44900000Y-18800000D03*
X44900000Y-18200000D03*
X45500000Y-18200000D03*
X44725000Y-27750000D03*
X45325000Y-27750000D03*
X45325000Y-28350000D03*
X44125000Y-27150000D03*
X44725000Y-28950000D03*
X45325000Y-27150000D03*
X44725000Y-28350000D03*
X44125000Y-28350000D03*
X44725000Y-27150000D03*
X45325000Y-28950000D03*
X44125000Y-27750000D03*
X27300000Y-45900000D03*
X27300000Y-45400000D03*
X27300000Y-44800000D03*
X27300000Y-44200000D03*
X27300000Y-43600000D03*
X13700000Y-12650000D03*
X13250000Y-12650000D03*
X13250000Y-12200000D03*
X13700000Y-12200000D03*
X13700000Y-11750000D03*
X13200000Y-11750000D03*
X13200000Y-11300000D03*
X13700000Y-11300000D03*
X13200000Y-10850000D03*
X13200000Y-10400000D03*
X13700000Y-10850000D03*
X13700000Y-10400000D03*
X14150000Y-10400000D03*
X14600000Y-10400000D03*
X14600000Y-10850000D03*
X14150000Y-10850000D03*
X17000000Y-20200000D03*
X17600000Y-20200000D03*
X18200000Y-20200000D03*
X18800000Y-20200000D03*
X19400000Y-20200000D03*
X20000000Y-20200000D03*
X20600000Y-20200000D03*
X21200000Y-20200000D03*
X21800000Y-20200000D03*
X22400000Y-20200000D03*
X23000000Y-20200000D03*
X23600000Y-20200000D03*
X24200000Y-20200000D03*
X24800000Y-20200000D03*
X25400000Y-20200000D03*
X26000000Y-20200000D03*
X26600000Y-20200000D03*
X27200000Y-20200000D03*
X27800000Y-20200000D03*
X28400000Y-20200000D03*
X29000000Y-20200000D03*
X29700000Y-20200000D03*
X30400000Y-20200000D03*
X30400000Y-20200000D03*
X30400000Y-20200000D03*
X31000000Y-20200000D03*
X31600000Y-20200000D03*
X32200000Y-20200000D03*
X32800000Y-20200000D03*
X33400000Y-20200000D03*
X34000000Y-20200000D03*
X34600000Y-20200000D03*
X35200000Y-20200000D03*
X35200000Y-20800000D03*
X35200000Y-21400000D03*
X35200000Y-22000000D03*
X35200000Y-22600000D03*
X43700000Y-38825000D03*
X43700000Y-39425000D03*
X43700000Y-40025000D03*
X43700000Y-40625000D03*
X44300000Y-40625000D03*
X44300000Y-40025000D03*
X44300000Y-39425000D03*
X44300000Y-38825000D03*
X44900000Y-38825000D03*
X44900000Y-39425000D03*
X44900000Y-40025000D03*
X45500000Y-40025000D03*
X45500000Y-39425000D03*
X45500000Y-38825000D03*
X46100000Y-38825000D03*
X46100000Y-39425000D03*
X46100000Y-40025000D03*
X2225000Y-35050000D03*
X2225000Y-33600000D03*
X15400000Y-43500000D03*
X15400000Y-44250000D03*
X15400000Y-44975000D03*
X11677010Y-15739384D03*
X33900000Y-15150000D03*
X38125000Y-14200000D03*
X17025000Y-5525000D03*
G04 #@! TO.N,REGN*
X13650000Y-17200000D03*
X12197990Y-10485747D03*
G04 #@! TO.N,SRP*
X35000000Y-12750000D03*
G04 #@! TO.N,SRN*
X37000000Y-12700000D03*
X28550000Y-19102010D03*
G04 #@! TO.N,+BATT*
X25300000Y-43200000D03*
X25300000Y-44000000D03*
X25300000Y-44800000D03*
X25300000Y-45600000D03*
X3550519Y-26425000D03*
X3550519Y-26025519D03*
X3575000Y-26879234D03*
X25300000Y-46100000D03*
X7675000Y-27075000D03*
X25300000Y-38550000D03*
X25300000Y-37950000D03*
X25300000Y-38550000D03*
X27200000Y-36525000D03*
X27550000Y-36525000D03*
X26650000Y-28625000D03*
X27175000Y-28100000D03*
G04 #@! TO.N,+3V3*
X1077010Y-30307364D03*
X6725000Y-29500000D03*
X6725000Y-29950000D03*
X6725000Y-30400000D03*
X6725000Y-30850000D03*
X6725000Y-31300000D03*
X8575000Y-33425000D03*
X14950000Y-31600000D03*
X8425000Y-35925000D03*
G04 #@! TO.N,TX*
X13275000Y-39825000D03*
G04 #@! TO.N,RX*
X11325000Y-39950000D03*
G04 #@! TO.N,SCK*
X11270171Y-30422138D03*
X29275000Y-40125000D03*
G04 #@! TO.N,MISO*
X11796457Y-30449786D03*
X30265736Y-39884264D03*
G04 #@! TO.N,MOSI*
X12323461Y-30452689D03*
X33050000Y-39850000D03*
G04 #@! TO.N,CS*
X12850000Y-30475000D03*
X35175000Y-39875000D03*
G04 #@! TO.N,HIDRV*
X17250000Y-6600000D03*
X11216778Y-18096645D03*
G04 #@! TO.N,LODRV*
X14250000Y-13900000D03*
X14200000Y-16600000D03*
G04 #@! TO.N,BATDRV*
X16000000Y-16275000D03*
X38525000Y-12500000D03*
G04 #@! TO.N,Net-(R4-Pad1)*
X8600000Y-15000000D03*
G04 #@! TO.N,ACDET*
X8892977Y-13393532D03*
G04 #@! TO.N,ACOK*
X9425000Y-14025000D03*
X10880102Y-29818844D03*
G04 #@! TO.N,Net-(R6-Pad1)*
X8700000Y-15600000D03*
X7000000Y-15470000D03*
G04 #@! TO.N,SDA*
X11226998Y-12996189D03*
X16799473Y-33621507D03*
X14700000Y-30700000D03*
X13700000Y-29700000D03*
G04 #@! TO.N,SCL*
X11753993Y-13000435D03*
X15800000Y-33000000D03*
X9600000Y-21375000D03*
G04 #@! TO.N,LED1*
X6825000Y-34375000D03*
G04 #@! TO.N,LED2*
X6775000Y-32950000D03*
G04 #@! TO.N,LED3*
X6900000Y-35850000D03*
G04 #@! TO.N,IOUT*
X10700000Y-13000000D03*
X9150000Y-26825000D03*
X8575000Y-32250000D03*
X8971627Y-25540156D03*
G04 #@! TO.N,Net-(C10-Pad1)*
X34500000Y-39225000D03*
X34900000Y-37309053D03*
G04 #@! TO.N,ALERT*
X28175000Y-35500000D03*
X9550000Y-31275000D03*
G04 #@! TO.N,SWCLK*
X21250054Y-37718582D03*
G04 #@! TO.N,SWDIO*
X21400000Y-34800000D03*
G04 #@! TO.N,ADAPTER*
X5400000Y-11850000D03*
G04 #@! TO.N,Net-(D1-Pad2)*
X2700000Y-21300000D03*
X2450000Y-20850000D03*
X2450000Y-20300000D03*
G04 #@! TO.N,SOURCE*
X9050000Y-10000000D03*
G04 #@! TO.N,GATE*
X5800000Y-15200000D03*
X10600000Y-10000000D03*
G04 #@! TO.N,ACN*
X8600000Y-17000000D03*
X12600000Y-10000000D03*
G04 #@! TO.N,ACP*
X8000000Y-16400000D03*
X11400000Y-8000000D03*
G04 #@! TD*
D11*
G04 #@! TO.N,SCK*
X11270171Y-30422138D02*
X11270171Y-34411923D01*
X11270171Y-34411923D02*
X14733248Y-37875000D01*
X14733248Y-37875000D02*
X14775000Y-37875000D01*
X17183247Y-40324999D02*
X29075001Y-40324999D01*
X29075001Y-40324999D02*
X29275000Y-40125000D01*
X14733248Y-37875000D02*
X17183247Y-40324999D01*
G04 #@! TO.N,MISO*
X17185258Y-39852010D02*
X25933482Y-39852010D01*
X30065737Y-39684265D02*
X30265736Y-39884264D01*
X11796457Y-34546457D02*
X14700000Y-37450000D01*
X14783248Y-37450000D02*
X17185258Y-39852010D01*
X25933482Y-39852010D02*
X26101227Y-39684265D01*
X26101227Y-39684265D02*
X30065737Y-39684265D01*
X11796457Y-30449786D02*
X11796457Y-34546457D01*
X14700000Y-37450000D02*
X14783248Y-37450000D01*
G04 #@! TO.N,MOSI*
X12323461Y-30452689D02*
X12323461Y-34681711D01*
X12323461Y-34681711D02*
X14808375Y-37166625D01*
X14808375Y-37166625D02*
X14891625Y-37166625D01*
X14891625Y-37166625D02*
X17025000Y-39300000D01*
X32500000Y-39300000D02*
X33050000Y-39850000D01*
X17025000Y-39300000D02*
X32500000Y-39300000D01*
G04 #@! TO.N,CS*
X35175000Y-39875000D02*
X34300000Y-39000000D01*
X34300000Y-39000000D02*
X17175000Y-39000000D01*
X12850000Y-34675000D02*
X12850000Y-34550000D01*
X17175000Y-39000000D02*
X12850000Y-34675000D01*
X12850000Y-30475000D02*
X12850000Y-34550000D01*
G04 #@! TO.N,HIDRV*
X11416777Y-17896646D02*
X11216778Y-18096645D01*
X15372999Y-8477001D02*
X15372999Y-13940424D01*
X15372999Y-13940424D02*
X11416777Y-17896646D01*
X17250000Y-6600000D02*
X15372999Y-8477001D01*
G04 #@! TO.N,BATDRV*
X16000000Y-16275000D02*
X18425000Y-18700000D01*
X18425000Y-18700000D02*
X31700000Y-18700000D01*
X37900000Y-12500000D02*
X38525000Y-12500000D01*
X31700000Y-18700000D02*
X37900000Y-12500000D01*
G04 #@! TO.N,SDA*
X14700000Y-30700000D02*
X13700000Y-29700000D01*
G04 #@! TO.N,SCL*
X15800000Y-33000000D02*
X15800000Y-30950000D01*
X9600000Y-24750000D02*
X9600000Y-21375000D01*
X15800000Y-30950000D02*
X9600000Y-24750000D01*
G04 #@! TO.N,IOUT*
X9150000Y-25718529D02*
X8971627Y-25540156D01*
X9150000Y-26825000D02*
X9150000Y-25718529D01*
G04 #@! TO.N,ACN*
X8600000Y-17000000D02*
X11600000Y-14000000D01*
X11600000Y-14000000D02*
X12600000Y-13000000D01*
X12600000Y-13000000D02*
X12600000Y-10000000D01*
G04 #@! TO.N,ACP*
X8000000Y-16400000D02*
X8800000Y-16400000D01*
X8800000Y-16400000D02*
X10200000Y-15000000D01*
X10200000Y-15000000D02*
X10200000Y-11200000D01*
X10200000Y-11200000D02*
X10200000Y-11000000D01*
X11400000Y-9800000D02*
X11400000Y-8000000D01*
X10200000Y-11000000D02*
X11400000Y-9800000D01*
G04 #@! TD*
D12*
G04 #@! TO.N,GND*
G36*
X49646001Y-39171572D02*
X34954000Y-39167065D01*
X34954000Y-39134694D01*
X34884882Y-38967830D01*
X34878812Y-38961760D01*
X34885222Y-37763053D01*
X34990306Y-37763053D01*
X35157170Y-37693935D01*
X35284882Y-37566223D01*
X35354000Y-37399359D01*
X35354000Y-37218747D01*
X35284882Y-37051883D01*
X35157170Y-36924171D01*
X34990306Y-36855053D01*
X34890077Y-36855053D01*
X34976966Y-20606676D01*
X34967559Y-20558024D01*
X34940249Y-20516676D01*
X34899196Y-20488926D01*
X34849625Y-20478997D01*
X2826677Y-20565375D01*
X2834882Y-20557170D01*
X2904000Y-20390306D01*
X2904000Y-20209694D01*
X2834882Y-20042830D01*
X2707170Y-19915118D01*
X2540306Y-19846000D01*
X2359694Y-19846000D01*
X2192830Y-19915118D01*
X2065118Y-20042830D01*
X1996000Y-20209694D01*
X1996000Y-20390306D01*
X2065118Y-20557170D01*
X2075350Y-20567402D01*
X354000Y-20572045D01*
X354000Y-18109694D01*
X10246000Y-18109694D01*
X10246000Y-18290306D01*
X10315118Y-18457170D01*
X10442830Y-18584882D01*
X10609694Y-18654000D01*
X10790306Y-18654000D01*
X10957170Y-18584882D01*
X11030967Y-18511085D01*
X11126472Y-18550645D01*
X11307084Y-18550645D01*
X11473948Y-18481527D01*
X11601660Y-18353815D01*
X11670778Y-18186951D01*
X11670778Y-18107921D01*
X12669005Y-17109694D01*
X13196000Y-17109694D01*
X13196000Y-17290306D01*
X13265118Y-17457170D01*
X13392830Y-17584882D01*
X13559694Y-17654000D01*
X13740306Y-17654000D01*
X13907170Y-17584882D01*
X14034882Y-17457170D01*
X14104000Y-17290306D01*
X14104000Y-17109694D01*
X14074973Y-17039618D01*
X14109694Y-17054000D01*
X14290306Y-17054000D01*
X14457170Y-16984882D01*
X14584882Y-16857170D01*
X14654000Y-16690306D01*
X14654000Y-16509694D01*
X14584882Y-16342830D01*
X14457170Y-16215118D01*
X14383721Y-16184694D01*
X15546000Y-16184694D01*
X15546000Y-16365306D01*
X15615118Y-16532170D01*
X15742830Y-16659882D01*
X15909694Y-16729000D01*
X15988724Y-16729000D01*
X18169454Y-18909731D01*
X18187805Y-18937195D01*
X18215269Y-18955546D01*
X18215272Y-18955549D01*
X18275363Y-18995700D01*
X18296631Y-19009911D01*
X18392599Y-19029000D01*
X18392603Y-19029000D01*
X18425000Y-19035444D01*
X18457396Y-19029000D01*
X28096000Y-19029000D01*
X28096000Y-19192316D01*
X28165118Y-19359180D01*
X28292830Y-19486892D01*
X28459694Y-19556010D01*
X28640306Y-19556010D01*
X28807170Y-19486892D01*
X28934882Y-19359180D01*
X29004000Y-19192316D01*
X29004000Y-19029000D01*
X31667604Y-19029000D01*
X31700000Y-19035444D01*
X31732396Y-19029000D01*
X31732401Y-19029000D01*
X31828369Y-19009911D01*
X31937195Y-18937195D01*
X31955548Y-18909728D01*
X38036277Y-12829000D01*
X38211948Y-12829000D01*
X38267830Y-12884882D01*
X38434694Y-12954000D01*
X38615306Y-12954000D01*
X38782170Y-12884882D01*
X38909882Y-12757170D01*
X38979000Y-12590306D01*
X38979000Y-12409694D01*
X38909882Y-12242830D01*
X38782170Y-12115118D01*
X38615306Y-12046000D01*
X38434694Y-12046000D01*
X38267830Y-12115118D01*
X38211948Y-12171000D01*
X37932396Y-12171000D01*
X37899999Y-12164556D01*
X37867603Y-12171000D01*
X37867599Y-12171000D01*
X37771631Y-12190089D01*
X37771629Y-12190090D01*
X37771630Y-12190090D01*
X37690272Y-12244451D01*
X37690269Y-12244454D01*
X37662805Y-12262805D01*
X37644454Y-12290269D01*
X37416225Y-12518498D01*
X37384882Y-12442830D01*
X37257170Y-12315118D01*
X37090306Y-12246000D01*
X36909694Y-12246000D01*
X36742830Y-12315118D01*
X36615118Y-12442830D01*
X36546000Y-12609694D01*
X36546000Y-12790306D01*
X36615118Y-12957170D01*
X36742830Y-13084882D01*
X36818498Y-13116225D01*
X31563724Y-18371000D01*
X18561277Y-18371000D01*
X16454000Y-16263724D01*
X16454000Y-16184694D01*
X16384882Y-16017830D01*
X16257170Y-15890118D01*
X16090306Y-15821000D01*
X15909694Y-15821000D01*
X15742830Y-15890118D01*
X15615118Y-16017830D01*
X15546000Y-16184694D01*
X14383721Y-16184694D01*
X14290306Y-16146000D01*
X14109694Y-16146000D01*
X13942830Y-16215118D01*
X13815118Y-16342830D01*
X13746000Y-16509694D01*
X13746000Y-16690306D01*
X13775027Y-16760382D01*
X13740306Y-16746000D01*
X13559694Y-16746000D01*
X13392830Y-16815118D01*
X13265118Y-16942830D01*
X13196000Y-17109694D01*
X12669005Y-17109694D01*
X15430824Y-14347876D01*
X15517830Y-14434882D01*
X15684694Y-14504000D01*
X15865306Y-14504000D01*
X16032170Y-14434882D01*
X16159882Y-14307170D01*
X16229000Y-14140306D01*
X16229000Y-13959694D01*
X16159882Y-13792830D01*
X16032170Y-13665118D01*
X15865306Y-13596000D01*
X15701999Y-13596000D01*
X15701999Y-12659694D01*
X34546000Y-12659694D01*
X34546000Y-12840306D01*
X34615118Y-13007170D01*
X34742830Y-13134882D01*
X34909694Y-13204000D01*
X35090306Y-13204000D01*
X35257170Y-13134882D01*
X35384882Y-13007170D01*
X35454000Y-12840306D01*
X35454000Y-12659694D01*
X35384882Y-12492830D01*
X35257170Y-12365118D01*
X35090306Y-12296000D01*
X34909694Y-12296000D01*
X34742830Y-12365118D01*
X34615118Y-12492830D01*
X34546000Y-12659694D01*
X15701999Y-12659694D01*
X15701999Y-8613277D01*
X17261276Y-7054000D01*
X17340306Y-7054000D01*
X17507170Y-6984882D01*
X17634882Y-6857170D01*
X17704000Y-6690306D01*
X17704000Y-6509694D01*
X17634882Y-6342830D01*
X17507170Y-6215118D01*
X17340306Y-6146000D01*
X17159694Y-6146000D01*
X16992830Y-6215118D01*
X16865118Y-6342830D01*
X16796000Y-6509694D01*
X16796000Y-6588724D01*
X15163271Y-8221453D01*
X15135804Y-8239806D01*
X15063088Y-8348633D01*
X15043999Y-8444601D01*
X15043999Y-8444605D01*
X15037555Y-8477001D01*
X15043999Y-8509397D01*
X15044000Y-13804146D01*
X11205502Y-17642645D01*
X11126472Y-17642645D01*
X10959608Y-17711763D01*
X10885811Y-17785560D01*
X10790306Y-17746000D01*
X10609694Y-17746000D01*
X10442830Y-17815118D01*
X10315118Y-17942830D01*
X10246000Y-18109694D01*
X354000Y-18109694D01*
X354000Y-16309694D01*
X7546000Y-16309694D01*
X7546000Y-16490306D01*
X7615118Y-16657170D01*
X7742830Y-16784882D01*
X7909694Y-16854000D01*
X8090306Y-16854000D01*
X8185382Y-16814618D01*
X8146000Y-16909694D01*
X8146000Y-17090306D01*
X8215118Y-17257170D01*
X8342830Y-17384882D01*
X8509694Y-17454000D01*
X8690306Y-17454000D01*
X8857170Y-17384882D01*
X8984882Y-17257170D01*
X9054000Y-17090306D01*
X9054000Y-17011276D01*
X12255582Y-13809694D01*
X13796000Y-13809694D01*
X13796000Y-13990306D01*
X13865118Y-14157170D01*
X13992830Y-14284882D01*
X14159694Y-14354000D01*
X14340306Y-14354000D01*
X14507170Y-14284882D01*
X14634882Y-14157170D01*
X14704000Y-13990306D01*
X14704000Y-13809694D01*
X14634882Y-13642830D01*
X14507170Y-13515118D01*
X14340306Y-13446000D01*
X14159694Y-13446000D01*
X13992830Y-13515118D01*
X13865118Y-13642830D01*
X13796000Y-13809694D01*
X12255582Y-13809694D01*
X12809728Y-13255548D01*
X12837195Y-13237195D01*
X12855549Y-13209727D01*
X12909911Y-13128370D01*
X12914598Y-13104805D01*
X12929000Y-13032401D01*
X12929000Y-13032398D01*
X12935444Y-13000000D01*
X12929000Y-12967602D01*
X12929000Y-10313052D01*
X12984882Y-10257170D01*
X13054000Y-10090306D01*
X13054000Y-9909694D01*
X12984882Y-9742830D01*
X12857170Y-9615118D01*
X12690306Y-9546000D01*
X12509694Y-9546000D01*
X12342830Y-9615118D01*
X12215118Y-9742830D01*
X12146000Y-9909694D01*
X12146000Y-10031747D01*
X12107684Y-10031747D01*
X11940820Y-10100865D01*
X11813108Y-10228577D01*
X11743990Y-10395441D01*
X11743990Y-10576053D01*
X11813108Y-10742917D01*
X11940820Y-10870629D01*
X12107684Y-10939747D01*
X12271001Y-10939747D01*
X12271000Y-12863724D01*
X12207993Y-12926731D01*
X12207993Y-12910129D01*
X12138875Y-12743265D01*
X12011163Y-12615553D01*
X11844299Y-12546435D01*
X11663687Y-12546435D01*
X11496823Y-12615553D01*
X11492619Y-12619758D01*
X11484168Y-12611307D01*
X11317304Y-12542189D01*
X11136692Y-12542189D01*
X10969828Y-12611307D01*
X10961594Y-12619542D01*
X10957170Y-12615118D01*
X10790306Y-12546000D01*
X10609694Y-12546000D01*
X10529000Y-12579425D01*
X10529000Y-11136276D01*
X11609728Y-10055548D01*
X11637195Y-10037195D01*
X11709911Y-9928369D01*
X11729000Y-9832401D01*
X11729000Y-9832397D01*
X11735444Y-9800001D01*
X11729000Y-9767604D01*
X11729000Y-8313052D01*
X11784882Y-8257170D01*
X11854000Y-8090306D01*
X11854000Y-7909694D01*
X11784882Y-7742830D01*
X11657170Y-7615118D01*
X11490306Y-7546000D01*
X11309694Y-7546000D01*
X11142830Y-7615118D01*
X11015118Y-7742830D01*
X10946000Y-7909694D01*
X10946000Y-8090306D01*
X11015118Y-8257170D01*
X11071001Y-8313053D01*
X11071000Y-9663724D01*
X10986936Y-9747788D01*
X10984882Y-9742830D01*
X10857170Y-9615118D01*
X10690306Y-9546000D01*
X10509694Y-9546000D01*
X10342830Y-9615118D01*
X10215118Y-9742830D01*
X10146000Y-9909694D01*
X10146000Y-10090306D01*
X10215118Y-10257170D01*
X10342830Y-10384882D01*
X10347788Y-10386936D01*
X9990270Y-10744454D01*
X9962806Y-10762805D01*
X9944454Y-10790270D01*
X9944451Y-10790273D01*
X9917042Y-10831294D01*
X9890089Y-10871631D01*
X9871000Y-10967599D01*
X9871000Y-10967604D01*
X9864556Y-11000000D01*
X9871000Y-11032396D01*
X9871000Y-11232400D01*
X9871001Y-11232405D01*
X9871000Y-13915381D01*
X9809882Y-13767830D01*
X9682170Y-13640118D01*
X9515306Y-13571000D01*
X9334694Y-13571000D01*
X9305939Y-13582911D01*
X9346977Y-13483838D01*
X9346977Y-13303226D01*
X9277859Y-13136362D01*
X9150147Y-13008650D01*
X8983283Y-12939532D01*
X8802671Y-12939532D01*
X8635807Y-13008650D01*
X8508095Y-13136362D01*
X8438977Y-13303226D01*
X8438977Y-13483838D01*
X8508095Y-13650702D01*
X8635807Y-13778414D01*
X8802671Y-13847532D01*
X8983283Y-13847532D01*
X9012038Y-13835621D01*
X8971000Y-13934694D01*
X8971000Y-14115306D01*
X9040118Y-14282170D01*
X9167830Y-14409882D01*
X9334694Y-14479000D01*
X9515306Y-14479000D01*
X9682170Y-14409882D01*
X9809882Y-14282170D01*
X9871000Y-14134619D01*
X9871000Y-14863723D01*
X9154000Y-15580724D01*
X9154000Y-15509694D01*
X9084882Y-15342830D01*
X8989082Y-15247030D01*
X9054000Y-15090306D01*
X9054000Y-14909694D01*
X8984882Y-14742830D01*
X8857170Y-14615118D01*
X8690306Y-14546000D01*
X8509694Y-14546000D01*
X8342830Y-14615118D01*
X8215118Y-14742830D01*
X8146000Y-14909694D01*
X8146000Y-15090306D01*
X8215118Y-15257170D01*
X8310918Y-15352970D01*
X8246000Y-15509694D01*
X8246000Y-15690306D01*
X8315118Y-15857170D01*
X8442830Y-15984882D01*
X8609694Y-16054000D01*
X8680724Y-16054000D01*
X8663724Y-16071000D01*
X8313052Y-16071000D01*
X8257170Y-16015118D01*
X8090306Y-15946000D01*
X7909694Y-15946000D01*
X7742830Y-16015118D01*
X7615118Y-16142830D01*
X7546000Y-16309694D01*
X354000Y-16309694D01*
X354000Y-15109694D01*
X5346000Y-15109694D01*
X5346000Y-15290306D01*
X5415118Y-15457170D01*
X5542830Y-15584882D01*
X5709694Y-15654000D01*
X5890306Y-15654000D01*
X6057170Y-15584882D01*
X6184882Y-15457170D01*
X6216973Y-15379694D01*
X6546000Y-15379694D01*
X6546000Y-15560306D01*
X6615118Y-15727170D01*
X6742830Y-15854882D01*
X6909694Y-15924000D01*
X7090306Y-15924000D01*
X7257170Y-15854882D01*
X7384882Y-15727170D01*
X7454000Y-15560306D01*
X7454000Y-15379694D01*
X7384882Y-15212830D01*
X7257170Y-15085118D01*
X7090306Y-15016000D01*
X6909694Y-15016000D01*
X6742830Y-15085118D01*
X6615118Y-15212830D01*
X6546000Y-15379694D01*
X6216973Y-15379694D01*
X6254000Y-15290306D01*
X6254000Y-15109694D01*
X6184882Y-14942830D01*
X6057170Y-14815118D01*
X5890306Y-14746000D01*
X5709694Y-14746000D01*
X5542830Y-14815118D01*
X5415118Y-14942830D01*
X5346000Y-15109694D01*
X354000Y-15109694D01*
X354000Y-11759694D01*
X4946000Y-11759694D01*
X4946000Y-11940306D01*
X5015118Y-12107170D01*
X5142830Y-12234882D01*
X5309694Y-12304000D01*
X5490306Y-12304000D01*
X5657170Y-12234882D01*
X5784882Y-12107170D01*
X5854000Y-11940306D01*
X5854000Y-11759694D01*
X5784882Y-11592830D01*
X5657170Y-11465118D01*
X5490306Y-11396000D01*
X5309694Y-11396000D01*
X5142830Y-11465118D01*
X5015118Y-11592830D01*
X4946000Y-11759694D01*
X354000Y-11759694D01*
X354000Y-9909694D01*
X8596000Y-9909694D01*
X8596000Y-10090306D01*
X8665118Y-10257170D01*
X8792830Y-10384882D01*
X8959694Y-10454000D01*
X9140306Y-10454000D01*
X9307170Y-10384882D01*
X9434882Y-10257170D01*
X9504000Y-10090306D01*
X9504000Y-9909694D01*
X9434882Y-9742830D01*
X9307170Y-9615118D01*
X9140306Y-9546000D01*
X8959694Y-9546000D01*
X8792830Y-9615118D01*
X8665118Y-9742830D01*
X8596000Y-9909694D01*
X354000Y-9909694D01*
X354000Y-354000D01*
X49646000Y-354000D01*
X49646001Y-39171572D01*
X49646001Y-39171572D01*
G37*
X49646001Y-39171572D02*
X34954000Y-39167065D01*
X34954000Y-39134694D01*
X34884882Y-38967830D01*
X34878812Y-38961760D01*
X34885222Y-37763053D01*
X34990306Y-37763053D01*
X35157170Y-37693935D01*
X35284882Y-37566223D01*
X35354000Y-37399359D01*
X35354000Y-37218747D01*
X35284882Y-37051883D01*
X35157170Y-36924171D01*
X34990306Y-36855053D01*
X34890077Y-36855053D01*
X34976966Y-20606676D01*
X34967559Y-20558024D01*
X34940249Y-20516676D01*
X34899196Y-20488926D01*
X34849625Y-20478997D01*
X2826677Y-20565375D01*
X2834882Y-20557170D01*
X2904000Y-20390306D01*
X2904000Y-20209694D01*
X2834882Y-20042830D01*
X2707170Y-19915118D01*
X2540306Y-19846000D01*
X2359694Y-19846000D01*
X2192830Y-19915118D01*
X2065118Y-20042830D01*
X1996000Y-20209694D01*
X1996000Y-20390306D01*
X2065118Y-20557170D01*
X2075350Y-20567402D01*
X354000Y-20572045D01*
X354000Y-18109694D01*
X10246000Y-18109694D01*
X10246000Y-18290306D01*
X10315118Y-18457170D01*
X10442830Y-18584882D01*
X10609694Y-18654000D01*
X10790306Y-18654000D01*
X10957170Y-18584882D01*
X11030967Y-18511085D01*
X11126472Y-18550645D01*
X11307084Y-18550645D01*
X11473948Y-18481527D01*
X11601660Y-18353815D01*
X11670778Y-18186951D01*
X11670778Y-18107921D01*
X12669005Y-17109694D01*
X13196000Y-17109694D01*
X13196000Y-17290306D01*
X13265118Y-17457170D01*
X13392830Y-17584882D01*
X13559694Y-17654000D01*
X13740306Y-17654000D01*
X13907170Y-17584882D01*
X14034882Y-17457170D01*
X14104000Y-17290306D01*
X14104000Y-17109694D01*
X14074973Y-17039618D01*
X14109694Y-17054000D01*
X14290306Y-17054000D01*
X14457170Y-16984882D01*
X14584882Y-16857170D01*
X14654000Y-16690306D01*
X14654000Y-16509694D01*
X14584882Y-16342830D01*
X14457170Y-16215118D01*
X14383721Y-16184694D01*
X15546000Y-16184694D01*
X15546000Y-16365306D01*
X15615118Y-16532170D01*
X15742830Y-16659882D01*
X15909694Y-16729000D01*
X15988724Y-16729000D01*
X18169454Y-18909731D01*
X18187805Y-18937195D01*
X18215269Y-18955546D01*
X18215272Y-18955549D01*
X18275363Y-18995700D01*
X18296631Y-19009911D01*
X18392599Y-19029000D01*
X18392603Y-19029000D01*
X18425000Y-19035444D01*
X18457396Y-19029000D01*
X28096000Y-19029000D01*
X28096000Y-19192316D01*
X28165118Y-19359180D01*
X28292830Y-19486892D01*
X28459694Y-19556010D01*
X28640306Y-19556010D01*
X28807170Y-19486892D01*
X28934882Y-19359180D01*
X29004000Y-19192316D01*
X29004000Y-19029000D01*
X31667604Y-19029000D01*
X31700000Y-19035444D01*
X31732396Y-19029000D01*
X31732401Y-19029000D01*
X31828369Y-19009911D01*
X31937195Y-18937195D01*
X31955548Y-18909728D01*
X38036277Y-12829000D01*
X38211948Y-12829000D01*
X38267830Y-12884882D01*
X38434694Y-12954000D01*
X38615306Y-12954000D01*
X38782170Y-12884882D01*
X38909882Y-12757170D01*
X38979000Y-12590306D01*
X38979000Y-12409694D01*
X38909882Y-12242830D01*
X38782170Y-12115118D01*
X38615306Y-12046000D01*
X38434694Y-12046000D01*
X38267830Y-12115118D01*
X38211948Y-12171000D01*
X37932396Y-12171000D01*
X37899999Y-12164556D01*
X37867603Y-12171000D01*
X37867599Y-12171000D01*
X37771631Y-12190089D01*
X37771629Y-12190090D01*
X37771630Y-12190090D01*
X37690272Y-12244451D01*
X37690269Y-12244454D01*
X37662805Y-12262805D01*
X37644454Y-12290269D01*
X37416225Y-12518498D01*
X37384882Y-12442830D01*
X37257170Y-12315118D01*
X37090306Y-12246000D01*
X36909694Y-12246000D01*
X36742830Y-12315118D01*
X36615118Y-12442830D01*
X36546000Y-12609694D01*
X36546000Y-12790306D01*
X36615118Y-12957170D01*
X36742830Y-13084882D01*
X36818498Y-13116225D01*
X31563724Y-18371000D01*
X18561277Y-18371000D01*
X16454000Y-16263724D01*
X16454000Y-16184694D01*
X16384882Y-16017830D01*
X16257170Y-15890118D01*
X16090306Y-15821000D01*
X15909694Y-15821000D01*
X15742830Y-15890118D01*
X15615118Y-16017830D01*
X15546000Y-16184694D01*
X14383721Y-16184694D01*
X14290306Y-16146000D01*
X14109694Y-16146000D01*
X13942830Y-16215118D01*
X13815118Y-16342830D01*
X13746000Y-16509694D01*
X13746000Y-16690306D01*
X13775027Y-16760382D01*
X13740306Y-16746000D01*
X13559694Y-16746000D01*
X13392830Y-16815118D01*
X13265118Y-16942830D01*
X13196000Y-17109694D01*
X12669005Y-17109694D01*
X15430824Y-14347876D01*
X15517830Y-14434882D01*
X15684694Y-14504000D01*
X15865306Y-14504000D01*
X16032170Y-14434882D01*
X16159882Y-14307170D01*
X16229000Y-14140306D01*
X16229000Y-13959694D01*
X16159882Y-13792830D01*
X16032170Y-13665118D01*
X15865306Y-13596000D01*
X15701999Y-13596000D01*
X15701999Y-12659694D01*
X34546000Y-12659694D01*
X34546000Y-12840306D01*
X34615118Y-13007170D01*
X34742830Y-13134882D01*
X34909694Y-13204000D01*
X35090306Y-13204000D01*
X35257170Y-13134882D01*
X35384882Y-13007170D01*
X35454000Y-12840306D01*
X35454000Y-12659694D01*
X35384882Y-12492830D01*
X35257170Y-12365118D01*
X35090306Y-12296000D01*
X34909694Y-12296000D01*
X34742830Y-12365118D01*
X34615118Y-12492830D01*
X34546000Y-12659694D01*
X15701999Y-12659694D01*
X15701999Y-8613277D01*
X17261276Y-7054000D01*
X17340306Y-7054000D01*
X17507170Y-6984882D01*
X17634882Y-6857170D01*
X17704000Y-6690306D01*
X17704000Y-6509694D01*
X17634882Y-6342830D01*
X17507170Y-6215118D01*
X17340306Y-6146000D01*
X17159694Y-6146000D01*
X16992830Y-6215118D01*
X16865118Y-6342830D01*
X16796000Y-6509694D01*
X16796000Y-6588724D01*
X15163271Y-8221453D01*
X15135804Y-8239806D01*
X15063088Y-8348633D01*
X15043999Y-8444601D01*
X15043999Y-8444605D01*
X15037555Y-8477001D01*
X15043999Y-8509397D01*
X15044000Y-13804146D01*
X11205502Y-17642645D01*
X11126472Y-17642645D01*
X10959608Y-17711763D01*
X10885811Y-17785560D01*
X10790306Y-17746000D01*
X10609694Y-17746000D01*
X10442830Y-17815118D01*
X10315118Y-17942830D01*
X10246000Y-18109694D01*
X354000Y-18109694D01*
X354000Y-16309694D01*
X7546000Y-16309694D01*
X7546000Y-16490306D01*
X7615118Y-16657170D01*
X7742830Y-16784882D01*
X7909694Y-16854000D01*
X8090306Y-16854000D01*
X8185382Y-16814618D01*
X8146000Y-16909694D01*
X8146000Y-17090306D01*
X8215118Y-17257170D01*
X8342830Y-17384882D01*
X8509694Y-17454000D01*
X8690306Y-17454000D01*
X8857170Y-17384882D01*
X8984882Y-17257170D01*
X9054000Y-17090306D01*
X9054000Y-17011276D01*
X12255582Y-13809694D01*
X13796000Y-13809694D01*
X13796000Y-13990306D01*
X13865118Y-14157170D01*
X13992830Y-14284882D01*
X14159694Y-14354000D01*
X14340306Y-14354000D01*
X14507170Y-14284882D01*
X14634882Y-14157170D01*
X14704000Y-13990306D01*
X14704000Y-13809694D01*
X14634882Y-13642830D01*
X14507170Y-13515118D01*
X14340306Y-13446000D01*
X14159694Y-13446000D01*
X13992830Y-13515118D01*
X13865118Y-13642830D01*
X13796000Y-13809694D01*
X12255582Y-13809694D01*
X12809728Y-13255548D01*
X12837195Y-13237195D01*
X12855549Y-13209727D01*
X12909911Y-13128370D01*
X12914598Y-13104805D01*
X12929000Y-13032401D01*
X12929000Y-13032398D01*
X12935444Y-13000000D01*
X12929000Y-12967602D01*
X12929000Y-10313052D01*
X12984882Y-10257170D01*
X13054000Y-10090306D01*
X13054000Y-9909694D01*
X12984882Y-9742830D01*
X12857170Y-9615118D01*
X12690306Y-9546000D01*
X12509694Y-9546000D01*
X12342830Y-9615118D01*
X12215118Y-9742830D01*
X12146000Y-9909694D01*
X12146000Y-10031747D01*
X12107684Y-10031747D01*
X11940820Y-10100865D01*
X11813108Y-10228577D01*
X11743990Y-10395441D01*
X11743990Y-10576053D01*
X11813108Y-10742917D01*
X11940820Y-10870629D01*
X12107684Y-10939747D01*
X12271001Y-10939747D01*
X12271000Y-12863724D01*
X12207993Y-12926731D01*
X12207993Y-12910129D01*
X12138875Y-12743265D01*
X12011163Y-12615553D01*
X11844299Y-12546435D01*
X11663687Y-12546435D01*
X11496823Y-12615553D01*
X11492619Y-12619758D01*
X11484168Y-12611307D01*
X11317304Y-12542189D01*
X11136692Y-12542189D01*
X10969828Y-12611307D01*
X10961594Y-12619542D01*
X10957170Y-12615118D01*
X10790306Y-12546000D01*
X10609694Y-12546000D01*
X10529000Y-12579425D01*
X10529000Y-11136276D01*
X11609728Y-10055548D01*
X11637195Y-10037195D01*
X11709911Y-9928369D01*
X11729000Y-9832401D01*
X11729000Y-9832397D01*
X11735444Y-9800001D01*
X11729000Y-9767604D01*
X11729000Y-8313052D01*
X11784882Y-8257170D01*
X11854000Y-8090306D01*
X11854000Y-7909694D01*
X11784882Y-7742830D01*
X11657170Y-7615118D01*
X11490306Y-7546000D01*
X11309694Y-7546000D01*
X11142830Y-7615118D01*
X11015118Y-7742830D01*
X10946000Y-7909694D01*
X10946000Y-8090306D01*
X11015118Y-8257170D01*
X11071001Y-8313053D01*
X11071000Y-9663724D01*
X10986936Y-9747788D01*
X10984882Y-9742830D01*
X10857170Y-9615118D01*
X10690306Y-9546000D01*
X10509694Y-9546000D01*
X10342830Y-9615118D01*
X10215118Y-9742830D01*
X10146000Y-9909694D01*
X10146000Y-10090306D01*
X10215118Y-10257170D01*
X10342830Y-10384882D01*
X10347788Y-10386936D01*
X9990270Y-10744454D01*
X9962806Y-10762805D01*
X9944454Y-10790270D01*
X9944451Y-10790273D01*
X9917042Y-10831294D01*
X9890089Y-10871631D01*
X9871000Y-10967599D01*
X9871000Y-10967604D01*
X9864556Y-11000000D01*
X9871000Y-11032396D01*
X9871000Y-11232400D01*
X9871001Y-11232405D01*
X9871000Y-13915381D01*
X9809882Y-13767830D01*
X9682170Y-13640118D01*
X9515306Y-13571000D01*
X9334694Y-13571000D01*
X9305939Y-13582911D01*
X9346977Y-13483838D01*
X9346977Y-13303226D01*
X9277859Y-13136362D01*
X9150147Y-13008650D01*
X8983283Y-12939532D01*
X8802671Y-12939532D01*
X8635807Y-13008650D01*
X8508095Y-13136362D01*
X8438977Y-13303226D01*
X8438977Y-13483838D01*
X8508095Y-13650702D01*
X8635807Y-13778414D01*
X8802671Y-13847532D01*
X8983283Y-13847532D01*
X9012038Y-13835621D01*
X8971000Y-13934694D01*
X8971000Y-14115306D01*
X9040118Y-14282170D01*
X9167830Y-14409882D01*
X9334694Y-14479000D01*
X9515306Y-14479000D01*
X9682170Y-14409882D01*
X9809882Y-14282170D01*
X9871000Y-14134619D01*
X9871000Y-14863723D01*
X9154000Y-15580724D01*
X9154000Y-15509694D01*
X9084882Y-15342830D01*
X8989082Y-15247030D01*
X9054000Y-15090306D01*
X9054000Y-14909694D01*
X8984882Y-14742830D01*
X8857170Y-14615118D01*
X8690306Y-14546000D01*
X8509694Y-14546000D01*
X8342830Y-14615118D01*
X8215118Y-14742830D01*
X8146000Y-14909694D01*
X8146000Y-15090306D01*
X8215118Y-15257170D01*
X8310918Y-15352970D01*
X8246000Y-15509694D01*
X8246000Y-15690306D01*
X8315118Y-15857170D01*
X8442830Y-15984882D01*
X8609694Y-16054000D01*
X8680724Y-16054000D01*
X8663724Y-16071000D01*
X8313052Y-16071000D01*
X8257170Y-16015118D01*
X8090306Y-15946000D01*
X7909694Y-15946000D01*
X7742830Y-16015118D01*
X7615118Y-16142830D01*
X7546000Y-16309694D01*
X354000Y-16309694D01*
X354000Y-15109694D01*
X5346000Y-15109694D01*
X5346000Y-15290306D01*
X5415118Y-15457170D01*
X5542830Y-15584882D01*
X5709694Y-15654000D01*
X5890306Y-15654000D01*
X6057170Y-15584882D01*
X6184882Y-15457170D01*
X6216973Y-15379694D01*
X6546000Y-15379694D01*
X6546000Y-15560306D01*
X6615118Y-15727170D01*
X6742830Y-15854882D01*
X6909694Y-15924000D01*
X7090306Y-15924000D01*
X7257170Y-15854882D01*
X7384882Y-15727170D01*
X7454000Y-15560306D01*
X7454000Y-15379694D01*
X7384882Y-15212830D01*
X7257170Y-15085118D01*
X7090306Y-15016000D01*
X6909694Y-15016000D01*
X6742830Y-15085118D01*
X6615118Y-15212830D01*
X6546000Y-15379694D01*
X6216973Y-15379694D01*
X6254000Y-15290306D01*
X6254000Y-15109694D01*
X6184882Y-14942830D01*
X6057170Y-14815118D01*
X5890306Y-14746000D01*
X5709694Y-14746000D01*
X5542830Y-14815118D01*
X5415118Y-14942830D01*
X5346000Y-15109694D01*
X354000Y-15109694D01*
X354000Y-11759694D01*
X4946000Y-11759694D01*
X4946000Y-11940306D01*
X5015118Y-12107170D01*
X5142830Y-12234882D01*
X5309694Y-12304000D01*
X5490306Y-12304000D01*
X5657170Y-12234882D01*
X5784882Y-12107170D01*
X5854000Y-11940306D01*
X5854000Y-11759694D01*
X5784882Y-11592830D01*
X5657170Y-11465118D01*
X5490306Y-11396000D01*
X5309694Y-11396000D01*
X5142830Y-11465118D01*
X5015118Y-11592830D01*
X4946000Y-11759694D01*
X354000Y-11759694D01*
X354000Y-9909694D01*
X8596000Y-9909694D01*
X8596000Y-10090306D01*
X8665118Y-10257170D01*
X8792830Y-10384882D01*
X8959694Y-10454000D01*
X9140306Y-10454000D01*
X9307170Y-10384882D01*
X9434882Y-10257170D01*
X9504000Y-10090306D01*
X9504000Y-9909694D01*
X9434882Y-9742830D01*
X9307170Y-9615118D01*
X9140306Y-9546000D01*
X8959694Y-9546000D01*
X8792830Y-9615118D01*
X8665118Y-9742830D01*
X8596000Y-9909694D01*
X354000Y-9909694D01*
X354000Y-354000D01*
X49646000Y-354000D01*
X49646001Y-39171572D01*
G04 #@! TD*
M02*
