G04 #@! TF.GenerationSoftware,KiCad,Pcbnew,5.0.1-33cea8e~68~ubuntu16.04.1*
G04 #@! TF.CreationDate,2018-12-19T12:21:55-05:00*
G04 #@! TF.ProjectId,SmallKat Battery Charger,536D616C6C4B61742042617474657279,rev?*
G04 #@! TF.SameCoordinates,Original*
G04 #@! TF.FileFunction,Legend,Bot*
G04 #@! TF.FilePolarity,Positive*
%FSLAX46Y46*%
G04 Gerber Fmt 4.6, Leading zero omitted, Abs format (unit mm)*
G04 Created by KiCad (PCBNEW 5.0.1-33cea8e~68~ubuntu16.04.1) date Wed 19 Dec 2018 12:21:55 PM EST*
%MOMM*%
%LPD*%
G01*
G04 APERTURE LIST*
%ADD10C,0.150000*%
%ADD11C,0.300000*%
%ADD12C,0.120000*%
%ADD13C,0.100000*%
G04 APERTURE END LIST*
D10*
X45657142Y-4578571D02*
X45514285Y-4626190D01*
X45466666Y-4673809D01*
X45419047Y-4769047D01*
X45419047Y-4911904D01*
X45466666Y-5007142D01*
X45514285Y-5054761D01*
X45609523Y-5102380D01*
X45990476Y-5102380D01*
X45990476Y-4102380D01*
X45657142Y-4102380D01*
X45561904Y-4150000D01*
X45514285Y-4197619D01*
X45466666Y-4292857D01*
X45466666Y-4388095D01*
X45514285Y-4483333D01*
X45561904Y-4530952D01*
X45657142Y-4578571D01*
X45990476Y-4578571D01*
X44561904Y-5102380D02*
X44561904Y-4578571D01*
X44609523Y-4483333D01*
X44704761Y-4435714D01*
X44895238Y-4435714D01*
X44990476Y-4483333D01*
X44561904Y-5054761D02*
X44657142Y-5102380D01*
X44895238Y-5102380D01*
X44990476Y-5054761D01*
X45038095Y-4959523D01*
X45038095Y-4864285D01*
X44990476Y-4769047D01*
X44895238Y-4721428D01*
X44657142Y-4721428D01*
X44561904Y-4673809D01*
X44228571Y-4435714D02*
X43847619Y-4435714D01*
X44085714Y-4102380D02*
X44085714Y-4959523D01*
X44038095Y-5054761D01*
X43942857Y-5102380D01*
X43847619Y-5102380D01*
X43657142Y-4435714D02*
X43276190Y-4435714D01*
X43514285Y-4102380D02*
X43514285Y-4959523D01*
X43466666Y-5054761D01*
X43371428Y-5102380D01*
X43276190Y-5102380D01*
X42561904Y-5054761D02*
X42657142Y-5102380D01*
X42847619Y-5102380D01*
X42942857Y-5054761D01*
X42990476Y-4959523D01*
X42990476Y-4578571D01*
X42942857Y-4483333D01*
X42847619Y-4435714D01*
X42657142Y-4435714D01*
X42561904Y-4483333D01*
X42514285Y-4578571D01*
X42514285Y-4673809D01*
X42990476Y-4769047D01*
X42085714Y-5102380D02*
X42085714Y-4435714D01*
X42085714Y-4626190D02*
X42038095Y-4530952D01*
X41990476Y-4483333D01*
X41895238Y-4435714D01*
X41800000Y-4435714D01*
X41561904Y-4435714D02*
X41323809Y-5102380D01*
X41085714Y-4435714D02*
X41323809Y-5102380D01*
X41419047Y-5340476D01*
X41466666Y-5388095D01*
X41561904Y-5435714D01*
X39371428Y-5007142D02*
X39419047Y-5054761D01*
X39561904Y-5102380D01*
X39657142Y-5102380D01*
X39800000Y-5054761D01*
X39895238Y-4959523D01*
X39942857Y-4864285D01*
X39990476Y-4673809D01*
X39990476Y-4530952D01*
X39942857Y-4340476D01*
X39895238Y-4245238D01*
X39800000Y-4150000D01*
X39657142Y-4102380D01*
X39561904Y-4102380D01*
X39419047Y-4150000D01*
X39371428Y-4197619D01*
X38942857Y-5102380D02*
X38942857Y-4102380D01*
X38514285Y-5102380D02*
X38514285Y-4578571D01*
X38561904Y-4483333D01*
X38657142Y-4435714D01*
X38800000Y-4435714D01*
X38895238Y-4483333D01*
X38942857Y-4530952D01*
X37609523Y-5102380D02*
X37609523Y-4578571D01*
X37657142Y-4483333D01*
X37752380Y-4435714D01*
X37942857Y-4435714D01*
X38038095Y-4483333D01*
X37609523Y-5054761D02*
X37704761Y-5102380D01*
X37942857Y-5102380D01*
X38038095Y-5054761D01*
X38085714Y-4959523D01*
X38085714Y-4864285D01*
X38038095Y-4769047D01*
X37942857Y-4721428D01*
X37704761Y-4721428D01*
X37609523Y-4673809D01*
X37133333Y-5102380D02*
X37133333Y-4435714D01*
X37133333Y-4626190D02*
X37085714Y-4530952D01*
X37038095Y-4483333D01*
X36942857Y-4435714D01*
X36847619Y-4435714D01*
X36085714Y-4435714D02*
X36085714Y-5245238D01*
X36133333Y-5340476D01*
X36180952Y-5388095D01*
X36276190Y-5435714D01*
X36419047Y-5435714D01*
X36514285Y-5388095D01*
X36085714Y-5054761D02*
X36180952Y-5102380D01*
X36371428Y-5102380D01*
X36466666Y-5054761D01*
X36514285Y-5007142D01*
X36561904Y-4911904D01*
X36561904Y-4626190D01*
X36514285Y-4530952D01*
X36466666Y-4483333D01*
X36371428Y-4435714D01*
X36180952Y-4435714D01*
X36085714Y-4483333D01*
X35228571Y-5054761D02*
X35323809Y-5102380D01*
X35514285Y-5102380D01*
X35609523Y-5054761D01*
X35657142Y-4959523D01*
X35657142Y-4578571D01*
X35609523Y-4483333D01*
X35514285Y-4435714D01*
X35323809Y-4435714D01*
X35228571Y-4483333D01*
X35180952Y-4578571D01*
X35180952Y-4673809D01*
X35657142Y-4769047D01*
X34752380Y-5102380D02*
X34752380Y-4435714D01*
X34752380Y-4626190D02*
X34704761Y-4530952D01*
X34657142Y-4483333D01*
X34561904Y-4435714D01*
X34466666Y-4435714D01*
D11*
X48014285Y-3207142D02*
X47800000Y-3278571D01*
X47442857Y-3278571D01*
X47300000Y-3207142D01*
X47228571Y-3135714D01*
X47157142Y-2992857D01*
X47157142Y-2850000D01*
X47228571Y-2707142D01*
X47300000Y-2635714D01*
X47442857Y-2564285D01*
X47728571Y-2492857D01*
X47871428Y-2421428D01*
X47942857Y-2350000D01*
X48014285Y-2207142D01*
X48014285Y-2064285D01*
X47942857Y-1921428D01*
X47871428Y-1850000D01*
X47728571Y-1778571D01*
X47371428Y-1778571D01*
X47157142Y-1850000D01*
X46514285Y-3278571D02*
X46514285Y-2278571D01*
X46514285Y-2421428D02*
X46442857Y-2350000D01*
X46300000Y-2278571D01*
X46085714Y-2278571D01*
X45942857Y-2350000D01*
X45871428Y-2492857D01*
X45871428Y-3278571D01*
X45871428Y-2492857D02*
X45800000Y-2350000D01*
X45657142Y-2278571D01*
X45442857Y-2278571D01*
X45300000Y-2350000D01*
X45228571Y-2492857D01*
X45228571Y-3278571D01*
X43871428Y-3278571D02*
X43871428Y-2492857D01*
X43942857Y-2350000D01*
X44085714Y-2278571D01*
X44371428Y-2278571D01*
X44514285Y-2350000D01*
X43871428Y-3207142D02*
X44014285Y-3278571D01*
X44371428Y-3278571D01*
X44514285Y-3207142D01*
X44585714Y-3064285D01*
X44585714Y-2921428D01*
X44514285Y-2778571D01*
X44371428Y-2707142D01*
X44014285Y-2707142D01*
X43871428Y-2635714D01*
X42942857Y-3278571D02*
X43085714Y-3207142D01*
X43157142Y-3064285D01*
X43157142Y-1778571D01*
X42157142Y-3278571D02*
X42300000Y-3207142D01*
X42371428Y-3064285D01*
X42371428Y-1778571D01*
X41585714Y-3278571D02*
X41585714Y-1778571D01*
X40728571Y-3278571D02*
X41371428Y-2421428D01*
X40728571Y-1778571D02*
X41585714Y-2635714D01*
X39442857Y-3278571D02*
X39442857Y-2492857D01*
X39514285Y-2350000D01*
X39657142Y-2278571D01*
X39942857Y-2278571D01*
X40085714Y-2350000D01*
X39442857Y-3207142D02*
X39585714Y-3278571D01*
X39942857Y-3278571D01*
X40085714Y-3207142D01*
X40157142Y-3064285D01*
X40157142Y-2921428D01*
X40085714Y-2778571D01*
X39942857Y-2707142D01*
X39585714Y-2707142D01*
X39442857Y-2635714D01*
X38942857Y-2278571D02*
X38371428Y-2278571D01*
X38728571Y-1778571D02*
X38728571Y-3064285D01*
X38657142Y-3207142D01*
X38514285Y-3278571D01*
X38371428Y-3278571D01*
X36728571Y-3278571D02*
X36728571Y-1778571D01*
X36228571Y-2850000D01*
X35728571Y-1778571D01*
X35728571Y-3278571D01*
X34014285Y-3421428D02*
X34157142Y-3350000D01*
X34300000Y-3207142D01*
X34514285Y-2992857D01*
X34657142Y-2921428D01*
X34800000Y-2921428D01*
X34728571Y-3278571D02*
X34871428Y-3207142D01*
X35014285Y-3064285D01*
X35085714Y-2778571D01*
X35085714Y-2278571D01*
X35014285Y-1992857D01*
X34871428Y-1850000D01*
X34728571Y-1778571D01*
X34442857Y-1778571D01*
X34300000Y-1850000D01*
X34157142Y-1992857D01*
X34085714Y-2278571D01*
X34085714Y-2778571D01*
X34157142Y-3064285D01*
X34300000Y-3207142D01*
X34442857Y-3278571D01*
X34728571Y-3278571D01*
X33442857Y-3278571D02*
X33442857Y-1778571D01*
X32871428Y-1778571D01*
X32728571Y-1850000D01*
X32657142Y-1921428D01*
X32585714Y-2064285D01*
X32585714Y-2278571D01*
X32657142Y-2421428D01*
X32728571Y-2492857D01*
X32871428Y-2564285D01*
X33442857Y-2564285D01*
D10*
G04 #@! TO.C,U1*
X10300000Y-12900000D02*
X7300000Y-12900000D01*
X7300000Y-12900000D02*
X7300000Y-9300000D01*
X7300000Y-9300000D02*
X10500000Y-9300000D01*
X10500000Y-9300000D02*
X10500000Y-12900000D01*
X10500000Y-12900000D02*
X10300000Y-12900000D01*
D12*
G04 #@! TO.C,D1*
X5660000Y-18720000D02*
X4200000Y-18720000D01*
X5660000Y-21880000D02*
X3500000Y-21880000D01*
X5660000Y-21880000D02*
X5660000Y-20950000D01*
X5660000Y-18720000D02*
X5660000Y-19650000D01*
G04 #@! TO.C,D2*
X11040000Y-23780000D02*
X11040000Y-22850000D01*
X11040000Y-20620000D02*
X11040000Y-21550000D01*
X11040000Y-20620000D02*
X13200000Y-20620000D01*
X11040000Y-23780000D02*
X12500000Y-23780000D01*
G04 #@! TO.C,U2*
X14235000Y-36310000D02*
X14710000Y-36310000D01*
X14710000Y-36310000D02*
X14710000Y-35835000D01*
X9965000Y-31090000D02*
X9490000Y-31090000D01*
X9490000Y-31090000D02*
X9490000Y-31565000D01*
X14235000Y-31090000D02*
X14710000Y-31090000D01*
X14710000Y-31090000D02*
X14710000Y-31565000D01*
X9965000Y-36310000D02*
X9490000Y-36310000D01*
D10*
G04 #@! TO.C,U3*
X9375000Y-13775000D02*
X9375000Y-17425000D01*
X13025000Y-13775000D02*
X13025000Y-17425000D01*
X13025000Y-17425000D02*
X13025000Y-13775000D01*
X9375000Y-17425000D02*
X9375000Y-13775000D01*
X9400000Y-13800000D02*
X13000000Y-13800000D01*
X9400000Y-17400000D02*
X13000000Y-17400000D01*
D12*
G04 #@! TO.C,U6*
X3750519Y-27068715D02*
X5550519Y-27068715D01*
X5550519Y-30288715D02*
X3100519Y-30288715D01*
G04 #@! TO.C,R7*
X6402064Y-16190000D02*
X5197936Y-16190000D01*
X6402064Y-18010000D02*
X5197936Y-18010000D01*
G04 #@! TO.C,U1*
D13*
X19460000Y-10980000D02*
X19460000Y-10980000D01*
X19460000Y-10980000D01*
X19460000Y-10980000D01*
X19460000Y-10980000D01*
X19460000Y-10980000D01*
X19460000Y-10980000D01*
X19460000Y-10980000D01*
X19460000Y-10980000D01*
X19460000Y-10980000D01*
X19460000Y-10980000D02*
X19460000Y-10980000D01*
X19460000Y-10980000D02*
X19460000Y-10980000D01*
X19460000Y-10980000D01*
X19460000Y-10980000D01*
X19460000Y-10980000D01*
D10*
G04 #@! TO.C,C1*
D13*
X12270000Y-11815000D02*
X12270000Y-11815000D01*
X12270000Y-11815000D01*
X12270000Y-11815000D01*
X12270000Y-11815000D01*
X12270000Y-11815000D01*
X12270000Y-11815000D01*
X12270000Y-11815000D01*
X12270000Y-11815000D01*
X12270000Y-11815000D01*
X12270000Y-11815000D01*
X12270000Y-11815000D01*
X12270000Y-11815000D01*
X12270000Y-11815000D01*
X12270000Y-11815000D01*
X12270000Y-11815000D01*
X12270000Y-11815000D02*
X12270000Y-11815000D01*
X12270000Y-11815000D02*
X12270000Y-11815000D01*
X12270000Y-11815000D01*
X12270000Y-11815000D01*
X12270000Y-11815000D01*
D10*
G04 #@! TO.C,C2*
D13*
X11870000Y-19315000D02*
X11870000Y-19315000D01*
X11870000Y-19315000D01*
X11870000Y-19315000D01*
X11870000Y-19315000D01*
X11870000Y-19315000D01*
X11870000Y-19315000D01*
X11870000Y-19315000D01*
X11870000Y-19315000D01*
X11870000Y-19315000D01*
X11870000Y-19315000D01*
X11870000Y-19315000D01*
X11870000Y-19315000D01*
X11870000Y-19315000D01*
X11870000Y-19315000D01*
X11870000Y-19315000D01*
X11870000Y-19315000D02*
X11870000Y-19315000D01*
X11870000Y-19315000D01*
X11870000Y-19315000D01*
X11870000Y-19315000D01*
X11870000Y-19315000D01*
X11870000Y-19315000D01*
X11870000Y-19315000D01*
X11870000Y-19315000D01*
X11870000Y-19315000D01*
X11870000Y-19315000D01*
D10*
G04 #@! TO.C,C3*
D13*
X14600000Y-20030000D02*
X14600000Y-20030000D01*
X14600000Y-20030000D01*
X14600000Y-20030000D01*
X14600000Y-20030000D01*
X14600000Y-20030000D01*
X14600000Y-20030000D01*
X14600000Y-20030000D01*
X14600000Y-20030000D01*
X14600000Y-20030000D01*
X14600000Y-20030000D01*
X14600000Y-20030000D01*
X14600000Y-20030000D01*
X14600000Y-20030000D01*
X14600000Y-20030000D01*
X14600000Y-20030000D01*
X14600000Y-20030000D02*
X14600000Y-20030000D01*
X14600000Y-20030000D01*
X14600000Y-20030000D01*
X14600000Y-20030000D01*
X14600000Y-20030000D01*
X14600000Y-20030000D01*
X14600000Y-20030000D01*
X14600000Y-20030000D01*
X14600000Y-20030000D01*
X14600000Y-20030000D01*
X14600000Y-20030000D01*
X14600000Y-20030000D01*
X14600000Y-20030000D01*
D10*
G04 #@! TO.C,D1*
D13*
X4900000Y-22800000D02*
X4900000Y-22800000D01*
X4900000Y-22800000D01*
X4900000Y-22800000D01*
X4900000Y-22800000D01*
X4900000Y-22800000D01*
X4900000Y-22800000D01*
X4900000Y-22800000D01*
X4900000Y-22800000D01*
X4900000Y-22800000D01*
X4900000Y-22800000D01*
X4900000Y-22800000D01*
X4900000Y-22800000D01*
X4900000Y-22800000D02*
X4900000Y-22800000D01*
X4900000Y-22800000D02*
X4900000Y-22800000D01*
X4900000Y-22800000D01*
X4900000Y-22800000D01*
X4900000Y-22800000D01*
D10*
G04 #@! TO.C,D2*
D13*
X11800000Y-19700000D02*
X11800000Y-19700000D01*
X11800000Y-19700000D01*
X11800000Y-19700000D01*
X11800000Y-19700000D01*
X11800000Y-19700000D01*
X11800000Y-19700000D01*
X11800000Y-19700000D01*
X11800000Y-19700000D01*
X11800000Y-19700000D01*
X11800000Y-19700000D01*
X11800000Y-19700000D01*
X11800000Y-19700000D01*
X11800000Y-19700000D02*
X11800000Y-19700000D01*
X11800000Y-19700000D01*
X11800000Y-19700000D01*
X11800000Y-19700000D01*
X11800000Y-19700000D01*
X11800000Y-19700000D01*
X11800000Y-19700000D01*
X11800000Y-19700000D01*
X11800000Y-19700000D01*
X11800000Y-19700000D01*
D10*
G04 #@! TO.C,R1*
D13*
X10285000Y-36330000D02*
X10285000Y-36330000D01*
X10285000Y-36330000D02*
X10285000Y-36330000D01*
X10285000Y-36330000D01*
X10285000Y-36330000D01*
X10285000Y-36330000D01*
X10285000Y-36330000D01*
X10285000Y-36330000D01*
X10285000Y-36330000D01*
X10285000Y-36330000D01*
X10285000Y-36330000D01*
X10285000Y-36330000D01*
X10285000Y-36330000D02*
X10285000Y-36330000D01*
X10285000Y-36330000D02*
X10285000Y-36330000D01*
X10285000Y-36330000D01*
X10285000Y-36330000D01*
X10285000Y-36330000D01*
D10*
G04 #@! TO.C,R4*
D13*
X9170000Y-15000000D02*
X9170000Y-15000000D01*
X9170000Y-15000000D02*
X9170000Y-15000000D01*
X9170000Y-15000000D01*
X9170000Y-15000000D01*
X9170000Y-15000000D01*
X9170000Y-15000000D01*
X9170000Y-15000000D01*
X9170000Y-15000000D01*
X9170000Y-15000000D01*
X9170000Y-15000000D01*
X9170000Y-15000000D01*
X9170000Y-15000000D02*
X9170000Y-15000000D01*
X9170000Y-15000000D02*
X9170000Y-15000000D01*
X9170000Y-15000000D01*
D10*
G04 #@! TO.C,R6*
D13*
X8170000Y-14985000D02*
X8170000Y-14985000D01*
X8170000Y-14985000D02*
X8170000Y-14985000D01*
X8170000Y-14985000D01*
X8170000Y-14985000D01*
X8170000Y-14985000D01*
X8170000Y-14985000D01*
X8170000Y-14985000D01*
X8170000Y-14985000D01*
X8170000Y-14985000D01*
X8170000Y-14985000D01*
X8170000Y-14985000D01*
X8170000Y-14985000D02*
X8170000Y-14985000D01*
X8170000Y-14985000D01*
X8170000Y-14985000D01*
X8170000Y-14985000D01*
X8170000Y-14985000D01*
X8170000Y-14985000D01*
X8170000Y-14985000D01*
X8170000Y-14985000D01*
X8170000Y-14985000D01*
X8170000Y-14985000D01*
X8170000Y-14985000D01*
X8170000Y-14985000D01*
X8170000Y-14985000D01*
X8170000Y-14985000D01*
X8170000Y-14985000D01*
X8170000Y-14985000D01*
X8170000Y-14985000D01*
X8170000Y-14985000D01*
X8170000Y-14985000D01*
X8170000Y-14985000D01*
X8170000Y-14985000D01*
D10*
G04 #@! TO.C,R9*
D13*
X12970000Y-19315000D02*
X12970000Y-19315000D01*
X12970000Y-19315000D02*
X12970000Y-19315000D01*
X12970000Y-19315000D01*
X12970000Y-19315000D01*
X12970000Y-19315000D01*
X12970000Y-19315000D01*
X12970000Y-19315000D01*
X12970000Y-19315000D01*
X12970000Y-19315000D01*
X12970000Y-19315000D01*
X12970000Y-19315000D01*
X12970000Y-19315000D02*
X12970000Y-19315000D01*
X12970000Y-19315000D01*
X12970000Y-19315000D01*
X12970000Y-19315000D01*
X12970000Y-19315000D01*
X12970000Y-19315000D01*
X12970000Y-19315000D01*
X12970000Y-19315000D01*
X12970000Y-19315000D01*
X12970000Y-19315000D01*
X12970000Y-19315000D01*
X12970000Y-19315000D01*
X12970000Y-19315000D01*
X12970000Y-19315000D01*
X12970000Y-19315000D01*
X12970000Y-19315000D01*
X12970000Y-19315000D01*
X12970000Y-19315000D01*
X12970000Y-19315000D01*
X12970000Y-19315000D01*
X12970000Y-19315000D01*
D10*
G04 #@! TO.C,R13*
D13*
X11230000Y-12100000D02*
X11230000Y-12100000D01*
X11230000Y-12100000D02*
X11230000Y-12100000D01*
X11230000Y-12100000D01*
X11230000Y-12100000D01*
X11230000Y-12100000D01*
X11230000Y-12100000D01*
X11230000Y-12100000D01*
X11230000Y-12100000D01*
X11230000Y-12100000D01*
X11230000Y-12100000D01*
X11230000Y-12100000D01*
X11230000Y-12100000D02*
X11230000Y-12100000D01*
X11230000Y-12100000D02*
X11230000Y-12100000D01*
X11230000Y-12100000D01*
X11230000Y-12100000D01*
X11230000Y-12100000D01*
X11230000Y-12100000D02*
X11230000Y-12100000D01*
X11230000Y-12100000D01*
X11230000Y-12100000D01*
X11230000Y-12100000D01*
X11230000Y-12100000D01*
X11230000Y-12100000D01*
X11230000Y-12100000D01*
X11230000Y-12100000D01*
X11230000Y-12100000D01*
X11230000Y-12100000D01*
X11230000Y-12100000D01*
X11230000Y-12100000D01*
X11230000Y-12100000D01*
D10*
G04 #@! TO.C,R14*
D13*
X7230000Y-27585000D02*
X7230000Y-27585000D01*
X7230000Y-27585000D02*
X7230000Y-27585000D01*
X7230000Y-27585000D01*
X7230000Y-27585000D01*
X7230000Y-27585000D01*
X7230000Y-27585000D01*
X7230000Y-27585000D01*
X7230000Y-27585000D01*
X7230000Y-27585000D01*
X7230000Y-27585000D01*
X7230000Y-27585000D01*
X7230000Y-27585000D02*
X7230000Y-27585000D01*
X7230000Y-27585000D02*
X7230000Y-27585000D01*
X7230000Y-27585000D01*
X7230000Y-27585000D01*
X7230000Y-27585000D01*
X7230000Y-27585000D02*
X7230000Y-27585000D01*
X7230000Y-27585000D02*
X7230000Y-27585000D01*
X7230000Y-27585000D01*
D10*
G04 #@! TO.C,R15*
D13*
X7230000Y-29485000D02*
X7230000Y-29485000D01*
X7230000Y-29485000D02*
X7230000Y-29485000D01*
X7230000Y-29485000D01*
X7230000Y-29485000D01*
X7230000Y-29485000D01*
X7230000Y-29485000D01*
X7230000Y-29485000D01*
X7230000Y-29485000D01*
X7230000Y-29485000D01*
X7230000Y-29485000D01*
X7230000Y-29485000D01*
X7230000Y-29485000D02*
X7230000Y-29485000D01*
X7230000Y-29485000D02*
X7230000Y-29485000D01*
X7230000Y-29485000D01*
X7230000Y-29485000D01*
X7230000Y-29485000D01*
X7230000Y-29485000D02*
X7230000Y-29485000D01*
X7230000Y-29485000D01*
X7230000Y-29485000D01*
X7230000Y-29485000D01*
X7230000Y-29485000D01*
X7230000Y-29485000D01*
X7230000Y-29485000D01*
X7230000Y-29485000D01*
X7230000Y-29485000D01*
X7230000Y-29485000D01*
X7230000Y-29485000D01*
X7230000Y-29485000D01*
X7230000Y-29485000D01*
X7230000Y-29485000D01*
X7230000Y-29485000D01*
D10*
G04 #@! TO.C,U2*
D13*
X12100000Y-37520000D02*
X12100000Y-37520000D01*
X12100000Y-37520000D01*
X12100000Y-37520000D01*
X12100000Y-37520000D01*
X12100000Y-37520000D01*
X12100000Y-37520000D01*
X12100000Y-37520000D01*
X12100000Y-37520000D01*
X12100000Y-37520000D01*
X12100000Y-37520000D02*
X12100000Y-37520000D01*
X12100000Y-37520000D01*
X12100000Y-37520000D01*
X12100000Y-37520000D01*
X12100000Y-37520000D01*
X12100000Y-37520000D01*
X12100000Y-37520000D01*
X12100000Y-37520000D01*
X12100000Y-37520000D01*
X12100000Y-37520000D01*
D10*
G04 #@! TO.C,U3*
D13*
X4800000Y-15600000D02*
X4800000Y-15600000D01*
X4800000Y-15600000D01*
X4800000Y-15600000D01*
X4800000Y-15600000D01*
X4800000Y-15600000D01*
X4800000Y-15600000D01*
X4800000Y-15600000D01*
X4800000Y-15600000D01*
X4800000Y-15600000D01*
X4800000Y-15600000D02*
X4800000Y-15600000D01*
X4800000Y-15600000D01*
X4800000Y-15600000D01*
X4800000Y-15600000D01*
X4800000Y-15600000D01*
X4800000Y-15600000D01*
X4800000Y-15600000D01*
X4800000Y-15600000D01*
X4800000Y-15600000D01*
X4800000Y-15600000D01*
X4800000Y-15600000D01*
X4800000Y-15600000D01*
X4800000Y-15600000D01*
D10*
G04 #@! TO.C,C13*
D13*
X3770000Y-13400000D02*
X3770000Y-13400000D01*
X3770000Y-13400000D01*
X3770000Y-13400000D01*
X3770000Y-13400000D01*
X3770000Y-13400000D01*
X3770000Y-13400000D01*
X3770000Y-13400000D01*
X3770000Y-13400000D01*
X3770000Y-13400000D01*
X3770000Y-13400000D01*
X3770000Y-13400000D01*
X3770000Y-13400000D01*
X3770000Y-13400000D01*
X3770000Y-13400000D01*
X3770000Y-13400000D01*
X3770000Y-13400000D02*
X3770000Y-13400000D01*
X3770000Y-13400000D02*
X3770000Y-13400000D01*
X3770000Y-13400000D01*
X3770000Y-13400000D01*
X3770000Y-13400000D01*
X3770000Y-13400000D02*
X3770000Y-13400000D01*
X3770000Y-13400000D01*
X3770000Y-13400000D01*
X3770000Y-13400000D01*
X3770000Y-13400000D01*
X3770000Y-13400000D01*
X3770000Y-13400000D01*
X3770000Y-13400000D01*
X3770000Y-13400000D01*
X3770000Y-13400000D01*
X3770000Y-13400000D01*
X3770000Y-13400000D01*
X3770000Y-13400000D01*
D10*
G04 #@! TO.C,C14*
D13*
X7170519Y-31578715D02*
X7170519Y-31578715D01*
X7170519Y-31578715D01*
X7170519Y-31578715D01*
X7170519Y-31578715D01*
X7170519Y-31578715D01*
X7170519Y-31578715D01*
X7170519Y-31578715D01*
X7170519Y-31578715D01*
X7170519Y-31578715D01*
X7170519Y-31578715D01*
X7170519Y-31578715D01*
X7170519Y-31578715D01*
X7170519Y-31578715D01*
X7170519Y-31578715D01*
X7170519Y-31578715D01*
X7170519Y-31578715D02*
X7170519Y-31578715D01*
X7170519Y-31578715D02*
X7170519Y-31578715D01*
X7170519Y-31578715D01*
X7170519Y-31578715D01*
X7170519Y-31578715D01*
X7170519Y-31578715D02*
X7170519Y-31578715D01*
X7170519Y-31578715D02*
X7170519Y-31578715D01*
X7170519Y-31578715D01*
D10*
G04 #@! TO.C,C15*
D13*
X4770519Y-31528715D02*
X4770519Y-31528715D01*
X4770519Y-31528715D01*
X4770519Y-31528715D01*
X4770519Y-31528715D01*
X4770519Y-31528715D01*
X4770519Y-31528715D01*
X4770519Y-31528715D01*
X4770519Y-31528715D01*
X4770519Y-31528715D01*
X4770519Y-31528715D01*
X4770519Y-31528715D01*
X4770519Y-31528715D01*
X4770519Y-31528715D01*
X4770519Y-31528715D01*
X4770519Y-31528715D01*
X4770519Y-31528715D02*
X4770519Y-31528715D01*
X4770519Y-31528715D02*
X4770519Y-31528715D01*
X4770519Y-31528715D01*
X4770519Y-31528715D01*
X4770519Y-31528715D01*
X4770519Y-31528715D02*
X4770519Y-31528715D01*
X4770519Y-31528715D01*
X4770519Y-31528715D01*
X4770519Y-31528715D01*
X4770519Y-31528715D01*
X4770519Y-31528715D01*
X4770519Y-31528715D01*
X4770519Y-31528715D01*
X4770519Y-31528715D01*
X4770519Y-31528715D01*
X4770519Y-31528715D01*
X4770519Y-31528715D01*
X4770519Y-31528715D01*
X4770519Y-31528715D01*
X4770519Y-31528715D01*
D10*
G04 #@! TO.C,C16*
D13*
X1430000Y-15515000D02*
X1430000Y-15515000D01*
X1430000Y-15515000D01*
X1430000Y-15515000D01*
X1430000Y-15515000D01*
X1430000Y-15515000D01*
X1430000Y-15515000D01*
X1430000Y-15515000D01*
X1430000Y-15515000D01*
X1430000Y-15515000D01*
X1430000Y-15515000D01*
X1430000Y-15515000D01*
X1430000Y-15515000D01*
X1430000Y-15515000D01*
X1430000Y-15515000D01*
X1430000Y-15515000D01*
X1430000Y-15515000D02*
X1430000Y-15515000D01*
X1430000Y-15515000D02*
X1430000Y-15515000D01*
X1430000Y-15515000D01*
X1430000Y-15515000D01*
X1430000Y-15515000D01*
X1430000Y-15515000D02*
X1430000Y-15515000D01*
X1430000Y-15515000D01*
X1430000Y-15515000D01*
X1430000Y-15515000D01*
X1430000Y-15515000D01*
X1430000Y-15515000D01*
X1430000Y-15515000D01*
X1430000Y-15515000D01*
X1430000Y-15515000D01*
X1430000Y-15515000D01*
X1430000Y-15515000D01*
X1430000Y-15515000D01*
X1430000Y-15515000D01*
X1430000Y-15515000D01*
X1430000Y-15515000D01*
X1430000Y-15515000D01*
X1430000Y-15515000D01*
X1430000Y-15515000D01*
X1430000Y-15515000D01*
X1430000Y-15515000D01*
X1430000Y-15515000D01*
D10*
G04 #@! TO.C,U6*
D13*
X4650519Y-31578715D02*
X4650519Y-31578715D01*
X4650519Y-31578715D01*
X4650519Y-31578715D01*
X4650519Y-31578715D01*
X4650519Y-31578715D01*
X4650519Y-31578715D01*
X4650519Y-31578715D01*
X4650519Y-31578715D01*
X4650519Y-31578715D01*
X4650519Y-31578715D02*
X4650519Y-31578715D01*
X4650519Y-31578715D01*
X4650519Y-31578715D01*
X4650519Y-31578715D01*
X4650519Y-31578715D01*
X4650519Y-31578715D01*
X4650519Y-31578715D01*
X4650519Y-31578715D01*
X4650519Y-31578715D01*
X4650519Y-31578715D01*
X4650519Y-31578715D01*
X4650519Y-31578715D01*
X4650519Y-31578715D01*
X4650519Y-31578715D01*
X4650519Y-31578715D01*
X4650519Y-31578715D01*
X4650519Y-31578715D01*
X4650519Y-31578715D01*
X4650519Y-31578715D01*
X4650519Y-31578715D01*
X4650519Y-31578715D01*
D10*
G04 #@! TO.C,R7*
X5966666Y-15732380D02*
X6300000Y-15256190D01*
X6538095Y-15732380D02*
X6538095Y-14732380D01*
X6157142Y-14732380D01*
X6061904Y-14780000D01*
X6014285Y-14827619D01*
X5966666Y-14922857D01*
X5966666Y-15065714D01*
X6014285Y-15160952D01*
X6061904Y-15208571D01*
X6157142Y-15256190D01*
X6538095Y-15256190D01*
X5633333Y-14732380D02*
X4966666Y-14732380D01*
X5395238Y-15732380D01*
G04 #@! TD*
M02*
